<svg width="93" height="160" viewBox="0 0 93 160" fill="none" xmlns="http://www.w3.org/2000/svg">
<path d="M34.0617 160C34.6425 160 35.1132 159.626 35.1132 159.165C35.1132 158.704 34.6425 158.33 34.0617 158.33C33.481 158.33 33.0103 158.704 33.0103 159.165C33.0103 159.626 33.481 160 34.0617 160Z" fill="white"/>
<path d="M38.6884 155.826C39.109 156.104 39.109 156.661 38.6884 156.939C38.2678 157.217 37.6369 157.217 37.2163 156.939C36.7957 156.661 36.7957 156.104 37.2163 155.826C37.6369 155.27 38.2678 155.27 38.6884 155.826Z" fill="white"/>
<path d="M42.4737 152.765C42.8943 153.043 42.8943 153.6 42.4737 153.878C42.0531 154.156 41.4222 154.156 41.0016 153.878C40.581 153.6 40.581 153.043 41.0016 152.765C41.4222 152.487 42.2634 152.487 42.4737 152.765Z" fill="white"/>
<path d="M46.4694 149.704C46.89 149.983 46.89 150.539 46.4694 150.817C46.0488 151.096 45.4179 151.096 44.9973 150.817C44.5767 150.539 44.5767 149.983 44.9973 149.704C45.4179 149.426 46.0488 149.426 46.4694 149.704Z" fill="white"/>
<path d="M50.2547 146.922C50.6753 147.2 50.6753 147.756 50.2547 148.035C49.8341 148.313 49.2032 148.313 48.7826 148.035C48.362 147.756 48.362 147.2 48.7826 146.922C49.2032 146.643 49.8341 146.643 50.2547 146.922Z" fill="white"/>
<path d="M54.0401 143.861C54.4607 144.139 54.4607 144.696 54.0401 144.974C53.6195 145.252 52.9886 145.252 52.568 144.974C52.1474 144.696 52.1474 144.139 52.568 143.861C52.9886 143.583 53.6195 143.583 54.0401 143.861Z" fill="white"/>
<path d="M58.0358 141.078C58.4564 141.357 58.4564 141.913 58.0358 142.191C57.6152 142.47 56.9843 142.47 56.5637 142.191C56.1431 141.913 56.1431 141.357 56.5637 141.078C56.9843 140.8 57.6152 140.8 58.0358 141.078Z" fill="white"/>
<path d="M73.3875 129.391C73.8081 129.67 73.8081 130.226 73.3875 130.504C72.9669 130.783 72.336 130.783 71.9154 130.504C71.4948 130.226 71.4948 129.67 71.9154 129.391C72.336 129.113 72.9669 128.835 73.3875 129.391Z" fill="white"/>
<path d="M76.3316 127.722C76.9124 127.722 77.3831 127.348 77.3831 126.887C77.3831 126.426 76.9124 126.052 76.3316 126.052C75.7509 126.052 75.2802 126.426 75.2802 126.887C75.2802 127.348 75.7509 127.722 76.3316 127.722Z" fill="white"/>
<path d="M26.4911 160C27.0718 160 27.5426 159.626 27.5426 159.165C27.5426 158.704 27.0718 158.33 26.4911 158.33C25.9103 158.33 25.4396 158.704 25.4396 159.165C25.4396 159.626 25.9103 160 26.4911 160Z" fill="white"/>
<path d="M31.1176 155.826C31.5382 156.104 31.5382 156.661 31.1176 156.939C30.697 157.217 30.0661 157.217 29.6455 156.939C29.2249 156.661 29.2249 156.104 29.6455 155.826C30.0661 155.27 30.697 155.27 31.1176 155.826Z" fill="white"/>
<path d="M34.903 152.765C35.3236 153.043 35.3236 153.6 34.903 153.878C34.4824 154.156 33.8515 154.156 33.4309 153.878C33.0103 153.6 33.0103 153.043 33.4309 152.765C33.8515 152.487 34.4824 152.487 34.903 152.765Z" fill="white"/>
<path d="M38.6884 149.704C39.109 149.983 39.109 150.539 38.6884 150.817C38.2678 151.096 37.6369 151.096 37.2163 150.817C36.7957 150.539 36.7957 149.983 37.2163 149.704C37.6369 149.426 38.2678 149.426 38.6884 149.704Z" fill="white"/>
<path d="M42.4737 146.922C42.8943 147.2 42.8943 147.756 42.4737 148.035C42.0531 148.313 41.4222 148.313 41.0016 148.035C40.581 147.756 40.581 147.2 41.0016 146.922C41.4222 146.643 42.2634 146.643 42.4737 146.922Z" fill="white"/>
<path d="M46.4694 143.861C46.89 144.139 46.89 144.696 46.4694 144.974C46.0488 145.252 45.4179 145.252 44.9973 144.974C44.5767 144.696 44.5767 144.139 44.9973 143.861C45.4179 143.583 46.0488 143.583 46.4694 143.861Z" fill="white"/>
<path d="M50.2547 141.078C50.6753 141.357 50.6753 141.913 50.2547 142.191C49.8341 142.47 49.2032 142.47 48.7826 142.191C48.362 141.913 48.362 141.357 48.7826 141.078C49.2032 140.8 49.8341 140.8 50.2547 141.078Z" fill="white"/>
<path d="M54.0401 138.017C54.4607 138.295 54.4607 138.852 54.0401 139.13C53.6195 139.408 52.9886 139.408 52.568 139.13C52.1474 138.852 52.1474 138.295 52.568 138.017C52.9886 137.739 53.6195 137.739 54.0401 138.017Z" fill="white"/>
<path d="M58.0358 135.235C58.4564 135.513 58.4564 136.069 58.0358 136.348C57.6152 136.626 56.9843 136.626 56.5637 136.348C56.1431 136.069 56.1431 135.513 56.5637 135.235C56.9843 134.956 57.6152 134.956 58.0358 135.235Z" fill="white"/>
<path d="M65.6065 129.391C66.0271 129.67 66.0271 130.226 65.6065 130.504C65.1859 130.783 64.555 130.783 64.1344 130.504C63.7138 130.226 63.7138 129.67 64.1344 129.391C64.555 128.835 65.1859 128.835 65.6065 129.391Z" fill="white"/>
<path d="M69.3918 126.33C69.8124 126.609 69.8124 127.165 69.3918 127.443C68.9712 127.722 68.3403 127.722 67.9197 127.443C67.4991 127.165 67.4991 126.609 67.9197 126.33C68.3403 126.052 68.9712 126.052 69.3918 126.33Z" fill="white"/>
<path d="M72.5464 124.661C73.1271 124.661 73.5979 124.287 73.5979 123.826C73.5979 123.365 73.1271 122.991 72.5464 122.991C71.9656 122.991 71.4949 123.365 71.4949 123.826C71.4949 124.287 71.9656 124.661 72.5464 124.661Z" fill="white"/>
<path d="M23.3366 155.826C23.7572 156.104 23.7572 156.661 23.3366 156.939C22.916 157.217 22.2851 157.217 21.8645 156.939C21.4439 156.661 21.4439 156.104 21.8645 155.826C22.2851 155.27 22.916 155.27 23.3366 155.826Z" fill="white"/>
<path d="M26.4911 154.156C27.0718 154.156 27.5426 153.783 27.5426 153.322C27.5426 152.861 27.0718 152.487 26.4911 152.487C25.9103 152.487 25.4396 152.861 25.4396 153.322C25.4396 153.783 25.9103 154.156 26.4911 154.156Z" fill="white"/>
<path d="M30.2763 151.095C30.8571 151.095 31.3278 150.722 31.3278 150.261C31.3278 149.8 30.8571 149.426 30.2763 149.426C29.6956 149.426 29.2249 149.8 29.2249 150.261C29.2249 150.722 29.6956 151.095 30.2763 151.095Z" fill="white"/>
<path d="M34.903 146.922C35.3236 147.2 35.3236 147.756 34.903 148.035C34.4824 148.313 33.8515 148.313 33.4309 148.035C33.0103 147.756 33.0103 147.2 33.4309 146.922C33.8515 146.643 34.4824 146.643 34.903 146.922Z" fill="white"/>
<path d="M38.6884 143.861C39.109 144.139 39.109 144.696 38.6884 144.974C38.2678 145.252 37.6369 145.252 37.2163 144.974C36.7957 144.696 36.7957 144.139 37.2163 143.861C37.6369 143.583 38.2678 143.583 38.6884 143.861Z" fill="white"/>
<path d="M42.4737 141.078C42.8943 141.357 42.8943 141.913 42.4737 142.191C42.0531 142.47 41.4222 142.47 41.0016 142.191C40.581 141.913 40.581 141.357 41.0016 141.078C41.4222 140.8 42.2634 140.8 42.4737 141.078Z" fill="white"/>
<path d="M46.4694 138.017C46.89 138.295 46.89 138.852 46.4694 139.13C46.0488 139.408 45.4179 139.408 44.9973 139.13C44.5767 138.852 44.5767 138.295 44.9973 138.017C45.4179 137.739 46.0488 137.739 46.4694 138.017Z" fill="white"/>
<path d="M50.2547 135.235C50.6753 135.513 50.6753 136.069 50.2547 136.348C49.8341 136.626 49.2032 136.626 48.7826 136.348C48.362 136.069 48.362 135.513 48.7826 135.235C49.2032 134.956 49.8341 134.956 50.2547 135.235Z" fill="white"/>
<path d="M54.0401 132.174C54.4607 132.452 54.4607 133.008 54.0401 133.287C53.6195 133.565 52.9886 133.565 52.568 133.287C52.1474 133.008 52.1474 132.452 52.568 132.174C52.9886 131.895 53.6195 131.895 54.0401 132.174Z" fill="white"/>
<path d="M58.0358 129.391C58.4564 129.67 58.4564 130.226 58.0358 130.504C57.6152 130.783 56.9843 130.783 56.5637 130.504C56.1431 130.226 56.1431 129.67 56.5637 129.391C56.9843 128.835 57.6152 128.835 58.0358 129.391Z" fill="white"/>
<path d="M61.8211 126.33C62.2417 126.609 62.2417 127.165 61.8211 127.443C61.4005 127.722 60.7696 127.722 60.349 127.443C59.9284 127.165 59.9284 126.609 60.349 126.33C60.7696 126.052 61.4005 126.052 61.8211 126.33Z" fill="white"/>
<path d="M65.6065 123.269C66.0271 123.548 66.0271 124.104 65.6065 124.383C65.1859 124.661 64.555 124.661 64.1344 124.383C63.7138 124.104 63.7138 123.548 64.1344 123.269C64.555 122.991 65.1859 122.991 65.6065 123.269Z" fill="white"/>
<path d="M69.3918 120.487C69.8124 120.765 69.8124 121.322 69.3918 121.6C68.9712 121.878 68.3403 121.878 67.9197 121.6C67.4991 121.322 67.4991 120.765 67.9197 120.487C68.3403 120.209 68.9712 120.209 69.3918 120.487Z" fill="white"/>
<path d="M19.5512 152.765C19.9718 153.043 19.9718 153.6 19.5512 153.878C19.1306 154.156 18.4997 154.156 18.0791 153.878C17.6585 153.6 17.6585 153.043 18.0791 152.765C18.4997 152.487 19.1306 152.487 19.5512 152.765Z" fill="white"/>
<path d="M23.3366 149.704C23.7572 149.983 23.7572 150.539 23.3366 150.817C22.916 151.096 22.2851 151.096 21.8645 150.817C21.4439 150.539 21.4439 149.983 21.8645 149.704C22.2851 149.426 22.916 149.426 23.3366 149.704Z" fill="white"/>
<path d="M27.122 146.922C27.5426 147.2 27.5426 147.756 27.122 148.035C26.7014 148.313 26.0705 148.313 25.6499 148.035C25.2293 147.756 25.2293 147.2 25.6499 146.922C26.0705 146.643 26.7014 146.643 27.122 146.922Z" fill="white"/>
<path d="M31.1176 143.861C31.5382 144.139 31.5382 144.696 31.1176 144.974C30.697 145.252 30.0661 145.252 29.6455 144.974C29.2249 144.696 29.2249 144.139 29.6455 143.861C30.0661 143.583 30.697 143.583 31.1176 143.861Z" fill="white"/>
<path d="M34.903 141.078C35.3236 141.357 35.3236 141.913 34.903 142.191C34.4824 142.47 33.8515 142.47 33.4309 142.191C33.0103 141.913 33.0103 141.357 33.4309 141.078C33.8515 140.8 34.4824 140.8 34.903 141.078Z" fill="white"/>
<path d="M38.6884 138.017C39.109 138.295 39.109 138.852 38.6884 139.13C38.2678 139.408 37.6369 139.408 37.2163 139.13C36.7957 138.852 36.7957 138.295 37.2163 138.017C37.6369 137.739 38.2678 137.739 38.6884 138.017Z" fill="white"/>
<path d="M42.4737 135.235C42.8943 135.513 42.8943 136.069 42.4737 136.348C42.0531 136.626 41.4222 136.626 41.0016 136.348C40.581 136.069 40.581 135.513 41.0016 135.235C41.4222 134.956 42.2634 134.956 42.4737 135.235Z" fill="white"/>
<path d="M46.4694 132.174C46.89 132.452 46.89 133.008 46.4694 133.287C46.0488 133.565 45.4179 133.565 44.9973 133.287C44.5767 133.008 44.5767 132.452 44.9973 132.174C45.4179 131.895 46.0488 131.895 46.4694 132.174Z" fill="white"/>
<path d="M50.2547 129.391C50.6753 129.67 50.6753 130.226 50.2547 130.504C49.8341 130.783 49.2032 130.783 48.7826 130.504C48.362 130.226 48.362 129.67 48.7826 129.391C49.2032 128.835 49.8341 128.835 50.2547 129.391Z" fill="white"/>
<path d="M54.0401 126.33C54.4607 126.609 54.4607 127.165 54.0401 127.443C53.6195 127.722 52.9886 127.722 52.568 127.443C52.1474 127.165 52.1474 126.609 52.568 126.33C52.9886 126.052 53.6195 126.052 54.0401 126.33Z" fill="white"/>
<path d="M58.0358 123.269C58.4564 123.548 58.4564 124.104 58.0358 124.383C57.6152 124.661 56.9843 124.661 56.5637 124.383C56.1431 124.104 56.1431 123.548 56.5637 123.269C56.9843 122.991 57.6152 122.991 58.0358 123.269Z" fill="white"/>
<path d="M61.8211 120.487C62.2417 120.765 62.2417 121.322 61.8211 121.6C61.4005 121.878 60.7696 121.878 60.349 121.6C59.9284 121.322 59.9284 120.765 60.349 120.487C60.7696 120.209 61.4005 120.209 61.8211 120.487Z" fill="white"/>
<path d="M65.6065 117.426C66.0271 117.704 66.0271 118.261 65.6065 118.539C65.1859 118.817 64.555 118.817 64.1344 118.539C63.7138 118.261 63.7138 117.704 64.1344 117.426C64.555 117.148 65.1859 117.148 65.6065 117.426Z" fill="white"/>
<path d="M15.7658 149.704C16.1864 149.983 16.1864 150.539 15.7658 150.817C15.3452 151.096 14.7143 151.096 14.2937 150.817C13.8731 150.539 13.8731 149.983 14.2937 149.704C14.7143 149.426 15.3452 149.426 15.7658 149.704Z" fill="white"/>
<path d="M19.5512 146.922C19.9718 147.2 19.9718 147.756 19.5512 148.035C19.1306 148.313 18.4997 148.313 18.0791 148.035C17.6585 147.756 17.6585 147.2 18.0791 146.922C18.4997 146.643 19.1306 146.643 19.5512 146.922Z" fill="white"/>
<path d="M23.3366 143.861C23.7572 144.139 23.7572 144.696 23.3366 144.974C22.916 145.252 22.2851 145.252 21.8645 144.974C21.4439 144.696 21.4439 144.139 21.8645 143.861C22.2851 143.583 22.916 143.583 23.3366 143.861Z" fill="white"/>
<path d="M46.4694 126.33C46.89 126.609 46.89 127.165 46.4694 127.443C46.0488 127.722 45.4179 127.722 44.9973 127.443C44.5767 127.165 44.5767 126.609 44.9973 126.33C45.4179 126.052 46.0488 126.052 46.4694 126.33Z" fill="white"/>
<path d="M50.2547 123.269C50.6753 123.548 50.6753 124.104 50.2547 124.383C49.8341 124.661 49.2032 124.661 48.7826 124.383C48.362 124.104 48.362 123.548 48.7826 123.269C49.2032 122.991 49.8341 122.991 50.2547 123.269Z" fill="white"/>
<path d="M54.0401 120.487C54.4607 120.765 54.4607 121.322 54.0401 121.6C53.6195 121.878 52.9886 121.878 52.568 121.6C52.1474 121.322 52.1474 120.765 52.568 120.487C52.9886 120.209 53.6195 120.209 54.0401 120.487Z" fill="white"/>
<path d="M58.0358 117.426C58.4564 117.704 58.4564 118.261 58.0358 118.539C57.6152 118.817 56.9843 118.817 56.5637 118.539C56.1431 118.261 56.1431 117.704 56.5637 117.426C56.9843 117.148 57.6152 117.148 58.0358 117.426Z" fill="white"/>
<path d="M61.8211 114.644C62.2417 114.922 62.2417 115.478 61.8211 115.757C61.4005 116.035 60.7696 116.035 60.349 115.757C59.9284 115.478 59.9284 114.922 60.349 114.644C60.7696 114.365 61.4005 114.365 61.8211 114.644Z" fill="white"/>
<path d="M11.7703 146.922C12.1909 147.2 12.1909 147.756 11.7703 148.035C11.3497 148.313 10.7188 148.313 10.2982 148.035C9.87764 147.756 9.87764 147.2 10.2982 146.922C10.7188 146.643 11.3497 146.643 11.7703 146.922Z" fill="white"/>
<path d="M15.7658 143.861C16.1864 144.139 16.1864 144.696 15.7658 144.974C15.3452 145.252 14.7143 145.252 14.2937 144.974C13.8731 144.696 13.8731 144.139 14.2937 143.861C14.7143 143.583 15.3452 143.583 15.7658 143.861Z" fill="white"/>
<path d="M19.5512 141.078C19.9718 141.357 19.9718 141.913 19.5512 142.191C19.1306 142.47 18.4997 142.47 18.0791 142.191C17.6585 141.913 17.6585 141.357 18.0791 141.078C18.4997 140.8 19.1306 140.8 19.5512 141.078Z" fill="white"/>
<path d="M46.4694 120.487C46.89 120.765 46.89 121.322 46.4694 121.6C46.0488 121.878 45.4179 121.878 44.9973 121.6C44.5767 121.322 44.5767 120.765 44.9973 120.487C45.4179 120.209 46.0488 120.209 46.4694 120.487Z" fill="white"/>
<path d="M49.6238 118.817C50.2045 118.817 50.6752 118.444 50.6752 117.982C50.6752 117.521 50.2045 117.148 49.6238 117.148C49.043 117.148 48.5723 117.521 48.5723 117.982C48.5723 118.444 49.043 118.817 49.6238 118.817Z" fill="white"/>
<path d="M54.0401 114.644C54.4607 114.922 54.4607 115.478 54.0401 115.757C53.6195 116.035 52.9886 116.035 52.568 115.757C52.1474 115.478 52.1474 114.922 52.568 114.644C52.9886 114.365 53.6195 114.365 54.0401 114.644Z" fill="white"/>
<path d="M58.0358 111.582C58.4564 111.861 58.4564 112.417 58.0358 112.695C57.6152 112.974 56.9843 112.974 56.5637 112.695C56.1431 112.417 56.1431 111.861 56.5637 111.582C56.9843 111.304 57.6152 111.304 58.0358 111.582Z" fill="white"/>
<path d="M7.98479 143.861C8.40539 144.139 8.40539 144.696 7.98479 144.974C7.5642 145.252 6.93331 145.252 6.51271 144.974C6.09212 144.696 6.09212 144.139 6.51271 143.861C6.93331 143.583 7.5642 143.583 7.98479 143.861Z" fill="white"/>
<path d="M11.7703 141.078C12.1909 141.357 12.1909 141.913 11.7703 142.191C11.3497 142.47 10.7188 142.47 10.2982 142.191C9.87764 141.913 9.87764 141.357 10.2982 141.078C10.7188 140.8 11.3497 140.8 11.7703 141.078Z" fill="white"/>
<path d="M14.9247 139.409C15.5054 139.409 15.9761 139.035 15.9761 138.574C15.9761 138.113 15.5054 137.739 14.9247 137.739C14.3439 137.739 13.8732 138.113 13.8732 138.574C13.8732 139.035 14.3439 139.409 14.9247 139.409Z" fill="white"/>
<path d="M46.4694 114.644C46.89 114.922 46.89 115.478 46.4694 115.757C46.0488 116.035 45.4179 116.035 44.9973 115.757C44.5767 115.478 44.5767 114.922 44.9973 114.644C45.4179 114.365 46.0488 114.365 46.4694 114.644Z" fill="white"/>
<path d="M50.2547 111.582C50.6753 111.861 50.6753 112.417 50.2547 112.695C49.8341 112.974 49.2032 112.974 48.7826 112.695C48.362 112.417 48.362 111.861 48.7826 111.582C49.2032 111.304 49.8341 111.304 50.2547 111.582Z" fill="white"/>
<path d="M54.0401 108.8C54.4607 109.078 54.4607 109.635 54.0401 109.913C53.6195 110.191 52.9886 110.191 52.568 109.913C52.1474 109.635 52.1474 109.078 52.568 108.8C52.9886 108.521 53.6195 108.521 54.0401 108.8Z" fill="white"/>
<path d="M4.1994 141.078C4.62 141.357 4.62 141.913 4.1994 142.191C3.7788 142.47 3.14791 142.47 2.72731 142.191C2.30672 141.913 2.30672 141.357 2.72731 141.078C3.14791 140.8 3.7788 140.8 4.1994 141.078Z" fill="white"/>
<path d="M7.98479 138.017C8.40539 138.295 8.40539 138.852 7.98479 139.13C7.5642 139.408 6.93331 139.408 6.51271 139.13C6.09212 138.852 6.09212 138.295 6.51271 138.017C6.93331 137.739 7.5642 137.739 7.98479 138.017Z" fill="white"/>
<path d="M11.7703 135.235C12.1909 135.513 12.1909 136.069 11.7703 136.348C11.3497 136.626 10.7188 136.626 10.2982 136.348C9.87764 136.069 9.87764 135.513 10.2982 135.235C10.7188 134.678 11.3497 134.678 11.7703 135.235Z" fill="white"/>
<path d="M46.4694 108.8C46.89 109.078 46.89 109.635 46.4694 109.913C46.0488 110.191 45.4179 110.191 44.9973 109.913C44.5767 109.635 44.5767 109.078 44.9973 108.8C45.4179 108.521 46.0488 108.521 46.4694 108.8Z" fill="white"/>
<path d="M50.2547 105.739C50.6753 106.017 50.6753 106.574 50.2547 106.852C49.8341 107.13 49.2032 107.13 48.7826 106.852C48.362 106.574 48.362 106.017 48.7826 105.739C49.2032 105.461 49.8341 105.461 50.2547 105.739Z" fill="white"/>
<path d="M4.1994 135.235C4.62 135.513 4.62 136.069 4.1994 136.348C3.7788 136.626 3.14791 136.626 2.72731 136.348C2.30672 136.069 2.30672 135.513 2.72731 135.235C3.14791 134.678 3.7788 134.678 4.1994 135.235Z" fill="white"/>
<path d="M7.98479 132.174C8.40539 132.452 8.40539 133.008 7.98479 133.287C7.5642 133.565 6.93331 133.565 6.51271 133.287C6.09212 133.008 6.09212 132.452 6.51271 132.174C6.93331 131.895 7.5642 131.895 7.98479 132.174Z" fill="white"/>
<path d="M46.4694 102.956C46.89 103.235 46.89 103.791 46.4694 104.07C46.0488 104.348 45.4179 104.348 44.9973 104.07C44.5767 103.791 44.5767 103.235 44.9973 102.956C45.4179 102.4 46.0488 102.4 46.4694 102.956Z" fill="white"/>
<path d="M3.35825 130.504C3.93897 130.504 4.40974 130.13 4.40974 129.669C4.40974 129.208 3.93897 128.835 3.35825 128.835C2.77753 128.835 2.30676 129.208 2.30676 129.669C2.30676 130.13 2.77753 130.504 3.35825 130.504Z" fill="white"/>
<path d="M79.4861 123.548C79.9067 123.269 80.5376 123.269 80.9582 123.548C81.3788 123.826 81.3788 124.382 80.9582 124.661C80.5376 124.939 79.9067 124.939 79.4861 124.661C79.0655 124.382 79.0655 123.826 79.4861 123.548Z" fill="white"/>
<path d="M84.9539 120.487C85.3745 120.765 85.3745 121.322 84.9539 121.6C84.5333 121.878 83.9024 121.878 83.4818 121.6C83.0612 121.322 83.0612 120.765 83.4818 120.487C83.6921 120.209 84.5333 120.209 84.9539 120.487Z" fill="white"/>
<path d="M88.7392 117.704C89.1598 117.982 89.1598 118.539 88.7392 118.817C88.3186 119.095 87.6877 119.095 87.2671 118.817C86.8465 118.539 86.8465 117.982 87.2671 117.704C87.6877 117.148 88.3186 117.148 88.7392 117.704Z" fill="white"/>
<path d="M92.5246 114.644C92.9452 114.922 92.9452 115.478 92.5246 115.757C92.104 116.035 91.4731 116.035 91.0525 115.757C90.6319 115.478 90.6319 114.922 91.0525 114.644C91.4731 114.365 92.104 114.365 92.5246 114.644Z" fill="white"/>
<path d="M75.7008 120.487C76.1214 120.209 76.7523 120.209 77.1729 120.487C77.5935 120.765 77.5935 121.322 77.1729 121.6C76.7523 121.878 76.1214 121.878 75.7008 121.6C75.2802 121.322 75.2802 120.765 75.7008 120.487Z" fill="white"/>
<path d="M80.9582 117.704C81.3788 117.982 81.3788 118.539 80.9582 118.817C80.5376 119.095 79.9067 119.095 79.4861 118.817C79.0655 118.539 79.0655 117.982 79.4861 117.704C79.9067 117.148 80.5376 117.148 80.9582 117.704Z" fill="white"/>
<path d="M84.9539 114.644C85.3745 114.922 85.3745 115.478 84.9539 115.757C84.5333 116.035 83.9024 116.035 83.4818 115.757C83.0612 115.478 83.0612 114.922 83.4818 114.644C83.6921 114.365 84.5333 114.365 84.9539 114.644Z" fill="white"/>
<path d="M88.7392 111.582C89.1598 111.861 89.1598 112.417 88.7392 112.695C88.3186 112.974 87.6877 112.974 87.2671 112.695C86.8465 112.417 86.8465 111.861 87.2671 111.582C87.6877 111.304 88.3186 111.304 88.7392 111.582Z" fill="white"/>
<path d="M92.5246 108.8C92.9452 109.078 92.9452 109.635 92.5246 109.913C92.104 110.191 91.4731 110.191 91.0525 109.913C90.6319 109.635 90.6319 109.078 91.0525 108.8C91.4731 108.521 92.104 108.521 92.5246 108.8Z" fill="white"/>
<path d="M71.9154 117.704C72.336 117.426 72.9669 117.426 73.3875 117.704C73.8081 117.983 73.8081 118.539 73.3875 118.817C72.9669 119.096 72.336 119.096 71.9154 118.817C71.4948 118.539 71.4948 117.983 71.9154 117.704Z" fill="white"/>
<path d="M77.1729 114.644C77.5935 114.922 77.5935 115.478 77.1729 115.757C76.7523 116.035 76.1214 116.035 75.7008 115.757C75.2802 115.478 75.2802 114.922 75.7008 114.644C76.1214 114.365 76.7523 114.365 77.1729 114.644Z" fill="white"/>
<path d="M80.9582 111.582C81.3788 111.861 81.3788 112.417 80.9582 112.695C80.5376 112.974 79.9067 112.974 79.4861 112.695C79.0655 112.417 79.0655 111.861 79.4861 111.582C79.9067 111.304 80.5376 111.304 80.9582 111.582Z" fill="white"/>
<path d="M84.9539 108.8C85.3745 109.078 85.3745 109.635 84.9539 109.913C84.5333 110.191 83.9024 110.191 83.4818 109.913C83.0612 109.635 83.0612 109.078 83.4818 108.8C83.6921 108.521 84.5333 108.521 84.9539 108.8Z" fill="white"/>
<path d="M88.7392 105.739C89.1598 106.017 89.1598 106.574 88.7392 106.852C88.3186 107.13 87.6877 107.13 87.2671 106.852C86.8465 106.574 86.8465 106.017 87.2671 105.739C87.6877 105.461 88.3186 105.461 88.7392 105.739Z" fill="white"/>
<path d="M92.5246 102.956C92.9452 103.235 92.9452 103.791 92.5246 104.069C92.104 104.348 91.4731 104.348 91.0525 104.069C90.6319 103.791 90.6319 103.235 91.0525 102.956C91.4731 102.678 92.104 102.678 92.5246 102.956Z" fill="white"/>
<path d="M67.9197 114.644C68.3403 114.365 68.9712 114.365 69.3918 114.644C69.8124 114.922 69.8124 115.478 69.3918 115.757C68.9712 116.035 68.3403 116.035 67.9197 115.757C67.7094 115.478 67.7094 114.922 67.9197 114.644Z" fill="white"/>
<path d="M73.3875 111.582C73.8081 111.861 73.8081 112.417 73.3875 112.695C72.9669 112.974 72.336 112.974 71.9154 112.695C71.4948 112.417 71.4948 111.861 71.9154 111.582C72.336 111.304 72.9669 111.304 73.3875 111.582Z" fill="white"/>
<path d="M77.1729 108.8C77.5935 109.078 77.5935 109.635 77.1729 109.913C76.7523 110.191 76.1214 110.191 75.7008 109.913C75.2802 109.635 75.2802 109.078 75.7008 108.8C76.1214 108.521 76.7523 108.521 77.1729 108.8Z" fill="white"/>
<path d="M80.9582 105.739C81.3788 106.017 81.3788 106.574 80.9582 106.852C80.5376 107.13 79.9067 107.13 79.4861 106.852C79.0655 106.574 79.0655 106.017 79.4861 105.739C79.9067 105.461 80.5376 105.461 80.9582 105.739Z" fill="white"/>
<path d="M84.9539 102.956C85.3745 103.235 85.3745 103.791 84.9539 104.069C84.5333 104.348 83.9024 104.348 83.4818 104.069C83.0612 103.791 83.0612 103.235 83.4818 102.956C83.6921 102.678 84.5333 102.678 84.9539 102.956Z" fill="white"/>
<path d="M88.7392 99.8955C89.1598 100.174 89.1598 100.73 88.7392 101.009C88.3186 101.287 87.6877 101.287 87.2671 101.009C86.8465 100.73 86.8465 100.174 87.2671 99.8955C87.6877 99.6172 88.3186 99.6172 88.7392 99.8955Z" fill="white"/>
<path d="M1.04492 130.226L21.6541 145.809L42.053 33.9477L21.4438 18.3651L1.04492 130.226Z" fill="#89368E"/>
<path d="M43.9457 1.11316L64.7652 16.6958L42.0531 33.948L21.4438 18.3653L43.9457 1.11316Z" fill="#89368E"/>
<path d="M44.1561 8.34778L64.9756 23.9304L42.2634 41.1826L21.6542 25.6L44.1561 8.34778Z" fill="#17161A"/>
<path d="M58.6666 27.2697L49.4135 31.1653L41.0016 95.4436L65.6064 79.3044L58.6666 27.2697Z" fill="#89368E"/>
<path d="M66.8683 111.304L50.0444 97.9477L66.0271 89.5999L66.8683 111.304Z" fill="#89368E"/>
<path d="M66.8683 112.417L48.1517 97.6696L66.658 87.9304L67.7094 111.583L66.8683 112.417ZM51.7268 98.2261L66.0271 109.357L65.1859 90.9913L51.7268 98.2261Z" fill="white"/>
<path d="M60.349 77.0783L41.0016 60.9392L43.1046 95.4436L62.2417 90.9914L60.349 77.0783Z" fill="#89368E"/>
<path d="M60.349 80.9741L41.0016 64.835L43.1046 99.3393L62.2417 94.8871L60.349 80.9741Z" fill="#17161A"/>
<path d="M42.2634 96.5564L40.1604 58.9912L60.9799 76.5216L63.0829 92.1043L42.2634 96.5564ZM42.0531 63.1651L43.7355 94.3303L61.4005 90.4347L59.7181 77.9129L42.0531 63.1651Z" fill="white"/>
<path d="M65.3961 16.1391L44.156 0L20.6092 17.5391L-2.59469e-05 130.513L21.6541 146.922L41.0016 132.174L44.156 111.861L63.2931 97.113L66.2373 111.861L66.8682 112.417L86.4259 97.6696L65.3961 16.1391ZM39.7398 42.8522L21.2335 144.139L1.68236 129.122L21.8644 19.7565L41.2118 34.5043L39.7398 42.8522ZM48.1517 85.1478C50.465 69.5652 52.1473 58.7131 52.7782 53.4261C53.1988 50.9217 53.4091 48.6957 53.6194 46.7478C53.8297 48.1391 54.2503 49.8087 54.4606 51.7565C55.3018 56.487 56.143 60.6609 56.7739 63.4435L59.2974 76.2435L48.1517 85.1478ZM54.4606 23.3739L42.053 32.8348L22.9159 18.3652L43.9457 2.22608L63.0828 16.6957L54.4606 23.3739Z" fill="white"/>
</svg>
