<svg width="93" height="161" viewBox="0 0 93 161" fill="none" xmlns="http://www.w3.org/2000/svg">
<path d="M38.138 159.639C38.617 159.904 38.617 160.435 38.138 160.701C37.6591 160.966 36.9406 160.966 36.4616 160.701C35.9827 160.435 35.9827 159.904 36.4616 159.639C36.9406 159.373 37.6591 159.373 38.138 159.639Z" fill="white"/>
<path d="M42.4487 156.719C42.9276 156.984 42.9276 157.515 42.4487 157.781C41.9697 158.046 41.2513 158.046 40.7723 157.781C40.2933 157.515 40.2933 156.984 40.7723 156.719C41.2513 156.454 41.9697 156.454 42.4487 156.719Z" fill="white"/>
<path d="M46.9988 154.065C47.4778 154.33 47.4778 154.861 46.9988 155.126C46.5199 155.392 45.8014 155.392 45.3225 155.126C44.8435 154.861 44.8435 154.33 45.3225 154.065C45.562 153.799 46.5199 153.799 46.9988 154.065Z" fill="white"/>
<path d="M51.3095 151.145C51.7885 151.41 51.7885 151.941 51.3095 152.206C50.8306 152.472 50.1121 152.472 49.6331 152.206C49.1542 151.941 49.1542 151.41 49.6331 151.145C50.1121 150.879 50.8306 150.879 51.3095 151.145Z" fill="white"/>
<path d="M55.6202 148.49C56.0991 148.756 56.0991 149.286 55.6202 149.552C55.1412 149.817 54.4228 149.817 53.9438 149.552C53.4649 149.286 53.4649 148.756 53.9438 148.49C54.4228 148.225 55.1412 148.225 55.6202 148.49Z" fill="white"/>
<path d="M59.9308 145.57C60.4098 145.835 60.4098 146.366 59.9308 146.632C59.4519 146.897 58.7334 146.897 58.2545 146.632C57.7755 146.366 57.7755 145.835 58.2545 145.57C58.7334 145.304 59.4519 145.304 59.9308 145.57Z" fill="white"/>
<path d="M29.2773 159.639C29.7562 159.904 29.7562 160.435 29.2773 160.701C28.7983 160.966 28.0799 160.966 27.6009 160.701C27.122 160.435 27.122 159.904 27.6009 159.639C28.0799 159.373 29.0378 159.373 29.2773 159.639Z" fill="white"/>
<path d="M33.8274 156.719C34.3064 156.984 34.3064 157.515 33.8274 157.781C33.3485 158.046 32.6301 158.046 32.1511 157.781C31.6721 157.515 31.6721 156.984 32.1511 156.719C32.6301 156.454 33.3485 156.454 33.8274 156.719Z" fill="white"/>
<path d="M38.138 154.065C38.617 154.33 38.617 154.861 38.138 155.126C37.6591 155.392 36.9406 155.392 36.4616 155.126C35.9827 154.861 35.9827 154.33 36.4616 154.065C36.9406 153.799 37.6591 153.799 38.138 154.065Z" fill="white"/>
<path d="M42.4487 151.145C42.9276 151.41 42.9276 151.941 42.4487 152.206C41.9697 152.472 41.2513 152.472 40.7723 152.206C40.2933 151.941 40.2933 151.41 40.7723 151.145C41.2513 150.879 41.9697 150.879 42.4487 151.145Z" fill="white"/>
<path d="M46.9988 148.49C47.4778 148.756 47.4778 149.286 46.9988 149.552C46.5199 149.817 45.8014 149.817 45.3225 149.552C44.8435 149.286 44.8435 148.756 45.3225 148.49C45.562 148.225 46.5199 148.225 46.9988 148.49Z" fill="white"/>
<path d="M51.3095 145.57C51.7885 145.835 51.7885 146.366 51.3095 146.632C50.8306 146.897 50.1121 146.897 49.6331 146.632C49.1542 146.366 49.1542 145.835 49.6331 145.57C50.1121 145.304 50.8306 145.304 51.3095 145.57Z" fill="white"/>
<path d="M55.6202 142.916C56.0991 143.181 56.0991 143.712 55.6202 143.977C55.1412 144.243 54.4228 144.243 53.9438 143.977C53.4649 143.712 53.4649 143.181 53.9438 142.916C54.4228 142.385 55.1412 142.385 55.6202 142.916Z" fill="white"/>
<path d="M59.9308 139.996C60.4098 140.261 60.4098 140.792 59.9308 141.057C59.4519 141.323 58.7334 141.323 58.2545 141.057C57.7755 140.792 57.7755 140.261 58.2545 139.996C58.7334 139.73 59.4519 139.73 59.9308 139.996Z" fill="white"/>
<path d="M24.9666 156.719C25.4456 156.984 25.4456 157.515 24.9666 157.781C24.4877 158.046 23.7692 158.046 23.2903 157.781C22.8113 157.515 22.8113 156.984 23.2903 156.719C23.7692 156.454 24.4877 156.454 24.9666 156.719Z" fill="white"/>
<path d="M29.2773 154.065C29.7562 154.33 29.7562 154.861 29.2773 155.126C28.7983 155.392 28.0799 155.392 27.6009 155.126C27.122 154.861 27.122 154.33 27.6009 154.065C28.0799 153.799 29.0378 153.799 29.2773 154.065Z" fill="white"/>
<path d="M33.8274 151.145C34.3064 151.41 34.3064 151.941 33.8274 152.206C33.3485 152.472 32.6301 152.472 32.1511 152.206C31.6721 151.941 31.6721 151.41 32.1511 151.145C32.6301 150.879 33.3485 150.879 33.8274 151.145Z" fill="white"/>
<path d="M38.138 148.49C38.617 148.756 38.617 149.286 38.138 149.552C37.6591 149.817 36.9406 149.817 36.4616 149.552C35.9827 149.286 35.9827 148.756 36.4616 148.49C36.9406 148.225 37.6591 148.225 38.138 148.49Z" fill="white"/>
<path d="M42.4487 145.57C42.9276 145.835 42.9276 146.366 42.4487 146.632C41.9697 146.897 41.2513 146.897 40.7723 146.632C40.2933 146.366 40.2933 145.835 40.7723 145.57C41.2513 145.304 41.9697 145.304 42.4487 145.57Z" fill="white"/>
<path d="M46.9988 142.916C47.4778 143.181 47.4778 143.712 46.9988 143.977C46.5199 144.243 45.8014 144.243 45.3225 143.977C44.8435 143.712 44.8435 143.181 45.3225 142.916C45.562 142.385 46.5199 142.385 46.9988 142.916Z" fill="white"/>
<path d="M51.3095 139.996C51.7885 140.261 51.7885 140.792 51.3095 141.057C50.8306 141.323 50.1121 141.323 49.6331 141.057C49.1542 140.792 49.1542 140.261 49.6331 139.996C50.1121 139.73 50.8306 139.73 51.3095 139.996Z" fill="white"/>
<path d="M55.6202 137.076C56.0991 137.341 56.0991 137.872 55.6202 138.137C55.1412 138.403 54.4228 138.403 53.9438 138.137C53.4649 137.872 53.4649 137.341 53.9438 137.076C54.4228 136.81 55.1412 136.81 55.6202 137.076Z" fill="white"/>
<path d="M59.9308 134.421C60.4098 134.687 60.4098 135.218 59.9308 135.483C59.4519 135.748 58.7334 135.748 58.2545 135.483C57.7755 135.218 57.7755 134.687 58.2545 134.421C58.7334 134.156 59.4519 134.156 59.9308 134.421Z" fill="white"/>
<path d="M20.6559 154.065C21.1349 154.33 21.1349 154.861 20.6559 155.126C20.177 155.392 19.4585 155.392 18.9796 155.126C18.5006 154.861 18.5006 154.33 18.9796 154.065C19.4585 153.799 20.177 153.799 20.6559 154.065Z" fill="white"/>
<path d="M24.9666 151.145C25.4456 151.41 25.4456 151.941 24.9666 152.206C24.4877 152.472 23.7692 152.472 23.2903 152.206C22.8113 151.941 22.8113 151.41 23.2903 151.145C23.7692 150.879 24.4877 150.879 24.9666 151.145Z" fill="white"/>
<path d="M29.2773 148.49C29.7562 148.756 29.7562 149.286 29.2773 149.552C28.7983 149.817 28.0799 149.817 27.6009 149.552C27.122 149.286 27.122 148.756 27.6009 148.49C28.0799 148.225 29.0378 148.225 29.2773 148.49Z" fill="white"/>
<path d="M33.8274 145.57C34.3064 145.835 34.3064 146.366 33.8274 146.632C33.3485 146.897 32.6301 146.897 32.1511 146.632C31.6721 146.366 31.6721 145.835 32.1511 145.57C32.6301 145.304 33.3485 145.304 33.8274 145.57Z" fill="white"/>
<path d="M38.138 142.916C38.617 143.181 38.617 143.712 38.138 143.977C37.6591 144.243 36.9406 144.243 36.4616 143.977C35.9827 143.712 35.9827 143.181 36.4616 142.916C36.9406 142.385 37.6591 142.385 38.138 142.916Z" fill="white"/>
<path d="M42.4487 139.996C42.9276 140.261 42.9276 140.792 42.4487 141.057C41.9697 141.323 41.2513 141.323 40.7723 141.057C40.2933 140.792 40.2933 140.261 40.7723 139.996C41.2513 139.73 41.9697 139.73 42.4487 139.996Z" fill="white"/>
<path d="M46.9988 137.076C47.4778 137.341 47.4778 137.872 46.9988 138.137C46.5199 138.403 45.8014 138.403 45.3225 138.137C44.8435 137.872 44.8435 137.341 45.3225 137.076C45.562 136.81 46.5199 136.81 46.9988 137.076Z" fill="white"/>
<path d="M51.3095 134.421C51.7885 134.687 51.7885 135.218 51.3095 135.483C50.8306 135.748 50.1121 135.748 49.6331 135.483C49.1542 135.218 49.1542 134.687 49.6331 134.421C50.1121 134.156 50.8306 134.156 51.3095 134.421Z" fill="white"/>
<path d="M51.3095 128.316C51.7885 128.581 51.7885 129.112 51.3095 129.377C50.8306 129.643 50.1121 129.643 49.6331 129.377C49.1542 129.112 49.1542 128.581 49.6331 128.316C50.1121 128.05 50.8306 128.05 51.3095 128.316Z" fill="white"/>
<path d="M55.6202 131.501C56.0991 131.767 56.0991 132.298 55.6202 132.563C55.1412 132.829 54.4228 132.829 53.9438 132.563C53.4649 132.298 53.4649 131.767 53.9438 131.501C54.4228 131.236 55.1412 131.236 55.6202 131.501Z" fill="white"/>
<path d="M59.2123 130.174C59.8736 130.174 60.4097 129.817 60.4097 129.378C60.4097 128.938 59.8736 128.581 59.2123 128.581C58.551 128.581 58.0149 128.938 58.0149 129.378C58.0149 129.817 58.551 130.174 59.2123 130.174Z" fill="white"/>
<path d="M16.3453 151.145C16.8242 151.41 16.8242 151.941 16.3453 152.206C15.8663 152.472 15.1479 152.472 14.6689 152.206C14.19 151.941 14.19 151.41 14.6689 151.145C15.1479 150.879 15.8663 150.879 16.3453 151.145Z" fill="white"/>
<path d="M20.6559 148.49C21.1349 148.756 21.1349 149.286 20.6559 149.552C20.177 149.817 19.4585 149.817 18.9796 149.552C18.5006 149.286 18.5006 148.756 18.9796 148.49C19.4585 148.225 20.177 148.225 20.6559 148.49Z" fill="white"/>
<path d="M24.9666 145.57C25.4456 145.835 25.4456 146.366 24.9666 146.632C24.4877 146.897 23.7692 146.897 23.2903 146.632C22.8113 146.366 22.8113 145.835 23.2903 145.57C23.7692 145.304 24.4877 145.304 24.9666 145.57Z" fill="white"/>
<path d="M55.6202 125.927C56.0991 126.192 56.0991 126.723 55.6202 126.989C55.1412 127.254 54.4228 127.254 53.9438 126.989C53.4649 126.723 53.4649 126.192 53.9438 125.927C54.4228 125.661 55.1412 125.661 55.6202 125.927Z" fill="white"/>
<path d="M11.7953 148.49C12.2742 148.756 12.2742 149.286 11.7953 149.552C11.3163 149.817 10.5978 149.817 10.1189 149.552C9.6399 149.286 9.6399 148.756 10.1189 148.49C10.5978 148.225 11.3163 148.225 11.7953 148.49Z" fill="white"/>
<path d="M16.3453 145.57C16.8242 145.835 16.8242 146.366 16.3453 146.632C15.8663 146.897 15.1479 146.897 14.6689 146.632C14.19 146.366 14.19 145.835 14.6689 145.57C15.1479 145.304 15.8663 145.304 16.3453 145.57Z" fill="white"/>
<path d="M20.6559 142.916C21.1349 143.181 21.1349 143.712 20.6559 143.977C20.177 144.243 19.4585 144.243 18.9796 143.977C18.5006 143.712 18.5006 143.181 18.9796 142.916C19.4585 142.385 20.177 142.385 20.6559 142.916Z" fill="white"/>
<path d="M7.48455 145.57C7.96351 145.835 7.96351 146.366 7.48455 146.632C7.00559 146.897 6.28716 146.897 5.8082 146.632C5.32923 146.366 5.32923 145.835 5.8082 145.57C6.28716 145.304 7.00559 145.304 7.48455 145.57Z" fill="white"/>
<path d="M11.7953 142.65C12.2742 142.915 12.2742 143.446 11.7953 143.712C11.3163 143.977 10.5978 143.977 10.1189 143.712C9.6399 143.446 9.6399 142.915 10.1189 142.65C10.5978 142.385 11.3163 142.385 11.7953 142.65Z" fill="white"/>
<path d="M16.1058 139.996C16.5847 140.261 16.5847 140.792 16.1058 141.057C15.6268 141.323 14.9084 141.323 14.4294 141.057C13.9505 140.792 13.9505 140.261 14.4294 139.996C14.9084 139.73 15.8663 139.73 16.1058 139.996Z" fill="white"/>
<path d="M3.17388 142.65C3.65284 142.915 3.65284 143.446 3.17388 143.712C2.69492 143.977 1.97649 143.977 1.49753 143.712C1.01857 143.446 1.01857 142.915 1.49753 142.65C1.97649 142.385 2.69492 142.385 3.17388 142.65Z" fill="white"/>
<path d="M7.48455 139.996C7.96351 140.261 7.96351 140.792 7.48455 141.057C7.00559 141.323 6.28716 141.323 5.8082 141.057C5.32923 140.792 5.32923 140.261 5.8082 139.996C6.28716 139.73 7.00559 139.73 7.48455 139.996Z" fill="white"/>
<path d="M11.7953 137.076C12.2742 137.341 12.2742 137.872 11.7953 138.137C11.3163 138.403 10.5978 138.403 10.1189 138.137C9.6399 137.872 9.6399 137.341 10.1189 137.076C10.5978 136.81 11.3163 136.81 11.7953 137.076Z" fill="white"/>
<path d="M3.17388 137.076C3.65284 137.341 3.65284 137.872 3.17388 138.137C2.69492 138.403 1.97649 138.403 1.49753 138.137C1.01857 137.872 1.01857 137.341 1.49753 137.076C1.97649 136.81 2.69492 136.81 3.17388 137.076Z" fill="white"/>
<path d="M7.48455 134.421C7.96351 134.687 7.96351 135.218 7.48455 135.483C7.00559 135.748 6.28716 135.748 5.8082 135.483C5.32923 135.218 5.32923 134.687 5.8082 134.421C6.28716 134.156 7.00559 134.156 7.48455 134.421Z" fill="white"/>
<path d="M3.17388 131.501C3.65284 131.767 3.65284 132.298 3.17388 132.563C2.69492 132.829 1.97649 132.829 1.49753 132.563C1.01857 132.298 1.01857 131.767 1.49753 131.501C1.97649 131.236 2.69492 131.236 3.17388 131.501Z" fill="white"/>
<path d="M81.963 131.501C82.442 131.767 82.442 132.298 81.963 132.563C81.4841 132.829 80.7657 132.829 80.2867 132.563C79.8077 132.298 79.8077 131.767 80.2867 131.501C80.7657 131.236 81.4841 131.236 81.963 131.501Z" fill="white"/>
<path d="M86.2737 128.847C86.7526 129.112 86.7526 129.643 86.2737 129.909C85.7947 130.174 85.0762 130.174 84.5973 129.909C84.1183 129.643 84.1183 129.112 84.5973 128.847C85.0762 128.581 85.7947 128.581 86.2737 128.847Z" fill="white"/>
<path d="M90.5843 125.927C91.0633 126.192 91.0633 126.723 90.5843 126.989C90.1054 127.254 89.3869 127.254 88.9079 126.989C88.429 126.723 88.429 126.192 88.9079 125.927C89.3869 125.661 90.1054 125.661 90.5843 125.927Z" fill="white"/>
<path d="M71.4259 131.767C71.9048 131.501 72.6233 131.501 73.1023 131.767C73.5812 132.032 73.5812 132.563 73.1023 132.829C72.6233 133.094 71.9048 133.094 71.4259 132.829C70.9469 132.298 70.9469 132.032 71.4259 131.767Z" fill="white"/>
<path d="M77.6523 128.847C78.1313 129.112 78.1313 129.643 77.6523 129.909C77.1734 130.174 76.4549 130.174 75.9759 129.909C75.497 129.643 75.497 129.112 75.9759 128.847C76.2154 128.581 77.1734 128.581 77.6523 128.847Z" fill="white"/>
<path d="M81.963 125.927C82.442 126.192 82.442 126.723 81.963 126.989C81.4841 127.254 80.7657 127.254 80.2867 126.989C79.8077 126.723 79.8077 126.192 80.2867 125.927C80.7657 125.661 81.4841 125.661 81.963 125.927Z" fill="white"/>
<path d="M86.2737 123.272C86.7526 123.538 86.7526 124.069 86.2737 124.334C85.7947 124.6 85.0762 124.6 84.5973 124.334C84.1183 124.069 84.1183 123.538 84.5973 123.272C85.0762 123.007 85.7947 123.007 86.2737 123.272Z" fill="white"/>
<path d="M90.5843 120.352C91.0633 120.618 91.0633 121.149 90.5843 121.414C90.1054 121.679 89.3869 121.679 88.9079 121.414C88.429 121.149 88.429 120.618 88.9079 120.352C89.3869 120.087 90.1054 120.087 90.5843 120.352Z" fill="white"/>
<path d="M67.1152 128.847C67.5942 128.581 68.3126 128.581 68.7916 128.847C69.2705 129.112 69.2705 129.643 68.7916 129.909C68.3126 130.174 67.5942 130.174 67.1152 129.909C66.6362 129.643 66.6362 129.112 67.1152 128.847Z" fill="white"/>
<path d="M73.1023 125.927C73.5812 126.192 73.5812 126.723 73.1023 126.989C72.6233 127.254 71.9048 127.254 71.4259 126.989C70.9469 126.723 70.9469 126.192 71.4259 125.927C71.9048 125.661 72.6233 125.661 73.1023 125.927Z" fill="white"/>
<path d="M77.6523 123.272C78.1313 123.538 78.1313 124.069 77.6523 124.334C77.1734 124.6 76.4549 124.6 75.9759 124.334C75.497 124.069 75.497 123.538 75.9759 123.272C76.2154 123.007 77.1734 123.007 77.6523 123.272Z" fill="white"/>
<path d="M81.963 120.352C82.442 120.618 82.442 121.149 81.963 121.414C81.4841 121.679 80.7657 121.679 80.2867 121.414C79.8077 121.149 79.8077 120.618 80.2867 120.352C80.7657 120.087 81.4841 120.087 81.963 120.352Z" fill="white"/>
<path d="M86.2737 117.698C86.7526 117.963 86.7526 118.494 86.2737 118.76C85.7947 119.025 85.0762 119.025 84.5973 118.76C84.1183 118.494 84.1183 117.963 84.5973 117.698C85.0762 117.432 85.7947 117.432 86.2737 117.698Z" fill="white"/>
<path d="M90.5843 114.778C91.0633 115.043 91.0633 115.574 90.5843 115.84C90.1054 116.105 89.3869 116.105 88.9079 115.84C88.429 115.574 88.429 115.043 88.9079 114.778C89.3869 114.512 90.1054 114.512 90.5843 114.778Z" fill="white"/>
<path d="M62.8045 125.927C63.2835 125.661 64.002 125.661 64.4809 125.927C64.9599 126.192 64.9599 126.723 64.4809 126.989C64.002 127.254 63.2835 127.254 62.8045 126.989C62.3256 126.723 62.3256 126.458 62.8045 125.927Z" fill="white"/>
<path d="M68.7916 123.272C69.2705 123.538 69.2705 124.069 68.7916 124.334C68.3126 124.6 67.5942 124.6 67.1152 124.334C66.6362 124.069 66.6362 123.538 67.1152 123.272C67.5942 123.007 68.3126 123.007 68.7916 123.272Z" fill="white"/>
<path d="M73.1023 120.352C73.5812 120.618 73.5812 121.149 73.1023 121.414C72.6233 121.679 71.9048 121.679 71.4259 121.414C70.9469 121.149 70.9469 120.618 71.4259 120.352C71.9048 120.087 72.6233 120.087 73.1023 120.352Z" fill="white"/>
<path d="M77.6523 117.698C78.1313 117.963 78.1313 118.494 77.6523 118.76C77.1734 119.025 76.4549 119.025 75.9759 118.76C75.497 118.494 75.497 117.963 75.9759 117.698C76.2154 117.432 77.1734 117.432 77.6523 117.698Z" fill="white"/>
<path d="M81.963 114.778C82.442 115.043 82.442 115.574 81.963 115.84C81.4841 116.105 80.7657 116.105 80.2867 115.84C79.8077 115.574 79.8077 115.043 80.2867 114.778C80.7657 114.512 81.4841 114.512 81.963 114.778Z" fill="white"/>
<path d="M86.2737 112.123C86.7526 112.389 86.7526 112.92 86.2737 113.185C85.7947 113.451 85.0762 113.451 84.5973 113.185C84.1183 112.92 84.1183 112.389 84.5973 112.123C85.0762 111.858 85.7947 111.858 86.2737 112.123Z" fill="white"/>
<path d="M90.5843 109.203C91.0633 109.469 91.0633 110 90.5843 110.265C90.1054 110.531 89.3869 110.531 88.9079 110.265C88.429 110 88.429 109.469 88.9079 109.203C89.3869 108.938 90.1054 108.938 90.5843 109.203Z" fill="white"/>
<path d="M58.2545 123.272C58.7334 123.007 59.4519 123.007 59.9308 123.272C60.4098 123.538 60.4098 124.069 59.9308 124.334C59.4519 124.6 58.7334 124.6 58.2545 124.334C57.7755 124.069 57.7755 123.538 58.2545 123.272Z" fill="white"/>
<path d="M64.4809 120.352C64.9599 120.618 64.9599 121.149 64.4809 121.414C64.002 121.679 63.2835 121.679 62.8045 121.414C62.3256 121.149 62.3256 120.618 62.8045 120.352C63.2835 120.087 64.002 120.087 64.4809 120.352Z" fill="white"/>
<path d="M53.9438 120.352C54.4228 120.087 55.1412 120.087 55.6202 120.352C56.0991 120.618 56.0991 121.149 55.6202 121.414C55.1412 121.679 54.4228 121.679 53.9438 121.414C53.4649 121.149 53.4649 120.618 53.9438 120.352Z" fill="white"/>
<path d="M59.9308 117.698C60.4098 117.963 60.4098 118.494 59.9308 118.76C59.4519 119.025 58.7334 119.025 58.2545 118.76C57.7755 118.494 57.7755 117.963 58.2545 117.698C58.7334 117.432 59.4519 117.432 59.9308 117.698Z" fill="white"/>
<path d="M55.6202 114.778C56.0991 115.043 56.0991 115.574 55.6202 115.84C55.1412 116.105 54.4228 116.105 53.9438 115.84C53.4649 115.574 53.4649 115.043 53.9438 114.778C54.4228 114.512 55.1412 114.512 55.6202 114.778Z" fill="white"/>
<path d="M68.5521 115.84L43.4066 98.851L59.9308 88.4984L68.5521 115.84Z" fill="#89368E"/>
<path d="M70.7074 118.494L41.7302 98.851L60.4097 87.1711L70.7074 118.494ZM45.0829 98.851L67.1151 113.982L59.2123 90.0911L45.0829 98.851Z" fill="white"/>
<path d="M89.8659 16.827L67.3547 1.96179L47.2383 15.2343L69.7495 30.0995L89.8659 16.827Z" fill="#89368E"/>
<path d="M46.5199 90.091L24.0087 75.2258L1.01855 133.359L23.5297 148.225L46.5199 90.091Z" fill="#89368E"/>
<path d="M69.7495 30.0994L47.2383 15.2343L33.5879 53.459L57.536 65.1389L69.7495 30.0994Z" fill="#89368E"/>
<path d="M58.0149 66.466L70.7074 29.8339L47.2383 14.1724L46.5199 14.7033L32.63 54.2553L58.0149 66.466ZM68.7916 30.3648L57.2965 64.077L34.7853 53.1935L47.7173 16.5614L68.7916 30.3648Z" fill="white"/>
<path d="M45.8015 45.7611L23.2903 30.6305L2.69495 44.1684L25.2061 59.2991L45.8015 45.7611Z" fill="#89368E"/>
<path d="M86.2737 26.383L87.2316 22.1358L67.5941 9.12878L47.4778 22.4013L69.9889 37.2665L86.2737 26.383Z" fill="#17161A"/>
<path d="M46.0409 52.9281L23.5297 37.7975L6.04761 49.4773L12.2741 56.6444L25.685 65.9352L46.0409 52.9281Z" fill="#17161A"/>
<path d="M69.7494 73.3677L90.8237 16.5615L67.3546 0.899902L46.5198 14.4379L46.2803 15.4997L68.7915 30.3649L57.5359 63.2806L46.5198 44.9646L23.5297 29.5685L1.73691 43.9028L23.2902 75.2259L0.300049 133.625L23.7692 149.286L45.3224 135.218L58.0149 100.178L70.2284 118.229L70.7073 118.494L92.5 104.16L69.7494 73.3677ZM48.6751 15.2342L67.3546 3.02351L88.1894 16.8269L69.5099 29.0376L48.6751 15.2342ZM23.2902 31.6921L44.125 45.4955L24.9666 57.9716L4.13172 44.1683L23.2902 31.6921ZM6.04757 47.6191L24.2481 59.8298L42.6881 86.3748L24.2481 73.8986L6.04757 47.6191ZM23.0507 146.897L1.97641 132.829L24.2481 76.2877L45.3224 90.3566L44.8434 91.4184L23.0507 146.897Z" fill="white"/>
</svg>
