<svg width="127" height="160" viewBox="0 0 127 160" fill="none" xmlns="http://www.w3.org/2000/svg">
<path d="M33.865 141.329C34.7151 141.329 35.4043 140.981 35.4043 140.551C35.4043 140.121 34.7151 139.773 33.865 139.773C33.0149 139.773 32.3257 140.121 32.3257 140.551C32.3257 140.981 33.0149 141.329 33.865 141.329Z" fill="white"/>
<path d="M40.638 137.18C41.2538 137.439 41.2538 137.958 40.638 138.217C40.0223 138.477 39.0988 138.477 38.483 138.217C37.8673 137.958 37.8673 137.439 38.483 137.18C39.0988 136.921 40.0223 136.921 40.638 137.18Z" fill="white"/>
<path d="M35.0964 134.587C35.7121 134.846 35.7121 135.365 35.0964 135.624C34.4806 135.883 33.557 135.883 32.9413 135.624C32.3256 135.365 32.3256 134.846 32.9413 134.587C33.557 134.068 34.4806 134.068 35.0964 134.587Z" fill="white"/>
<path d="M73.5794 160C74.4295 160 75.1187 159.652 75.1187 159.222C75.1187 158.792 74.4295 158.444 73.5794 158.444C72.7292 158.444 72.04 158.792 72.04 159.222C72.04 159.652 72.7292 160 73.5794 160Z" fill="white"/>
<path d="M80.3525 155.851C80.9682 156.11 80.9682 156.629 80.3525 156.888C79.7368 157.148 78.8131 157.148 78.1974 156.888C77.5817 156.629 77.5817 156.11 78.1974 155.851C78.8131 155.592 79.7368 155.592 80.3525 155.851Z" fill="white"/>
<path d="M85.894 153.258C86.5097 153.517 86.5097 154.036 85.894 154.295C85.2783 154.554 84.3546 154.554 83.7389 154.295C83.1232 154.036 83.1232 153.517 83.7389 153.258C84.3546 152.998 85.2783 152.998 85.894 153.258Z" fill="white"/>
<path d="M91.4356 150.405C92.0514 150.665 92.0514 151.183 91.4356 151.443C90.8199 151.702 89.8964 151.702 89.2806 151.443C88.6649 151.183 88.6649 150.665 89.2806 150.405C89.8964 150.146 90.8199 150.146 91.4356 150.405Z" fill="white"/>
<path d="M96.9772 147.812C97.593 148.071 97.593 148.59 96.9772 148.849C96.3615 149.109 95.4379 149.109 94.8221 148.849C94.2064 148.59 94.2064 148.071 94.8221 147.812C95.4379 147.553 96.6694 147.553 96.9772 147.812Z" fill="white"/>
<path d="M102.827 144.96C103.442 145.219 103.442 145.738 102.827 145.997C102.211 146.256 101.287 146.256 100.672 145.997C100.056 145.738 100.056 145.219 100.672 144.96C101.287 144.7 102.211 144.7 102.827 144.96Z" fill="white"/>
<path d="M108.368 142.366C108.984 142.626 108.984 143.144 108.368 143.404C107.752 143.663 106.829 143.663 106.213 143.404C105.597 143.144 105.597 142.626 106.213 142.366C106.829 142.107 107.752 142.107 108.368 142.366Z" fill="white"/>
<path d="M63.4201 158.703C64.0358 158.963 64.0358 159.481 63.4201 159.741C62.8044 160 61.8807 160 61.265 159.741C60.6493 159.481 60.6493 158.963 61.265 158.703C61.8807 158.444 62.8044 158.444 63.4201 158.703Z" fill="white"/>
<path d="M68.9614 155.851C69.5771 156.11 69.5771 156.629 68.9614 156.888C68.3456 157.148 67.422 157.148 66.8063 156.888C66.1906 156.629 66.1906 156.11 66.8063 155.851C67.422 155.592 68.3456 155.592 68.9614 155.851Z" fill="white"/>
<path d="M74.503 153.258C75.1187 153.517 75.1187 154.036 74.503 154.295C73.8873 154.554 72.9638 154.554 72.348 154.295C71.7323 154.036 71.7323 153.517 72.348 153.258C72.9638 152.998 73.8873 152.998 74.503 153.258Z" fill="white"/>
<path d="M80.3525 150.405C80.9682 150.665 80.9682 151.183 80.3525 151.443C79.7368 151.702 78.8131 151.702 78.1974 151.443C77.5817 151.183 77.5817 150.665 78.1974 150.405C78.8131 150.146 79.7368 150.146 80.3525 150.405Z" fill="white"/>
<path d="M85.894 147.812C86.5097 148.071 86.5097 148.59 85.894 148.849C85.2783 149.109 84.3546 149.109 83.7389 148.849C83.1232 148.59 83.1232 148.071 83.7389 147.812C84.3546 147.553 85.2783 147.553 85.894 147.812Z" fill="white"/>
<path d="M91.4356 144.96C92.0514 145.219 92.0514 145.738 91.4356 145.997C90.8199 146.256 89.8964 146.256 89.2806 145.997C88.6649 145.738 88.6649 145.219 89.2806 144.96C89.8964 144.7 90.8199 144.7 91.4356 144.96Z" fill="white"/>
<path d="M96.9772 142.366C97.593 142.626 97.593 143.144 96.9772 143.404C96.3615 143.663 95.4379 143.663 94.8221 143.404C94.2064 143.144 94.2064 142.626 94.8221 142.366C95.4379 142.107 96.6694 142.107 96.9772 142.366Z" fill="white"/>
<path d="M102.827 139.514C103.442 139.773 103.442 140.292 102.827 140.551C102.211 140.81 101.287 140.81 100.672 140.551C100.056 140.292 100.056 139.773 100.672 139.514C101.287 139.254 102.211 139.254 102.827 139.514Z" fill="white"/>
<path d="M108.368 136.921C108.984 137.18 108.984 137.699 108.368 137.958C107.752 138.217 106.829 138.217 106.213 137.958C105.597 137.699 105.597 137.18 106.213 136.921C106.829 136.402 107.752 136.402 108.368 136.921Z" fill="white"/>
<path d="M57.8785 155.851C58.4942 156.11 58.4942 156.629 57.8785 156.888C57.2628 157.148 56.3392 157.148 55.7235 156.888C55.1078 156.629 55.1078 156.11 55.7235 155.851C56.0314 155.592 57.2628 155.592 57.8785 155.851Z" fill="white"/>
<path d="M63.4201 153.258C64.0358 153.517 64.0358 154.036 63.4201 154.295C62.8044 154.554 61.8807 154.554 61.265 154.295C60.6493 154.036 60.6493 153.517 61.265 153.258C61.8807 152.998 62.8044 152.998 63.4201 153.258Z" fill="white"/>
<path d="M68.0379 151.702C68.888 151.702 69.5772 151.353 69.5772 150.924C69.5772 150.494 68.888 150.146 68.0379 150.146C67.1877 150.146 66.4985 150.494 66.4985 150.924C66.4985 151.353 67.1877 151.702 68.0379 151.702Z" fill="white"/>
<path d="M74.503 147.812C75.1187 148.071 75.1187 148.59 74.503 148.849C73.8873 149.109 72.9638 149.109 72.348 148.849C71.7323 148.59 71.7323 148.071 72.348 147.812C72.9638 147.553 73.8873 147.553 74.503 147.812Z" fill="white"/>
<path d="M80.3525 144.96C80.9682 145.219 80.9682 145.738 80.3525 145.997C79.7368 146.256 78.8131 146.256 78.1974 145.997C77.5817 145.738 77.5817 145.219 78.1974 144.96C78.8131 144.7 79.7368 144.7 80.3525 144.96Z" fill="white"/>
<path d="M85.894 142.366C86.5097 142.626 86.5097 143.144 85.894 143.404C85.2783 143.663 84.3546 143.663 83.7389 143.404C83.1232 143.144 83.1232 142.626 83.7389 142.366C84.3546 142.107 85.2783 142.107 85.894 142.366Z" fill="white"/>
<path d="M91.4356 139.514C92.0514 139.773 92.0514 140.292 91.4356 140.551C90.8199 140.81 89.8964 140.81 89.2806 140.551C88.6649 140.292 88.6649 139.773 89.2806 139.514C89.8964 139.254 90.8199 139.254 91.4356 139.514Z" fill="white"/>
<path d="M96.9772 136.921C97.593 137.18 97.593 137.699 96.9772 137.958C96.3615 138.217 95.4379 138.217 94.8221 137.958C94.2064 137.699 94.2064 137.18 94.8221 136.921C95.4379 136.402 96.6694 136.402 96.9772 136.921Z" fill="white"/>
<path d="M102.827 134.068C103.442 134.327 103.442 134.846 102.827 135.105C102.211 135.365 101.287 135.365 100.672 135.105C100.056 134.846 100.056 134.327 100.672 134.068C101.287 133.809 102.211 133.809 102.827 134.068Z" fill="white"/>
<path d="M51.1055 154.554C51.9556 154.554 52.6448 154.206 52.6448 153.776C52.6448 153.347 51.9556 152.998 51.1055 152.998C50.2553 152.998 49.5662 153.347 49.5662 153.776C49.5662 154.206 50.2553 154.554 51.1055 154.554Z" fill="white"/>
<path d="M56.647 151.702C57.4971 151.702 58.1863 151.353 58.1863 150.924C58.1863 150.494 57.4971 150.146 56.647 150.146C55.7968 150.146 55.1077 150.494 55.1077 150.924C55.1077 151.353 55.7968 151.702 56.647 151.702Z" fill="white"/>
<path d="M63.4201 147.812C64.0358 148.071 64.0358 148.59 63.4201 148.849C62.8044 149.109 61.8807 149.109 61.265 148.849C60.6493 148.59 60.6493 148.071 61.265 147.812C61.8807 147.553 62.8044 147.553 63.4201 147.812Z" fill="white"/>
<path d="M68.9614 144.96C69.5771 145.219 69.5771 145.738 68.9614 145.997C68.3456 146.256 67.422 146.256 66.8063 145.997C66.1906 145.738 66.1906 145.219 66.8063 144.96C67.422 144.7 68.3456 144.7 68.9614 144.96Z" fill="white"/>
<path d="M74.503 142.366C75.1187 142.626 75.1187 143.144 74.503 143.404C73.8873 143.663 72.9638 143.663 72.348 143.404C71.7323 143.144 71.7323 142.626 72.348 142.366C72.9638 141.848 73.8873 141.848 74.503 142.366Z" fill="white"/>
<path d="M80.0446 139.514C80.6603 139.773 80.6603 140.292 80.0446 140.551C79.4289 140.81 78.5053 140.81 77.8895 140.551C77.2738 140.292 77.2738 139.773 77.8895 139.514C78.5053 139.254 79.7368 139.254 80.0446 139.514Z" fill="white"/>
<path d="M85.894 136.661C86.5097 136.921 86.5097 137.439 85.894 137.699C85.2783 137.958 84.3546 137.958 83.7389 137.699C83.1232 137.439 83.1232 136.921 83.7389 136.661C84.3546 136.402 85.2783 136.402 85.894 136.661Z" fill="white"/>
<path d="M91.4356 134.068C92.0514 134.327 92.0514 134.846 91.4356 135.105C90.8199 135.365 89.8964 135.365 89.2806 135.105C88.6649 134.846 88.6649 134.327 89.2806 134.068C89.8964 133.809 90.8199 133.809 91.4356 134.068Z" fill="white"/>
<path d="M96.9772 131.216C97.593 131.475 97.593 131.994 96.9772 132.253C96.3615 132.512 95.4379 132.512 94.8221 132.253C94.2064 131.994 94.2064 131.475 94.8221 131.216C95.4379 130.956 96.3615 130.956 96.9772 131.216Z" fill="white"/>
<path d="M46.4875 150.405C47.1032 150.665 47.1032 151.183 46.4875 151.443C45.8718 151.702 44.9481 151.702 44.3324 151.443C43.7167 151.183 43.7167 150.665 44.3324 150.405C44.9481 150.146 45.8718 150.146 46.4875 150.405Z" fill="white"/>
<path d="M52.029 147.812C52.6447 148.071 52.6447 148.59 52.029 148.849C51.4133 149.109 50.4896 149.109 49.8739 148.849C49.2582 148.59 49.2582 148.071 49.8739 147.812C50.4896 147.553 51.4133 147.553 52.029 147.812Z" fill="white"/>
<path d="M56.647 146.256C57.4971 146.256 58.1863 145.908 58.1863 145.478C58.1863 145.049 57.4971 144.7 56.647 144.7C55.7968 144.7 55.1077 145.049 55.1077 145.478C55.1077 145.908 55.7968 146.256 56.647 146.256Z" fill="white"/>
<path d="M40.9459 147.812C41.5616 148.071 41.5616 148.59 40.9459 148.849C40.3302 149.109 39.4066 149.109 38.7909 148.849C38.1752 148.59 38.1752 148.071 38.7909 147.812C39.4066 147.553 40.3302 147.553 40.9459 147.812Z" fill="white"/>
<path d="M45.2559 146.256C46.106 146.256 46.7952 145.908 46.7952 145.478C46.7952 145.049 46.106 144.7 45.2559 144.7C44.4057 144.7 43.7166 145.049 43.7166 145.478C43.7166 145.908 44.4057 146.256 45.2559 146.256Z" fill="white"/>
<path d="M52.029 142.366C52.6447 142.626 52.6447 143.144 52.029 143.404C51.4133 143.663 50.4896 143.663 49.8739 143.404C49.2582 143.144 49.2582 142.626 49.8739 142.366C50.4896 141.848 51.4133 141.848 52.029 142.366Z" fill="white"/>
<path d="M35.0964 144.96C35.7121 145.219 35.7121 145.738 35.0964 145.997C34.4806 146.256 33.557 146.256 32.9413 145.997C32.3256 145.738 32.3256 145.219 32.9413 144.96C33.557 144.7 34.4806 144.7 35.0964 144.96Z" fill="white"/>
<path d="M40.9459 142.366C41.5616 142.626 41.5616 143.144 40.9459 143.404C40.3302 143.663 39.4066 143.663 38.7909 143.404C38.1752 143.144 38.1752 142.626 38.7909 142.366C39.4066 141.848 40.3302 141.848 40.9459 142.366Z" fill="white"/>
<path d="M46.4875 139.514C47.1032 139.773 47.1032 140.292 46.4875 140.551C45.8718 140.81 44.9481 140.81 44.3324 140.551C43.7167 140.292 43.7167 139.773 44.3324 139.514C44.9481 139.254 45.8718 139.254 46.4875 139.514Z" fill="white"/>
<path d="M31.0942 30.5997L48.0268 75.2026L65.2671 47.4555L72.6559 43.825L61.8807 15.2999L31.0942 30.5997Z" fill="#89368E"/>
<path d="M48.0268 75.2027L65.2672 47.4556L94.5143 61.7181L61.5728 105.024V143.144L34.173 129.919V92.5772L1.23145 16.3373L30.7864 30.5998L48.0268 75.2027Z" fill="#89368E"/>
<path d="M1.53931 16.3372L32.3257 1.03735L61.8807 15.2999L31.0943 30.5997L1.53931 16.3372Z" fill="#89368E"/>
<path d="M65.2671 47.4555L96.3614 32.1556L125.608 46.4182L94.8221 61.718L65.2671 47.4555Z" fill="#89368E"/>
<path d="M3.69434 22.5607L32.6336 8.2981L61.8807 22.5607L31.0943 38.1198L5.54154 25.6725L3.69434 22.5607Z" fill="#17161A"/>
<path d="M65.575 54.7162L96.3614 39.4164L121.606 51.6044L118.22 57.3094L94.8221 68.9788L65.575 54.7162Z" fill="#17161A"/>
<path d="M96.3615 30.859L73.5795 42.269L62.8043 14.7812L32.3257 0L0 16.0778L33.2493 92.8363V130.438L61.5728 144.182L93.5907 128.363V89.7245L126.84 45.8995L96.3615 30.859ZM96.3615 33.1929L123.454 46.4182L94.8221 60.6807L67.7301 47.4554L96.3615 33.1929ZM71.4244 43.3063L64.3436 46.6775L48.3346 72.6094L32.3257 31.1183L61.265 16.8558L71.4244 43.3063ZM32.3257 2.07456L59.4178 15.2999L30.7864 29.5624L3.69431 16.3371L32.3257 2.07456ZM60.6492 104.765V141.329L35.7123 129.141V92.577L3.69431 18.671L29.8628 31.3776L47.719 77.5365L65.575 48.752L92.6671 61.9773L60.6492 104.765Z" fill="white"/>
<path d="M63.7278 105.284L66.8064 100.875L90.512 88.9467V92.0585L63.7278 105.284Z" fill="#89368E"/>
</svg>
