<svg width="60" height="60" viewBox="0 0 60 60" fill="none" xmlns="http://www.w3.org/2000/svg">
<g id="vector" clip-path="url(#clip0_756_4418)">
<g id="Group">
<g id="Group_2">
<path id="Vector" d="M58.2422 0H51.2109C50.2402 0 49.4531 0.787031 49.4531 1.75781V3.51562H34.9711C34.2455 1.46977 32.2916 0 30 0C27.7084 0 25.7545 1.46977 25.0289 3.51562H10.5469V1.75781C10.5469 0.787031 9.75984 0 8.78906 0H1.75781C0.787031 0 0 0.787031 0 1.75781V8.78906C0 9.75984 0.787031 10.5469 1.75781 10.5469H8.78906C9.75984 10.5469 10.5469 9.75984 10.5469 8.78906V7.00781H17.8567C11.515 11.0243 7.65996 17.8096 7.19625 25.0127C5.12555 25.7248 3.63281 27.6907 3.63281 30C3.63281 32.9078 5.99848 35.2734 8.90625 35.2734C11.814 35.2734 14.1797 32.9078 14.1797 30C14.1797 27.7289 12.7365 25.7885 10.7191 25.0477C11.3433 16.7687 17.3048 9.6382 25.2769 7.61508C26.141 9.35086 27.9329 10.5469 30 10.5469C32.0671 10.5469 33.859 9.35086 34.7231 7.6152C42.6953 9.63832 48.6567 16.7688 49.2809 25.0478C47.2635 25.7885 45.8203 27.7289 45.8203 30C45.8203 32.9078 48.186 35.2734 51.0938 35.2734C54.0015 35.2734 56.3672 32.9078 56.3672 30C56.3672 27.6907 54.8745 25.7248 52.8038 25.0127C52.3391 17.7952 48.4726 11.0399 42.1433 7.03125H49.4531V8.78906C49.4531 9.75984 50.2402 10.5469 51.2109 10.5469H58.2422C59.213 10.5469 60 9.75984 60 8.78906V1.75781C60 0.787031 59.213 0 58.2422 0ZM7.03125 7.03125H3.51562V3.51562H7.03125V7.03125ZM8.90625 31.7578C7.93699 31.7578 7.14844 30.9693 7.14844 30C7.14844 29.0307 7.93699 28.2422 8.90625 28.2422C9.87551 28.2422 10.6641 29.0307 10.6641 30C10.6641 30.9693 9.87551 31.7578 8.90625 31.7578ZM30 7.03125C29.0307 7.03125 28.2422 6.2427 28.2422 5.27344C28.2422 4.30418 29.0307 3.51562 30 3.51562C30.9693 3.51562 31.7578 4.30418 31.7578 5.27344C31.7578 6.2427 30.9693 7.03125 30 7.03125ZM51.0938 28.2422C52.063 28.2422 52.8516 29.0307 52.8516 30C52.8516 30.9693 52.063 31.7578 51.0938 31.7578C50.1245 31.7578 49.3359 30.9693 49.3359 30C49.3359 29.0307 50.1245 28.2422 51.0938 28.2422ZM56.4844 7.03125H52.9688V3.51562H56.4844V7.03125Z" fill="#89368E"/>
</g>
</g>
<g id="Group_3">
<g id="Group_4">
<path id="Vector_2" d="M45.525 36.0549L31.4625 14.9613C31.462 14.9606 31.4614 14.9599 31.461 14.9591C31.4559 14.9516 31.4504 14.9444 31.4453 14.937C31.4211 14.902 31.3957 14.8682 31.3692 14.8353C30.6285 13.9149 29.218 13.977 28.5547 14.937C28.5496 14.9444 28.5441 14.9516 28.539 14.9591C28.5385 14.9599 28.538 14.9605 28.5375 14.9613L14.475 36.055C14.0101 36.7522 14.1021 37.6805 14.6946 38.273C18.2017 41.7801 20.4339 46.3645 21.0419 51.2693C20.769 51.4899 20.5055 51.7262 20.2556 51.9819C18.6046 53.6708 17.6953 55.8937 17.6953 58.241C17.6953 59.2118 18.4823 59.9988 19.4531 59.9988H40.5469C41.5176 59.9988 42.3047 59.2118 42.3047 58.241C42.3047 55.8937 41.3954 53.6708 39.7445 51.9818C39.4945 51.7261 39.2311 51.4898 38.958 51.2691C39.566 46.3641 41.7982 41.7798 45.3053 38.273C45.8979 37.6805 45.9899 36.7521 45.525 36.0549ZM30 35.2722C30.9692 35.2722 31.7578 36.0608 31.7578 37.03C31.7578 37.9993 30.9692 38.7878 30 38.7878C29.0307 38.7878 28.2422 37.9993 28.2422 37.03C28.2422 36.0608 29.0307 35.2722 30 35.2722ZM21.5107 56.4832C22.2421 54.3934 24.2246 52.8503 26.4844 52.8503H33.5156C35.7753 52.8503 37.7579 54.3934 38.4893 56.4832H21.5107ZM35.6537 49.6023C34.9623 49.4258 34.2456 49.3347 33.5156 49.3347H26.4844C25.7544 49.3347 25.0377 49.4258 24.3463 49.6024C23.5236 44.8646 21.3872 40.4359 18.1764 36.8408L28.2422 21.742V32.0591C26.1962 32.7847 24.7266 34.7386 24.7266 37.0302C24.7266 39.9379 27.0922 42.3036 30 42.3036C32.9078 42.3036 35.2734 39.9379 35.2734 37.0302C35.2734 34.7386 33.8038 32.7847 31.7578 32.0591V21.742L41.8237 36.8408C38.6128 40.4355 36.4762 44.8644 35.6537 49.6023Z" fill="#89368E"/>
</g>
</g>
</g>
<defs>
<clipPath id="clip0_756_4418">
<rect width="60" height="60" fill="white"/>
</clipPath>
</defs>
</svg>
