<svg width="44" height="44" viewBox="0 0 44 44" fill="none" xmlns="http://www.w3.org/2000/svg">
<g clip-path="url(#clip0_64_36)">
<path d="M6.64891 44H37.3511C40.5696 44 43.1852 41.3844 43.1852 38.1659V9.09329C43.1852 5.87478 40.5696 3.2592 37.3511 3.2592H35.0371V1.6296C35.0371 0.733293 34.3037 0 33.4074 0C32.511 0 31.7778 0.733293 31.7778 1.6296V3.2592H12.2223V1.6296C12.2223 0.733293 11.4889 0 10.5926 0C9.69625 0 8.96295 0.733293 8.96295 1.6296V3.2592H6.64891C3.4304 3.2592 0.814819 5.87478 0.814819 9.09329V38.1659C0.814819 41.3844 3.4304 44 6.64891 44ZM4.07415 9.09329C4.07415 7.67556 5.23118 6.51853 6.64891 6.51853H8.96295V8.14813C8.96295 9.04444 9.69625 9.77773 10.5926 9.77773C11.4889 9.77773 12.2222 9.04444 12.2222 8.14813V6.51853H31.7778V8.14813C31.7778 9.04444 32.511 9.77773 33.4074 9.77773C34.3037 9.77773 35.037 9.04444 35.037 8.14813V6.51853H37.351C38.7687 6.51853 39.9257 7.67556 39.9257 9.09329V13.8519H4.07415V9.09329ZM4.07415 17.1111H39.926V38.1659C39.926 39.5836 38.769 40.7407 37.3513 40.7407H6.64891C5.23118 40.7407 4.07415 39.5836 4.07415 38.1659V17.1111Z" fill="#89368E"/>
<rect x="8.5" y="-6.10352e-05" width="4" height="10" rx="1" fill="#17161A"/>
<rect x="31.5" y="-6.10352e-05" width="4" height="10" rx="1" fill="#17161A"/>
</g>
<defs>
<clipPath id="clip0_64_36">
<rect width="44" height="44" fill="white"/>
</clipPath>
</defs>
</svg>
