<svg width="44" height="44" viewBox="0 0 44 44" fill="none" xmlns="http://www.w3.org/2000/svg">
<g clip-path="url(#clip0_64_24)">
<path d="M28.7868 0C20.5868 0 13.9154 6.67133 13.9154 14.8714C13.9154 16.6944 14.2393 18.4659 14.8789 20.1482L0.659311 34.3688C0.456069 34.5721 0.341858 34.8477 0.341858 35.1351V42.9162C0.341858 43.5148 0.827061 44 1.42562 44H7.83793C8.12505 44 8.40039 43.8861 8.60363 43.6832L10.7645 41.5256C10.9682 41.3223 11.0826 41.0463 11.0826 40.7586V38.1052H13.7326C14.3312 38.1052 14.8164 37.62 14.8164 37.0214V35.9593H15.8787C16.4771 35.9593 16.9624 35.4741 16.9624 34.8755V32.5435H19.2944C19.5818 32.5435 19.8574 32.4293 20.0607 32.226L23.5086 28.7781C25.1912 29.4183 26.963 29.7426 28.7867 29.7426C36.9867 29.7426 43.6581 23.0713 43.6581 14.8712C43.6581 6.67133 36.9869 0 28.7868 0ZM28.7868 27.5751C27.0129 27.5751 25.2972 27.2168 23.6874 26.5101C23.2711 26.3274 22.8023 26.4279 22.4953 26.7271C22.492 26.7303 22.4887 26.7328 22.4855 26.7362L18.8457 30.376H15.8788C15.2803 30.376 14.7951 30.8612 14.7951 31.4597V33.7917H13.7328C13.1343 33.7917 12.6491 34.2769 12.6491 34.8755V35.9377H9.99891C9.40044 35.9377 8.91515 36.4229 8.91515 37.0214V40.3092L7.38951 41.8324H2.50955V40.3009L15.756 27.0545C16.137 26.6735 16.137 26.056 15.756 25.6751C15.3751 25.2942 14.7577 25.2941 14.3765 25.6751L2.50955 37.5421V35.5841L16.9209 21.1717C16.9242 21.1685 16.9267 21.1655 16.9297 21.1623C17.2289 20.8556 17.3298 20.3868 17.1471 19.9702C16.441 18.3604 16.0832 16.6448 16.0832 14.8715C16.0832 7.86655 21.7821 2.1676 28.7871 2.1676C35.792 2.1676 41.4908 7.86646 41.4908 14.8715C41.4906 21.8763 35.7916 27.5751 28.7868 27.5751Z" fill="#89368E"/>
<path d="M33.3127 6.28583C31.0743 6.28583 29.2532 8.10684 29.2532 10.3453C29.2532 12.5837 31.0743 14.4047 33.3127 14.4047C35.5511 14.4047 37.3721 12.5837 37.3721 10.3453C37.3721 8.10684 35.5512 6.28583 33.3127 6.28583ZM33.3127 12.2372C32.2695 12.2372 31.4207 11.3885 31.4207 10.3453C31.4207 9.30206 32.2695 8.45334 33.3127 8.45334C34.3559 8.45334 35.2046 9.30206 35.2046 10.3453C35.2046 11.3885 34.3559 12.2372 33.3127 12.2372Z" fill="#17161A"/>
</g>
<defs>
<clipPath id="clip0_64_24">
<rect width="44" height="44" fill="white"/>
</clipPath>
</defs>
</svg>
