<svg width="44" height="44" viewBox="0 0 44 44" fill="none" xmlns="http://www.w3.org/2000/svg">
<g clip-path="url(#clip0_64_48)">
<path d="M41.3747 15.898C40.5188 15.7737 39.7021 15.4579 38.9852 14.9742C38.2684 14.4904 37.6699 13.8512 37.2343 13.1041C36.7987 12.357 36.5373 11.5213 36.4695 10.6591C36.4017 9.79699 36.5292 8.93066 36.8427 8.12465C37.0419 7.59772 37.0713 7.02164 36.9266 6.47719C36.7819 5.93273 36.4705 5.4472 36.036 5.08865C34.1176 3.47776 31.9341 2.21229 29.5827 1.34866C29.0472 1.14975 28.4627 1.1249 27.9123 1.27764C27.3619 1.43038 26.8737 1.75293 26.5173 2.19932C25.981 2.88521 25.2954 3.43995 24.5127 3.82147C23.73 4.20299 22.8707 4.40127 22 4.40127C21.1293 4.40127 20.27 4.20299 19.4873 3.82147C18.7046 3.43995 18.0191 2.88521 17.4827 2.19932C17.1263 1.75293 16.6382 1.43038 16.0878 1.27764C15.5374 1.1249 14.9528 1.14975 14.4174 1.34866C12.2462 2.146 10.2162 3.28477 8.40403 4.72199C7.94722 5.08362 7.6182 5.58199 7.46512 6.14414C7.31205 6.70629 7.34297 7.30268 7.55336 7.84599C7.8918 8.67332 8.03163 9.56845 7.96164 10.4596C7.89164 11.3507 7.61378 12.213 7.15032 12.9774C6.68686 13.7417 6.05072 14.3868 5.29292 14.8609C4.53513 15.335 3.67676 15.6249 2.7867 15.7073C2.20884 15.7691 1.66609 16.0148 1.23835 16.4082C0.810616 16.8016 0.520493 17.322 0.410698 17.8926C0.137602 19.2445 3.17392e-05 20.6202 3.17392e-05 21.9993C-0.00197553 23.1539 0.0912292 24.3067 0.278698 25.446C0.372 26.0349 0.656726 26.5768 1.08885 26.9877C1.52098 27.3986 2.07645 27.6557 2.66936 27.7193C3.57898 27.8047 4.45492 28.1067 5.22386 28.6C5.9928 29.0934 6.63238 29.7638 7.08906 30.5551C7.54574 31.3464 7.80623 32.2355 7.84873 33.1482C7.89124 34.0608 7.71451 34.9703 7.33336 35.8006C7.08392 36.3407 7.02205 36.9487 7.15756 37.5279C7.29308 38.1072 7.61822 38.6246 8.08136 38.998C9.98819 40.5796 12.1507 41.8245 14.476 42.6793C14.7734 42.7823 15.0854 42.8368 15.4 42.8406C15.8315 42.8397 16.2564 42.7353 16.6392 42.5363C17.022 42.3372 17.3515 42.0493 17.6 41.6966C18.1228 40.935 18.8235 40.3125 19.6414 39.8831C20.4593 39.4537 21.3696 39.2304 22.2933 39.2326C23.1884 39.2338 24.0708 39.4438 24.8703 39.8462C25.6698 40.2485 26.3644 40.8319 26.8987 41.55C27.2541 42.0277 27.7575 42.3745 28.3305 42.5363C28.9035 42.6981 29.5139 42.6659 30.0667 42.4446C32.1929 41.5889 34.1723 40.4062 35.9333 38.9393C36.3757 38.5735 36.6907 38.0769 36.833 37.5209C36.9753 36.9648 36.9376 36.3779 36.7253 35.8446C36.3804 35.028 36.23 34.1423 36.286 33.2575C36.342 32.3728 36.6029 31.5131 37.0481 30.7465C37.4933 29.9798 38.1106 29.3272 38.8513 28.84C39.5919 28.3528 40.4357 28.0445 41.316 27.9393C41.8868 27.8604 42.4177 27.6018 42.8317 27.201C43.2457 26.8001 43.5213 26.2779 43.6187 25.71C43.8542 24.4866 43.9818 23.245 44 21.9993C44.0003 20.6854 43.8775 19.3743 43.6333 18.0833C43.5343 17.5279 43.2628 17.0178 42.8573 16.6255C42.4518 16.2332 41.9331 15.9786 41.3747 15.898ZM40.7587 25.05C39.4678 25.2385 38.2361 25.7161 37.1555 26.4469C36.0748 27.1778 35.1731 28.1432 34.5175 29.271C33.862 30.3989 33.4694 31.6603 33.3692 32.961C33.269 34.2617 33.4636 35.5683 33.9387 36.7833C32.4843 38.0021 30.8521 38.9913 29.0987 39.7166C28.2918 38.6682 27.2542 37.8198 26.0663 37.2373C24.8785 36.6548 23.5723 36.3539 22.2493 36.358C20.8881 36.3653 19.5476 36.6915 18.3352 37.3105C17.1228 37.9294 16.0724 38.8238 15.268 39.922C13.3687 39.1995 11.5964 38.1797 10.0174 36.9006C10.5524 35.6705 10.7926 34.3323 10.7187 32.9929C10.6449 31.6535 10.259 30.3498 9.59202 29.186C8.91789 28.0093 7.97795 27.0066 6.84726 26.2579C5.71658 25.5092 4.42649 25.0353 3.08003 24.874C2.96233 23.9205 2.91332 22.9598 2.93336 21.9993C2.93374 20.8623 3.04178 19.7279 3.25603 18.6113C4.56936 18.4574 5.82996 18.0046 6.94102 17.2876C8.05208 16.5707 8.98405 15.6086 9.66536 14.4753C10.3457 13.3536 10.7603 12.091 10.8772 10.7842C10.9942 9.47753 10.8104 8.16137 10.34 6.93665C11.8368 5.76252 13.5034 4.82289 15.2827 4.14999C16.0971 5.14438 17.1221 5.94556 18.2837 6.49569C19.4454 7.04582 20.7147 7.33119 22 7.33119C23.2853 7.33119 24.5546 7.04582 25.7163 6.49569C26.8779 5.94556 27.9029 5.14438 28.7173 4.14999C30.6507 4.88049 32.4497 5.92619 34.0413 7.24465C33.6064 8.4422 33.4404 9.72078 33.5551 10.9897C33.6697 12.2586 34.0622 13.4867 34.7047 14.5869C35.3472 15.6871 36.2239 16.6325 37.2727 17.3558C38.3215 18.0792 39.5166 18.5629 40.7733 18.7726C40.9641 19.8377 41.0623 20.9173 41.0667 21.9993C41.0626 23.0211 40.9793 24.0411 40.8173 25.05H40.7587Z" fill="#89368E"/>
<path d="M21.9999 13.1993C20.2595 13.1993 18.5581 13.7154 17.1109 14.6823C15.6638 15.6493 14.5359 17.0237 13.8698 18.6317C13.2038 20.2396 13.0295 22.009 13.369 23.7161C13.7086 25.4231 14.5467 26.9911 15.7774 28.2218C17.0081 29.4525 18.5761 30.2906 20.2832 30.6302C21.9902 30.9697 23.7596 30.7955 25.3676 30.1294C26.9755 29.4634 28.3499 28.3354 29.3169 26.8883C30.2838 25.4411 30.7999 23.7397 30.7999 21.9993C30.7999 19.6654 29.8728 17.4271 28.2225 15.7767C26.5722 14.1264 24.3339 13.1993 21.9999 13.1993ZM21.9999 27.8659C20.8396 27.8659 19.7054 27.5219 18.7406 26.8772C17.7758 26.2326 17.0239 25.3163 16.5799 24.2443C16.1358 23.1724 16.0196 21.9928 16.246 20.8547C16.4724 19.7167 17.0311 18.6714 17.8516 17.8509C18.6721 17.0304 19.7174 16.4717 20.8554 16.2453C21.9934 16.019 23.173 16.1351 24.245 16.5792C25.317 17.0232 26.2333 17.7752 26.8779 18.7399C27.5225 19.7047 27.8666 20.839 27.8666 21.9993C27.8666 23.5552 27.2485 25.0474 26.1483 26.1476C25.0481 27.2478 23.5559 27.8659 21.9999 27.8659Z" fill="#17161A"/>
</g>
<defs>
<clipPath id="clip0_64_48">
<rect width="44" height="44" fill="white"/>
</clipPath>
</defs>
</svg>
