<svg width="143" height="39" viewBox="0 0 143 39" fill="none" xmlns="http://www.w3.org/2000/svg">
<g clip-path="url(#clip0_25_613)">
<path d="M37.9892 0H0V37.9892H37.9892V0Z" fill="white"/>
<path d="M0.387634 37.6015V0.387573H37.6016V37.6015H0.387634Z" fill="black" stroke="white" stroke-width="0.77529"/>
<path d="M10.2959 25.3129V25.8659C10.2959 26.5041 10.1258 26.9296 9.82802 27.27C9.40254 27.6955 8.63717 28.0358 7.01992 28.0358C5.19101 28.0358 4.42502 27.6529 3.99939 27.1853C3.61655 26.8024 3.40381 26.2495 3.40381 25.5688C3.40381 24.9306 3.61655 24.3353 3.99939 23.9523C4.42479 23.5269 5.27551 23.1018 7.01992 23.1018C8.38133 23.1018 9.44502 23.357 9.99781 23.6548V24.5906C9.35974 24.2077 8.2534 23.9525 7.01992 23.9525C5.74379 23.9525 5.10573 24.2077 4.80801 24.5055C4.55279 24.7607 4.42518 25.101 4.42518 25.5692C4.42518 26.0797 4.55279 26.4197 4.80801 26.6329C5.1058 26.9307 5.65851 27.1859 7.01992 27.1859C8.12626 27.1859 8.80696 26.9731 9.06203 26.7179C9.23221 26.5477 9.31726 26.3351 9.31726 26.1223H6.50916V25.2718H10.2957L10.2959 25.3129Z" fill="white"/>
<path d="M16.0796 26.887C16.1647 26.802 16.2072 26.6743 16.2072 26.5467C16.2072 26.4191 16.1647 26.2915 16.0796 26.2064C15.9519 26.0788 15.6541 25.9937 14.0801 25.9086C12.2504 25.8235 11.6976 25.6533 11.3999 25.3555C11.2297 25.1854 11.1447 24.8877 11.1447 24.5899C11.1447 24.2495 11.2297 23.9092 11.4425 23.6541C11.7403 23.3137 12.3782 23.1011 13.9947 23.1011C15.2708 23.1011 16.2066 23.2713 16.8028 23.5265V24.4196C16.1222 24.1218 14.9739 23.9091 13.9947 23.9091C12.7612 23.9091 12.3782 24.0367 12.2503 24.1643C12.1653 24.2494 12.1227 24.3345 12.1227 24.4621C12.1227 24.5898 12.1653 24.6748 12.2078 24.7599C12.3354 24.8876 12.6332 24.9726 14.1219 25.0577C16.0361 25.1428 16.5897 25.313 16.8874 25.6108C17.0576 25.7809 17.1852 26.0787 17.1852 26.4186C17.1852 26.759 17.1001 27.0993 16.8874 27.3544C16.5471 27.6947 15.909 27.95 14.2072 27.95C12.9311 27.95 11.6976 27.7372 11.0169 27.4394V26.5463C11.6976 26.8867 13.1443 27.1419 14.2072 27.1419C15.4834 27.1845 15.909 27.0994 16.0788 26.8867L16.0796 26.887Z" fill="white"/>
<path d="M25.9955 27.9104H25.0597V23.9967L22.6346 27.9104H21.4011L18.976 23.9967V27.9104H18.0402V23.2307H19.5714L22.0384 27.2723L24.5054 23.2307H25.9939L25.9955 27.9104Z" fill="white"/>
<path d="M30.9728 23.1812L34.036 27.9034H32.9297L32.2065 26.7971H28.3781L27.6548 27.9034H26.5911L29.6543 23.1812H30.9728ZM28.8881 25.9466H31.6962L30.2921 23.7347L28.8881 25.9466Z" fill="white"/>
<path d="M32.9266 23.3516H32.6288V23.1814H33.3945V23.3516H33.0967V24.2447H32.9266V23.3516Z" fill="white"/>
<path d="M33.6089 23.1812H33.7791L34.0769 23.6916L34.3746 23.1812H34.5447V24.2449H34.3746V23.4791L34.0769 23.9895L33.7791 23.4791V24.2449H33.6089V23.1812Z" fill="white"/>
<path d="M6.80624 16.9323H3.53064V20.8033H6.80624V16.9323Z" fill="#5E0F08"/>
<path d="M12.9319 15.0173H8.03979V20.8025H12.9319V15.0173Z" fill="#9C1F24"/>
<path d="M21.5221 12.1255H14.1622V20.801H21.5221V12.1255Z" fill="#BF2730"/>
<path d="M33.7794 7.78381H22.8866V20.8009H33.7794V7.78381Z" fill="#CE2B34"/>
<path d="M44.7576 24.8092H51.239V11.1641L57.3111 20.4444H57.4475L63.5537 11.0944V24.8092H70.1375V0.930298H63.1443L57.4475 10.1718L51.7507 0.930298H44.7576V24.8092Z" fill="#1A1A1A"/>
<path d="M80.7852 24.9797H86.5503L91.326 11.2339L96.1359 24.9797H101.901L109.886 0.93025H103.03L98.8681 14.7459L94.2628 0.860474H88.566L83.9608 14.7459L79.799 0.93025H72.8059L80.7852 24.9797Z" fill="#1A1A1A"/>
<path d="M122.651 25.2899C127.938 25.2899 130.978 23.0043 133.226 19.9001L128.245 16.3524C126.813 18.0921 125.346 19.2519 122.856 19.2519C119.513 19.2519 117.159 16.4547 117.159 12.8729V12.8046C117.159 9.32513 119.513 6.49377 122.856 6.49377C125.141 6.49377 126.71 7.58538 128.075 9.29102L133.055 5.43627C130.94 2.50258 127.802 0.455811 122.922 0.455811C115.69 0.455811 110.332 5.91385 110.332 12.876V12.9442C110.332 20.0737 115.824 25.2946 122.643 25.2946L122.651 25.2899Z" fill="#1A1A1A"/>
<path d="M48.4246 29.3059H44.5295V37.9892H48.5486C50.4838 37.9892 51.7614 37.158 51.7614 35.5951C51.7614 34.4042 51.0544 33.8212 50.0372 33.4739C50.6822 33.1389 51.2777 32.5931 51.2777 31.5263C51.2777 30.1618 50.1737 29.3059 48.4246 29.3059ZM48.1145 32.9653H46.0305V30.658H48.2261C49.2061 30.658 49.7519 31.0674 49.7519 31.7744C49.7519 32.5807 49.0944 32.9653 48.1145 32.9653ZM48.561 36.6371H46.0305V34.2554H48.4494C49.6527 34.2554 50.2357 34.6895 50.2357 35.4338C50.2357 36.2277 49.603 36.6371 48.561 36.6371Z" fill="#DE002B"/>
<path d="M58.8057 37.9892V34.1066C58.8057 32.3575 57.863 31.3403 55.9278 31.3403C54.861 31.3403 54.154 31.5636 53.4345 31.8861L53.8439 33.0894C54.4393 32.8413 54.9851 32.68 55.717 32.68C56.7589 32.68 57.3296 33.1762 57.3296 34.0818V34.243C56.821 34.0818 56.3124 33.9701 55.5185 33.9701C53.9927 33.9701 52.8639 34.6648 52.8639 36.0789V36.1037C52.8639 37.4186 53.9555 38.1257 55.196 38.1257C56.1883 38.1257 56.8706 37.7163 57.3172 37.1829V37.9892H58.8057ZM57.3544 35.6199C57.3544 36.4386 56.6101 36.9968 55.6177 36.9968C54.9107 36.9968 54.3525 36.6495 54.3525 36.0293V36.0045C54.3525 35.3346 54.9107 34.9501 55.8534 34.9501C56.4364 34.9501 56.9698 35.0617 57.3544 35.2106V35.6199Z" fill="#DE002B"/>
<path d="M62.093 35.4928C62.093 33.7561 63.0109 32.9002 64.3258 32.9002H64.4127V31.3124C63.259 31.2628 62.5024 31.9326 62.093 32.9126V31.4364H60.592V37.9861H62.093V35.4928Z" fill="#DE002B"/>
<path d="M71.2026 36.9116L70.2971 36.0185C69.8257 36.5022 69.3047 36.8372 68.5977 36.8372C67.444 36.8372 66.6377 35.8944 66.6377 34.716C66.6377 33.5623 67.4316 32.6196 68.5232 32.6196C69.2799 32.6196 69.7637 32.9545 70.2227 33.4383L71.153 32.4335C70.5452 31.7637 69.7761 31.3047 68.5357 31.3047C66.5757 31.3047 65.1368 32.8677 65.1368 34.7408C65.1368 36.6139 66.5757 38.1396 68.5232 38.1396C69.8009 38.1396 70.5576 37.6311 71.2026 36.9116Z" fill="#DE002B"/>
<path d="M73.5441 35.2446H78.3571C78.3695 35.0957 78.3819 34.9717 78.3819 34.8352C78.3819 32.9373 77.3275 31.2999 75.2435 31.2999C73.3704 31.2999 72.0431 32.8381 72.0431 34.7236C72.0431 36.758 73.5068 38.1349 75.4047 38.1349C76.608 38.1349 77.4639 37.6511 78.0842 36.9068L77.2034 36.1253C76.6824 36.6339 76.1614 36.9068 75.4296 36.9068C74.462 36.9068 73.7177 36.3114 73.5441 35.2446ZM73.5316 34.2522C73.6681 33.235 74.3131 32.528 75.2311 32.528C76.2235 32.528 76.7941 33.2847 76.8933 34.2522H73.5316Z" fill="#DE002B"/>
<path d="M81.483 37.9891V28.9337H79.982V37.9891H81.483Z" fill="#DE002B"/>
<path d="M90.0887 34.7174C90.0887 32.8319 88.6126 31.3062 86.603 31.3062C84.5935 31.3062 83.1049 32.8567 83.1049 34.7422C83.1049 36.6153 84.5811 38.1411 86.5782 38.1411C88.6002 38.1411 90.0887 36.5905 90.0887 34.7174ZM88.5878 34.7422C88.5878 35.8959 87.8187 36.8386 86.603 36.8386C85.437 36.8386 84.6059 35.8835 84.6059 34.7174C84.6059 33.5638 85.375 32.621 86.5782 32.621C87.7567 32.621 88.5878 33.5762 88.5878 34.7422Z" fill="#DE002B"/>
<path d="M93.1123 34.291C93.1123 33.2739 93.7202 32.666 94.5885 32.666C95.4816 32.666 95.9902 33.249 95.9902 34.2662V37.9876H97.4912V33.8197C97.4912 32.2939 96.6353 31.3015 95.1591 31.3015C94.1419 31.3015 93.5341 31.8349 93.1123 32.4551V31.438H91.6114V37.9876H93.1123V34.291Z" fill="#DE002B"/>
<path d="M104.742 37.9892V34.1066C104.742 32.3575 103.799 31.3403 101.864 31.3403C100.797 31.3403 100.09 31.5636 99.3705 31.8861L99.7799 33.0894C100.375 32.8413 100.921 32.68 101.653 32.68C102.695 32.68 103.266 33.1762 103.266 34.0818V34.243C102.757 34.0818 102.248 33.9701 101.455 33.9701C99.9288 33.9701 98.7999 34.6648 98.7999 36.0789V36.1037C98.7999 37.4186 99.8915 38.1257 101.132 38.1257C102.124 38.1257 102.807 37.7163 103.253 37.1829V37.9892H104.742ZM103.29 35.6199C103.29 36.4386 102.546 36.9968 101.554 36.9968C100.847 36.9968 100.288 36.6495 100.288 36.0293V36.0045C100.288 35.3346 100.847 34.9501 101.789 34.9501C102.372 34.9501 102.906 35.0617 103.29 35.2106V35.6199Z" fill="#DE002B"/>
<path d="M136.761 4.6516H137.664V2.18618H138.64V1.39539H135.784V2.18618H136.761V4.6516Z" fill="#1A1A1A"/>
<path d="M139.01 4.6516H139.893V2.79091L140.721 4.05618H140.74L141.573 2.7816V4.6516H142.47V1.39539H141.517L140.74 2.65601L139.963 1.39539H139.01V4.6516Z" fill="#1A1A1A"/>
</g>
<defs>
<clipPath id="clip0_25_613">
<rect width="142.5" height="38.1313" fill="white"/>
</clipPath>
</defs>
</svg>
