<svg width="143" height="27" viewBox="0 0 143 27" fill="none" xmlns="http://www.w3.org/2000/svg">
<g clip-path="url(#clip0_25_701)">
<path d="M83.4012 15.9555C81.2973 15.9555 79.297 14.4964 79.297 11.3928C79.297 8.28882 80.7893 7.47144 82.9865 7.47144C85.1838 7.47144 86.21 8.83714 86.4481 9.93377C86.4689 9.95457 86.5623 9.95457 86.5623 9.93377C86.5003 9.12656 86.407 7.95735 86.2928 7.88477C86.0025 7.68828 84.6447 7.15015 83.3184 7.15015C80.1675 7.15015 77.991 9.48901 77.991 11.9097C77.991 14.3305 80.0741 16.2763 83.256 16.2763C86.4379 16.2763 85.8471 15.9139 86.3446 15.5417C86.4587 15.4691 86.5831 14.2999 86.6349 13.4825C86.6349 13.4617 86.5207 13.4617 86.5207 13.4617C86.407 14.9208 84.9249 15.9453 83.391 15.9453L83.4012 15.9555ZM87.7647 16.1312C88.2935 16.0692 88.4073 16.0383 89.0914 16.0383C89.7756 16.0383 90.0243 16.0794 90.3868 16.1312C90.4182 16.1312 90.4076 16.0383 90.3868 16.0383C89.796 15.9657 89.5473 15.9143 89.5473 15.6245C89.5473 15.3346 89.7442 14.8381 90.0345 14.1654L90.4284 13.2759H93.1337L93.4651 14.1654C93.6829 14.7553 93.89 15.2828 93.89 15.6448C93.89 16.0068 93.5479 15.9865 92.9053 16.0484C92.8849 16.0484 92.8743 16.1414 92.9053 16.1414C93.4134 16.0794 94.263 16.0484 94.9578 16.0484C95.6526 16.0484 96.1912 16.09 96.5643 16.1414C96.5953 16.1414 96.5851 16.0484 96.5643 16.0484C95.3517 15.9555 95.1025 15.3864 94.6365 14.207L92.3561 8.62958H92.3251L89.6924 14.2066C89.0498 15.5413 88.6148 15.986 87.7753 16.048C87.7545 16.048 87.7439 16.1409 87.7753 16.1409L87.7647 16.1312ZM91.9313 10.0785L93.0403 13.0272H90.5319L91.9211 10.0785H91.9313ZM116.226 16.0383C116.205 16.0383 116.194 16.1312 116.226 16.1312C117.148 16.0591 118.547 16.0383 119.76 16.0383C120.972 16.0383 121.397 16.1108 121.843 16.1108C122.289 16.1108 122.04 16.0692 122.092 15.9139C122.175 15.6864 122.289 14.9624 122.34 14.6726C122.32 14.6518 122.258 14.6416 122.227 14.6518C122.051 15.4174 121.978 15.7484 120.081 15.7484H119.459C118.889 15.7484 118.723 15.6245 118.723 14.0313V12.3957H119.625C121.003 12.3957 121.097 12.5196 121.211 13.1511C121.211 13.1613 121.304 13.1821 121.304 13.1613C121.304 13.0581 121.284 12.6028 121.284 12.4682C121.284 12.2093 121.315 11.7128 121.366 11.5477C121.346 11.5265 121.273 11.5265 121.273 11.5265C121.159 12.0544 121.055 12.158 119.615 12.158H118.713V10.637C118.713 9.88155 118.744 9.45759 118.796 9.11594H119.926C121.532 9.11594 121.781 9.39519 121.843 9.9643C121.843 10.0161 121.936 9.99528 121.957 9.97448C121.936 9.85057 121.936 9.5399 121.936 9.42616C121.936 9.22967 121.957 8.91945 121.988 8.73314C121.346 8.77429 120.548 8.82607 119.708 8.82607C118.496 8.82607 117.221 8.82607 116.215 8.73314C116.184 8.73314 116.215 8.82607 116.236 8.83669C117.532 8.92963 117.645 9.14692 117.645 10.6989V14.1756C117.645 15.7276 117.511 15.9236 116.215 16.0378L116.226 16.0383ZM133.337 16.1312C133.866 16.0692 133.98 16.0383 134.664 16.0383C135.348 16.0383 135.596 16.0794 135.959 16.1312C135.99 16.1312 135.98 16.0383 135.959 16.0383C135.369 15.9657 135.12 15.9143 135.12 15.6245C135.12 15.3346 135.317 14.8381 135.607 14.1654L136.001 13.2759H138.706L139.038 14.1654C139.255 14.7553 139.463 15.2828 139.463 15.6448C139.463 16.0068 139.12 15.9865 138.478 16.0484C138.457 16.0484 138.447 16.1414 138.478 16.1414C138.986 16.0794 139.836 16.0484 140.53 16.0484C141.224 16.0484 141.763 16.09 142.136 16.1414C142.167 16.1414 142.157 16.0484 142.136 16.0484C140.924 15.9555 140.675 15.3864 140.209 14.207L137.929 8.62958H137.897L135.254 14.2066C134.612 15.5413 134.177 15.986 133.337 16.048C133.316 16.048 133.306 16.1409 133.337 16.1409V16.1312ZM137.503 10.0785L138.623 13.0272H136.115L137.503 10.0785ZM114.484 16.3697C113.323 15.8002 111.872 14.0105 111.406 12.5103L111.561 12.4483C111.821 12.3341 112.059 12.1996 112.256 12.0133L112.287 11.9823C112.764 11.5995 113.043 11.1132 113.043 10.5958C113.043 9.44741 111.924 8.83714 109.903 8.83714C107.882 8.83714 107.25 8.87829 106.742 9.03363C106.711 9.04381 106.69 9.12656 106.711 9.12656C106.908 9.09558 107.063 9.0646 107.198 9.0646C107.778 9.0646 108.1 9.36465 108.1 10.7719V14.1968C108.1 15.728 107.903 15.9245 106.794 16.0383C106.773 16.0383 106.742 16.1312 106.773 16.1312C107.27 16.0692 108.048 16.0383 108.752 16.0383C109.457 16.0383 110.069 16.0799 110.431 16.1312C110.463 16.1312 110.452 16.0383 110.431 16.0383C109.271 15.9453 109.136 15.6555 109.136 14.1968V12.7997C109.488 12.8307 109.976 12.7997 110.007 12.7997C110.058 12.7997 110.152 12.7895 110.255 12.7687C111.292 14.7761 113.271 16.0484 114.028 16.3383C114.101 16.3693 114.173 16.3901 114.235 16.4109C114.308 16.4317 114.36 16.452 114.36 16.452C114.36 16.452 114.464 16.483 114.505 16.4312C114.556 16.3799 114.494 16.3489 114.494 16.3489L114.484 16.3697ZM109.644 12.624C109.416 12.624 109.25 12.624 109.126 12.593V10.6684C109.126 9.78905 109.136 9.30269 109.209 9.09558C109.406 9.0646 109.53 9.0646 109.727 9.0646C111.147 9.0646 111.965 9.56114 111.965 10.8959C111.965 12.2306 111.302 12.624 109.654 12.624H109.644ZM105.094 16.3697C103.934 15.8002 102.482 14.0105 102.016 12.5103L102.171 12.4483C102.431 12.3341 102.669 12.1996 102.866 12.0133L102.897 11.9823C103.374 11.5995 103.653 11.1132 103.653 10.5958C103.653 9.44741 102.534 8.83714 100.513 8.83714C98.492 8.83714 97.8601 8.87829 97.352 9.03363C97.321 9.04381 97.3002 9.12656 97.321 9.12656C97.518 9.09558 97.6733 9.0646 97.8078 9.0646C98.3885 9.0646 98.7097 9.36465 98.7097 10.7719V14.1968C98.7097 15.728 98.5128 15.9245 97.4038 16.0383C97.383 16.0383 97.352 16.1312 97.383 16.1312C97.8804 16.0692 98.658 16.0383 99.3625 16.0383C100.067 16.0383 100.679 16.0799 101.042 16.1312C101.073 16.1312 101.062 16.0383 101.042 16.0383C99.8812 15.9453 99.7462 15.6555 99.7462 14.1968V12.7997C100.098 12.8307 100.586 12.7997 100.617 12.7997C100.668 12.7997 100.762 12.7895 100.865 12.7687C101.902 14.7761 103.882 16.0484 104.638 16.3383C104.711 16.3693 104.783 16.3901 104.846 16.4109C104.918 16.4317 104.97 16.452 104.97 16.452C104.97 16.452 105.074 16.483 105.115 16.4312C105.167 16.3799 105.105 16.3489 105.105 16.3489L105.094 16.3697ZM100.264 12.624C100.037 12.624 99.8705 12.624 99.7462 12.593V10.6684C99.7462 9.78905 99.7564 9.30269 99.8289 9.09558C100.026 9.0646 100.15 9.0646 100.347 9.0646C101.767 9.0646 102.586 9.56114 102.586 10.8959C102.586 12.2306 101.923 12.624 100.275 12.624H100.264ZM132.228 16.3697C131.067 15.8002 129.616 14.0105 129.15 12.5103L129.306 12.4483C129.565 12.3341 129.803 12.1996 130 12.0133L130.031 11.9823C130.508 11.5995 130.788 11.1132 130.788 10.5958C130.788 9.44741 129.668 8.83714 127.647 8.83714C125.627 8.83714 124.994 8.87829 124.486 9.03363C124.455 9.04381 124.434 9.12656 124.455 9.12656C124.652 9.09558 124.808 9.0646 124.942 9.0646C125.523 9.0646 125.844 9.36465 125.844 10.7719V14.1968C125.844 15.728 125.647 15.9245 124.538 16.0383C124.517 16.0383 124.486 16.1312 124.517 16.1312C125.015 16.0692 125.792 16.0383 126.497 16.0383C127.202 16.0383 127.813 16.0799 128.176 16.1312C128.207 16.1312 128.197 16.0383 128.176 16.0383C127.015 15.9453 126.88 15.6555 126.88 14.1968V12.7997C127.233 12.8307 127.72 12.7997 127.751 12.7997C127.803 12.7997 127.896 12.7895 128 12.7687C129.036 14.7761 131.016 16.0484 131.772 16.3383C131.845 16.3693 131.918 16.3901 131.98 16.4109C132.052 16.4317 132.104 16.452 132.104 16.452C132.104 16.452 132.207 16.483 132.249 16.4312C132.301 16.3799 132.239 16.3489 132.239 16.3489L132.228 16.3697ZM127.399 12.624C127.17 12.624 127.005 12.624 126.88 12.593V10.6684C126.88 9.78905 126.891 9.30269 126.963 9.09558C127.16 9.0646 127.285 9.0646 127.481 9.0646C128.912 9.0646 129.72 9.56114 129.72 10.8959C129.72 12.2306 129.057 12.624 127.409 12.624H127.399ZM5.42977 16.2865C7.16013 16.2865 8.02088 15.9245 8.51831 15.5519C8.63248 15.4793 8.7564 14.3101 8.80862 13.4927C8.80862 13.4724 8.69444 13.4724 8.69444 13.4724C8.58026 14.931 7.09817 15.9551 5.56431 15.9551C4.03044 15.9551 1.46013 14.4964 1.46013 11.3924C1.46013 8.28882 2.9524 7.47144 5.14964 7.47144C7.34688 7.47144 8.37315 8.83714 8.61168 9.93377C8.63248 9.95457 8.72542 9.95457 8.72542 9.93377C8.66346 9.12656 8.57008 7.95735 8.45591 7.88477C8.16604 7.68828 6.80831 7.15015 5.48155 7.15015C2.33062 7.15015 0.154175 9.48901 0.154175 11.9097C0.154175 14.3305 2.23724 16.2763 5.41915 16.2763L5.42977 16.2865ZM9.93799 16.1312C10.4668 16.0692 10.581 16.0383 11.2652 16.0383C11.9489 16.0383 12.1976 16.0794 12.5605 16.1312C12.5915 16.1312 12.5813 16.0383 12.5605 16.0383C11.9697 15.9657 11.721 15.9143 11.721 15.6245C11.721 15.3346 11.9179 14.8381 12.2078 14.1654L12.6017 13.2759H15.307L15.6389 14.1654C15.8566 14.7553 16.0637 15.2828 16.0637 15.6448C16.0637 16.0068 15.7216 15.9865 15.0791 16.0484C15.0583 16.0484 15.0481 16.1414 15.0791 16.1414C15.5871 16.0794 16.4368 16.0484 17.1311 16.0484C17.8259 16.0484 18.3645 16.09 18.7376 16.1414C18.7686 16.1414 18.7584 16.0484 18.7376 16.0484C17.525 15.9555 17.2763 15.3864 16.7992 14.207L14.5197 8.62958H14.4887L11.856 14.2066C11.2134 15.5413 10.7784 15.986 9.93888 16.048C9.91808 16.048 9.9079 16.1409 9.93888 16.1409L9.93799 16.1312ZM14.105 10.0785L15.2136 13.0272H12.7057L14.0944 10.0785H14.105ZM44.3894 14.6624C44.2132 15.428 44.1407 15.759 42.2439 15.759H41.6221C41.0521 15.759 40.8862 15.6351 40.8862 14.0415V12.4067H41.7881C43.1666 12.4067 43.2595 12.5306 43.3737 13.1617C43.3737 13.1723 43.4667 13.1927 43.4667 13.1723C43.4667 13.0688 43.4463 12.6134 43.4463 12.4789C43.4463 12.2204 43.4773 11.7239 43.5291 11.5584C43.5083 11.5376 43.4361 11.5376 43.4361 11.5376C43.3219 12.0651 43.2184 12.1686 41.7775 12.1686H40.8764V10.6476C40.8764 9.89261 40.9074 9.46821 40.9592 9.12656H42.089C43.6955 9.12656 43.9442 9.40625 44.0061 9.97537C44.0061 10.0267 44.0995 10.0063 44.1203 9.98554C44.0995 9.86163 44.0995 9.55096 44.0995 9.43679C44.0995 9.2403 44.1203 8.93007 44.1513 8.74376C43.5087 8.78536 42.7108 8.83669 41.8713 8.83669C40.6587 8.83669 39.3842 8.83669 38.3787 8.74376C38.3477 8.74376 38.3787 8.83669 38.3991 8.84731C39.6948 8.94025 39.8086 9.15754 39.8086 10.71V14.1862C39.8086 15.7382 39.674 15.9347 38.3889 16.0484C38.3681 16.0484 38.3579 16.1414 38.3889 16.1414C39.3111 16.0692 40.7105 16.0484 41.9231 16.0484C43.1356 16.0484 43.5605 16.121 44.0061 16.121C44.4522 16.121 44.2031 16.0799 44.2553 15.9245C44.338 15.6966 44.4522 14.9726 44.504 14.6827C44.4832 14.6624 44.4203 14.6518 44.3894 14.6624ZM55.5106 16.1312C56.0394 16.0692 56.1531 16.0383 56.8373 16.0383C57.5215 16.0383 57.7702 16.0794 58.1331 16.1312C58.1641 16.1312 58.1535 16.0383 58.1331 16.0383C57.5423 15.9657 57.2936 15.9143 57.2936 15.6245C57.2936 15.3346 57.4905 14.8381 57.7804 14.1654L58.1742 13.2759H60.8795L61.211 14.1654C61.4287 14.7553 61.6363 15.2828 61.6363 15.6448C61.6363 16.0068 61.2942 15.9865 60.6516 16.0484C60.6308 16.0484 60.6202 16.1414 60.6516 16.1414C61.1592 16.0794 62.0094 16.0484 62.7037 16.0484C63.3981 16.0484 63.9371 16.09 64.3102 16.1414C64.3411 16.1414 64.331 16.0484 64.3102 16.0484C63.0976 15.9555 62.8489 15.3864 62.3824 14.207L60.102 8.62958H60.071L57.4281 14.2066C56.7855 15.5413 56.3501 15.986 55.5106 16.048C55.4898 16.048 55.4796 16.1409 55.5106 16.1409V16.1312ZM59.6771 10.0785L60.7963 13.0272H58.2884L59.6771 10.0785ZM29.3614 9.07478C29.9415 9.07478 30.2628 9.37483 30.2628 10.7821V14.207C30.2628 15.7382 30.0659 15.9347 28.9573 16.0484C28.9361 16.0484 28.9051 16.1414 28.9361 16.1414C29.4335 16.0794 30.2106 16.0484 30.916 16.0484C31.6206 16.0484 32.2322 16.09 32.5946 16.1414C32.6256 16.1414 32.6154 16.0484 32.5946 16.0484C31.4338 15.9555 31.2993 15.6656 31.2993 14.207V12.8099C31.6515 12.8409 32.1388 12.8099 32.1698 12.8099C32.2215 12.8099 32.3149 12.7997 32.4185 12.7789C33.4549 14.7863 35.4349 16.0591 36.1912 16.3485C36.2638 16.3795 36.3363 16.4003 36.3987 16.4211C36.4713 16.4419 36.5227 16.4627 36.5227 16.4627C36.5227 16.4627 36.6267 16.4936 36.6683 16.4419C36.72 16.3901 36.6576 16.3591 36.6576 16.3591C35.4968 15.79 34.0457 14.0003 33.5793 12.5001C33.6312 12.4791 33.6831 12.4583 33.7351 12.4377C33.9939 12.324 34.2325 12.1894 34.4294 12.0031L34.4604 11.9721C34.9375 11.5893 35.2171 11.103 35.2171 10.5856C35.2171 9.43723 34.0975 8.82651 32.0764 8.82651C30.0557 8.82651 29.4233 8.86811 28.9153 9.02345C28.8843 9.03363 28.8635 9.11638 28.8843 9.11638C29.0812 9.0854 29.237 9.05443 29.3711 9.05443L29.3614 9.07478ZM31.2993 10.6786C31.2993 9.79923 31.3201 9.31287 31.382 9.1062C31.579 9.07523 31.7033 9.07523 31.9003 9.07523C33.3204 9.07523 34.1395 9.57176 34.1395 10.9065C34.1395 12.2412 33.4757 12.6342 31.8277 12.6342C30.1801 12.6342 31.4338 12.6342 31.3099 12.6032V10.6786H31.2993ZM19.9192 9.07478C20.4994 9.07478 20.8207 9.37483 20.8207 10.7821V14.207C20.8207 15.7382 20.6237 15.9347 19.5151 16.0484C19.4939 16.0484 19.4629 16.1414 19.4939 16.1414C19.9913 16.0794 20.7689 16.0484 21.4739 16.0484C22.1784 16.0484 22.79 16.09 23.1529 16.1414C23.1839 16.1414 23.1732 16.0484 23.1529 16.0484C21.9921 15.9555 21.8571 15.6656 21.8571 14.207V12.8099C22.2094 12.8409 22.6966 12.8099 22.7276 12.8099C22.7794 12.8099 22.8727 12.7997 22.9767 12.7789C24.0127 14.7863 25.9927 16.0591 26.749 16.3485C26.8216 16.3795 26.8942 16.4003 26.9566 16.4211C27.0291 16.4419 27.0805 16.4627 27.0805 16.4627C27.0805 16.4627 27.1845 16.4936 27.2261 16.4419C27.2779 16.3901 27.2155 16.3591 27.2155 16.3591C26.0547 15.79 24.6035 14.0003 24.1371 12.5001L24.2929 12.4377C24.5518 12.324 24.7903 12.1894 24.9872 12.0031L25.0182 11.9721C25.4953 11.5893 25.775 11.103 25.775 10.5856C25.775 9.43723 24.6553 8.82651 22.6347 8.82651C20.614 8.82651 19.9811 8.86811 19.4735 9.02345C19.4426 9.03363 19.4213 9.11638 19.4426 9.11638C19.6391 9.0854 19.7944 9.05443 19.9294 9.05443L19.9192 9.07478ZM21.8575 10.6786C21.8575 9.79923 21.8779 9.31287 21.9403 9.1062C22.1368 9.07523 22.2611 9.07523 22.4581 9.07523C23.8782 9.07523 24.6974 9.57176 24.6974 10.9065C24.6974 12.2412 24.0335 12.6342 22.3855 12.6342C20.7379 12.6342 21.9916 12.6342 21.8677 12.6032V10.6786H21.8575ZM47.1154 9.07478C47.6956 9.07478 48.0169 9.37483 48.0169 10.7821V14.207C48.0169 15.7382 47.82 15.9347 46.711 16.0484C46.6902 16.0484 46.6592 16.1414 46.6902 16.1414C47.188 16.0794 47.9651 16.0484 48.6701 16.0484C49.3746 16.0484 49.9863 16.09 50.3491 16.1414C50.3801 16.1414 50.3699 16.0484 50.3491 16.0484C49.1883 15.9555 49.0534 15.6656 49.0534 14.207V12.8099C49.4056 12.8409 49.8929 12.8099 49.9239 12.8099C49.9761 12.8099 50.069 12.7997 50.173 12.7789C51.2094 14.7863 53.189 16.0591 53.9453 16.3485C54.0179 16.3795 54.0904 16.4003 54.1528 16.4211C54.2254 16.4419 54.2772 16.4627 54.2772 16.4627C54.2772 16.4627 54.3807 16.4936 54.4223 16.4419C54.4741 16.3901 54.4117 16.3591 54.4117 16.3591C53.2509 15.79 51.7998 14.0003 51.3338 12.5001L51.4891 12.4377C51.748 12.324 51.9866 12.1894 52.1835 12.0031L52.2145 11.9721C52.6915 11.5893 52.9712 11.103 52.9712 10.5856C52.9712 9.43723 51.852 8.82651 49.8309 8.82651C47.8098 8.82651 47.1774 8.86811 46.6698 9.02345C46.6384 9.03363 46.6176 9.11638 46.6384 9.11638C46.8353 9.0854 46.9911 9.05443 47.1256 9.05443L47.1154 9.07478ZM49.0534 10.6786C49.0534 9.79923 49.064 9.31287 49.1366 9.1062C49.3335 9.07523 49.4579 9.07523 49.6548 9.07523C51.0745 9.07523 51.8932 9.57176 51.8932 10.9065C51.8932 12.2412 51.2298 12.6342 49.5822 12.6342C47.9346 12.6342 49.1883 12.6342 49.064 12.6032V10.6786H49.0534ZM62.7139 18.097C58.869 17.8903 54.3498 18.4386 52.8469 21.0147C52.2769 21.9874 52.2459 23.0221 52.9509 24.0258C53.6142 24.9259 55.1689 24.9051 55.1689 24.9051C53.9767 24.4396 53.3757 23.5288 53.531 22.4534C54.1842 18.6041 61.7708 18.1904 65.813 18.5422C64.8594 18.2731 63.6052 18.1488 62.7245 18.097H62.7139ZM62.4758 5.75391C62.9652 5.59175 63.4682 5.474 63.9787 5.40209C64.1238 5.38129 64.2686 5.37111 64.4137 5.36049C64.4969 5.36049 64.5797 5.33969 64.6624 5.33969H65.3776C65.554 5.35031 65.7303 5.37096 65.9064 5.40165C66.5074 5.49502 67.0672 5.67116 67.5129 5.88845C67.689 5.99156 68.0001 6.14689 68.3006 6.46774C68.3316 6.49872 68.3626 6.53988 68.3834 6.57085C68.6427 6.9125 69.2229 7.9162 68.29 9.37483C66.7353 11.827 62.8489 14.2278 67.1088 15.6453C67.4611 15.7794 68.3214 16.0175 68.9224 16.121C68.9534 16.121 68.9432 16.0281 68.9224 16.0281C68.1864 15.8935 67.5337 15.6347 67.2225 15.4382C64.2686 13.4201 70.6948 10.5648 69.3578 7.74006C69.1252 7.19969 68.7828 6.71354 68.3524 6.31241C68.3214 6.27125 68.29 6.25045 68.259 6.21947C67.658 5.67071 66.9946 5.36093 66.4556 5.17418C66.3211 5.13302 66.1967 5.09142 66.0826 5.06044C65.8546 4.99849 65.6887 4.97769 65.5851 4.95689C65.5227 4.95689 65.4918 4.94671 65.4918 4.94671C65.4192 4.94671 65.3364 4.92591 65.243 4.92591H65.0461C63.7919 4.87413 61.4805 5.13302 59.3766 7.34708C59.3766 7.34708 60.1852 6.73637 61.3978 6.18805C61.7398 6.03316 62.1027 5.888 62.4966 5.76409L62.4758 5.75391Z" fill="#DA291C"/>
<path d="M69.4818 16.0069L69.4406 16.0591C68.9573 16.6486 68.47 17.2348 67.9789 17.8178C63.8955 22.619 59.0138 25.9713 53.9559 25.3397C58.6407 27.0679 64.0615 24.4086 69.0777 18.1284C70.5497 16.2866 74.2082 11.2376 77.7322 7.28517C78.4057 6.5709 80.7065 4.4604 84.1788 4.87418C84.1788 4.87418 82.0749 4.09839 79.494 5.41231C78.7996 5.76414 78.0743 6.27086 77.3485 6.9745C77.1724 7.15064 76.9962 7.32633 76.8201 7.52326C74.1254 10.3582 71.3892 13.6897 69.4716 16.0069H69.4818Z" fill="#DA291C"/>
</g>
<defs>
<clipPath id="clip0_25_701">
<rect width="142.5" height="26.5528" fill="white" transform="translate(-0.178589)"/>
</clipPath>
</defs>
</svg>
