<svg width="142" height="21" viewBox="0 0 142 21" fill="none" xmlns="http://www.w3.org/2000/svg">
<g clip-path="url(#clip0_25_711)">
<path d="M142.5 0H27.057V20.0421H142.5V0Z" fill="#272524"/>
<path d="M0 16.8332V3.21484H3.28775V16.8332H0Z" fill="#FFDD00"/>
<path d="M9.28764 11.8917H8.12031V16.8332H4.92957V3.21484H9.52097C11.9529 3.21484 13.7427 4.30426 13.7427 7.45598C13.7427 10.6855 11.8945 11.8917 9.28764 11.8917ZM9.22924 5.8606H8.12045V9.24579H9.17098C10.1047 9.24579 10.5134 8.75934 10.5134 7.53375C10.5134 6.32753 10.1437 5.8606 9.22924 5.8606Z" fill="#FFDD00"/>
<path d="M19.6367 17.0473C16.5629 17.0473 14.7925 14.7516 14.7925 10.0241C14.7925 5.49106 16.4071 3.00085 19.6951 3.00085C22.555 3.00085 23.5471 4.4988 24.1308 7.06692L21.018 7.9619C20.7261 6.48333 20.4928 5.80244 19.6756 5.80244C18.5278 5.80244 18.1583 6.89186 18.1583 10.0242C18.1583 13.3899 18.6446 14.3042 19.8313 14.3042C20.8818 14.3042 21.1931 13.6816 21.271 12.5922V12.0281H19.6953V9.5379H24.3449V11.6778C24.3449 14.9851 22.8275 17.0474 19.6369 17.0474L19.6367 17.0473Z" fill="#FFDD00"/>
<path d="M42.6264 16.8313V3.21289H50.603V5.99497H45.8559V8.32948H48.9492V11.092H45.8559V14.0492H50.739V16.8313H42.6264ZM55.8747 16.8313H52.217V3.21289H56.1664C59.6877 3.21289 61.4191 5.27505 61.4191 9.92486C61.4191 14.8275 59.5709 16.8313 55.8746 16.8313H55.8747ZM56.0496 5.91705H55.466V14.1465H55.972C57.4893 14.1465 58.0926 13.4267 58.0926 9.98312C58.0926 6.65634 57.5672 5.91705 56.0498 5.91705H56.0496ZM62.9361 16.8313V3.21289H66.2239V16.8313H62.9361ZM74.2781 16.8313L73.7723 14.3022H71.0875L70.6012 16.8313H67.2549L70.7761 3.21289H74.1224L77.6244 16.8313H74.2781ZM73.1496 11.2088C72.8384 9.4189 72.5465 7.94033 72.4103 6.69522C72.2937 7.94033 72.0212 9.4189 71.6906 11.2282L71.6127 11.6563H73.2274L73.1495 11.2088H73.1496ZM83.3626 16.8313H78.5768V3.21289H83.4405C86.1253 3.21289 87.3898 4.41911 87.3898 6.81203C87.3898 8.2906 86.7673 9.06877 85.8141 9.5941C86.9228 10.0999 87.604 10.9949 87.604 12.6485C87.604 15.2944 86.2421 16.8313 83.3627 16.8313H83.3626ZM83.1291 5.74199H81.6894V8.52406H83.168C83.8686 8.52406 84.2185 8.05713 84.2185 7.10389C84.2185 6.17003 83.8879 5.74199 83.1291 5.74199ZM83.207 11.0143H81.6896V14.302H83.2459C84.0047 14.302 84.4133 13.7767 84.4133 12.7068C84.4133 11.5395 84.0046 11.0143 83.207 11.0143ZM94.6846 16.8313L93.0894 11.6174H92.2139V16.8313H89.0232V3.21289H93.7314C96.1826 3.21289 97.9531 4.32182 97.9531 7.35673C97.9531 9.12717 97.2721 10.275 96.1632 10.9365L98.1476 16.8313H94.6846ZM93.4979 5.80039H92.2139V9.12717H93.4395C94.3734 9.12717 94.7237 8.58247 94.7237 7.45402C94.7237 6.32558 94.3929 5.80039 93.4979 5.80039ZM105.715 16.8313L105.209 14.3022H102.524L102.038 16.8313H98.6919L102.213 3.21289H105.559L109.061 16.8313H105.715ZM104.587 11.2088C104.275 9.4189 103.984 7.94033 103.847 6.69522C103.731 7.94033 103.458 9.4189 103.128 11.2282L103.05 11.6563H104.664L104.586 11.2088H104.587ZM116.92 16.8313L114.916 12.9207C114.158 11.4422 113.438 9.9636 113.165 9.18543C113.243 9.96375 113.263 11.6952 113.263 12.9791V16.8311H110.208V3.21289H113.049L114.78 6.32572C115.558 7.72652 116.336 9.39952 116.589 10.1388C116.511 9.39952 116.473 7.51242 116.473 6.26732V3.21303H119.527V16.8314L116.92 16.8313ZM124.993 16.8313H121.336V3.21289H125.285C128.806 3.21289 130.538 5.27505 130.538 9.92486C130.538 14.8275 128.689 16.8313 124.993 16.8313H124.993ZM125.168 5.91705H124.585V14.1465H125.091C126.608 14.1465 127.211 13.4267 127.211 9.98312C127.211 6.65634 126.686 5.91705 125.168 5.91705ZM135.848 17.0452C133.728 17.0452 132.502 16.1698 131.374 14.6718L133.592 12.6679C134.506 13.7575 135.245 14.3215 135.907 14.3215C136.588 14.3215 137.074 13.9713 137.074 13.232C137.074 12.4732 136.86 12.0063 135.323 11.3254C132.619 10.1387 131.627 9.10752 131.627 6.96744C131.627 4.74958 133.242 2.99866 135.849 2.99866C137.95 2.99866 139 3.75746 140.129 5.15811L137.872 7.18153C136.938 6.0726 136.608 5.72233 135.751 5.72233C135.129 5.72233 134.779 6.18926 134.779 6.69508C134.779 7.41485 135.129 7.82352 136.51 8.42663C139.253 9.63285 140.265 10.7611 140.265 13.0374C140.265 15.586 138.378 17.0451 135.849 17.0451L135.848 17.0452ZM37.9247 3.21105L35.4366 9.87918L32.9485 3.21105H30.0026V16.8313H32.9485V9.71034L35.4366 16.3756L37.9247 9.90619V16.8313H40.8707V3.21105H37.9247Z" fill="white"/>
</g>
<defs>
<clipPath id="clip0_25_711">
<rect width="142.5" height="20.0421" fill="white"/>
</clipPath>
</defs>
</svg>
