<svg width="142" height="34" viewBox="0 0 142 34" fill="none" xmlns="http://www.w3.org/2000/svg">
<g clip-path="url(#clip0_25_683)">
<path d="M2.62329 0.519558C2.69285 0.215549 2.96342 0 3.27512 0H8.9222C12.5114 0 14.8775 1.83609 14.2858 5.65176C13.776 8.79402 11.5121 10.7529 8.39211 10.7529H5.84732L4.92041 14.8627C4.85169 15.1677 4.58062 15.3844 4.26791 15.3844H0.0562682C-0.373492 15.3844 -0.691715 14.9849 -0.595729 14.5662L2.62329 0.519558ZM6.73393 6.86696H7.28476C8.26385 6.86696 9.32621 6.70024 9.54861 5.45929C9.75413 4.31332 8.79026 4.18941 7.87271 4.18941H7.34245L6.73393 6.86696Z" fill="black"/>
<path d="M31.0568 0.523165C31.1265 0.219156 31.3969 0.00377419 31.7088 0.00377419H37.1824C40.662 -0.0893683 43.5979 1.5367 42.9865 5.41273C42.6193 7.73795 41.0847 8.63007 38.9025 9.32371C39.5382 9.63257 40.5357 12.9416 40.984 14.5355C41.1039 14.9621 40.7829 15.3843 40.3397 15.3843H36.2791C35.9661 15.3843 35.6952 15.1681 35.6266 14.8628C35.343 13.6007 34.6271 10.4849 34.4683 10.477C34.3666 10.472 34.3666 10.477 34.3666 10.477L33.3566 14.8654C33.2867 15.1691 33.0163 15.3843 32.7047 15.3843H28.4897C28.06 15.3843 27.7418 14.9848 27.8377 14.5659L31.0568 0.523165ZM35.1853 6.7888H35.5729C36.6634 6.83946 37.7873 6.58027 37.9981 5.44266C38.2165 4.26458 37.4436 4.10422 36.2768 4.10422H35.8054L35.1853 6.7888Z" fill="black"/>
<path d="M15.8374 15.3844H11.7982C11.2975 15.3844 10.9743 14.8545 11.2035 14.4093L18.4355 0.362704C18.5501 0.139965 18.7797 0 19.0302 0H23.7365C24.0701 0 24.3527 0.245816 24.3988 0.576246L26.3632 14.6229C26.4194 15.0252 26.107 15.3844 25.7008 15.3844H21.6311C21.2755 15.3844 20.9822 15.1061 20.9633 14.751L20.8949 13.4654L17.0906 13.463L16.454 14.975C16.3494 15.223 16.1066 15.3844 15.8374 15.3844ZM20.7006 9.81157C20.7006 9.81157 20.6007 7.38535 20.4788 5.64039L20.3818 5.6449L18.6079 9.81157H20.7006Z" fill="black"/>
<path d="M46.2355 0H50.4508C50.8806 0 51.1988 0.399493 51.1028 0.818216L47.8841 14.8648C47.8144 15.1688 47.544 15.3844 47.2321 15.3844H43.0165C42.5867 15.3844 42.2685 14.9849 42.3645 14.5662L45.5835 0.519558C45.6531 0.215549 45.9236 0 46.2355 0Z" fill="black"/>
<path d="M53.6672 0.520728L50.4754 14.5674C50.3803 14.9859 50.6985 15.3844 51.1277 15.3844H76.6491C76.9615 15.3844 77.2322 15.1683 77.3015 14.8637L80.4932 0.817045C80.5882 0.398489 80.2701 0 79.8409 0H54.3195C54.0071 0 53.7364 0.21605 53.6672 0.520728Z" fill="url(#paint0_linear_25_683)"/>
<path d="M36.1169 18.4133L32.9251 32.4599C32.83 32.8785 33.1482 33.277 33.5775 33.277H59.0988C59.4112 33.277 59.6819 33.0609 59.7512 32.7562L62.9429 18.7096C63.0381 18.2911 62.7199 17.8926 62.2906 17.8926H36.7692C36.4568 17.8926 36.1861 18.1086 36.1169 18.4133Z" fill="url(#paint1_linear_25_683)"/>
<path d="M86.4241 33.277H82.3848C81.8842 33.277 81.5609 32.7471 81.7902 32.3019L89.0222 18.2553C89.1369 18.0325 89.3663 17.8926 89.6168 17.8926H94.3231C94.6567 17.8926 94.9393 18.1384 94.9855 18.4688L96.9499 32.5154C97.006 32.9178 96.6937 33.277 96.2875 33.277H92.2178C91.8621 33.277 91.5688 32.9987 91.5499 32.6435L91.4815 31.3579L87.6772 31.3556L87.0406 32.8676C86.9361 33.1156 86.6931 33.277 86.4241 33.277ZM91.2872 27.7041C91.2872 27.7041 91.1874 25.2779 91.0655 23.533L90.9685 23.5375L89.1946 27.7041H91.2872Z" fill="black"/>
<path d="M66.1585 17.8926H71.0001C71.3559 17.8926 71.6495 18.1713 71.6681 18.5267L72.0556 25.9664H72.1689C72.4636 25.2957 75.2487 19.7496 75.9976 18.2598C76.1112 18.0339 76.3418 17.8926 76.5946 17.8926H82.3195C82.7477 17.8926 83.0656 18.2894 82.9723 18.7074L79.8324 32.7541C79.764 33.0598 79.4927 33.277 79.1795 33.277H75.7252C75.297 33.277 74.9791 32.8802 75.0724 32.4623L76.7766 24.8376L76.6468 24.847C76.4921 25.2893 73.4323 31.3479 72.6415 32.9111C72.5276 33.1362 72.2974 33.277 72.0452 33.277H69.7476C69.3927 33.277 69.0998 33.0009 69.0799 32.6466C68.9748 30.7794 68.6777 25.3736 68.7273 24.8373L66.9578 32.7541C66.8894 33.0598 66.6182 33.277 66.305 33.277H62.9881C62.5594 33.277 62.2413 32.8792 62.3356 32.4608L65.5058 18.4141C65.5749 18.1091 65.846 17.8926 66.1585 17.8926Z" fill="black"/>
<path d="M98.8369 17.8926H110.331C110.76 17.8926 111.078 18.2909 110.984 18.7093L110.178 22.2624C110.109 22.5676 109.838 22.784 109.525 22.7835L106.525 22.7785L104.225 32.7584C104.155 33.0619 103.884 33.277 103.573 33.277H99.3588C98.9285 33.277 98.6101 32.8766 98.7071 32.4574L100.945 22.7785L98.0344 22.7831C97.605 22.7838 97.2862 22.3855 97.3809 21.9666L98.1845 18.414C98.2534 18.109 98.5243 17.8926 98.8369 17.8926Z" fill="black"/>
<path d="M127.957 17.8926H132.144C132.571 17.8926 132.888 18.2872 132.797 18.7044L131.84 23.0765H135.267L136.343 18.4111C136.414 18.1076 136.684 17.8926 136.995 17.8926H141.218C141.648 17.8926 141.966 18.2921 141.87 18.711L138.649 32.7576C138.58 33.0616 138.309 33.277 137.997 33.277H133.788C133.359 33.277 133.041 32.878 133.136 32.4593L134.17 27.9317L130.713 27.9286L129.626 32.7554C129.557 33.0604 129.286 33.2771 128.973 33.2771H124.75C124.321 33.2771 124.002 32.8782 124.098 32.4594L127.305 18.4128C127.374 18.1083 127.645 17.8926 127.957 17.8926Z" fill="black"/>
<path d="M120.109 23.2561C119.877 23.2561 119.671 23.1292 119.541 22.9372C119.37 22.6864 119.052 22.4913 118.46 22.4909C116.967 22.4887 115.836 25.1631 115.72 26.0838C115.587 27.1363 115.646 28.442 116.84 28.6642C117.371 28.7631 118.1 28.444 118.503 27.824C118.625 27.6358 118.836 27.5241 119.06 27.5245L123.398 27.53C123.826 27.5305 124.141 27.9266 124.05 28.345C123.695 29.9749 122.314 33.4938 116.99 33.6085C111.666 33.7229 109.398 30.4694 109.868 26.1079C110.416 21.0246 113.813 17.3403 119.403 17.5682C124.699 17.7841 125.235 21.1429 125.218 22.5954C125.214 22.962 124.916 23.2561 124.549 23.2561H120.109Z" fill="black"/>
</g>
<defs>
<linearGradient id="paint0_linear_25_683" x1="50.4586" y1="7.6922" x2="80.5101" y2="7.6922" gradientUnits="userSpaceOnUse">
<stop stop-color="#FDD900"/>
<stop offset="1" stop-color="#FBAF17"/>
</linearGradient>
<linearGradient id="paint1_linear_25_683" x1="32.9082" y1="25.5848" x2="62.9596" y2="25.5848" gradientUnits="userSpaceOnUse">
<stop stop-color="#FDD900"/>
<stop offset="1" stop-color="#FBAF17"/>
</linearGradient>
<clipPath id="clip0_25_683">
<rect width="142.5" height="33.6116" fill="white" transform="translate(-0.612915)"/>
</clipPath>
</defs>
</svg>
