<svg width="143" height="36" viewBox="0 0 143 36" fill="none" xmlns="http://www.w3.org/2000/svg">
<g clip-path="url(#clip0_25_743)">
<path d="M51.9944 39.687V34.7323H53.0561V39.687H51.9944Z" fill="#17161A"/>
<path d="M56.9631 39.687V34.7323H58.0638L60.258 37.6166C60.3366 37.7284 60.4052 37.8468 60.4633 37.9705C60.5411 38.1192 60.619 38.2926 60.7004 38.4908C60.6768 38.3469 60.6591 38.2018 60.6473 38.0555C60.6473 37.9104 60.6296 37.7299 60.6296 37.514V34.7429H61.6418V39.6976H60.6013L58.3469 36.7602C58.267 36.6493 58.1982 36.5307 58.1416 36.4063C58.0673 36.2576 57.9895 36.0807 57.9045 35.8754C57.9293 36.017 57.947 36.1621 57.9576 36.3072C57.9682 36.4523 57.9753 36.6363 57.9753 36.8593V39.6905L56.9631 39.687Z" fill="#17161A"/>
<path d="M65.5239 39.687V34.7323H68.4401V35.6277H66.5821V36.6434H68.4401V37.5458H66.5821V39.6693L65.5239 39.687Z" fill="#17161A"/>
<path d="M77.1108 37.2201C77.1121 37.565 77.0448 37.9066 76.9126 38.2252C76.7805 38.5379 76.5867 38.8207 76.3428 39.0569C76.0915 39.2995 75.7959 39.4917 75.4722 39.6231C74.8685 39.8671 74.1965 39.8822 73.5824 39.6656C73.2942 39.5635 73.025 39.414 72.7861 39.2232C72.4854 38.9837 72.2433 38.6786 72.0783 38.3314C71.9228 38.0003 71.8381 37.6405 71.8296 37.2749C71.821 36.9093 71.8889 36.5459 72.0287 36.2079C72.1614 35.8947 72.3565 35.6117 72.6021 35.3763C73.1059 34.8882 73.7798 34.6153 74.4813 34.6154C74.8261 34.6143 75.1678 34.6817 75.4864 34.8136C75.8088 34.9439 76.1031 35.1349 76.3535 35.3763C76.5978 35.6134 76.7916 35.8975 76.9232 36.2115C77.053 36.5316 77.1168 36.8747 77.1108 37.2201ZM74.4707 38.8728C74.6788 38.8787 74.8858 38.8397 75.0776 38.7585C75.2693 38.6773 75.4413 38.5558 75.5819 38.4022C75.8673 38.0738 76.0244 37.6534 76.0244 37.2183C76.0244 36.7833 75.8673 36.3629 75.5819 36.0345C75.4434 35.8795 75.273 35.7563 75.0824 35.6732C74.8919 35.5902 74.6856 35.5492 74.4778 35.5532C74.2677 35.5486 74.0592 35.5892 73.8662 35.6722C73.6733 35.7553 73.5004 35.8788 73.3594 36.0345C73.0766 36.3648 72.9211 36.7853 72.9211 37.2201C72.9211 37.6549 73.0766 38.0754 73.3594 38.4057C73.5012 38.5576 73.6735 38.6777 73.8651 38.7582C74.0566 38.8387 74.263 38.8778 74.4707 38.8728Z" fill="#17161A"/>
<path d="M84.3661 39.687H83.1451L81.8427 37.3724V39.687H80.781V34.7323H82.2993C82.7765 34.6987 83.2516 34.8231 83.6512 35.0862C83.8059 35.2141 83.9275 35.3773 84.0057 35.5621C84.0839 35.7469 84.1165 35.9479 84.1006 36.1479C84.1077 36.467 83.9982 36.7778 83.7927 37.0221C83.5932 37.26 83.3089 37.4111 83 37.4432L84.3661 39.687ZM81.8427 36.8557H81.9984C82.2891 36.8843 82.5821 36.8354 82.8478 36.7142C82.9214 36.6573 82.9792 36.5826 83.0157 36.4971C83.0523 36.4117 83.0664 36.3182 83.0566 36.2258C83.0663 36.1273 83.0509 36.028 83.0119 35.937C82.9729 35.8461 82.9116 35.7665 82.8337 35.7055C82.5743 35.5797 82.2855 35.527 81.9984 35.5534H81.8427V36.8557Z" fill="#17161A"/>
<path d="M87.3315 39.687L88.0854 34.7323H89.1931L90.1486 37.6485C90.1761 37.7368 90.1986 37.8266 90.2159 37.9174C90.2371 38.0342 90.2619 38.1687 90.2796 38.3209C90.2796 38.1652 90.3185 38.0307 90.3397 37.9068C90.356 37.8169 90.3785 37.7282 90.407 37.6414L91.3767 34.7323H92.4703L93.2276 39.687H92.2367L91.8828 36.7C91.8545 36.4771 91.8368 36.3107 91.8261 36.1975C91.8155 36.0842 91.8261 35.9816 91.8261 35.8825V35.7657C91.824 35.7433 91.824 35.7208 91.8261 35.6985C91.7907 35.8896 91.7589 36.0524 91.727 36.201C91.7065 36.3088 91.6793 36.4151 91.6456 36.5195L90.5839 39.687H89.9894L88.9595 36.5195C88.935 36.4393 88.9149 36.3578 88.8993 36.2753C88.8675 36.1408 88.825 35.9497 88.7719 35.6949V35.84C88.7677 36.1229 88.7476 36.4053 88.7118 36.6859L88.3579 39.6728L87.3315 39.687Z" fill="#17161A"/>
<path d="M96.105 39.687L97.9913 34.7323H99.2017L101.113 39.687H99.9095L99.506 38.6253H97.5878L97.2339 39.687H96.105ZM99.2583 37.8007L98.7026 36.201C98.7026 36.155 98.6673 36.0736 98.6425 35.9568C98.6177 35.84 98.5929 35.702 98.5646 35.5357C98.5363 35.6949 98.508 35.84 98.4797 35.9674C98.4644 36.0534 98.4443 36.1385 98.4195 36.2222L97.8993 37.8007H99.2583Z" fill="#17161A"/>
<path d="M105.883 35.6312V39.687H104.822V35.6312H103.611V34.7323H107.101V35.6312H105.883Z" fill="#17161A"/>
<path d="M110.59 39.687V34.7323H111.652V39.687H110.59Z" fill="#17161A"/>
<path d="M119.548 36.0205C119.353 35.8435 119.129 35.701 118.886 35.5994C118.66 35.5123 118.42 35.4679 118.178 35.4684C117.947 35.4569 117.715 35.4927 117.498 35.5737C117.281 35.6546 117.082 35.779 116.915 35.9391C116.755 36.1093 116.631 36.3097 116.55 36.5285C116.469 36.7473 116.433 36.9801 116.444 37.2132C116.432 37.4384 116.464 37.6638 116.54 37.8764C116.615 38.089 116.732 38.2846 116.883 38.4519C117.036 38.6115 117.221 38.7367 117.426 38.8191C117.631 38.9015 117.851 38.9392 118.072 38.9296C118.345 38.9313 118.616 38.8821 118.872 38.7845C119.125 38.6857 119.357 38.5391 119.555 38.3528V39.4393C119.334 39.5711 119.096 39.6712 118.847 39.7365C118.592 39.8041 118.329 39.8374 118.065 39.8356C117.708 39.8489 117.353 39.7906 117.019 39.6642C116.685 39.5377 116.38 39.3457 116.122 39.0995C115.634 38.6004 115.362 37.9303 115.362 37.2327C115.362 36.535 115.634 35.865 116.122 35.3658C116.385 35.1199 116.693 34.9286 117.031 34.8028C117.368 34.6771 117.727 34.6194 118.086 34.6332C118.348 34.6326 118.609 34.6611 118.865 34.7182C119.121 34.7745 119.369 34.8612 119.604 34.9765L119.548 36.0205Z" fill="#17161A"/>
<path d="M122.722 39.687L124.608 34.7323H125.819L127.73 39.687H126.527L126.123 38.6253H124.205L123.851 39.687H122.722ZM125.875 37.8007L125.32 36.201C125.32 36.155 125.284 36.0736 125.26 35.9568C125.235 35.84 125.21 35.702 125.182 35.5357C125.153 35.6949 125.125 35.84 125.097 35.9674C125.082 36.0534 125.061 36.1385 125.037 36.2222L124.502 37.8007H125.875Z" fill="#17161A"/>
<path d="M60.7144 0.368042H51.3926V31.7205H71.8943V24.8158H60.7144V0.368042Z" fill="#17161A"/>
<path d="M83.1026 9.07068H73.7808V31.7206H83.1026V9.07068Z" fill="#17161A"/>
<path d="M105.777 7.2692V0.368042H85.1802V7.29751L105.777 7.2692Z" fill="#17161A"/>
<path d="M85.1802 31.7206H94.502V19.4118H104.73V12.5106H94.502V9.07068H85.1802V31.7206Z" fill="#17161A"/>
<path d="M127.5 7.2692V0.368042H107.094V7.29751L116.416 7.2692H127.5Z" fill="#17161A"/>
<path d="M107.094 9.07068V31.7206H127.5V24.8159H116.416V19.4118H126.927V12.5106H116.416V9.07068H107.094Z" fill="#17161A"/>
<path d="M28.1799 10.4188C28.3958 10.4188 28.6117 10.4188 28.824 10.4188C25.6108 11.151 22.7411 12.9516 20.6839 15.5262C18.6268 18.1008 17.504 21.2972 17.499 24.5927C17.4993 25.4376 17.574 26.2808 17.722 27.1125C16.4015 26.0645 15.2898 24.7775 14.4448 23.3187C14.6669 19.8259 16.2103 16.5486 18.7614 14.1526C21.3125 11.7567 24.6801 10.4217 28.1799 10.4188Z" fill="#17161A"/>
<path d="M19.0102 34.4137C16.4344 32.1105 14.8219 28.9208 14.4944 25.4811C15.5109 26.8061 16.746 27.9479 18.1467 28.8573C18.641 29.1797 19.1552 29.4704 19.6862 29.7279C22.5157 31.1024 25.7152 31.5201 28.8027 30.9182C31.8903 30.3163 34.6986 28.7273 36.8046 26.3906C35.9041 29.0177 34.2092 31.2999 31.9545 32.9212C29.6998 34.5425 26.9968 35.4227 24.2197 35.44H24.1525C23.5023 35.4396 22.8529 35.3923 22.2095 35.2984C21.1101 35.1391 20.0352 34.8418 19.0102 34.4137Z" fill="#EAAA00"/>
<path d="M29.9742 37.8184C29.3875 37.8956 28.7965 37.9357 28.2047 37.9387C27.3977 37.9371 26.5925 37.8649 25.7981 37.7228C24.4692 37.4913 23.1822 37.0631 21.9795 36.4523C22.6006 36.5465 23.2271 36.5997 23.8552 36.6116H24.1666C24.7582 36.6092 25.3491 36.5714 25.9362 36.4983C29.4513 36.0572 32.6848 34.349 35.0304 31.6939C37.376 29.0389 38.6724 25.6194 38.6768 22.0767C38.6768 21.7228 38.6768 21.3936 38.6378 21.0539C38.4093 17.6745 37.0029 14.4822 34.6635 12.0328C36.5427 13.0412 38.1634 14.4704 39.3987 16.2089C39.8145 16.7931 40.1848 17.4084 40.5064 18.0492C41.4844 20.0109 41.9793 22.1779 41.9496 24.3696C41.92 26.5613 41.3669 28.7142 40.3362 30.6487C39.3056 32.5832 37.8274 34.2433 36.0249 35.4905C34.2224 36.7376 32.1478 37.5358 29.9742 37.8184Z" fill="#17161A"/>
<path d="M99.1486 32.63H98.0374V33.4051H99.1486V32.63Z" fill="#17161A"/>
<path d="M83.1026 0.368042H73.7808V7.33644H83.1026V0.368042Z" fill="#EAAA00"/>
</g>
<defs>
<clipPath id="clip0_25_743">
<rect width="142.5" height="35.7444" fill="white" transform="translate(-0.486328)"/>
</clipPath>
</defs>
</svg>
