<svg width="143" height="39" viewBox="0 0 143 39" fill="none" xmlns="http://www.w3.org/2000/svg">
<g clip-path="url(#clip0_241_1970)">
<path d="M37.9892 0H0V37.9892H37.9892V0Z" fill="white"/>
<path d="M0.387695 37.6016V0.387695H37.6016V37.6016H0.387695Z" fill="black" stroke="white" stroke-width="0.77529"/>
<path d="M10.2959 25.3129V25.8659C10.2959 26.5041 10.1258 26.9296 9.82802 27.27C9.40254 27.6955 8.63717 28.0358 7.01992 28.0358C5.19101 28.0358 4.42502 27.6529 3.99939 27.1853C3.61655 26.8024 3.40381 26.2495 3.40381 25.5688C3.40381 24.9306 3.61655 24.3353 3.99939 23.9523C4.42479 23.5269 5.27551 23.1018 7.01992 23.1018C8.38133 23.1018 9.44502 23.357 9.99781 23.6548V24.5906C9.35974 24.2077 8.2534 23.9525 7.01992 23.9525C5.74379 23.9525 5.10573 24.2077 4.80801 24.5055C4.55279 24.7607 4.42518 25.101 4.42518 25.5692C4.42518 26.0797 4.55279 26.4197 4.80801 26.6329C5.1058 26.9307 5.65851 27.1859 7.01992 27.1859C8.12626 27.1859 8.80696 26.9731 9.06203 26.7179C9.23221 26.5477 9.31726 26.3351 9.31726 26.1223H6.50916V25.2718H10.2957L10.2959 25.3129Z" fill="white"/>
<path d="M16.0797 26.887C16.1649 26.802 16.2073 26.6743 16.2073 26.5467C16.2073 26.4191 16.1649 26.2915 16.0797 26.2064C15.9521 26.0788 15.6543 25.9937 14.0803 25.9086C12.2506 25.8235 11.6978 25.6533 11.4001 25.3555C11.2299 25.1854 11.1449 24.8877 11.1449 24.5899C11.1449 24.2495 11.2299 23.9092 11.4426 23.6541C11.7404 23.3137 12.3784 23.1011 13.9949 23.1011C15.271 23.1011 16.2068 23.2713 16.803 23.5265V24.4196C16.1224 24.1218 14.9741 23.9091 13.9949 23.9091C12.7614 23.9091 12.3784 24.0367 12.2505 24.1643C12.1654 24.2494 12.1229 24.3345 12.1229 24.4621C12.1229 24.5898 12.1654 24.6748 12.2079 24.7599C12.3355 24.8876 12.6333 24.9726 14.1221 25.0577C16.0363 25.1428 16.5899 25.313 16.8876 25.6108C17.0578 25.7809 17.1854 26.0787 17.1854 26.4186C17.1854 26.759 17.1002 27.0993 16.8876 27.3544C16.5472 27.6947 15.9092 27.95 14.2074 27.95C12.9313 27.95 11.6978 27.7372 11.0171 27.4394V26.5463C11.6978 26.8867 13.1445 27.1419 14.2074 27.1419C15.4835 27.1845 15.9092 27.0994 16.079 26.8867L16.0797 26.887Z" fill="white"/>
<path d="M25.9953 27.9104H25.0595V23.9967L22.6344 27.9104H21.4009L18.9758 23.9967V27.9104H18.04V23.2307H19.5712L22.0382 27.2723L24.5052 23.2307H25.9937L25.9953 27.9104Z" fill="white"/>
<path d="M30.973 23.1812L34.0362 27.9034H32.9298L32.2067 26.7971H28.3783L27.655 27.9034H26.5913L29.6545 23.1812H30.973ZM28.8883 25.9466H31.6964L30.2923 23.7347L28.8883 25.9466Z" fill="white"/>
<path d="M32.9267 23.3516H32.6289V23.1814H33.3947V23.3516H33.0969V24.2447H32.9267V23.3516Z" fill="white"/>
<path d="M33.6089 23.1812H33.7791L34.0769 23.6916L34.3746 23.1812H34.5447V24.2449H34.3746V23.4791L34.0769 23.9895L33.7791 23.4791V24.2449H33.6089V23.1812Z" fill="white"/>
<path d="M6.80636 16.9321H3.53076V20.8032H6.80636V16.9321Z" fill="#5E0F08"/>
<path d="M12.9316 15.0173H8.03955V20.8025H12.9316V15.0173Z" fill="#9C1F24"/>
<path d="M21.5219 12.1255H14.1621V20.801H21.5219V12.1255Z" fill="#BF2730"/>
<path d="M33.7795 7.78369H22.8867V20.8008H33.7795V7.78369Z" fill="#CE2B34"/>
<path d="M44.7573 24.8094H51.2387V11.1642L57.3108 20.4445H57.4473L63.5535 11.0945V24.8094H70.1372V0.93042H63.1441L57.4473 10.1719L51.7504 0.93042H44.7573V24.8094Z" fill="#1A1A1A"/>
<path d="M80.7849 24.9796H86.55L91.3258 11.2337L96.1357 24.9796H101.901L109.886 0.930128H103.03L98.8678 14.7458L94.2626 0.860352H88.5658L83.9605 14.7458L79.7988 0.930128H72.8057L80.7849 24.9796Z" fill="#1A1A1A"/>
<path d="M122.651 25.2899C127.938 25.2899 130.978 23.0043 133.226 19.9001L128.245 16.3524C126.813 18.0921 125.346 19.2519 122.856 19.2519C119.513 19.2519 117.159 16.4547 117.159 12.8729V12.8046C117.159 9.32513 119.513 6.49377 122.856 6.49377C125.141 6.49377 126.71 7.58538 128.075 9.29102L133.055 5.43627C130.94 2.50258 127.802 0.455811 122.922 0.455811C115.69 0.455811 110.332 5.91385 110.332 12.876V12.9442C110.332 20.0737 115.824 25.2946 122.643 25.2946L122.651 25.2899Z" fill="#1A1A1A"/>
<path d="M48.4248 29.3057H44.5298V37.9889H48.5489C50.484 37.9889 51.7617 37.1578 51.7617 35.5948C51.7617 34.404 51.0546 33.821 50.0374 33.4736C50.6825 33.1387 51.2779 32.5929 51.2779 31.5261C51.2779 30.1616 50.1739 29.3057 48.4248 29.3057ZM48.1147 32.965H46.0307V30.6578H48.2264C49.2063 30.6578 49.7521 31.0671 49.7521 31.7742C49.7521 32.5805 49.0947 32.965 48.1147 32.965ZM48.5613 36.6368H46.0307V34.2551H48.4497C49.6529 34.2551 50.2359 34.6893 50.2359 35.4336C50.2359 36.2275 49.6033 36.6368 48.5613 36.6368Z" fill="#DE002B"/>
<path d="M58.8061 37.9892V34.1066C58.8061 32.3575 57.8633 31.3403 55.9282 31.3403C54.8614 31.3403 54.1543 31.5636 53.4349 31.8861L53.8442 33.0894C54.4396 32.8413 54.9855 32.68 55.7173 32.68C56.7593 32.68 57.3299 33.1762 57.3299 34.0818V34.243C56.8213 34.0818 56.3128 33.9701 55.5189 33.9701C53.9931 33.9701 52.8643 34.6648 52.8643 36.0789V36.1037C52.8643 37.4186 53.9559 38.1257 55.1963 38.1257C56.1887 38.1257 56.871 37.7163 57.3175 37.1829V37.9892H58.8061ZM57.3547 35.6199C57.3547 36.4386 56.6105 36.9968 55.6181 36.9968C54.911 36.9968 54.3528 36.6495 54.3528 36.0293V36.0045C54.3528 35.3346 54.911 34.9501 55.8538 34.9501C56.4368 34.9501 56.9702 35.0617 57.3547 35.2106V35.6199Z" fill="#DE002B"/>
<path d="M62.0932 35.4925C62.0932 33.7559 63.0112 32.8999 64.3261 32.8999H64.4129V31.3122C63.2593 31.2625 62.5026 31.9324 62.0932 32.9124V31.4362H60.5923V37.9858H62.0932V35.4925Z" fill="#DE002B"/>
<path d="M71.2031 36.9113L70.2975 36.0182C69.8262 36.502 69.3052 36.8369 68.5981 36.8369C67.4445 36.8369 66.6382 35.8942 66.6382 34.7157C66.6382 33.5621 67.4321 32.6193 68.5237 32.6193C69.2804 32.6193 69.7641 32.9543 70.2231 33.438L71.1535 32.4333C70.5456 31.7634 69.7765 31.3044 68.5361 31.3044C66.5761 31.3044 65.1372 32.8674 65.1372 34.7405C65.1372 36.6136 66.5761 38.1394 68.5237 38.1394C69.8014 38.1394 70.558 37.6308 71.2031 36.9113Z" fill="#DE002B"/>
<path d="M73.5444 35.2445H78.3574C78.3698 35.0956 78.3822 34.9716 78.3822 34.8351C78.3822 32.9372 77.3278 31.2998 75.2439 31.2998C73.3708 31.2998 72.0435 32.838 72.0435 34.7235C72.0435 36.7578 73.5072 38.1348 75.4051 38.1348C76.6084 38.1348 77.4643 37.651 78.0845 36.9067L77.2038 36.1252C76.6828 36.6338 76.1618 36.9067 75.4299 36.9067C74.4624 36.9067 73.7181 36.3113 73.5444 35.2445ZM73.532 34.2521C73.6685 33.2349 74.3135 32.5279 75.2314 32.5279C76.2238 32.5279 76.7944 33.2845 76.8937 34.2521H73.532Z" fill="#DE002B"/>
<path d="M81.4834 37.989V28.9336H79.9824V37.989H81.4834Z" fill="#DE002B"/>
<path d="M90.0888 34.7174C90.0888 32.8319 88.6126 31.3062 86.6031 31.3062C84.5935 31.3062 83.105 32.8567 83.105 34.7422C83.105 36.6153 84.5811 38.1411 86.5783 38.1411C88.6002 38.1411 90.0888 36.5905 90.0888 34.7174ZM88.5878 34.7422C88.5878 35.8959 87.8187 36.8386 86.6031 36.8386C85.4371 36.8386 84.6059 35.8835 84.6059 34.7174C84.6059 33.5638 85.375 32.621 86.5783 32.621C87.7567 32.621 88.5878 33.5762 88.5878 34.7422Z" fill="#DE002B"/>
<path d="M93.1128 34.291C93.1128 33.2739 93.7206 32.666 94.5889 32.666C95.4821 32.666 95.9907 33.249 95.9907 34.2662V37.9876H97.4916V33.8197C97.4916 32.2939 96.6357 31.3015 95.1595 31.3015C94.1424 31.3015 93.5345 31.8349 93.1128 32.4551V31.438H91.6118V37.9876H93.1128V34.291Z" fill="#DE002B"/>
<path d="M104.742 37.9892V34.1066C104.742 32.3575 103.799 31.3403 101.864 31.3403C100.797 31.3403 100.09 31.5636 99.3709 31.8861L99.7803 33.0894C100.376 32.8413 100.921 32.68 101.653 32.68C102.695 32.68 103.266 33.1762 103.266 34.0818V34.243C102.757 34.0818 102.249 33.9701 101.455 33.9701C99.9291 33.9701 98.8003 34.6648 98.8003 36.0789V36.1037C98.8003 37.4186 99.8919 38.1257 101.132 38.1257C102.125 38.1257 102.807 37.7163 103.254 37.1829V37.9892H104.742ZM103.291 35.6199C103.291 36.4386 102.547 36.9968 101.554 36.9968C100.847 36.9968 100.289 36.6495 100.289 36.0293V36.0045C100.289 35.3346 100.847 34.9501 101.79 34.9501C102.373 34.9501 102.906 35.0617 103.291 35.2106V35.6199Z" fill="#DE002B"/>
<path d="M136.761 4.65173H137.663V2.1863H138.64V1.39551H135.784V2.1863H136.761V4.65173Z" fill="#1A1A1A"/>
<path d="M139.01 4.65173H139.894V2.79103L140.722 4.0563H140.74L141.573 2.78173V4.65173H142.471V1.39551H141.517L140.74 2.65613L139.963 1.39551H139.01V4.65173Z" fill="#1A1A1A"/>
</g>
<defs>
<clipPath id="clip0_241_1970">
<rect width="142.5" height="38.1313" fill="white"/>
</clipPath>
</defs>
</svg>
