<svg width="143" height="27" viewBox="0 0 143 27" fill="none" xmlns="http://www.w3.org/2000/svg">
<g clip-path="url(#clip0_241_2002)">
<path d="M83.4013 15.9555C81.2974 15.9555 79.2971 14.4964 79.2971 11.3928C79.2971 8.28882 80.7894 7.47144 82.9866 7.47144C85.1839 7.47144 86.2101 8.83714 86.4482 9.93377C86.469 9.95457 86.5624 9.95457 86.5624 9.93377C86.5005 9.12656 86.4071 7.95735 86.2929 7.88477C86.0026 7.68828 84.6449 7.15015 83.3185 7.15015C80.1676 7.15015 77.9912 9.48901 77.9912 11.9097C77.9912 14.3305 80.0742 16.2763 83.2561 16.2763C86.4381 16.2763 85.8473 15.9139 86.3447 15.5417C86.4588 15.4691 86.5832 14.2999 86.635 13.4825C86.635 13.4617 86.5208 13.4617 86.5208 13.4617C86.4071 14.9208 84.925 15.9453 83.3911 15.9453L83.4013 15.9555ZM87.7648 16.1312C88.2936 16.0692 88.4074 16.0383 89.0916 16.0383C89.7757 16.0383 90.0244 16.0794 90.3869 16.1312C90.4183 16.1312 90.4077 16.0383 90.3869 16.0383C89.7961 15.9657 89.5474 15.9143 89.5474 15.6245C89.5474 15.3346 89.7443 14.8381 90.0346 14.1654L90.4285 13.2759H93.1338L93.4652 14.1654C93.683 14.7553 93.8901 15.2828 93.8901 15.6448C93.8901 16.0068 93.548 15.9865 92.9054 16.0484C92.8851 16.0484 92.8745 16.1414 92.9054 16.1414C93.4135 16.0794 94.2632 16.0484 94.958 16.0484C95.6528 16.0484 96.1913 16.09 96.5644 16.1414C96.5954 16.1414 96.5852 16.0484 96.5644 16.0484C95.3518 15.9555 95.1027 15.3864 94.6367 14.207L92.3562 8.62958H92.3252L89.6925 14.2066C89.05 15.5413 88.6149 15.986 87.7754 16.048C87.7546 16.048 87.744 16.1409 87.7754 16.1409L87.7648 16.1312ZM91.9314 10.0785L93.0404 13.0272H90.5321L91.9212 10.0785H91.9314ZM116.226 16.0383C116.205 16.0383 116.194 16.1312 116.226 16.1312C117.148 16.0591 118.547 16.0383 119.76 16.0383C120.973 16.0383 121.397 16.1108 121.843 16.1108C122.289 16.1108 122.04 16.0692 122.092 15.9139C122.175 15.6864 122.289 14.9624 122.341 14.6726C122.32 14.6518 122.258 14.6416 122.227 14.6518C122.051 15.4174 121.978 15.7484 120.081 15.7484H119.46C118.89 15.7484 118.724 15.6245 118.724 14.0313V12.3957H119.625C121.004 12.3957 121.097 12.5196 121.211 13.1511C121.211 13.1613 121.304 13.1821 121.304 13.1613C121.304 13.0581 121.284 12.6028 121.284 12.4682C121.284 12.2093 121.315 11.7128 121.366 11.5477C121.346 11.5265 121.273 11.5265 121.273 11.5265C121.159 12.0544 121.055 12.158 119.615 12.158H118.713V10.637C118.713 9.88155 118.744 9.45759 118.796 9.11594H119.926C121.532 9.11594 121.781 9.39519 121.843 9.9643C121.843 10.0161 121.936 9.99528 121.957 9.97448C121.936 9.85057 121.936 9.5399 121.936 9.42616C121.936 9.22967 121.957 8.91945 121.988 8.73314C121.346 8.77429 120.548 8.82607 119.708 8.82607C118.496 8.82607 117.221 8.82607 116.215 8.73314C116.184 8.73314 116.215 8.82607 116.236 8.83669C117.532 8.92963 117.646 9.14692 117.646 10.6989V14.1756C117.646 15.7276 117.511 15.9236 116.215 16.0378L116.226 16.0383ZM133.337 16.1312C133.866 16.0692 133.98 16.0383 134.664 16.0383C135.348 16.0383 135.597 16.0794 135.959 16.1312C135.99 16.1312 135.98 16.0383 135.959 16.0383C135.369 15.9657 135.12 15.9143 135.12 15.6245C135.12 15.3346 135.317 14.8381 135.607 14.1654L136.001 13.2759H138.706L139.038 14.1654C139.255 14.7553 139.463 15.2828 139.463 15.6448C139.463 16.0068 139.121 15.9865 138.478 16.0484C138.457 16.0484 138.447 16.1414 138.478 16.1414C138.986 16.0794 139.836 16.0484 140.53 16.0484C141.224 16.0484 141.763 16.09 142.137 16.1414C142.167 16.1414 142.157 16.0484 142.137 16.0484C140.924 15.9555 140.675 15.3864 140.209 14.207L137.929 8.62958H137.897L135.254 14.2066C134.612 15.5413 134.177 15.986 133.337 16.048C133.317 16.048 133.306 16.1409 133.337 16.1409V16.1312ZM137.503 10.0785L138.623 13.0272H136.115L137.503 10.0785ZM114.484 16.3697C113.323 15.8002 111.873 14.0105 111.406 12.5103L111.561 12.4483C111.821 12.3341 112.059 12.1996 112.256 12.0133L112.287 11.9823C112.764 11.5995 113.044 11.1132 113.044 10.5958C113.044 9.44741 111.924 8.83714 109.903 8.83714C107.882 8.83714 107.25 8.87829 106.742 9.03363C106.711 9.04381 106.69 9.12656 106.711 9.12656C106.908 9.09558 107.063 9.0646 107.198 9.0646C107.779 9.0646 108.1 9.36465 108.1 10.7719V14.1968C108.1 15.728 107.903 15.9245 106.794 16.0383C106.773 16.0383 106.742 16.1312 106.773 16.1312C107.27 16.0692 108.048 16.0383 108.753 16.0383C109.457 16.0383 110.069 16.0799 110.432 16.1312C110.463 16.1312 110.452 16.0383 110.432 16.0383C109.271 15.9453 109.136 15.6555 109.136 14.1968V12.7997C109.489 12.8307 109.976 12.7997 110.007 12.7997C110.059 12.7997 110.152 12.7895 110.255 12.7687C111.292 14.7761 113.271 16.0484 114.028 16.3383C114.101 16.3693 114.173 16.3901 114.235 16.4109C114.308 16.4317 114.36 16.452 114.36 16.452C114.36 16.452 114.464 16.483 114.505 16.4312C114.557 16.3799 114.495 16.3489 114.495 16.3489L114.484 16.3697ZM109.644 12.624C109.416 12.624 109.25 12.624 109.126 12.593V10.6684C109.126 9.78905 109.136 9.30269 109.209 9.09558C109.406 9.0646 109.53 9.0646 109.727 9.0646C111.147 9.0646 111.965 9.56114 111.965 10.8959C111.965 12.2306 111.303 12.624 109.654 12.624H109.644ZM105.094 16.3697C103.934 15.8002 102.483 14.0105 102.016 12.5103L102.171 12.4483C102.431 12.3341 102.669 12.1996 102.866 12.0133L102.897 11.9823C103.374 11.5995 103.654 11.1132 103.654 10.5958C103.654 9.44741 102.534 8.83714 100.513 8.83714C98.4921 8.83714 97.8602 8.87829 97.3521 9.03363C97.3212 9.04381 97.3004 9.12656 97.3212 9.12656C97.5181 9.09558 97.6734 9.0646 97.808 9.0646C98.3886 9.0646 98.7099 9.36465 98.7099 10.7719V14.1968C98.7099 15.728 98.5129 15.9245 97.4039 16.0383C97.3831 16.0383 97.3521 16.1312 97.3831 16.1312C97.8805 16.0692 98.6581 16.0383 99.3626 16.0383C100.067 16.0383 100.679 16.0799 101.042 16.1312C101.073 16.1312 101.062 16.0383 101.042 16.0383C99.8813 15.9453 99.7463 15.6555 99.7463 14.1968V12.7997C100.099 12.8307 100.586 12.7997 100.617 12.7997C100.669 12.7997 100.762 12.7895 100.866 12.7687C101.902 14.7761 103.882 16.0484 104.638 16.3383C104.711 16.3693 104.783 16.3901 104.846 16.4109C104.918 16.4317 104.97 16.452 104.97 16.452C104.97 16.452 105.074 16.483 105.115 16.4312C105.167 16.3799 105.105 16.3489 105.105 16.3489L105.094 16.3697ZM100.265 12.624C100.037 12.624 99.8707 12.624 99.7463 12.593V10.6684C99.7463 9.78905 99.7565 9.30269 99.8291 9.09558C100.026 9.0646 100.15 9.0646 100.347 9.0646C101.767 9.0646 102.586 9.56114 102.586 10.8959C102.586 12.2306 101.923 12.624 100.275 12.624H100.265ZM132.228 16.3697C131.068 15.8002 129.616 14.0105 129.15 12.5103L129.306 12.4483C129.565 12.3341 129.803 12.1996 130 12.0133L130.031 11.9823C130.508 11.5995 130.788 11.1132 130.788 10.5958C130.788 9.44741 129.668 8.83714 127.648 8.83714C125.627 8.83714 124.994 8.87829 124.486 9.03363C124.455 9.04381 124.434 9.12656 124.455 9.12656C124.652 9.09558 124.808 9.0646 124.942 9.0646C125.523 9.0646 125.844 9.36465 125.844 10.7719V14.1968C125.844 15.728 125.647 15.9245 124.538 16.0383C124.517 16.0383 124.486 16.1312 124.517 16.1312C125.015 16.0692 125.792 16.0383 126.497 16.0383C127.202 16.0383 127.813 16.0799 128.176 16.1312C128.207 16.1312 128.197 16.0383 128.176 16.0383C127.015 15.9453 126.881 15.6555 126.881 14.1968V12.7997C127.233 12.8307 127.72 12.7997 127.751 12.7997C127.803 12.7997 127.896 12.7895 128 12.7687C129.036 14.7761 131.016 16.0484 131.773 16.3383C131.845 16.3693 131.918 16.3901 131.98 16.4109C132.052 16.4317 132.104 16.452 132.104 16.452C132.104 16.452 132.208 16.483 132.249 16.4312C132.301 16.3799 132.239 16.3489 132.239 16.3489L132.228 16.3697ZM127.399 12.624C127.17 12.624 127.005 12.624 126.881 12.593V10.6684C126.881 9.78905 126.891 9.30269 126.963 9.09558C127.16 9.0646 127.285 9.0646 127.482 9.0646C128.912 9.0646 129.72 9.56114 129.72 10.8959C129.72 12.2306 129.057 12.624 127.409 12.624H127.399ZM5.4299 16.2865C7.16025 16.2865 8.02101 15.9245 8.51843 15.5519C8.6326 15.4793 8.75652 14.3101 8.80874 13.4927C8.80874 13.4724 8.69456 13.4724 8.69456 13.4724C8.58038 14.931 7.0983 15.9551 5.56443 15.9551C4.03056 15.9551 1.46025 14.4964 1.46025 11.3924C1.46025 8.28882 2.95252 7.47144 5.14976 7.47144C7.34701 7.47144 8.37327 8.83714 8.6118 9.93377C8.6326 9.95457 8.72554 9.95457 8.72554 9.93377C8.66358 9.12656 8.5702 7.95735 8.45603 7.88477C8.16616 7.68828 6.80843 7.15015 5.48167 7.15015C2.33074 7.15015 0.154297 9.48901 0.154297 11.9097C0.154297 14.3305 2.23736 16.2763 5.41927 16.2763L5.4299 16.2865ZM9.93812 16.1312C10.467 16.0692 10.5811 16.0383 11.2653 16.0383C11.949 16.0383 12.1978 16.0794 12.5606 16.1312C12.5916 16.1312 12.5814 16.0383 12.5606 16.0383C11.9698 15.9657 11.7211 15.9143 11.7211 15.6245C11.7211 15.3346 11.9181 14.8381 12.2079 14.1654L12.6018 13.2759H15.3071L15.639 14.1654C15.8567 14.7553 16.0638 15.2828 16.0638 15.6448C16.0638 16.0068 15.7218 15.9865 15.0792 16.0484C15.0584 16.0484 15.0482 16.1414 15.0792 16.1414C15.5872 16.0794 16.4369 16.0484 17.1313 16.0484C17.8261 16.0484 18.3646 16.09 18.7377 16.1414C18.7687 16.1414 18.7585 16.0484 18.7377 16.0484C17.5251 15.9555 17.2764 15.3864 16.7994 14.207L14.5198 8.62958H14.4888L11.8561 14.2066C11.2135 15.5413 10.7785 15.986 9.939 16.048C9.9182 16.048 9.90802 16.1409 9.939 16.1409L9.93812 16.1312ZM14.1051 10.0785L15.2137 13.0272H12.7058L14.0945 10.0785H14.1051ZM44.3895 14.6624C44.2134 15.428 44.1408 15.759 42.244 15.759H41.6222C41.0522 15.759 40.8863 15.6351 40.8863 14.0415V12.4067H41.7882C43.1667 12.4067 43.2597 12.5306 43.3738 13.1617C43.3738 13.1723 43.4668 13.1927 43.4668 13.1723C43.4668 13.0688 43.4464 12.6134 43.4464 12.4789C43.4464 12.2204 43.4774 11.7239 43.5292 11.5584C43.5084 11.5376 43.4362 11.5376 43.4362 11.5376C43.3221 12.0651 43.2185 12.1686 41.7776 12.1686H40.8765V10.6476C40.8765 9.89261 40.9075 9.46821 40.9593 9.12656H42.0891C43.6956 9.12656 43.9443 9.40625 44.0062 9.97537C44.0062 10.0267 44.0996 10.0063 44.1204 9.98554C44.0996 9.86163 44.0996 9.55096 44.0996 9.43679C44.0996 9.2403 44.1204 8.93007 44.1514 8.74376C43.5088 8.78536 42.7109 8.83669 41.8714 8.83669C40.6588 8.83669 39.3843 8.83669 38.3788 8.74376C38.3478 8.74376 38.3788 8.83669 38.3992 8.84731C39.695 8.94025 39.8087 9.15754 39.8087 10.71V14.1862C39.8087 15.7382 39.6742 15.9347 38.389 16.0484C38.3682 16.0484 38.358 16.1414 38.389 16.1414C39.3113 16.0692 40.7106 16.0484 41.9232 16.0484C43.1358 16.0484 43.5606 16.121 44.0062 16.121C44.4523 16.121 44.2032 16.0799 44.2554 15.9245C44.3382 15.6966 44.4523 14.9726 44.5041 14.6827C44.4833 14.6624 44.4205 14.6518 44.3895 14.6624ZM55.5107 16.1312C56.0395 16.0692 56.1533 16.0383 56.8374 16.0383C57.5216 16.0383 57.7703 16.0794 58.1332 16.1312C58.1642 16.1312 58.1536 16.0383 58.1332 16.0383C57.5424 15.9657 57.2937 15.9143 57.2937 15.6245C57.2937 15.3346 57.4906 14.8381 57.7805 14.1654L58.1744 13.2759H60.8797L61.2111 14.1654C61.4289 14.7553 61.6364 15.2828 61.6364 15.6448C61.6364 16.0068 61.2943 15.9865 60.6517 16.0484C60.6309 16.0484 60.6203 16.1414 60.6517 16.1414C61.1593 16.0794 62.0095 16.0484 62.7038 16.0484C63.3982 16.0484 63.9372 16.09 64.3103 16.1414C64.3413 16.1414 64.3311 16.0484 64.3103 16.0484C63.0977 15.9555 62.849 15.3864 62.3825 14.207L60.1021 8.62958H60.0711L57.4282 14.2066C56.7857 15.5413 56.3502 15.986 55.5107 16.048C55.4899 16.048 55.4797 16.1409 55.5107 16.1409V16.1312ZM59.6773 10.0785L60.7965 13.0272H58.2886L59.6773 10.0785ZM29.3615 9.07478C29.9417 9.07478 30.263 9.37483 30.263 10.7821V14.207C30.263 15.7382 30.066 15.9347 28.9574 16.0484C28.9362 16.0484 28.9052 16.1414 28.9362 16.1414C29.4336 16.0794 30.2107 16.0484 30.9162 16.0484C31.6207 16.0484 32.2323 16.09 32.5947 16.1414C32.6257 16.1414 32.6155 16.0484 32.5947 16.0484C31.4339 15.9555 31.2994 15.6656 31.2994 14.207V12.8099C31.6517 12.8409 32.1389 12.8099 32.1699 12.8099C32.2217 12.8099 32.315 12.7997 32.4186 12.7789C33.455 14.7863 35.435 16.0591 36.1913 16.3485C36.2639 16.3795 36.3365 16.4003 36.3989 16.4211C36.4714 16.4419 36.5228 16.4627 36.5228 16.4627C36.5228 16.4627 36.6268 16.4936 36.6684 16.4419C36.7202 16.3901 36.6578 16.3591 36.6578 16.3591C35.497 15.79 34.0458 14.0003 33.5794 12.5001C33.6313 12.4791 33.6833 12.4583 33.7352 12.4377C33.9941 12.324 34.2326 12.1894 34.4295 12.0031L34.4605 11.9721C34.9376 11.5893 35.2173 11.103 35.2173 10.5856C35.2173 9.43723 34.0976 8.82651 32.0765 8.82651C30.0558 8.82651 29.4234 8.86811 28.9154 9.02345C28.8844 9.03363 28.8636 9.11638 28.8844 9.11638C29.0814 9.0854 29.2371 9.05443 29.3712 9.05443L29.3615 9.07478ZM31.2994 10.6786C31.2994 9.79923 31.3202 9.31287 31.3822 9.1062C31.5791 9.07523 31.7034 9.07523 31.9004 9.07523C33.3205 9.07523 34.1397 9.57176 34.1397 10.9065C34.1397 12.2412 33.4758 12.6342 31.8278 12.6342C30.1802 12.6342 31.4339 12.6342 31.31 12.6032V10.6786H31.2994ZM19.9193 9.07478C20.4995 9.07478 20.8208 9.37483 20.8208 10.7821V14.207C20.8208 15.7382 20.6238 15.9347 19.5153 16.0484C19.494 16.0484 19.463 16.1414 19.494 16.1414C19.9914 16.0794 20.769 16.0484 21.474 16.0484C22.1785 16.0484 22.7901 16.09 23.153 16.1414C23.184 16.1414 23.1734 16.0484 23.153 16.0484C21.9922 15.9555 21.8572 15.6656 21.8572 14.207V12.8099C22.2095 12.8409 22.6967 12.8099 22.7277 12.8099C22.7795 12.8099 22.8729 12.7997 22.9769 12.7789C24.0129 14.7863 25.9928 16.0591 26.7491 16.3485C26.8217 16.3795 26.8943 16.4003 26.9567 16.4211C27.0293 16.4419 27.0806 16.4627 27.0806 16.4627C27.0806 16.4627 27.1846 16.4936 27.2262 16.4419C27.278 16.3901 27.2156 16.3591 27.2156 16.3591C26.0548 15.79 24.6037 14.0003 24.1372 12.5001L24.293 12.4377C24.5519 12.324 24.7904 12.1894 24.9874 12.0031L25.0183 11.9721C25.4954 11.5893 25.7751 11.103 25.7751 10.5856C25.7751 9.43723 24.6554 8.82651 22.6348 8.82651C20.6141 8.82651 19.9813 8.86811 19.4737 9.02345C19.4427 9.03363 19.4214 9.11638 19.4427 9.11638C19.6392 9.0854 19.7945 9.05443 19.9295 9.05443L19.9193 9.07478ZM21.8577 10.6786C21.8577 9.79923 21.878 9.31287 21.9404 9.1062C22.1369 9.07523 22.2613 9.07523 22.4582 9.07523C23.8783 9.07523 24.6975 9.57176 24.6975 10.9065C24.6975 12.2412 24.0337 12.6342 22.3856 12.6342C20.738 12.6342 21.9918 12.6342 21.8678 12.6032V10.6786H21.8577ZM47.1156 9.07478C47.6958 9.07478 48.017 9.37483 48.017 10.7821V14.207C48.017 15.7382 47.8201 15.9347 46.7111 16.0484C46.6903 16.0484 46.6593 16.1414 46.6903 16.1414C47.1881 16.0794 47.9653 16.0484 48.6702 16.0484C49.3748 16.0484 49.9864 16.09 50.3493 16.1414C50.3802 16.1414 50.3701 16.0484 50.3493 16.0484C49.1885 15.9555 49.0535 15.6656 49.0535 14.207V12.8099C49.4058 12.8409 49.893 12.8099 49.924 12.8099C49.9762 12.8099 50.0691 12.7997 50.1731 12.7789C51.2096 14.7863 53.1891 16.0591 53.9454 16.3485C54.018 16.3795 54.0905 16.4003 54.1529 16.4211C54.2255 16.4419 54.2773 16.4627 54.2773 16.4627C54.2773 16.4627 54.3809 16.4936 54.4225 16.4419C54.4742 16.3901 54.4118 16.3591 54.4118 16.3591C53.251 15.79 51.7999 14.0003 51.3339 12.5001L51.4893 12.4377C51.7481 12.324 51.9867 12.1894 52.1836 12.0031L52.2146 11.9721C52.6917 11.5893 52.9713 11.103 52.9713 10.5856C52.9713 9.43723 51.8521 8.82651 49.831 8.82651C47.8099 8.82651 47.1775 8.86811 46.6699 9.02345C46.6385 9.03363 46.6177 9.11638 46.6385 9.11638C46.8354 9.0854 46.9912 9.05443 47.1258 9.05443L47.1156 9.07478ZM49.0535 10.6786C49.0535 9.79923 49.0641 9.31287 49.1367 9.1062C49.3336 9.07523 49.458 9.07523 49.6549 9.07523C51.0746 9.07523 51.8933 9.57176 51.8933 10.9065C51.8933 12.2412 51.2299 12.6342 49.5823 12.6342C47.9347 12.6342 49.1885 12.6342 49.0641 12.6032V10.6786H49.0535ZM62.714 18.097C58.8692 17.8903 54.3499 18.4386 52.847 21.0147C52.277 21.9874 52.246 23.0221 52.951 24.0258C53.6144 24.9259 55.169 24.9051 55.169 24.9051C53.9768 24.4396 53.3758 23.5288 53.5312 22.4534C54.1844 18.6041 61.7709 18.1904 65.8132 18.5422C64.8595 18.2731 63.6053 18.1488 62.7246 18.097H62.714ZM62.4759 5.75391C62.9653 5.59175 63.4683 5.474 63.9788 5.40209C64.124 5.38129 64.2687 5.37111 64.4138 5.36049C64.497 5.36049 64.5798 5.33969 64.6626 5.33969H65.3777C65.5541 5.35031 65.7304 5.37096 65.9065 5.40165C66.5075 5.49502 67.0673 5.67116 67.513 5.88845C67.6891 5.99156 68.0002 6.14689 68.3007 6.46774C68.3317 6.49872 68.3627 6.53988 68.3835 6.57085C68.6428 6.9125 69.223 7.9162 68.2901 9.37483C66.7354 11.827 62.849 14.2278 67.1089 15.6453C67.4612 15.7794 68.3215 16.0175 68.9225 16.121C68.9535 16.121 68.9433 16.0281 68.9225 16.0281C68.1865 15.8935 67.5338 15.6347 67.2227 15.4382C64.2687 13.4201 70.6949 10.5648 69.358 7.74006C69.1253 7.19969 68.7829 6.71354 68.3525 6.31241C68.3215 6.27125 68.2901 6.25045 68.2591 6.21947C67.6581 5.67071 66.9948 5.36093 66.4557 5.17418C66.3212 5.13302 66.1969 5.09142 66.0827 5.06044C65.8548 4.99849 65.6888 4.97769 65.5853 4.95689C65.5229 4.95689 65.4919 4.94671 65.4919 4.94671C65.4193 4.94671 65.3365 4.92591 65.2432 4.92591H65.0462C63.7921 4.87413 61.4806 5.13302 59.3768 7.34708C59.3768 7.34708 60.1853 6.73637 61.3979 6.18805C61.74 6.03316 62.1029 5.888 62.4967 5.76409L62.4759 5.75391Z" fill="#DA291C"/>
<path d="M69.4814 16.0069L69.4403 16.0591C68.9569 16.6486 68.4697 17.2348 67.9785 17.8178C63.8952 22.619 59.0134 25.9713 53.9556 25.3397C58.6404 27.0679 64.0611 24.4086 69.0774 18.1284C70.5493 16.2866 74.2078 11.2376 77.7318 7.28517C78.4054 6.5709 80.7062 4.4604 84.1784 4.87418C84.1784 4.87418 82.0745 4.09839 79.4936 5.41231C78.7992 5.76414 78.0739 6.27086 77.3481 6.9745C77.172 7.15064 76.9959 7.32633 76.8197 7.52326C74.1251 10.3582 71.3888 13.6897 69.4712 16.0069H69.4814Z" fill="#DA291C"/>
</g>
<defs>
<clipPath id="clip0_241_2002">
<rect width="142.5" height="26.5528" fill="white" transform="translate(-0.178711)"/>
</clipPath>
</defs>
</svg>
