<svg width="143" height="32" viewBox="0 0 143 32" fill="none" xmlns="http://www.w3.org/2000/svg">
<g clip-path="url(#clip0_241_2006)">
<path d="M82.0865 9.35031C83.3601 4.23389 80.2545 0 72.6469 0H56.1581L49.9805 25.0235L53.5664 31.1789H65.2962C72.982 31.1789 78.9363 27.5929 80.4667 21.3594C81.2375 18.1644 80.3438 15.9302 78.333 14.813V14.7348C80.2399 13.4996 81.5873 11.5668 82.0865 9.35031ZM72.0324 21.1583C71.7197 22.4653 70.8371 23.8059 67.1841 23.8059H59.6994L61.0065 18.4437H68.4577C72.066 18.4325 72.3341 19.8066 71.9878 21.1583H72.0324ZM73.5294 9.51787C73.2613 10.5233 72.4905 11.7521 69.3402 11.7521H62.6375L63.7546 7.39534H70.4573C73.6411 7.373 73.7975 8.40075 73.5294 9.51787Z" fill="#007ACC"/>
<path d="M92.4646 19.1028H107.479L109.188 11.7298H94.2743L95.4361 7.373H110.204L111.914 0H87.6721L79.9863 31.1677H107.445L109.244 23.7947H91.3586L92.4646 19.1028Z" fill="#007ACC"/>
<path d="M114.014 0L112.293 7.373H121.264L115.377 31.1677H124.794L130.692 7.373H140.3L142.143 0H114.014Z" fill="#007ACC"/>
<path d="M9.49608 31.1677H0.000545233L4.11155 14.5226L5.0611 12.0091L2.54758 14.5226L-0.245221 17.3489L-0.356934 9.03751L9.49608 0H17.1707L9.49608 31.1677Z" fill="#002F5E"/>
<path d="M43.7806 18.2538L40.7532 13.1262L55.4434 0H41.7587L36.173 5.36218L17.2267 22.7334L8.1333 31.1677H21.0807L30.8109 22.4877L34.084 28.0733C35.2012 29.4808 36.7763 31.19 43.4567 31.19H51.2765L43.7918 18.2426L43.7806 18.2538Z" fill="#002F5E"/>
<path d="M35.1229 3.64188V3.57485C34.2847 2.40552 33.1663 1.46543 31.8702 0.840827C30.5742 0.216227 29.142 -0.0728712 27.7052 5.99716e-05H17.5952L25.1358 12.8246L35.1229 3.64188Z" fill="#002F5E"/>
</g>
<defs>
<clipPath id="clip0_241_2006">
<rect width="142.5" height="31.1677" fill="white" transform="translate(-0.356934)"/>
</clipPath>
</defs>
</svg>
