<svg width="142" height="21" viewBox="0 0 142 21" fill="none" xmlns="http://www.w3.org/2000/svg">
<g clip-path="url(#clip0_241_2016)">
<path d="M142.5 0H27.0571V20.0421H142.5V0Z" fill="#272524"/>
<path d="M0 16.8332V3.21484H3.28775V16.8332H0Z" fill="#FFDD00"/>
<path d="M9.28776 11.8917H8.12043V16.8332H4.92969V3.21484H9.52109C11.953 3.21484 13.7428 4.30426 13.7428 7.45598C13.7428 10.6855 11.8946 11.8917 9.28776 11.8917ZM9.22936 5.8606H8.12058V9.24579H9.1711C10.1048 9.24579 10.5135 8.75934 10.5135 7.53375C10.5135 6.32753 10.1439 5.8606 9.22936 5.8606Z" fill="#FFDD00"/>
<path d="M19.6367 17.0471C16.5629 17.0471 14.7925 14.7515 14.7925 10.0239C14.7925 5.49094 16.4071 3.00073 19.6951 3.00073C22.555 3.00073 23.5471 4.49868 24.1308 7.0668L21.018 7.96178C20.7261 6.48321 20.4928 5.80232 19.6756 5.80232C18.5278 5.80232 18.1583 6.89174 18.1583 10.0241C18.1583 13.3898 18.6446 14.3041 19.8313 14.3041C20.8818 14.3041 21.1931 13.6815 21.271 12.5921V12.028H19.6953V9.53778H24.3449V11.6777C24.3449 14.985 22.8275 17.0473 19.6369 17.0473L19.6367 17.0471Z" fill="#FFDD00"/>
<path d="M42.6263 16.8311V3.21277H50.6029V5.99485H45.8558V8.32936H48.9491V11.0919H45.8558V14.0491H50.7389V16.8311H42.6263ZM55.8746 16.8311H52.2169V3.21277H56.1663C59.6875 3.21277 61.4189 5.27493 61.4189 9.92474C61.4189 14.8274 59.5707 16.8311 55.8744 16.8311H55.8746ZM56.0495 5.91693H55.4659V14.1464H55.9719C57.4892 14.1464 58.0924 13.4266 58.0924 9.983C58.0924 6.65621 57.5671 5.91693 56.0497 5.91693H56.0495ZM62.936 16.8311V3.21277H66.2237V16.8311H62.936ZM74.278 16.8311L73.7721 14.302H71.0873L70.601 16.8311H67.2547L70.776 3.21277H74.1223L77.6242 16.8311H74.278ZM73.1495 11.2087C72.8383 9.41878 72.5464 7.94021 72.4102 6.6951C72.2936 7.94021 72.0211 9.41878 71.6904 11.2281L71.6125 11.6561H73.2273L73.1494 11.2087H73.1495ZM83.3625 16.8311H78.5766V3.21277H83.4404C86.1252 3.21277 87.3897 4.41899 87.3897 6.81191C87.3897 8.29048 86.7672 9.06865 85.8139 9.59398C86.9227 10.0998 87.6039 10.9948 87.6039 12.6484C87.6039 15.2943 86.242 16.8311 83.3626 16.8311H83.3625ZM83.129 5.74186H81.6893V8.52394H83.1679C83.8684 8.52394 84.2184 8.05701 84.2184 7.10377C84.2184 6.16991 83.8878 5.74186 83.129 5.74186ZM83.2069 11.0141H81.6895V14.3019H83.2458C84.0046 14.3019 84.4131 13.7766 84.4131 12.7067C84.4131 11.5393 84.0045 11.0141 83.2069 11.0141ZM94.6845 16.8311L93.0893 11.6173H92.2138V16.8311H89.0231V3.21277H93.7313C96.1824 3.21277 97.953 4.3217 97.953 7.35661C97.953 9.12705 97.272 10.2749 96.1631 10.9364L98.1475 16.8311H94.6845ZM93.4978 5.80027H92.2138V9.12705H93.4394C94.3733 9.12705 94.7235 8.58234 94.7235 7.4539C94.7235 6.32546 94.3928 5.80027 93.4978 5.80027ZM105.715 16.8311L105.209 14.302H102.524L102.038 16.8311H98.6917L102.213 3.21277H105.559L109.061 16.8311H105.715ZM104.587 11.2087C104.275 9.41878 103.983 7.94021 103.847 6.6951C103.731 7.94021 103.458 9.41878 103.127 11.2281L103.05 11.6561H104.664L104.586 11.2087H104.587ZM116.92 16.8311L114.916 12.9206C114.157 11.4421 113.438 9.96348 113.165 9.18531C113.243 9.96362 113.263 11.695 113.263 12.979V16.831H110.208V3.21277H113.049L114.78 6.3256C115.558 7.7264 116.336 9.3994 116.589 10.1387C116.511 9.3994 116.473 7.5123 116.473 6.2672V3.21291H119.527V16.8313L116.92 16.8311ZM124.993 16.8311H121.336V3.21277H125.285C128.806 3.21277 130.538 5.27493 130.538 9.92474C130.538 14.8274 128.689 16.8311 124.993 16.8311H124.993ZM125.168 5.91693H124.585V14.1464H125.09C126.608 14.1464 127.211 13.4266 127.211 9.983C127.211 6.65621 126.686 5.91693 125.168 5.91693ZM135.848 17.0451C133.728 17.0451 132.502 16.1696 131.374 14.6717L133.592 12.6678C134.506 13.7573 135.245 14.3214 135.907 14.3214C136.588 14.3214 137.074 13.9711 137.074 13.2319C137.074 12.4731 136.86 12.0061 135.323 11.3252C132.619 10.1385 131.627 9.10739 131.627 6.96731C131.627 4.74946 133.241 2.99854 135.849 2.99854C137.95 2.99854 139 3.75733 140.129 5.15799L137.872 7.18141C136.938 6.07248 136.607 5.72221 135.751 5.72221C135.129 5.72221 134.778 6.18914 134.778 6.69496C134.778 7.41473 135.129 7.8234 136.51 8.42651C139.253 9.63273 140.265 10.761 140.265 13.0373C140.265 15.5859 138.378 17.0449 135.849 17.0449L135.848 17.0451ZM37.9246 3.21093L35.4365 9.87906L32.9484 3.21093H30.0024V16.8311H32.9484V9.71022L35.4365 16.3755L37.9246 9.90607V16.8311H40.8706V3.21093H37.9246Z" fill="white"/>
</g>
<defs>
<clipPath id="clip0_241_2016">
<rect width="142.5" height="20.0421" fill="white"/>
</clipPath>
</defs>
</svg>
