<svg width="142" height="34" viewBox="0 0 142 34" fill="none" xmlns="http://www.w3.org/2000/svg">
<g clip-path="url(#clip0_241_2023)">
<path d="M2.62341 0.519558C2.69298 0.215549 2.96354 0 3.27524 0H8.92232C12.5116 0 14.8776 1.83609 14.286 5.65176C13.7761 8.79402 11.5122 10.7529 8.39223 10.7529H5.84745L4.92054 14.8627C4.85181 15.1677 4.58074 15.3844 4.26804 15.3844H0.0563902C-0.37337 15.3844 -0.691593 14.9849 -0.595607 14.5662L2.62341 0.519558ZM6.73406 6.86696H7.28488C8.26397 6.86696 9.32633 6.70024 9.54873 5.45929C9.75425 4.31332 8.79038 4.18941 7.87284 4.18941H7.34258L6.73406 6.86696Z" fill="black"/>
<path d="M31.057 0.523165C31.1267 0.219156 31.3971 0.00377419 31.709 0.00377419H37.1827C40.6622 -0.0893683 43.5981 1.5367 42.9868 5.41273C42.6196 7.73795 41.085 8.63007 38.9027 9.32371C39.5385 9.63257 40.536 12.9416 40.9843 14.5355C41.1042 14.9621 40.7831 15.3843 40.34 15.3843H36.2793C35.9663 15.3843 35.6954 15.1681 35.6268 14.8628C35.3432 13.6007 34.6274 10.4849 34.4685 10.477C34.3668 10.472 34.3668 10.477 34.3668 10.477L33.3568 14.8654C33.2869 15.1691 33.0165 15.3843 32.705 15.3843H28.49C28.0602 15.3843 27.742 14.9848 27.838 14.5659L31.057 0.523165ZM35.1855 6.7888H35.5732C36.6636 6.83946 37.7875 6.58027 37.9984 5.44266C38.2168 4.26458 37.4439 4.10422 36.277 4.10422H35.8056L35.1855 6.7888Z" fill="black"/>
<path d="M15.8374 15.3844H11.7982C11.2975 15.3844 10.9743 14.8545 11.2035 14.4093L18.4355 0.362704C18.5501 0.139965 18.7797 0 19.0302 0H23.7365C24.0701 0 24.3527 0.245816 24.3988 0.576246L26.3632 14.6229C26.4194 15.0252 26.107 15.3844 25.7008 15.3844H21.6311C21.2755 15.3844 20.9822 15.1061 20.9633 14.751L20.8949 13.4654L17.0906 13.463L16.454 14.975C16.3494 15.223 16.1066 15.3844 15.8374 15.3844ZM20.7006 9.81157C20.7006 9.81157 20.6007 7.38535 20.4788 5.64039L20.3818 5.6449L18.6079 9.81157H20.7006Z" fill="black"/>
<path d="M46.2359 0H50.4512C50.8809 0 51.1992 0.399493 51.1032 0.818216L47.8845 14.8648C47.8148 15.1688 47.5444 15.3844 47.2325 15.3844H43.0168C42.5871 15.3844 42.2689 14.9849 42.3648 14.5662L45.5839 0.519558C45.6534 0.215549 45.924 0 46.2359 0Z" fill="black"/>
<path d="M53.6672 0.520728L50.4754 14.5674C50.3803 14.9859 50.6985 15.3844 51.1277 15.3844H76.6491C76.9615 15.3844 77.2322 15.1683 77.3015 14.8637L80.4932 0.817045C80.5882 0.398489 80.2701 0 79.8409 0H54.3195C54.0071 0 53.7364 0.21605 53.6672 0.520728Z" fill="url(#paint0_linear_241_2023)"/>
<path d="M36.1169 18.4133L32.9251 32.4599C32.83 32.8785 33.1482 33.277 33.5775 33.277H59.0988C59.4112 33.277 59.6819 33.0609 59.7512 32.7562L62.9429 18.7096C63.0381 18.2911 62.7199 17.8926 62.2906 17.8926H36.7692C36.4568 17.8926 36.1861 18.1086 36.1169 18.4133Z" fill="url(#paint1_linear_241_2023)"/>
<path d="M86.4238 33.2767H82.3846C81.8839 33.2767 81.5607 32.7468 81.79 32.3017L89.022 18.255C89.1367 18.0323 89.3661 17.8923 89.6166 17.8923H94.3229C94.6565 17.8923 94.9391 18.1381 94.9853 18.4686L96.9496 32.5152C97.0058 32.9175 96.6934 33.2767 96.2872 33.2767H92.2176C91.8619 33.2767 91.5686 32.9985 91.5497 32.6433L91.4813 31.3577L87.677 31.3554L87.0404 32.8674C86.9359 33.1154 86.6929 33.2767 86.4238 33.2767ZM91.287 27.7039C91.287 27.7039 91.1871 25.2777 91.0652 23.5327L90.9682 23.5372L89.1944 27.7039H91.287Z" fill="black"/>
<path d="M66.1584 17.8923H70.9999C71.3558 17.8923 71.6494 18.1711 71.668 18.5264L72.0554 25.9661H72.1688C72.4635 25.2954 75.2485 19.7493 75.9975 18.2596C76.1111 18.0336 76.3417 17.8923 76.5945 17.8923H82.3193C82.7476 17.8923 83.0655 18.2892 82.9722 18.7072L79.8323 32.7538C79.7639 33.0595 79.4926 33.2767 79.1794 33.2767H75.7251C75.2969 33.2767 74.979 32.8799 75.0723 32.462L76.7764 24.8374L76.6467 24.8468C76.492 25.2891 73.4322 31.3477 72.6414 32.9109C72.5275 33.1359 72.2972 33.2767 72.0451 33.2767H69.7474C69.3926 33.2767 69.0996 33.0006 69.0797 32.6463C68.9747 30.7791 68.6776 25.3733 68.7272 24.8371L66.9577 32.7538C66.8893 33.0595 66.6181 33.2767 66.3048 33.2767H62.988C62.5593 33.2767 62.2412 32.8789 62.3355 32.4605L65.5057 18.4139C65.5748 18.1089 65.8458 17.8923 66.1584 17.8923Z" fill="black"/>
<path d="M98.8365 17.8923H110.331C110.76 17.8923 111.078 18.2907 110.983 18.709L110.178 22.2622C110.109 22.5674 109.837 22.7837 109.524 22.7832L106.525 22.7782L104.224 32.7582C104.154 33.0617 103.884 33.2767 103.572 33.2767H99.3584C98.9281 33.2767 98.6098 32.8764 98.7067 32.4572L100.944 22.7782L98.034 22.7829C97.6046 22.7836 97.2859 22.3852 97.3805 21.9664L98.1842 18.4137C98.2531 18.1087 98.524 17.8923 98.8365 17.8923Z" fill="black"/>
<path d="M127.957 17.8923H132.143C132.57 17.8923 132.888 18.287 132.797 18.7042L131.84 23.0762H135.267L136.343 18.4109C136.413 18.1074 136.684 17.8923 136.995 17.8923H141.218C141.647 17.8923 141.966 18.2918 141.87 18.7107L138.649 32.7573C138.579 33.0614 138.309 33.2767 137.997 33.2767H133.788C133.358 33.2767 133.04 32.8777 133.136 32.459L134.17 27.9315L130.713 27.9283L129.625 32.7552C129.557 33.0602 129.285 33.2769 128.973 33.2769H124.75C124.32 33.2769 124.002 32.8779 124.098 32.4592L127.305 18.4126C127.374 18.1081 127.645 17.8923 127.957 17.8923Z" fill="black"/>
<path d="M120.109 23.256C119.877 23.256 119.671 23.1291 119.54 22.9371C119.369 22.6863 119.052 22.4911 118.46 22.4908C116.966 22.4886 115.835 25.163 115.72 26.0837C115.587 27.1362 115.646 28.4419 116.839 28.6641C117.371 28.763 118.1 28.4439 118.503 27.8238C118.625 27.6357 118.835 27.524 119.06 27.5243L123.398 27.5299C123.826 27.5304 124.141 27.9265 124.05 28.3449C123.695 29.9748 122.314 33.4937 116.99 33.6084C111.666 33.7227 109.397 30.4693 109.868 26.1078C110.416 21.0244 113.812 17.3402 119.403 17.5681C124.698 17.784 125.235 21.1428 125.218 22.5953C125.214 22.9619 124.915 23.256 124.549 23.256H120.109Z" fill="black"/>
</g>
<defs>
<linearGradient id="paint0_linear_241_2023" x1="50.4586" y1="7.6922" x2="80.5101" y2="7.6922" gradientUnits="userSpaceOnUse">
<stop stop-color="#FDD900"/>
<stop offset="1" stop-color="#FBAF17"/>
</linearGradient>
<linearGradient id="paint1_linear_241_2023" x1="32.9082" y1="25.5848" x2="62.9596" y2="25.5848" gradientUnits="userSpaceOnUse">
<stop stop-color="#FDD900"/>
<stop offset="1" stop-color="#FBAF17"/>
</linearGradient>
<clipPath id="clip0_241_2023">
<rect width="142.5" height="33.6116" fill="white" transform="translate(-0.612793)"/>
</clipPath>
</defs>
</svg>
