<svg width="143" height="27" viewBox="0 0 143 27" fill="none" xmlns="http://www.w3.org/2000/svg">
<path d="M28.7987 2.29834C27.7645 2.29834 24.8225 2.39028 22.4552 4.75761C20.2947 6.82616 17.8354 9.17052 16.9391 9.99794H38.9576L42.8189 2.29834H28.7987ZM13.2157 13.5604L2.29834 23.9491H27.8334C28.0633 23.9491 31.9935 24.087 33.3955 21.26C34.7286 18.5709 36.6822 14.6407 37.2108 13.5604H13.2157ZM33.4875 22.708L33.4415 22.8689H33.8092L33.6024 23.7883H33.8552L34.0391 22.8689H34.4068L34.4528 22.708H33.4875ZM34.9814 22.708L35.0504 23.1447C35.0733 23.2596 35.0733 23.3975 35.0963 23.5125C35.1653 23.3975 35.2342 23.2596 35.3032 23.1447L35.579 22.708H35.9008L35.7399 23.7883H35.51L35.579 23.3516C35.602 23.2137 35.625 23.0528 35.6709 22.8919C35.602 23.0298 35.51 23.1677 35.4181 23.3056L35.1193 23.7653H34.9354L34.8665 23.3056C34.8435 23.1677 34.8435 23.0298 34.8205 22.8919L34.7746 23.0298C34.7516 23.1217 34.7286 23.2366 34.6826 23.3286L34.5677 23.7653H34.3379L34.6596 22.685C34.6826 22.708 34.9814 22.708 34.9814 22.708ZM100.577 8.77979H101.037C105.358 8.80278 106.231 9.14753 107.197 10.2048C107.932 11.0092 108.047 11.8137 107.771 13.0318C107.771 13.0318 107.036 16.1576 106.898 16.6633C106.668 17.5137 106.254 18.5939 105.151 19.3064C103.841 20.1338 101.75 20.0879 99.5891 20.0649H96.9689C92.625 20.0649 91.4758 18.2951 91.8665 16.6633C92.2113 15.1923 92.6479 13.4455 92.7399 13.1008L92.7629 13.0318C93.0617 11.8137 93.1766 10.7334 94.6016 9.69915C95.8657 8.77979 97.9802 8.77979 100.577 8.77979ZM79.1104 6.27455H82.4431C82.535 6.27455 82.6499 6.32052 82.6959 6.38947C82.7879 6.50439 82.8338 6.68826 82.7879 6.89511L82.3282 8.80278H86.0286C86.3733 8.80278 87.7524 8.82576 88.1661 8.84874C88.6487 8.87173 89.1314 8.9177 89.5911 9.07858C91.8435 9.7681 92.533 11.2391 91.8895 13.7213C91.8895 13.7213 91.3608 16.1116 91.2 16.6862C90.3495 19.7431 87.2927 20.0419 84.4427 20.0419C82.4661 20.0419 76.4213 20.0419 75.479 20.0419H75.3641L78.5129 6.87213C78.5818 6.52737 78.8117 6.27455 79.1104 6.27455ZM115.885 8.84874H122.872C122.941 8.84874 124.619 8.87173 125.078 8.89471C125.561 8.9177 126.044 9.00963 126.503 9.12455C128.71 9.7681 129.491 11.331 128.802 13.7673L127.331 20.0419H117.999C117.907 20.0419 115.724 20.0189 115.126 19.95C114.529 19.881 114 19.7431 113.586 19.4903C112.46 18.8927 112.023 17.9733 112.322 16.7092C112.506 15.9508 112.92 15.2612 113.563 14.6637C114.207 14.0661 114.965 13.6754 115.816 13.4685C116.574 13.2846 117.815 13.1697 119.47 13.1697H124.159C124.435 13.1697 124.573 13.1008 124.664 12.779C124.917 11.9516 124.55 11.331 123.033 11.331H115.195C115.103 11.331 114.965 11.285 114.896 11.2161C114.804 11.1012 114.758 10.9633 114.804 10.7104L115.103 9.42334C115.241 9.10157 115.471 8.84874 115.885 8.84874ZM46.4733 6.18261H54.7705C55.6439 6.18261 57.1379 6.22858 58.333 6.59632C59.3673 6.9181 59.9879 7.49269 60.3326 8.22818C60.5625 8.68786 60.6084 9.23947 60.4475 9.88302C60.2407 10.6875 59.781 11.4 59.0685 11.9745C58.333 12.5951 57.8044 12.9169 57.8044 12.9169C57.6665 13.0088 57.5746 13.1008 57.5746 13.1697C57.5746 13.2157 57.5975 13.2387 57.6435 13.2616C57.8274 13.3536 59.827 14.4798 59.827 16.1116C60.0568 15.583 60.4016 15.1004 60.8612 14.6637C61.5048 14.0661 62.2633 13.6754 63.1137 13.4685C63.8721 13.2846 65.1133 13.1697 66.7681 13.1697H71.3419C71.6177 13.1697 71.7556 13.1008 71.8475 12.779C72.1004 11.9516 71.7326 11.331 70.2157 11.331H62.4931C62.3782 11.331 62.2633 11.285 62.1943 11.2161C62.1024 11.1012 62.0564 10.9633 62.1024 10.7104L62.4012 9.42334C62.4701 9.10157 62.7229 8.82576 63.1367 8.82576H70.2157C70.4225 8.82576 71.9625 8.84874 72.3991 8.87173C72.8818 8.89471 73.3645 8.98665 73.8242 9.10157C76.0306 9.74511 76.835 11.1701 76.1915 13.7443L74.6746 20.0189H66.1475H65.3201C65.2282 20.0189 63.0447 19.9959 62.4471 19.927C61.8496 19.858 61.3209 19.7201 60.9302 19.4673C59.8959 18.9157 59.4592 18.0883 59.6201 16.962V16.985C59.3443 17.6286 58.9306 18.1802 58.2871 18.6399C57.5746 19.1685 57 19.4443 55.7129 19.7431C54.7245 19.9729 52.3802 19.9729 52.2653 19.9729C52.0125 19.9729 51.6447 19.9959 51.4149 19.9959H42.727L45.8528 6.73423C45.9447 6.43544 46.2205 6.18261 46.4733 6.18261ZM135.927 18.8697L135.881 19.0536H135.49L135.283 20.0419H135.03L135.237 19.0536H134.823L134.869 18.8697H135.927ZM136.478 18.8697L136.57 19.3294C136.593 19.4673 136.593 19.6052 136.616 19.7431C136.685 19.6282 136.754 19.4673 136.846 19.3294L137.145 18.8697H137.489L137.329 20.0189H137.076L137.145 19.5592C137.168 19.3983 137.191 19.2375 137.237 19.0766C137.168 19.2145 137.076 19.3754 136.984 19.5133L136.662 20.0189H136.455L136.363 19.5133C136.34 19.3754 136.317 19.2145 136.317 19.0536L136.271 19.2145C136.248 19.3294 136.202 19.4443 136.179 19.5592L136.041 20.0189H135.812L136.156 18.8697H136.478ZM113.885 6.25157C114 6.25157 114.092 6.29753 114.161 6.36649C114.253 6.4814 114.299 6.66528 114.23 6.87213L111.081 20.0189H106.737L109.886 6.84915C109.955 6.52737 110.231 6.25157 110.483 6.25157H113.885ZM139.834 6.25157C139.926 6.25157 140.064 6.29753 140.11 6.36649C140.202 6.4814 140.225 6.66528 140.179 6.87213L139.811 8.45802C139.742 8.77979 139.466 9.0556 139.213 9.0556H135.513C135.329 9.0556 135.145 9.23947 135.076 9.56124L132.571 20.0419H127.997L130.502 9.53826C130.548 9.37737 130.548 9.23947 130.479 9.14753C130.433 9.10157 130.341 9.0556 130.296 9.0556H128.733C128.641 9.0556 128.526 9.00963 128.48 8.94068C128.388 8.82576 128.365 8.64189 128.411 8.43503L128.802 6.73423C128.871 6.41245 129.123 6.25157 129.399 6.25157H139.834ZM70.9971 15.6979H66.1935C65.2971 15.6979 64.9754 15.7669 64.6536 15.9278C64.3548 16.1116 64.1709 16.3645 64.102 16.6633C64.033 17.008 64.1479 17.2838 64.4237 17.3987C64.7225 17.5366 65.0903 17.5596 65.8947 17.5596H70.5145C70.6983 17.5596 70.9282 17.3298 70.9971 17.054L71.204 16.1576C71.227 15.9967 71.227 15.8358 71.135 15.7669C71.1121 15.7209 71.0661 15.6979 70.9971 15.6979ZM123.676 15.6979H118.873C117.976 15.6979 117.654 15.7669 117.333 15.9278C117.034 16.1116 116.85 16.3645 116.781 16.6633C116.712 17.008 116.827 17.2838 117.103 17.3987C117.402 17.5366 117.769 17.5596 118.574 17.5596H123.194C123.377 17.5596 123.607 17.3298 123.653 17.054L123.86 16.1576C123.906 15.9967 123.883 15.8358 123.791 15.7669C123.791 15.7209 123.745 15.6979 123.676 15.6979ZM52.0125 14.4108H49.6451C49.3923 14.4108 49.2084 14.5947 49.1395 14.8475L48.6108 17.1C48.5879 17.2379 48.5879 17.3528 48.6798 17.4447C48.7258 17.5137 48.7947 17.5366 48.8637 17.5366C48.8637 17.5366 51.0471 17.5366 51.277 17.5366C51.277 17.5366 52.0125 17.5366 52.3342 17.5137C52.656 17.4677 52.9778 17.3987 53.2766 17.2608C54.035 16.9391 54.4487 16.4794 54.5866 15.9048C54.7246 15.3762 54.5177 14.9625 53.9431 14.7096C53.2995 14.4108 52.3802 14.4338 51.8516 14.4338H52.0125V14.4108ZM84.6266 11.8366H81.5927L80.3975 16.962H83.9371C85.2012 16.962 86.5342 16.8241 86.925 15.4221C86.9939 15.1693 87.2237 14.0891 87.2237 14.0661C87.5225 12.9629 87.1778 12.2504 86.2125 11.9516C86.0056 11.9056 85.7987 11.8596 85.5919 11.8596C85.385 11.8366 84.6496 11.8366 84.6266 11.8366ZM99.1983 11.8137C98.325 11.8137 97.6354 11.8826 97.1528 12.2274C96.3943 12.756 96.3943 13.1008 96.0496 14.3879C95.7278 15.56 95.7048 15.9048 96.2564 16.3875C96.831 16.8931 97.8193 16.8931 99.1983 16.8931H99.7959C100.922 16.9161 101.841 16.9161 102.508 16.5024C103.289 16.0197 103.404 15.4681 103.565 14.7326L103.634 14.4568L103.68 14.2729C103.864 13.5375 103.979 13.0088 103.542 12.5262C103.014 11.9516 102.623 11.8137 100.256 11.8137H99.1983ZM53.6903 8.75681H50.9782C50.7713 8.75681 50.5645 8.94068 50.4955 9.1935L49.9669 11.4459C49.9439 11.5838 49.9439 11.6987 50.0358 11.7907C50.0818 11.8366 50.1508 11.8826 50.2197 11.8826H52.725C52.8858 11.8826 53.4604 11.8826 53.7362 11.8366C54.058 11.7907 54.3568 11.6987 54.6786 11.5838C55.437 11.262 55.8048 10.7794 55.9657 10.2278C56.3104 8.94068 54.9084 8.75681 53.6903 8.75681Z" fill="#111E6C"/>
</svg>
