<svg width="143" height="36" viewBox="0 0 143 36" fill="none" xmlns="http://www.w3.org/2000/svg">
<g clip-path="url(#clip0_241_2046)">
<path d="M51.9944 39.6869V34.7322H53.0561V39.6869H51.9944Z" fill="#17161A"/>
<path d="M56.9631 39.6869V34.7322H58.0638L60.258 37.6165C60.3366 37.7283 60.4052 37.8467 60.4633 37.9704C60.5411 38.1191 60.619 38.2925 60.7004 38.4907C60.6768 38.3467 60.6591 38.2016 60.6473 38.0553C60.6473 37.9102 60.6296 37.7298 60.6296 37.5139V34.7428H61.6418V39.6975H60.6013L58.3469 36.7601C58.267 36.6491 58.1982 36.5306 58.1416 36.4061C58.0673 36.2575 57.9895 36.0806 57.9045 35.8753C57.9293 36.0169 57.947 36.162 57.9576 36.3071C57.9682 36.4522 57.9753 36.6362 57.9753 36.8591V39.6904L56.9631 39.6869Z" fill="#17161A"/>
<path d="M65.5239 39.6869V34.7322H68.4401V35.6276H66.5821V36.6433H68.4401V37.5457H66.5821V39.6692L65.5239 39.6869Z" fill="#17161A"/>
<path d="M77.1108 37.22C77.1121 37.5649 77.0448 37.9065 76.9126 38.2251C76.7805 38.5378 76.5867 38.8206 76.3428 39.0568C76.0915 39.2994 75.7959 39.4916 75.4722 39.623C74.8685 39.867 74.1965 39.8821 73.5824 39.6655C73.2942 39.5634 73.025 39.4139 72.7861 39.2231C72.4854 38.9835 72.2433 38.6785 72.0783 38.3313C71.9228 38.0002 71.8381 37.6404 71.8296 37.2748C71.821 36.9091 71.8889 36.5457 72.0287 36.2078C72.1614 35.8945 72.3565 35.6116 72.6021 35.3761C73.1059 34.8881 73.7798 34.6152 74.4813 34.6152C74.8261 34.6142 75.1678 34.6816 75.4864 34.8134C75.8088 34.9437 76.1031 35.1348 76.3535 35.3761C76.5978 35.6133 76.7916 35.8974 76.9232 36.2114C77.053 36.5315 77.1168 36.8746 77.1108 37.22ZM74.4707 38.8727C74.6788 38.8786 74.8858 38.8396 75.0776 38.7584C75.2693 38.6772 75.4413 38.5556 75.5819 38.402C75.8673 38.0736 76.0244 37.6532 76.0244 37.2182C76.0244 36.7832 75.8673 36.3628 75.5819 36.0344C75.4434 35.8794 75.273 35.7562 75.0824 35.6731C74.8919 35.59 74.6856 35.5491 74.4778 35.5531C74.2677 35.5485 74.0592 35.589 73.8662 35.6721C73.6733 35.7551 73.5004 35.8787 73.3594 36.0344C73.0766 36.3647 72.9211 36.7852 72.9211 37.22C72.9211 37.6548 73.0766 38.0753 73.3594 38.4056C73.5012 38.5574 73.6735 38.6776 73.8651 38.7581C74.0566 38.8386 74.263 38.8777 74.4707 38.8727Z" fill="#17161A"/>
<path d="M84.3661 39.6869H83.1451L81.8427 37.3723V39.6869H80.781V34.7322H82.2993C82.7765 34.6986 83.2516 34.823 83.6512 35.0861C83.8059 35.2139 83.9275 35.3772 84.0057 35.562C84.0839 35.7468 84.1165 35.9477 84.1006 36.1478C84.1077 36.4669 83.9982 36.7777 83.7927 37.022C83.5932 37.2599 83.3089 37.411 83 37.4431L84.3661 39.6869ZM81.8427 36.8556H81.9984C82.2891 36.8841 82.5821 36.8353 82.8478 36.7141C82.9214 36.6572 82.9792 36.5825 83.0157 36.497C83.0523 36.4115 83.0664 36.3181 83.0566 36.2257C83.0663 36.1272 83.0509 36.0279 83.0119 35.9369C82.9729 35.846 82.9116 35.7663 82.8337 35.7054C82.5743 35.5795 82.2855 35.5269 81.9984 35.5532H81.8427V36.8556Z" fill="#17161A"/>
<path d="M87.3315 39.6869L88.0854 34.7322H89.1931L90.1486 37.6484C90.1761 37.7367 90.1986 37.8265 90.2159 37.9173C90.2371 38.0341 90.2619 38.1686 90.2796 38.3208C90.2796 38.1651 90.3185 38.0306 90.3397 37.9067C90.356 37.8168 90.3785 37.7281 90.407 37.6413L91.3767 34.7322H92.4703L93.2276 39.6869H92.2367L91.8828 36.6999C91.8545 36.4769 91.8368 36.3106 91.8261 36.1973C91.8155 36.0841 91.8261 35.9815 91.8261 35.8824V35.7656C91.824 35.7432 91.824 35.7207 91.8261 35.6983C91.7907 35.8894 91.7589 36.0522 91.727 36.2009C91.7065 36.3086 91.6793 36.415 91.6456 36.5194L90.5839 39.6869H89.9894L88.9595 36.5194C88.935 36.4392 88.9149 36.3576 88.8993 36.2752C88.8675 36.1407 88.825 35.9496 88.7719 35.6948V35.8399C88.7677 36.1227 88.7476 36.4051 88.7118 36.6857L88.3579 39.6727L87.3315 39.6869Z" fill="#17161A"/>
<path d="M96.105 39.6869L97.9913 34.7322H99.2017L101.113 39.6869H99.9095L99.506 38.6251H97.5878L97.2339 39.6869H96.105ZM99.2583 37.8005L98.7026 36.2009C98.7026 36.1549 98.6673 36.0735 98.6425 35.9567C98.6177 35.8399 98.5929 35.7019 98.5646 35.5355C98.5363 35.6948 98.508 35.8399 98.4797 35.9673C98.4644 36.0533 98.4443 36.1384 98.4195 36.2221L97.8993 37.8005H99.2583Z" fill="#17161A"/>
<path d="M105.883 35.6311V39.6869H104.822V35.6311H103.611V34.7322H107.101V35.6311H105.883Z" fill="#17161A"/>
<path d="M110.59 39.6869V34.7322H111.652V39.6869H110.59Z" fill="#17161A"/>
<path d="M119.548 36.0207C119.353 35.8436 119.129 35.7012 118.886 35.5995C118.66 35.5124 118.42 35.468 118.178 35.4686C117.947 35.4571 117.715 35.4929 117.498 35.5738C117.281 35.6547 117.082 35.7791 116.915 35.9393C116.755 36.1094 116.631 36.3098 116.55 36.5286C116.469 36.7474 116.433 36.9803 116.444 37.2133C116.432 37.4385 116.464 37.6639 116.54 37.8765C116.615 38.0891 116.732 38.2847 116.883 38.452C117.036 38.6116 117.221 38.7368 117.426 38.8192C117.631 38.9016 117.851 38.9393 118.072 38.9298C118.345 38.9315 118.616 38.8823 118.872 38.7847C119.125 38.6858 119.357 38.5392 119.555 38.3529V39.4394C119.334 39.5712 119.096 39.6713 118.847 39.7367C118.592 39.8042 118.329 39.8375 118.065 39.8358C117.708 39.849 117.353 39.7907 117.019 39.6643C116.685 39.5379 116.38 39.3459 116.122 39.0996C115.634 38.6005 115.362 37.9305 115.362 37.2328C115.362 36.5351 115.634 35.8651 116.122 35.3659C116.385 35.12 116.693 34.9287 117.031 34.8029C117.368 34.6772 117.727 34.6195 118.086 34.6334C118.348 34.6328 118.609 34.6613 118.865 34.7183C119.121 34.7746 119.369 34.8613 119.604 34.9766L119.548 36.0207Z" fill="#17161A"/>
<path d="M122.722 39.6869L124.608 34.7322H125.819L127.73 39.6869H126.527L126.123 38.6251H124.205L123.851 39.6869H122.722ZM125.875 37.8005L125.32 36.2009C125.32 36.1549 125.284 36.0735 125.26 35.9567C125.235 35.8399 125.21 35.7019 125.182 35.5355C125.153 35.6948 125.125 35.8399 125.097 35.9673C125.082 36.0533 125.061 36.1384 125.037 36.2221L124.502 37.8005H125.875Z" fill="#17161A"/>
<path d="M60.7144 0.368164H51.3926V31.7206H71.8943V24.8159H60.7144V0.368164Z" fill="#17161A"/>
<path d="M83.1026 9.07056H73.7808V31.7205H83.1026V9.07056Z" fill="#17161A"/>
<path d="M105.777 7.26932V0.368164H85.1802V7.29763L105.777 7.26932Z" fill="#17161A"/>
<path d="M85.1802 31.7205H94.502V19.4117H104.73V12.5105H94.502V9.07056H85.1802V31.7205Z" fill="#17161A"/>
<path d="M127.5 7.26932V0.368164H107.094V7.29763L116.416 7.26932H127.5Z" fill="#17161A"/>
<path d="M107.094 9.07056V31.7205H127.5V24.8158H116.416V19.4117H126.927V12.5105H116.416V9.07056H107.094Z" fill="#17161A"/>
<path d="M28.1799 10.4189C28.3958 10.4189 28.6117 10.4189 28.824 10.4189C25.6108 11.1511 22.7411 12.9517 20.6839 15.5263C18.6268 18.101 17.504 21.2973 17.499 24.5929C17.4993 25.4377 17.574 26.2809 17.722 27.1127C16.4015 26.0646 15.2898 24.7776 14.4448 23.3188C14.6669 19.826 16.2103 16.5487 18.7614 14.1528C21.3125 11.7568 24.6801 10.4218 28.1799 10.4189Z" fill="#17161A"/>
<path d="M19.0102 34.4138C16.4344 32.1107 14.8219 28.9209 14.4944 25.4812C15.5109 26.8062 16.746 27.948 18.1467 28.8575C18.641 29.1798 19.1552 29.4706 19.6862 29.7281C22.5157 31.1025 25.7152 31.5202 28.8027 30.9183C31.8903 30.3164 34.6986 28.7274 36.8046 26.3907C35.9041 29.0178 34.2092 31.3 31.9545 32.9213C29.6998 34.5426 26.9968 35.4228 24.2197 35.4401H24.1525C23.5023 35.4398 22.8529 35.3925 22.2095 35.2985C21.1101 35.1392 20.0352 34.842 19.0102 34.4138Z" fill="#EAAA00"/>
<path d="M29.9742 37.8183C29.3875 37.8954 28.7965 37.9356 28.2047 37.9386C27.3977 37.937 26.5925 37.8647 25.7981 37.7227C24.4692 37.4912 23.1822 37.063 21.9795 36.4522C22.6006 36.5464 23.2271 36.5996 23.8552 36.6114H24.1666C24.7582 36.6091 25.3491 36.5713 25.9362 36.4982C29.4513 36.0571 32.6848 34.3488 35.0304 31.6938C37.376 29.0388 38.6724 25.6193 38.6768 22.0766C38.6768 21.7226 38.6768 21.3935 38.6378 21.0538C38.4093 17.6744 37.0029 14.4821 34.6635 12.0327C36.5427 13.041 38.1634 14.4703 39.3987 16.2088C39.8145 16.793 40.1848 17.4082 40.5064 18.0491C41.4844 20.0107 41.9793 22.1778 41.9496 24.3695C41.92 26.5612 41.3669 28.7141 40.3362 30.6486C39.3056 32.5831 37.8274 34.2432 36.0249 35.4903C34.2224 36.7375 32.1478 37.5357 29.9742 37.8183Z" fill="#17161A"/>
<path d="M99.1486 32.6301H98.0374V33.4052H99.1486V32.6301Z" fill="#17161A"/>
<path d="M83.1026 0.368164H73.7808V7.33656H83.1026V0.368164Z" fill="#EAAA00"/>
</g>
<defs>
<clipPath id="clip0_241_2046">
<rect width="142.5" height="35.7444" fill="white" transform="translate(-0.486328)"/>
</clipPath>
</defs>
</svg>
