<svg width="60" height="60" viewBox="0 0 60 60" fill="none" xmlns="http://www.w3.org/2000/svg">
<g id="megaphone">
<g id="megaphone_2">
<path id="Vector" d="M28.4839 5.70923C28.0628 5.28809 27.4686 5.08667 26.879 5.18097C26.2912 5.26886 25.7794 5.63141 25.5011 6.15784L13.7018 28.4473L7.27023 34.8779C5.29178 36.8582 4.68661 39.6698 5.38608 42.1912C3.07071 45.1318 3.2355 49.4009 5.94546 52.1146C7.40848 53.5757 9.32925 54.3063 11.25 54.3063C12.8907 54.3063 14.513 53.7396 15.8679 52.673C16.5262 52.8561 17.1982 52.9807 17.8775 52.9807C19.1931 52.9797 20.4987 52.6108 21.6669 51.925L26.4972 56.7535C27.41 57.6672 28.6103 58.1232 29.8105 58.1232C31.0108 58.1232 32.2119 57.6672 33.1256 56.7535C34.953 54.9261 34.953 51.9525 33.1256 50.1251L28.4848 45.4843L29.6118 44.3573L51.9013 32.5562C52.4268 32.2778 52.7893 31.7661 52.8791 31.1774C52.9669 30.5896 52.771 29.9936 52.3499 29.5734L28.4839 5.70923ZM8.59775 49.4623C7.62088 48.4845 7.31143 47.1011 7.6401 45.8524L12.2068 50.419C10.9589 50.7477 9.57553 50.4391 8.59775 49.4623ZM15.2271 48.1366L9.92251 42.832C8.46133 41.3708 8.46133 38.9914 9.92251 37.5293L15.2271 32.2247L25.8344 42.832L20.5298 48.1357C19.0686 49.5987 16.6901 49.5996 15.2271 48.1366ZM30.4743 52.7765C30.7096 53.0118 30.7453 53.2928 30.7453 53.4393C30.7453 53.5858 30.7096 53.8669 30.4752 54.1013C30.1163 54.4583 29.5093 54.4629 29.1486 54.1022L24.5069 49.4623L25.8335 48.1357L30.4743 52.7765ZM28.8318 40.5276L17.5324 29.2264L27.6279 10.1559L47.9041 30.4303L28.8318 40.5276ZM35.625 7.5V3.75C35.625 2.71454 36.4637 1.875 37.5 1.875C38.5364 1.875 39.375 2.71454 39.375 3.75V7.5C39.375 8.53546 38.5364 9.375 37.5 9.375C36.4637 9.375 35.625 8.53546 35.625 7.5ZM56.25 20.6241C56.25 21.6595 55.4114 22.4991 54.375 22.4991H50.625C49.5887 22.4991 48.75 21.6595 48.75 20.6241C48.75 19.5886 49.5887 18.7491 50.625 18.7491H54.375C55.4114 18.7491 56.25 19.5886 56.25 20.6241ZM43.6743 14.4498C42.9419 13.7173 42.9419 12.5308 43.6743 11.7984L47.4243 8.0484C48.1568 7.31598 49.3433 7.31598 50.0757 8.0484C50.8081 8.78082 50.8081 9.96735 50.0757 10.6998L46.3257 14.4498C45.9595 14.816 45.4798 14.9991 45 14.9991C44.5203 14.9991 44.0406 14.816 43.6743 14.4498Z" fill="#89368E"/>
</g>
</g>
</svg>
