<svg width="60" height="60" viewBox="0 0 60 60" fill="none" xmlns="http://www.w3.org/2000/svg">
<g id="sun">
<g id="Layer 2">
<path id="Vector" d="M30 42.5C27.5277 42.5 25.111 41.7669 23.0554 40.3934C20.9998 39.0199 19.3976 37.0676 18.4515 34.7835C17.5054 32.4995 17.2579 29.9861 17.7402 27.5614C18.2225 25.1366 19.413 22.9093 21.1612 21.1612C22.9093 19.413 25.1366 18.2225 27.5614 17.7402C29.9861 17.2579 32.4995 17.5054 34.7835 18.4515C37.0676 19.3976 39.0199 20.9998 40.3934 23.0554C41.7669 25.111 42.5 27.5277 42.5 30C42.4961 33.314 41.1779 36.4912 38.8345 38.8345C36.4912 41.1779 33.314 42.4961 30 42.5ZM30 22.5C28.5166 22.5 27.0666 22.9399 25.8332 23.764C24.5999 24.5881 23.6386 25.7594 23.0709 27.1299C22.5033 28.5003 22.3547 30.0083 22.6441 31.4632C22.9335 32.918 23.6478 34.2544 24.6967 35.3033C25.7456 36.3522 27.082 37.0665 28.5368 37.3559C29.9917 37.6453 31.4997 37.4968 32.8701 36.9291C34.2406 36.3614 35.4119 35.4002 36.236 34.1668C37.0601 32.9334 37.5 31.4834 37.5 30C37.4978 28.0115 36.707 26.1052 35.3009 24.6991C33.8949 23.293 31.9885 22.5022 30 22.5Z" fill="#89368E"/>
<path id="Vector_2" d="M43.6381 18.8644C43.1438 18.8643 42.6605 18.7176 42.2495 18.4429C41.8385 18.1682 41.5181 17.7778 41.3289 17.321C41.1398 16.8643 41.0903 16.3617 41.1867 15.8768C41.2831 15.3919 41.5211 14.9465 41.8706 14.5969L44.1436 12.324C44.3757 12.0918 44.6513 11.9077 44.9546 11.7821C45.2578 11.6565 45.5829 11.5918 45.9112 11.5918C46.2394 11.5918 46.5645 11.6565 46.8678 11.7821C47.171 11.9077 47.4466 12.0918 47.6787 12.324C47.9109 12.5561 48.095 12.8316 48.2206 13.1349C48.3462 13.4382 48.4109 13.7633 48.4109 14.0915C48.4109 14.4198 48.3462 14.7448 48.2206 15.0481C48.095 15.3514 47.9109 15.627 47.6787 15.8591L45.4058 18.1321C45.1739 18.3646 44.8984 18.549 44.5951 18.6746C44.2917 18.8003 43.9665 18.8648 43.6381 18.8644Z" fill="#89368E"/>
<path id="Vector_3" d="M55.0005 32.5H47.498C46.835 32.5 46.1991 32.2366 45.7303 31.7678C45.2614 31.2989 44.998 30.663 44.998 30C44.998 29.337 45.2614 28.7011 45.7303 28.2322C46.1991 27.7634 46.835 27.5 47.498 27.5H55.0005C55.6636 27.5 56.2995 27.7634 56.7683 28.2322C57.2372 28.7011 57.5005 29.337 57.5005 30C57.5005 30.663 57.2372 31.2989 56.7683 31.7678C56.2995 32.2366 55.6636 32.5 55.0005 32.5Z" fill="#89368E"/>
<path id="Vector_4" d="M45.9113 48.4095C45.5829 48.4098 45.2578 48.3453 44.9544 48.2196C44.6511 48.0939 44.3756 47.9095 44.1438 47.677L41.8708 45.404C41.402 44.9352 41.1387 44.2994 41.1387 43.6364C41.1387 42.9735 41.402 42.3377 41.8708 41.8689C42.3396 41.4001 42.9754 41.1367 43.6384 41.1367C44.3014 41.1367 44.9372 41.4001 45.406 41.8689L47.6789 44.1418C48.0284 44.4915 48.2665 44.9369 48.3629 45.4217C48.4593 45.9066 48.4098 46.4092 48.2206 46.866C48.0314 47.3227 47.7111 47.7131 47.3001 47.9878C46.889 48.2625 46.4056 48.4094 45.9113 48.4095Z" fill="#89368E"/>
<path id="Vector_5" d="M30 57.5005C29.337 57.5005 28.7011 57.2372 28.2322 56.7683C27.7634 56.2995 27.5 55.6636 27.5 55.0005V47.498C27.5 46.835 27.7634 46.1991 28.2322 45.7303C28.7011 45.2614 29.337 44.998 30 44.998C30.663 44.998 31.2989 45.2614 31.7678 45.7303C32.2366 46.1991 32.5 46.835 32.5 47.498V55.0005C32.5 55.6636 32.2366 56.2995 31.7678 56.7683C31.2989 57.2372 30.663 57.5005 30 57.5005Z" fill="#89368E"/>
<path id="Vector_6" d="M14.0913 48.4093C13.5969 48.4092 13.1136 48.2625 12.7026 47.9878C12.2916 47.7131 11.9712 47.3227 11.7821 46.866C11.5929 46.4092 11.5434 45.9066 11.6398 45.4217C11.7362 44.9369 11.9742 44.4915 12.3238 44.1418L14.5967 41.8689C14.8288 41.6367 15.1044 41.4526 15.4077 41.327C15.711 41.2014 16.036 41.1367 16.3643 41.1367C16.6926 41.1367 17.0176 41.2014 17.3209 41.327C17.6242 41.4526 17.8997 41.6367 18.1319 41.8689C18.364 42.101 18.5481 42.3766 18.6737 42.6798C18.7994 42.9831 18.864 43.3082 18.864 43.6364C18.864 43.9647 18.7994 44.2898 18.6737 44.593C18.5481 44.8963 18.364 45.1719 18.1319 45.404L15.8589 47.677C15.6271 47.9095 15.3515 48.0939 15.0482 48.2196C14.7448 48.3452 14.4196 48.4097 14.0913 48.4093Z" fill="#89368E"/>
<path id="Vector_7" d="M12.4975 32.5H5C4.33696 32.5 3.70107 32.2366 3.23223 31.7678C2.76339 31.2989 2.5 30.663 2.5 30C2.5 29.337 2.76339 28.7011 3.23223 28.2322C3.70107 27.7634 4.33696 27.5 5 27.5H12.4975C13.1605 27.5 13.7964 27.7634 14.2653 28.2322C14.7341 28.7011 14.9975 29.337 14.9975 30C14.9975 30.663 14.7341 31.2989 14.2653 31.7678C13.7964 32.2366 13.1605 32.5 12.4975 32.5Z" fill="#89368E"/>
<path id="Vector_8" d="M16.3645 18.8645C16.0361 18.8648 15.711 18.8003 15.4076 18.6746C15.1043 18.5489 14.8288 18.3645 14.597 18.132L12.324 15.8591C12.0918 15.627 11.9077 15.3514 11.7821 15.0481C11.6565 14.7448 11.5918 14.4198 11.5918 14.0915C11.5918 13.7633 11.6565 13.4382 11.7821 13.1349C11.9077 12.8316 12.0918 12.5561 12.324 12.324C12.5561 12.0918 12.8316 11.9077 13.1349 11.7821C13.4382 11.6565 13.7633 11.5918 14.0915 11.5918C14.4198 11.5918 14.7448 11.6565 15.0481 11.7821C15.3514 11.9077 15.627 12.0918 15.8591 12.324L18.1321 14.5969C18.4816 14.9465 18.7196 15.3919 18.816 15.8768C18.9124 16.3617 18.8629 16.8643 18.6737 17.321C18.4846 17.7778 18.1642 18.1682 17.7532 18.4429C17.3422 18.7176 16.8589 18.8644 16.3645 18.8645Z" fill="#89368E"/>
<path id="Vector_9" d="M30 14.9975C29.337 14.9975 28.7011 14.7341 28.2322 14.2653C27.7634 13.7964 27.5 13.1605 27.5 12.4975V5C27.5 4.33696 27.7634 3.70107 28.2322 3.23223C28.7011 2.76339 29.337 2.5 30 2.5C30.663 2.5 31.2989 2.76339 31.7678 3.23223C32.2366 3.70107 32.5 4.33696 32.5 5V12.4975C32.5 13.1605 32.2366 13.7964 31.7678 14.2653C31.2989 14.7341 30.663 14.9975 30 14.9975Z" fill="#89368E"/>
</g>
</g>
</svg>
