<svg width="60" height="60" viewBox="0 0 60 60" fill="none" xmlns="http://www.w3.org/2000/svg">
<g id="shield">
<g id="Group">
<path id="Vector" fill-rule="evenodd" clip-rule="evenodd" d="M30.6868 10.2954C30.238 10.1672 29.762 10.1672 29.3132 10.2954L16.8132 13.8668C15.7399 14.1735 15 15.1545 15 16.2707V29.7067C15 35.3584 17.7294 40.6622 22.3283 43.9472L28.547 48.3889C29.4163 49.0099 30.5837 49.0099 31.453 48.3889L37.6717 43.9472C42.2705 40.6622 45 35.3584 45 29.7067V16.2707C45 15.1545 44.26 14.1735 43.1868 13.8668L30.6868 10.2954ZM27.9395 5.4878C29.2863 5.10303 30.7137 5.10303 32.0605 5.4878L44.5605 9.05923C47.7803 9.97915 50 12.9221 50 16.2707V29.7067C50 36.9732 46.4907 43.7922 40.5778 48.0157L34.3592 52.4577C31.7515 54.3202 28.2485 54.3202 25.6407 52.4577L19.4221 48.0157C13.5092 43.7922 10 36.9732 10 29.7067V16.2707C10 12.9221 12.2198 9.97915 15.4396 9.05923L27.9395 5.4878Z" fill="#89368E"/>
<path id="Vector_2" fill-rule="evenodd" clip-rule="evenodd" d="M39.2098 20.6762C40.2173 21.6205 40.2683 23.2026 39.3238 24.2098L29.9488 34.2097C29.0533 35.1652 27.5723 35.2675 26.5538 34.4445L20.9288 29.899C19.8549 29.0312 19.6878 27.4572 20.5556 26.3832C21.4234 25.3092 22.9975 25.1422 24.0714 26.01L27.8898 29.0957L35.6763 20.7901C36.6206 19.7829 38.2026 19.7318 39.2098 20.6762Z" fill="#89368E"/>
</g>
</g>
</svg>
