<svg width="60" height="60" viewBox="0 0 60 60" fill="none" xmlns="http://www.w3.org/2000/svg">
<g id="signboard" clip-path="url(#clip0_756_4238)">
<path id="Vector" d="M51.25 52.5H8.75C5.305 52.5 2.5 49.695 2.5 46.25V23.75C2.5 20.305 5.305 17.5 8.75 17.5H51.25C54.695 17.5 57.5 20.305 57.5 23.75V46.25C57.5 49.695 54.695 52.5 51.25 52.5ZM8.75 20C6.6825 20 5 21.6825 5 23.75V46.25C5 48.3175 6.6825 50 8.75 50H51.25C53.3175 50 55 48.3175 55 46.25V23.75C55 21.6825 53.3175 20 51.25 20H8.75Z" fill="#89368E"/>
<path id="Vector_2" d="M58.75 10H1.25C0.56 10 0 9.44 0 8.75C0 8.06 0.56 7.5 1.25 7.5H58.75C59.44 7.5 60 8.06 60 8.75C60 9.44 59.44 10 58.75 10Z" fill="#89368E"/>
<path id="Vector_3" d="M16.25 20C15.56 20 15 19.44 15 18.75V8.75C15 8.06 15.56 7.5 16.25 7.5C16.94 7.5 17.5 8.06 17.5 8.75V18.75C17.5 19.44 16.94 20 16.25 20Z" fill="#89368E"/>
<path id="Vector_4" d="M43.75 20C43.06 20 42.5 19.44 42.5 18.75V8.75C42.5 8.06 43.06 7.5 43.75 7.5C44.44 7.5 45 8.06 45 8.75V18.75C45 19.44 44.44 20 43.75 20Z" fill="#89368E"/>
</g>
<defs>
<clipPath id="clip0_756_4238">
<rect width="60" height="60" fill="white"/>
</clipPath>
</defs>
</svg>
