<svg width="60" height="60" viewBox="0 0 60 60" fill="none" xmlns="http://www.w3.org/2000/svg">
<g id="evaluate" clip-path="url(#clip0_760_196)">
<g id="Group">
<g id="Group_2">
<path id="Vector" d="M59.2566 31.8133C58.6405 30.6779 58.6405 29.3221 59.2564 28.1864C60.6672 25.5846 60.0225 22.3433 57.7234 20.4795C56.72 19.666 56.2011 18.4132 56.3352 17.1285C56.6431 14.1849 54.8071 11.4371 51.9698 10.5949C50.7313 10.2274 49.7726 9.26854 49.405 8.03022C48.5628 5.19301 45.8151 3.35633 42.8715 3.66465C41.5861 3.79895 40.3338 3.28005 39.5203 2.27657C37.6564 -0.0227542 34.4152 -0.667517 31.8134 0.743297C30.6777 1.359 29.322 1.359 28.1863 0.743297C25.5848 -0.6674 22.3435 -0.0228716 20.4793 2.27634C19.666 3.27981 18.4122 3.79907 17.1283 3.66442C14.1846 3.35633 11.4369 5.19266 10.5947 8.02999C10.2272 9.2683 9.26846 10.2271 8.03003 10.5946C5.1927 11.4368 3.35661 14.1845 3.66435 17.1282C3.79864 18.4129 3.27986 19.6656 2.27627 20.4791C-0.02271 22.343 -0.667473 25.5843 0.743342 28.186C1.35916 29.3216 1.35916 30.6776 0.743342 31.8131C-0.667473 34.4149 -0.0228271 37.6562 2.27627 39.52C3.27974 40.3335 3.79864 41.5863 3.66446 42.871C3.35661 45.8146 5.19258 48.5624 8.03003 49.4046C9.26846 49.7721 10.2272 50.731 10.5948 51.9693C11.437 54.8066 14.1845 56.6432 17.1283 56.3348C18.414 56.2005 19.666 56.7194 20.4795 57.7229C22.3433 60.022 25.5847 60.6667 28.1864 59.2558C29.3221 58.6401 30.6778 58.6401 31.8135 59.2558C32.7386 59.7574 33.7441 59.9992 34.7402 59.9992C36.5457 59.9992 38.3191 59.2045 39.5205 57.7229C40.3338 56.7194 41.5878 56.2008 42.8715 56.3348C43.0871 56.3573 43.3013 56.3685 43.5141 56.3685C46.207 56.3684 48.6246 54.5988 49.4051 51.9692C49.7728 50.7308 50.7313 49.772 51.9699 49.4044C54.8072 48.5622 56.6433 45.8145 56.3355 42.8709C56.2012 41.5861 56.72 40.3334 57.7235 39.5199C60.0226 37.6563 60.6674 34.4151 59.2566 31.8133ZM57.196 32.9308C58.069 34.5407 57.6701 36.5464 56.2473 37.6999C54.6258 39.0146 53.7872 41.039 54.0043 43.1153C54.1947 44.9368 53.0586 46.6371 51.3028 47.1583C49.3016 47.7523 47.7521 49.3017 47.1581 51.3031C46.6371 53.0586 44.9386 54.1957 43.1151 54.0045C41.0388 53.7875 39.0145 54.626 37.6998 56.2477C36.5463 57.6704 34.5407 58.0692 32.9306 57.1963C32.0129 56.6986 31.0067 56.4499 29.9999 56.4499C28.9934 56.4499 27.9866 56.6988 27.0692 57.1963C25.4593 58.0694 23.4535 57.6704 22.3001 56.2478C20.9855 54.6261 18.9614 53.7873 16.8846 54.0046C15.0636 54.1955 13.3629 53.059 12.8416 51.3032C12.2476 49.3019 10.6981 47.7524 8.69694 47.1584C6.94125 46.6373 5.805 44.9369 5.99543 43.1154C6.21258 41.0392 5.37387 39.0148 3.75235 37.7001C2.32959 36.5467 1.93068 34.5411 2.80372 32.9309C3.79876 31.0958 3.79876 28.9046 2.80372 27.0692C1.93068 25.4593 2.32959 23.4537 3.75235 22.3002C5.37387 20.9855 6.21246 18.9611 5.99543 16.8848C5.805 15.0633 6.94113 13.3629 8.69694 12.8418C10.6981 12.2478 12.2476 10.6983 12.8416 8.6969C13.3626 6.94132 15.0621 5.80461 16.8846 5.9955C18.9609 6.21253 20.9853 5.37394 22.2999 3.75231C23.4534 2.32954 25.4591 1.93087 27.0691 2.80368C28.9042 3.79883 31.0953 3.79883 32.9306 2.80368C34.5406 1.93052 36.5463 2.32954 37.6997 3.75219C39.0143 5.37383 41.0375 6.21242 43.1152 5.99539C44.9365 5.80531 46.6371 6.94097 47.1581 8.69678C47.7521 10.6981 49.3016 12.2475 51.3028 12.8415C53.0584 13.3626 54.1947 15.063 54.0043 16.8844C53.7871 18.9606 54.6258 20.985 56.2473 22.2997C57.6701 23.4531 58.069 25.4587 57.196 27.0689C56.2009 28.9043 56.2009 31.0956 57.196 32.9308Z" fill="#89368E"/>
</g>
</g>
<g id="Group_3">
<g id="Group_4">
<path id="Vector_2" d="M41.2049 9.14145C36.817 6.78248 31.6691 5.86467 26.71 6.55701C21.5825 7.27279 16.932 9.59134 13.2614 13.262C9.77154 16.7518 7.49049 21.1598 6.66515 26.0091C5.85796 30.7512 6.49054 35.5575 8.49443 39.9084C8.69213 40.3375 9.11623 40.5904 9.55955 40.5904C9.72361 40.5904 9.89025 40.5558 10.0492 40.4827C10.6371 40.2118 10.8941 39.5159 10.6233 38.9279C6.90503 30.855 8.63119 21.2067 14.9186 14.9191C21.5238 8.31435 31.8763 6.78717 40.0949 11.2058C40.6649 11.5123 41.3756 11.2986 41.6819 10.7286C41.9885 10.1585 41.7748 9.4479 41.2049 9.14145Z" fill="#89368E"/>
</g>
</g>
<g id="Group_5">
<g id="Group_6">
<path id="Vector_3" d="M14.9684 45.1313L14.9186 45.0815C14.4608 44.6239 13.719 44.6239 13.2612 45.0815C12.8036 45.5391 12.8036 46.2811 13.2612 46.7389L13.3111 46.7887C13.54 47.0175 13.8398 47.1319 14.1397 47.1319C14.4396 47.1319 14.7395 47.0175 14.9684 46.7887C15.426 46.3311 15.426 45.589 14.9684 45.1313Z" fill="#89368E"/>
</g>
</g>
<g id="Group_7">
<g id="Group_8">
<path id="Vector_4" d="M50.7749 18.6407C50.464 18.0728 49.7515 17.8647 49.1843 18.1754C48.6166 18.4861 48.4082 19.1983 48.7189 19.7659C53.2339 28.0147 51.738 38.4249 45.0813 45.0817C38.8124 51.3507 29.5191 53.0956 21.4057 49.5272C20.8131 49.2667 20.1218 49.5357 19.8612 50.1282C19.6006 50.7206 19.8697 51.4121 20.462 51.6727C23.4829 53.0014 26.7135 53.676 29.9777 53.676C31.3795 53.676 32.7876 53.5516 34.1881 53.3011C38.9594 52.4477 43.2992 50.1786 46.7388 46.7391C50.4312 43.0467 52.7539 38.3667 53.4553 33.2053C54.134 28.2113 53.1821 23.0389 50.7749 18.6407Z" fill="#89368E"/>
</g>
</g>
<g id="Group_9">
<g id="Group_10">
<path id="Vector_5" d="M46.7695 13.2918L46.7389 13.2612C46.2811 12.8036 45.5393 12.8036 45.0815 13.2612C44.6239 13.7188 44.6239 14.4608 45.0815 14.9186L45.1122 14.9491C45.3411 15.178 45.6409 15.2924 45.9408 15.2924C46.2407 15.2924 46.5406 15.178 46.7695 14.9491C47.2271 14.4915 47.2271 13.7495 46.7695 13.2918Z" fill="#89368E"/>
</g>
</g>
<g id="Group_11">
<g id="Group_12">
<path id="Vector_6" d="M44.883 31.1722C44.883 29.8435 44.0888 28.6975 42.9504 28.1821C43.1044 27.8023 43.1899 27.3877 43.1899 26.9534C43.1899 25.1442 41.7179 23.6722 39.9087 23.6722H34.8126L35.1471 22.6786C35.6757 21.1097 35.5493 19.4351 34.7917 17.9631C34.034 16.4911 32.7445 15.4153 31.1607 14.9338C30.5641 14.7523 29.93 15.07 29.7178 15.6563L27.924 20.614C27.4583 21.901 26.5398 22.9704 25.3377 23.625L23.913 24.4008C23.4397 23.9499 22.8 23.6722 22.0963 23.6722H17.0508C15.5969 23.6722 14.4141 24.855 14.4141 26.3089V40.2542C14.4141 41.7081 15.5969 42.8909 17.0508 42.8909H22.0963C22.9027 42.891 23.6253 42.5268 24.1094 41.9545L24.6448 42.1645C25.874 42.6467 27.1668 42.8911 28.4874 42.8911H38.4378C40.247 42.8911 41.719 41.4191 41.719 39.6099C41.719 39.1677 41.6306 38.7461 41.4714 38.3608C42.5855 37.8357 43.3587 36.7022 43.3587 35.3911C43.3587 34.9308 43.2631 34.4927 43.0911 34.0947C44.1536 33.5507 44.883 32.4454 44.883 31.1722ZM22.3893 40.2542C22.3893 40.4157 22.258 40.5471 22.0964 40.5471H17.0509C16.8893 40.5471 16.7579 40.4158 16.7579 40.2542V26.3089C16.7579 26.1474 16.8893 26.0159 17.0509 26.0159H22.0964C22.2154 26.0159 22.3176 26.0875 22.3634 26.1897C22.3698 26.2206 22.3777 26.2511 22.3866 26.2816C22.3875 26.2907 22.3893 26.2995 22.3893 26.3089V40.2542ZM41.6018 32.1099H36.3283C35.6812 32.1099 35.1564 32.6345 35.1564 33.2818C35.1564 33.929 35.6812 34.4536 36.3283 34.4536H40.0773C40.5942 34.4536 41.0148 34.8742 41.0148 35.3911C41.0148 35.9081 40.5942 36.3286 40.0773 36.3286H36.3283C35.6812 36.3286 35.1564 36.8533 35.1564 37.5005C35.1564 38.1477 35.6812 38.6724 36.3283 38.6724H38.4376C38.9546 38.6724 39.3751 39.093 39.3751 39.6099C39.3751 40.1268 38.9546 40.5474 38.4376 40.5474H37.5705H28.4873C27.4608 40.5474 26.456 40.3573 25.5005 39.9826L24.733 39.6816V26.623L26.4585 25.6834C28.1641 24.7547 29.4673 23.2376 30.128 21.4114L31.4872 17.6551C31.9981 18.0003 32.417 18.4705 32.708 19.0358C33.1731 19.9393 33.2506 20.9673 32.9262 21.9305L32.0709 24.47C31.9504 24.8277 32.0096 25.2213 32.2297 25.5277C32.4497 25.8342 32.804 26.0159 33.1813 26.0159H39.9087C40.4256 26.0159 40.8462 26.4365 40.8462 26.9534C40.8462 27.4703 40.4256 27.8909 39.9087 27.8909H36.3283C35.6812 27.8909 35.1564 28.4156 35.1564 29.0628C35.1564 29.71 35.6812 30.2347 36.3283 30.2347L41.6018 30.2348C42.1187 30.2348 42.5393 30.6554 42.5393 31.1723C42.5393 31.6892 42.1187 32.1099 41.6018 32.1099Z" fill="#89368E"/>
</g>
</g>
</g>
<defs>
<clipPath id="clip0_760_196">
<rect width="60" height="60" fill="white"/>
</clipPath>
</defs>
</svg>
