<svg width="60" height="60" viewBox="0 0 60 60" fill="none" xmlns="http://www.w3.org/2000/svg">
<g id="euro" clip-path="url(#clip0_760_170)">
<g id="Group">
<g id="Group_2">
<path id="Vector" d="M59.9164 32.0361C59.7013 30.483 58.1004 29.2404 55.1016 28.3324C52.6762 27.6036 49.6057 27.1616 46.2605 27.0899V14.342C46.2605 14.0792 46.1768 13.8283 46.0096 13.6252C45.6153 12.2392 44.0143 11.1162 41.2425 10.2799C38.5544 9.46745 35.0418 9.02539 31.3501 9.02539C27.6702 9.02539 24.1935 9.46745 21.5651 10.2799C19.4026 10.9489 16.81 12.1915 16.81 14.33C16.81 14.4615 16.822 14.5929 16.8459 14.7243L16.9773 20.1723C9.22342 18.6789 1.73238 23.7805 0.250896 31.5463C0.083632 32.4185 0 33.3145 0 34.2106C0 42.0959 6.41577 48.5117 14.3011 48.5117C17.5866 48.5117 20.7646 47.3766 23.3214 45.3097C25.5675 45.8354 28.1959 46.1222 30.9797 46.1461C31.589 49.4555 38.7575 50.9728 45.448 50.9728C49.1278 50.9728 52.5926 50.5188 55.2449 49.6944C57.4193 49.0254 60 47.7709 60 45.6323V32.5021C60 32.3468 59.9761 32.1795 59.9164 32.0361ZM22.282 12.5618C24.6953 11.8211 27.9211 11.4029 31.362 11.4029C34.779 11.4029 38.1243 11.8211 40.5615 12.5618C43.1541 13.3504 43.7156 14.1628 43.7156 14.33C43.7156 14.4973 43.1541 15.3217 40.5496 16.0983C38.1243 16.8271 34.779 17.2572 31.362 17.2572C28.0645 17.2572 24.9343 16.8749 22.5567 16.1819C19.9881 15.4412 19.2712 14.6168 19.2115 14.3539C19.2115 14.33 19.2115 14.3181 19.1995 14.3181C19.2115 14.1508 19.7611 13.3384 22.282 12.5618ZM43.871 17.3169V20.3755C43.7634 20.5427 43.7037 20.7458 43.7156 20.9489C43.7156 21.1042 43.1541 21.9286 40.5496 22.7171C38.1243 23.4459 34.767 23.876 31.3501 23.876C28.399 23.876 25.5078 23.5654 23.2139 22.98C23.178 22.968 23.1541 22.968 23.1183 22.9561C21.9833 22.06 20.7288 21.3551 19.3787 20.8414L19.2951 17.4722C20.1195 17.8904 20.9797 18.2249 21.8757 18.4639C24.4683 19.2165 27.8256 19.6228 31.3501 19.6228C35.0418 19.6228 38.5544 19.1807 41.2306 18.3683C42.1505 18.1174 43.0346 17.759 43.871 17.3169ZM22.3178 43.0158C17.4552 47.4483 9.91637 47.0899 5.49582 42.2273C1.07527 37.3647 1.42174 29.8259 6.28435 25.4053C8.48268 23.4101 11.3381 22.299 14.3011 22.299C15.4958 22.299 16.6906 22.4782 17.8375 22.8247C21.9713 24.1269 25.0896 27.5559 25.9857 31.7972C26.141 32.5857 26.2246 33.3981 26.2246 34.1986C26.2246 37.5678 24.8029 40.7697 22.3178 43.0158ZM25.3524 43.2787C26.3202 42.0959 27.0968 40.7697 27.6464 39.348C28.6619 39.4316 29.7372 39.4913 30.8363 39.5033V39.7183L30.8961 43.7685C29.0442 43.7446 27.1924 43.5774 25.3524 43.2787ZM28.5305 32.7888C29.2354 32.8366 29.9642 32.8605 30.7049 32.8725C30.7049 32.8964 30.7168 32.9322 30.7168 32.9561L30.7885 37.1019C29.9403 37.0899 29.1159 37.0541 28.3154 36.9943C28.4946 36.0744 28.5902 35.1305 28.5902 34.1986C28.6021 33.7327 28.5783 33.2667 28.5305 32.7888ZM31.4695 30.4949C31.4337 30.4949 31.3978 30.4949 31.362 30.4949C30.2151 30.4949 29.1039 30.4471 28.0765 30.3754C27.6225 28.7745 26.9056 27.2691 25.9379 25.931C27.73 26.158 29.534 26.2775 31.3501 26.2775C35.0418 26.2775 38.5544 25.8354 41.2425 25.023C42.1625 24.7363 43.0346 24.3898 43.871 23.9477V27.1138C38.7336 27.2572 33.4289 28.3324 31.4695 30.4949ZM33.0705 32.3348C33.19 32.0003 34.0621 31.2237 36.5113 30.5308C38.8411 29.8737 41.8757 29.5152 45.0657 29.5152H45.221C48.638 29.5152 51.9833 29.9095 54.4205 30.6502C56.9415 31.4149 57.5388 32.1795 57.5747 32.3826V32.3946C57.5627 32.5738 56.9654 33.3981 54.313 34.1867C51.8638 34.9155 48.638 35.3097 45.221 35.3097C41.9952 35.3097 38.9128 34.9394 36.5472 34.2823C34.2652 33.6371 33.3453 32.9083 33.1183 32.5379C33.1063 32.4662 33.0944 32.3946 33.0705 32.3348ZM57.6105 45.6323C57.6105 45.7996 57.0729 46.624 54.54 47.4125C52.1147 48.1652 48.8889 48.5833 45.448 48.5833C41.9952 48.5833 38.7694 48.1771 36.3799 47.4483C33.8471 46.6717 33.3333 45.8713 33.3333 45.6921C33.3333 45.6801 33.3333 45.6801 33.3333 45.6682L33.2736 42.2154C36.1171 43.661 40.8602 44.3181 45.2091 44.3181C48.9008 44.3181 52.3895 43.876 55.0657 43.0636C55.9498 42.8008 56.7981 42.4424 57.6105 42.0122V45.6323ZM57.503 39.0134C57.503 39.1807 56.9534 39.9931 54.3728 40.7817C51.9235 41.5224 48.6738 41.9286 45.2091 41.9286C38.6499 41.9286 34.2055 40.4591 33.2258 39.3002L33.2019 38.2727L33.1541 35.5367C34.0263 35.9788 34.9343 36.3253 35.8781 36.5762C38.4468 37.293 41.7563 37.6992 45.1971 37.6992C48.8291 37.6992 52.2939 37.2691 54.9582 36.4806C55.8781 36.2177 56.7622 35.8713 57.5986 35.4292V38.4997H57.6105C57.6105 38.655 57.503 38.8342 57.503 39.0134Z" fill="#89368E"/>
</g>
</g>
<g id="Group_3">
<g id="Group_4">
<path id="Vector_2" d="M20.2621 40.591C20.0232 39.9698 19.3421 39.6711 18.7209 39.8981C18.7209 39.8861 18.7209 39.8861 18.7209 39.8861C16.4628 40.7464 13.918 40.1968 12.2215 38.4883C11.875 38.1777 11.5883 37.8073 11.3732 37.4011H17.5142C18.1713 37.4011 18.7089 36.8634 18.7089 36.2063C18.7089 35.5492 18.1713 35.0116 17.5142 35.0116H10.501C10.4294 34.5815 10.4174 34.1394 10.4652 33.6974H18.1355C18.7926 33.6974 19.3302 33.1597 19.3302 32.5026C19.3302 31.8455 18.7926 31.3079 18.1355 31.3079H11.1701C11.4568 30.7941 11.8033 30.3282 12.2095 29.8981C13.918 28.2015 16.4628 27.652 18.7089 28.5241C19.3302 28.7631 20.0112 28.4524 20.2502 27.8431C20.4891 27.2219 20.1785 26.5409 19.5691 26.3019C16.4389 25.0952 12.8905 25.8479 10.513 28.2254C9.62889 29.0976 8.95983 30.149 8.54167 31.3198H6.84513C6.18803 31.3198 5.65039 31.8575 5.65039 32.5146C5.65039 33.1717 6.18803 33.7093 6.84513 33.7093H8.03988C8.01598 34.1514 8.01598 34.5815 8.06377 35.0235H6.84513C6.18803 35.0235 5.65039 35.5612 5.65039 36.2183C5.65039 36.8754 6.18803 37.413 6.84513 37.413H8.67309C9.0793 38.4524 9.71252 39.4082 10.513 40.1968C12.8786 42.5743 16.427 43.3389 19.5691 42.1323C20.1904 41.8933 20.4891 41.2123 20.2621 40.591Z" fill="#89368E"/>
</g>
</g>
</g>
<defs>
<clipPath id="clip0_760_170">
<rect width="60" height="60" fill="white"/>
</clipPath>
</defs>
</svg>
