<svg width="60" height="60" viewBox="0 0 60 60" fill="none" xmlns="http://www.w3.org/2000/svg">
<g id="jigsaw" clip-path="url(#clip0_760_221)">
<path id="Vector" d="M55.4707 0H35.9767C35.0059 0 34.2189 0.787031 34.2189 1.75781V9.83883C34.2189 10.5321 34.6264 11.1607 35.2594 11.4436C35.8923 11.7266 36.6325 11.6111 37.1491 11.1484C37.6157 10.7309 38.2181 10.5137 38.8473 10.539C40.0895 10.5881 41.0993 11.5997 41.1462 12.8419C41.1711 13.5022 40.9336 14.1268 40.4773 14.6007C40.0206 15.0751 39.4065 15.3363 38.748 15.3363C38.1574 15.3364 37.5894 15.1193 37.149 14.725C36.6326 14.2628 35.8923 14.1468 35.2593 14.4299C34.6263 14.7128 34.2188 15.3414 34.2188 16.0346V24.0234C34.2188 24.9942 35.0058 25.7812 35.9766 25.7812H41.2343C41.1636 26.1902 41.1357 26.6093 41.1526 27.0332C41.2738 30.0983 43.7701 32.5903 46.8356 32.7061C46.913 32.709 46.99 32.7104 47.0671 32.7104C48.605 32.7104 50.0529 32.128 51.1658 31.0566C52.3349 29.931 52.9786 28.4175 52.9786 26.7952C52.9786 26.453 52.9491 26.1139 52.8913 25.7814H58.2423C59.2131 25.7814 60.0001 24.9943 60.0001 24.0236V4.52941C60.0001 2.03191 57.9682 0 55.4707 0ZM56.4845 22.2656H50.1613C49.4679 22.2656 48.8394 22.6732 48.5565 23.3063C48.2736 23.9392 48.3892 24.6795 48.8517 25.196C49.2459 25.6363 49.4631 26.2043 49.4631 26.7952C49.4631 27.4533 49.2019 28.0673 48.7275 28.5241C48.2537 28.9805 47.6313 29.217 46.9686 29.193C45.7263 29.1462 44.7149 28.1362 44.6658 26.8943C44.6409 26.2658 44.8574 25.6627 45.275 25.196C45.7375 24.6795 45.8531 23.9392 45.5702 23.3063C45.2873 22.6733 44.6585 22.2656 43.9652 22.2656H37.7345V18.7649C38.067 18.8225 38.4057 18.8521 38.7477 18.8521H38.7484C40.3709 18.8521 41.8843 18.2084 43.0098 17.0393C44.135 15.8708 44.7209 14.333 44.6593 12.7092C44.5436 9.64371 42.0516 7.14738 38.9862 7.02621C38.5618 7.0091 38.1432 7.03746 37.7345 7.10801V3.51562H55.4707C56.0298 3.51562 56.4845 3.97043 56.4845 4.52941V22.2656Z" fill="#89368E"/>
<path id="Vector_2" d="M46.2891 34.2188H38.208C37.5146 34.2188 36.8862 34.6263 36.6033 35.2594C36.3204 35.8923 36.4359 36.6326 36.8985 37.1491C37.2927 37.5894 37.5098 38.1574 37.5098 38.7483C37.5098 39.4064 37.2486 40.0205 36.7743 40.4773C36.3004 40.9336 35.6788 41.1695 35.0154 41.1462C33.7731 41.0993 32.7616 40.0894 32.7125 38.8473C32.6877 38.2189 32.9041 37.6158 33.3218 37.1491C33.7842 36.6326 33.8999 35.8923 33.617 35.2594C33.3341 34.6264 32.7053 34.2188 32.012 34.2188H25.7812V30.7188C26.1902 30.7894 26.6094 30.8175 27.033 30.8005C30.0983 30.6793 32.5903 28.183 32.7061 25.1175C32.7675 23.4937 32.1817 21.9559 31.0566 20.7874C29.931 19.6184 28.4175 18.9746 26.7952 18.9746C26.453 18.9746 26.1139 19.0042 25.7814 19.062V13.7109C25.7814 12.7402 24.9943 11.9531 24.0236 11.9531H4.52941C2.03191 11.9531 0 13.985 0 16.4825V55.4705C0 57.9681 2.03191 60 4.52941 60H43.5173C46.015 60 48.0469 57.9681 48.0469 55.4706V35.9766C48.0469 35.0058 47.2598 34.2188 46.2891 34.2188ZM3.51562 16.4825C3.51562 15.9234 3.97043 15.4688 4.52941 15.4688H22.2656V21.792C22.2656 22.4854 22.6732 23.1138 23.3063 23.3967C23.9391 23.6798 24.6796 23.5641 25.196 23.1015C25.6363 22.7073 26.2043 22.4902 26.7952 22.4902C27.4533 22.4902 28.0673 22.7514 28.5241 23.2257C28.9805 23.6996 29.218 24.3243 29.193 24.9846C29.1462 26.2268 28.1362 27.2384 26.8942 27.2875C26.2659 27.3122 25.6627 27.0959 25.196 26.6782C24.6795 26.2159 23.9394 26.1 23.3063 26.383C22.6733 26.6659 22.2657 27.2945 22.2657 27.9878V34.2188H18.765C18.8227 33.8862 18.8522 33.5471 18.8522 33.205C18.8522 31.5825 18.2085 30.069 17.0394 28.9436C15.8709 27.8183 14.3321 27.2305 12.7093 27.294C9.64383 27.4098 7.1475 29.9018 7.02633 32.9671C7.00957 33.3907 7.03758 33.8099 7.10801 34.2189H3.51562V16.4825ZM3.51562 55.4706V37.7344H9.83883C10.5322 37.7344 11.1607 37.3268 11.4436 36.6937C11.7265 36.0608 11.6109 35.3205 11.1483 34.804C10.7306 34.3375 10.5142 33.7343 10.539 33.1059C10.5881 31.8638 11.5997 30.8539 12.8419 30.8071C13.5007 30.7845 14.1267 31.0195 14.6007 31.476C15.0751 31.9327 15.3363 32.5467 15.3363 33.205C15.3363 33.7959 15.1192 34.3638 14.725 34.8041C14.2627 35.3207 14.147 36.0609 14.4299 36.6939C14.7128 37.3268 15.3416 37.7344 16.0349 37.7344H22.2656V41.2343C21.8566 41.1637 21.4375 41.1357 21.0138 41.1526C17.9486 41.2738 15.4566 43.7701 15.3408 46.8356C15.2794 48.4594 15.8652 49.9972 16.9903 51.1657C18.1159 52.3348 19.6294 52.9785 21.2517 52.9785C21.5939 52.9785 21.9329 52.9489 22.2655 52.8912V56.4844H4.52941C3.97043 56.4844 3.51562 56.0296 3.51562 55.4706ZM44.5312 55.4706C44.5312 56.0297 44.0764 56.4844 43.5175 56.4844H25.7812V50.1612C25.7812 49.4678 25.3737 48.8393 24.7406 48.5564C24.1078 48.2734 23.3674 48.3892 22.8509 48.8516C22.4106 49.2458 21.8426 49.463 21.2517 49.463C20.5936 49.463 19.9795 49.2018 19.5227 48.7274C19.0664 48.2535 18.8289 47.6289 18.8538 46.9685C18.9007 45.7263 19.9106 44.7148 21.1527 44.6657C21.7795 44.6408 22.3841 44.8573 22.8509 45.2749C23.3674 45.7373 24.1075 45.8532 24.7406 45.5701C25.3736 45.2872 25.7811 44.6586 25.7811 43.9654V37.7344H29.2811C29.2105 38.1432 29.1826 38.5624 29.1994 38.9862C29.3205 42.0514 31.8169 44.5434 34.8824 44.6592C36.5054 44.7223 38.044 44.1348 39.2125 43.0097C40.3815 41.8841 41.0252 40.3706 41.0252 38.7483C41.0252 38.4061 40.9957 38.0671 40.9379 37.7345H44.5312V55.4706Z" fill="#89368E"/>
</g>
<defs>
<clipPath id="clip0_760_221">
<rect width="60" height="60" fill="white"/>
</clipPath>
</defs>
</svg>
