<svg width="44" height="44" viewBox="0 0 44 44" fill="none" xmlns="http://www.w3.org/2000/svg">
<path d="M40.1816 13.2949C40.7289 13.1697 41.1455 12.7243 41.2335 12.1688C41.3215 11.6133 41.0616 11.0605 40.5776 10.7731C38.5591 9.57275 36.2615 8.9375 33.9295 8.9375C31.7749 8.9375 29.7454 9.471 27.9524 10.3991C26.1154 9.45725 24.0776 8.9375 22 8.9375C14.7978 8.9375 8.9375 14.7977 8.9375 22C8.9375 29.2022 14.7978 35.0625 22 35.0625C24.0776 35.0625 26.1154 34.5441 27.9524 33.6009C29.7454 34.529 31.7749 35.0625 33.9295 35.0625C36.2601 35.0625 38.5591 34.4273 40.5776 33.2269C41.0616 32.9395 41.3201 32.3881 41.2335 31.8312C41.1469 31.2744 40.7303 30.8289 40.1816 30.7051C36.0951 29.7701 33.242 26.191 33.242 22C33.242 17.809 36.0951 14.2299 40.1816 13.2949ZM25.2753 31.757C24.2234 32.109 23.1206 32.3125 22 32.3125C16.313 32.3125 11.6875 27.687 11.6875 22C11.6875 16.313 16.313 11.6875 22 11.6875C23.1206 11.6875 24.2234 11.891 25.2753 12.243C22.5789 14.6383 20.867 18.1184 20.867 22C20.867 25.8816 22.5789 29.3631 25.2753 31.757Z" fill="#89368E"/>
<path d="M23.375 6.875V4.125C23.375 3.36463 22.759 2.75 22 2.75C21.241 2.75 20.625 3.36463 20.625 4.125V6.875C20.625 7.63538 21.241 8.25 22 8.25C22.759 8.25 23.375 7.63538 23.375 6.875Z" fill="#17161A"/>
<path d="M22 35.75C21.241 35.75 20.625 36.3646 20.625 37.125V39.875C20.625 40.6354 21.241 41.25 22 41.25C22.759 41.25 23.375 40.6354 23.375 39.875V37.125C23.375 36.3646 22.759 35.75 22 35.75Z" fill="#17161A"/>
<path d="M6.875 20.625H4.125C3.366 20.625 2.75 21.2396 2.75 22C2.75 22.7604 3.366 23.375 4.125 23.375H6.875C7.634 23.375 8.25 22.7604 8.25 22C8.25 21.2396 7.634 20.625 6.875 20.625Z" fill="#17161A"/>
<path d="M10.3328 31.7226L8.38857 33.6668C7.85095 34.2045 7.85095 35.0735 8.38857 35.6111C8.6567 35.8792 9.0087 36.014 9.3607 36.014C9.7127 36.014 10.0647 35.8792 10.3328 35.6111L12.2771 33.6668C12.8147 33.1292 12.8147 32.2602 12.2771 31.7226C11.7394 31.185 10.8691 31.1863 10.3328 31.7226Z" fill="#17161A"/>
<path d="M10.3328 12.2774C10.6009 12.5455 10.9529 12.6803 11.3049 12.6803C11.6569 12.6803 12.0089 12.5455 12.2771 12.2774C12.8147 11.7398 12.8147 10.8708 12.2771 10.3331L10.3328 8.38888C9.7952 7.85125 8.9262 7.85125 8.38857 8.38888C7.85095 8.9265 7.85095 9.7955 8.38857 10.3331L10.3328 12.2774Z" fill="#17161A"/>
</svg>
