<svg width="10" height="16" viewBox="0 0 10 16" fill="none" xmlns="http://www.w3.org/2000/svg">
<path d="M6.07934 15.9688H3.51207C3.08325 15.9688 2.73442 15.6206 2.73442 15.1926V9.41333H1.23663C0.80781 9.41333 0.458984 9.06506 0.458984 8.63721V6.16077C0.458984 5.73279 0.80781 5.38464 1.23663 5.38464H2.73442V4.14453C2.73442 2.91492 3.12129 1.86877 3.85306 1.11938C4.58814 0.366577 5.61542 -0.03125 6.82383 -0.03125L8.78176 -0.0280762C9.20984 -0.0273437 9.55805 0.320801 9.55805 0.748047V3.04736C9.55805 3.47534 9.20935 3.82349 8.78066 3.82349L7.46241 3.82398C7.06038 3.82398 6.95801 3.90442 6.93611 3.92908C6.90003 3.96997 6.8571 4.08557 6.8571 4.40479V5.38452H8.68159C8.81894 5.38452 8.95201 5.41834 9.06637 5.48206C9.31307 5.61963 9.46644 5.87976 9.46644 6.16089L9.46547 8.63733C9.46547 9.06506 9.11664 9.41321 8.68783 9.41321H6.8571V15.1926C6.8571 15.6206 6.50815 15.9688 6.07934 15.9688ZM3.67425 15.0308H5.91715V8.99341C5.91715 8.70764 6.15015 8.47522 6.43636 8.47522H8.52564L8.5265 6.32263H6.43623C6.15003 6.32263 5.91715 6.09021 5.91715 5.80444V4.40479C5.91715 4.03833 5.95446 3.62158 6.23161 3.30835C6.56649 2.92969 7.09426 2.88599 7.46216 2.88599L8.61823 2.8855V0.909668L6.8231 0.906738C4.88107 0.906738 3.67425 2.14746 3.67425 4.14453V5.80444C3.67425 6.09009 3.44137 6.32263 3.15517 6.32263H1.39881V8.47522H3.15517C3.44137 8.47522 3.67425 8.70764 3.67425 8.99341V15.0308Z" fill="#17161A"/>
</svg>
