<svg width="16" height="16" viewBox="0 0 16 16" fill="none" xmlns="http://www.w3.org/2000/svg">
<g clip-path="url(#clip0_71_446)">
<path d="M8.00182 3.892C5.73315 3.892 3.89648 5.73067 3.89648 7.99733C3.89648 10.266 5.73515 12.1027 8.00182 12.1027C10.2705 12.1027 12.1072 10.264 12.1072 7.99733C12.1072 5.72867 10.2685 3.892 8.00182 3.892ZM8.00182 10.662C6.52915 10.662 5.33715 9.46933 5.33715 7.99733C5.33715 6.52533 6.52982 5.33267 8.00182 5.33267C9.47382 5.33267 10.6665 6.52533 10.6665 7.99733C10.6672 9.46933 9.47448 10.662 8.00182 10.662Z" fill="#17161A"/>
<path d="M11.2988 0.0508967C9.82682 -0.0177699 6.18082 -0.0144366 4.70749 0.0508967C3.41282 0.111563 2.27082 0.42423 1.35015 1.3449C-0.188515 2.88356 0.00815151 4.9569 0.00815151 7.99756C0.00815151 11.1096 -0.165182 13.1349 1.35015 14.6502C2.89482 16.1942 4.99815 15.9922 8.00282 15.9922C11.0855 15.9922 12.1495 15.9942 13.2395 15.5722C14.7215 14.9969 15.8402 13.6722 15.9495 11.2929C16.0188 9.82023 16.0148 6.1749 15.9495 4.70156C15.8175 1.8929 14.3102 0.189563 11.2988 0.0508967ZM13.6288 13.6322C12.6202 14.6409 11.2208 14.5509 7.98349 14.5509C4.65015 14.5509 3.31348 14.6002 2.33815 13.6222C1.21482 12.5042 1.41815 10.7089 1.41815 7.9869C1.41815 4.30356 1.04015 1.6509 4.73682 1.46156C5.58615 1.43156 5.83615 1.42156 7.97415 1.42156L8.00415 1.44156C11.5568 1.44156 14.3442 1.06956 14.5115 4.76556C14.5495 5.6089 14.5582 5.86223 14.5582 7.9969C14.5575 11.2916 14.6202 12.6362 13.6288 13.6322Z" fill="#17161A"/>
<path d="M12.2699 4.68933C12.7997 4.68933 13.2292 4.25982 13.2292 3.73C13.2292 3.20017 12.7997 2.77067 12.2699 2.77067C11.7401 2.77067 11.3105 3.20017 11.3105 3.73C11.3105 4.25982 11.7401 4.68933 12.2699 4.68933Z" fill="#17161A"/>
</g>
<defs>
<clipPath id="clip0_71_446">
<rect width="16" height="16" fill="white"/>
</clipPath>
</defs>
</svg>
