<svg width="44" height="44" viewBox="0 0 44 44" fill="none" xmlns="http://www.w3.org/2000/svg">
<g clip-path="url(#clip0_176_673)">
<path d="M24.7498 44H19.2498C17.9665 44 16.4998 42.9 16.4998 40.7V36.85C16.4998 35.0167 15.5832 33.3667 14.1165 32.0834C10.8165 29.5167 9.1665 25.85 9.1665 21.8167C9.34984 14.85 15.0332 9.35002 21.8165 9.16669C25.2998 9.16669 28.5998 10.45 30.9832 12.8334C33.3665 15.2167 34.8332 18.5167 34.8332 22C34.8332 25.85 33.1832 29.5167 30.0665 31.9C28.4165 33.1834 27.4998 35.2 27.4998 37.0334V41.25C27.4998 42.7167 26.2165 44 24.7498 44ZM21.9998 11C16.1332 11 11.1832 15.95 10.9998 21.8167C10.9998 25.3 12.4665 28.6 15.2165 30.6167C17.2332 32.2667 18.3332 34.4667 18.3332 36.85V40.7C18.3332 41.0667 18.3332 42.1667 19.2498 42.1667H24.7498C25.2998 42.1667 25.6665 41.8 25.6665 41.25V37.0334C25.6665 34.65 26.9498 32.0834 28.9665 30.4334C31.5332 28.4167 32.9998 25.3 32.9998 22C32.9998 19.0667 31.8998 16.3167 29.6998 14.1167C27.6832 12.1 24.9332 11 21.9998 11Z" fill="#89368E"/>
<path d="M26.5833 38.5H17.4167C16.8667 38.5 16.5 38.1334 16.5 37.5834C16.5 37.0334 16.8667 36.6667 17.4167 36.6667H26.5833C27.1333 36.6667 27.5 37.0334 27.5 37.5834C27.5 38.1334 27.1333 38.5 26.5833 38.5Z" fill="#89368E"/>
<path d="M22.0002 5.5C21.4502 5.5 21.0835 5.13333 21.0835 4.58333V0.916667C21.0835 0.366667 21.4502 0 22.0002 0C22.5502 0 22.9168 0.366667 22.9168 0.916667V4.58333C22.9168 5.13333 22.5502 5.5 22.0002 5.5Z" fill="#17161A"/>
<path d="M34.2832 10.6333C34.0999 10.6333 33.7332 10.6333 33.5499 10.45C33.1832 10.0833 33.1832 9.53335 33.5499 9.16668L36.1166 6.60001C36.4832 6.23335 37.0332 6.23335 37.3999 6.60001C37.7666 6.96668 37.7666 7.51668 37.3999 7.88335L34.8332 10.45C34.8332 10.45 34.4666 10.6333 34.2832 10.6333Z" fill="#89368E"/>
<path d="M43.0833 22.9166H39.4167C38.8667 22.9166 38.5 22.55 38.5 22C38.5 21.45 38.8667 21.0833 39.4167 21.0833H43.0833C43.6333 21.0833 44 21.45 44 22C44 22.55 43.6333 22.9166 43.0833 22.9166Z" fill="#89368E"/>
<path d="M36.8499 37.7666C36.6666 37.7666 36.2999 37.7666 36.1166 37.5833L33.5499 35.0166C33.1832 34.65 33.1832 34.1 33.5499 33.7333C33.9166 33.3666 34.4666 33.3666 34.8332 33.7333L37.3999 36.3C37.7666 36.6666 37.7666 37.2166 37.3999 37.5833C37.3999 37.7666 37.2166 37.7666 36.8499 37.7666Z" fill="#17161A"/>
<path d="M7.14994 37.7666C6.9666 37.7666 6.59993 37.7666 6.4166 37.5833C6.04993 37.2166 6.04993 36.6666 6.4166 36.3L8.98327 33.7333C9.34993 33.3666 9.89993 33.3666 10.2666 33.7333C10.6333 34.1 10.6333 34.65 10.2666 35.0166L7.69993 37.5833C7.5166 37.7666 7.33327 37.7666 7.14994 37.7666Z" fill="#17161A"/>
<path d="M4.58333 22.9166H0.916667C0.366667 22.9166 0 22.55 0 22C0 21.45 0.366667 21.0833 0.916667 21.0833H4.58333C5.13333 21.0833 5.5 21.45 5.5 22C5.5 22.55 5.13333 22.9166 4.58333 22.9166Z" fill="#89368E"/>
<path d="M9.7166 10.6333C9.53327 10.6333 9.1666 10.6333 8.98327 10.45L6.4166 7.7C6.04993 7.33333 6.04993 6.78333 6.4166 6.41666C6.78327 6.05 7.33327 6.05 7.69993 6.41666L10.2666 8.98333C10.6333 9.35 10.6333 9.9 10.2666 10.2667C10.0833 10.45 9.89994 10.6333 9.7166 10.6333Z" fill="#89368E"/>
<path d="M29.3335 22.9167C28.7835 22.9167 28.4168 22.55 28.4168 22C28.4168 18.5167 25.4835 15.5833 22.0002 15.5833C21.4502 15.5833 21.0835 15.2167 21.0835 14.6667C21.0835 14.1167 21.4502 13.75 22.0002 13.75C26.5835 13.75 30.2502 17.4167 30.2502 22C30.2502 22.55 29.8835 22.9167 29.3335 22.9167Z" fill="#17161A"/>
</g>
<defs>
<clipPath id="clip0_176_673">
<rect width="44" height="44" fill="white"/>
</clipPath>
</defs>
</svg>
