<svg width="300" height="365" viewBox="0 0 300 365" fill="none" xmlns="http://www.w3.org/2000/svg">
<path d="M3.14148 81.1241L143.302 355.579C147.331 363.436 156.563 367.022 164.62 363.607L283.966 315.957C292.695 312.199 303.773 296.145 298.738 283.849L172.341 27.4969C169.32 20.6654 162.102 16.7373 154.716 17.762C130.881 21.3485 71.4593 15.0294 9.35221 44.4048C-2.56564 50.0408 -1.2228 72.2432 3.14148 81.1241Z" fill="url(#paint0_linear_107_1050)"/>
<path d="M3.81289 66.6071L145.316 348.577C149.345 356.604 158.745 360.191 166.97 356.604L289.17 305.026C298.066 301.269 302.095 290.68 298.066 281.799L175.698 11.9551C172.509 4.95285 165.291 1.02473 157.738 2.04946C133.399 5.63599 76.9986 16.2248 12.5415 42.5261C3.30934 46.4542 -0.71925 57.5554 3.81289 66.6071Z" fill="#89368E"/>
<path d="M161.095 353.53C155.891 353.53 151.191 350.627 148.841 345.845L7.33779 63.8747C5.65922 60.459 5.32352 56.1893 6.66637 52.6028C8.00923 48.8454 10.695 46.1128 14.3878 44.5757C79.6842 17.9329 137.091 7.51488 158.913 4.26992C159.584 4.09913 160.256 4.09912 160.927 4.09912C166.298 4.09912 171.166 7.34409 173.348 12.2969L295.716 282.141C297.227 285.557 297.395 289.485 296.052 293.071C294.709 296.658 292.023 299.391 288.498 300.928L166.298 352.505C164.788 353.018 162.941 353.53 161.095 353.53Z" fill="#311F3D"/>
<path d="M161.934 347.552C158.577 347.552 155.556 345.674 154.045 342.599L12.8773 61.6542C11.7023 59.4339 11.5344 56.7013 12.5416 54.3103C13.3809 51.9193 15.2273 50.0406 17.4094 49.1867C82.2022 22.7146 139.274 12.2966 160.759 9.22242C161.263 9.22242 161.599 9.05164 162.102 9.05164C165.627 9.05164 168.649 11.1011 170.159 14.346L292.527 284.19C293.534 286.41 293.702 288.972 292.695 291.192C291.856 293.583 290.009 295.291 287.827 296.316L165.291 346.869C164.284 347.211 163.109 347.552 161.934 347.552Z" fill="url(#paint1_linear_107_1050)"/>
<path opacity="0.67" d="M166.802 362.752L166.97 356.604L289.17 305.197L285.477 315.615L166.802 362.752Z" fill="#B84AC0"/>
<path d="M222.363 337.817V334.402L247.541 323.984V328.424L222.363 337.817Z" fill="#6D093B"/>
<path d="M243.345 325.691V327.912L222.363 336.622V334.402L243.345 325.691Z" fill="#45093B"/>
<path d="M92.1057 242.518L145.316 348.577C145.316 348.577 151.191 361.215 166.97 356.604L210.613 338.159L166.802 355.75C166.802 355.75 156.563 358.483 146.324 348.236L92.1057 242.518Z" fill="#89368E"/>
<path d="M191.408 92.9322L68.0083 134.268L68.2707 135.079L191.67 93.7433L191.408 92.9322Z" fill="#CAABBF"/>
<path d="M210.515 137.557L89.3693 179.83L89.6415 180.638L210.788 138.365L210.515 137.557Z" fill="#CAABBF"/>
<path d="M110.57 225.268L110.234 224.414L229.245 181.034L229.413 181.888L110.57 225.268Z" fill="#CAABBF"/>
<path d="M130.881 268.648L130.545 267.965L247.373 223.39L247.709 224.244L130.881 268.648Z" fill="#CAABBF"/>
<path d="M207.591 183.596C205.074 183.596 202.22 181.717 201.045 178.643L195.002 164.81C194.163 162.76 193.995 160.54 194.834 158.832C195.338 157.466 196.345 156.612 197.688 156.099L207.927 152.513C210.949 151.488 214.641 153.538 216.152 157.295L222.027 171.129C222.866 173.178 223.034 175.228 222.195 176.935C221.691 178.302 220.684 179.156 219.509 179.668L209.438 183.255C208.599 183.596 208.095 183.596 207.591 183.596ZM209.27 153.196C208.766 153.196 208.431 153.196 207.927 153.367L197.688 156.953C196.681 157.295 195.841 158.149 195.338 159.174C194.666 160.711 194.834 162.589 195.506 164.468L201.549 178.302C202.891 181.547 206.249 183.425 208.766 182.401L218.838 178.814C219.845 178.472 220.684 177.619 221.02 176.594C221.691 175.057 221.524 173.178 220.852 171.47L214.977 157.636C213.97 154.904 211.452 153.196 209.27 153.196Z" fill="#CAABBF"/>
<path d="M219.164 175.218L218.752 175.959L219.627 176.462L220.039 175.722L219.164 175.218Z" fill="#CAABBF"/>
<path d="M217.998 180.01L213.634 172.666L222.027 172.495L217.998 180.01Z" fill="#CAABBF"/>
<path d="M263.823 278.383L172.677 314.761L160.759 289.143L253.081 253.107L263.823 278.383Z" fill="#89368E"/>
<path d="M199.366 283.848C199.534 283.848 199.702 283.848 199.702 283.848C199.87 283.848 199.87 284.019 200.038 284.019L205.913 289.484C206.081 289.484 206.081 289.655 206.249 289.484H206.416C206.584 289.484 206.584 289.314 206.416 289.143L203.227 282.141L205.241 281.287L209.27 290.168C209.438 290.338 209.27 290.509 209.102 290.68L205.913 291.876C205.745 291.876 205.577 291.876 205.577 291.876C205.409 291.876 205.409 291.705 205.241 291.705L199.199 286.24C199.031 286.069 199.031 286.069 198.863 286.24H198.695C198.527 286.24 198.527 286.41 198.695 286.581L201.884 293.583L199.87 294.437L195.841 285.556C195.674 285.215 195.841 285.215 196.009 285.044L199.366 283.848Z" fill="white"/>
<path d="M210.445 285.727L210.781 286.923C210.948 287.264 211.116 287.606 211.284 287.606C211.452 287.777 211.788 287.777 211.956 287.606L216.152 285.898L216.991 287.777L212.459 289.484C211.956 289.655 211.62 289.655 211.284 289.655C210.948 289.655 210.613 289.484 210.277 289.314C209.941 289.143 209.773 288.972 209.438 288.63C209.27 288.289 208.934 287.947 208.766 287.606L208.095 286.239C207.927 285.898 207.759 285.386 207.759 285.044C207.759 284.702 207.759 284.361 207.759 284.019C207.759 283.678 207.927 283.336 208.263 283.165C208.431 282.995 208.766 282.653 209.27 282.482L212.627 281.116C213.131 280.945 213.466 280.945 213.802 281.116C214.138 281.287 214.473 281.628 214.641 282.311L214.977 282.994C215.145 283.507 215.313 284.019 215.313 284.361C215.313 284.702 214.977 285.044 214.641 285.215L211.284 286.581L210.445 285.727ZM210.277 285.386L213.131 284.19C213.298 284.019 213.466 283.848 213.298 283.678L213.131 283.507C213.131 283.336 212.963 283.336 212.963 283.165C212.963 283.165 212.795 283.165 212.627 283.165L210.445 284.019C210.109 284.19 209.941 284.361 209.941 284.532C210.109 284.702 210.109 285.044 210.277 285.386Z" fill="white"/>
<path d="M217.159 279.579L219.845 280.945L220.684 278.042L222.866 277.188V277.358L221.356 281.628L225.888 284.019V284.19L223.538 285.044L220.516 283.507L219.677 286.752L217.495 287.606V287.435L219.006 282.653L214.809 280.603V280.433L217.159 279.579Z" fill="white"/>
<path d="M228.741 277.017L227.063 277.7L229.413 282.995L227.566 283.678L225.216 278.383L224.545 278.725L223.37 277.359V277.188L224.713 276.675L223.706 274.455L225.552 273.772L226.559 275.992L228.238 275.309L228.741 277.017Z" fill="white"/>
<path d="M134.238 273.089L134.574 272.918L136.252 276.502L138.099 275.819L138.266 276.161L136.084 277.014L134.238 273.089Z" fill="#CAABBF"/>
<path d="M137.763 274.625C137.427 273.771 137.595 272.918 138.267 272.577C138.938 272.235 139.777 272.747 140.281 273.601C140.617 274.454 140.449 275.307 139.777 275.648C139.106 275.99 138.267 275.478 137.763 274.625ZM139.945 273.771C139.609 273.089 138.938 272.747 138.434 272.918C137.931 273.089 137.763 273.771 138.099 274.454C138.434 275.137 139.106 275.478 139.609 275.307C140.113 275.137 140.281 274.454 139.945 273.771Z" fill="#CAABBF"/>
<path d="M141.624 271.381L141.791 271.722C141.288 271.893 141.12 272.405 141.456 273.088L142.127 274.624L141.791 274.794L140.449 271.893L140.784 271.722L141.12 272.234C140.952 271.893 141.12 271.552 141.624 271.381Z" fill="#CAABBF"/>
<path d="M144.981 272.063L142.966 272.916C143.302 273.599 143.806 273.77 144.477 273.599C144.813 273.428 144.981 273.258 144.981 272.916L145.316 273.087C145.316 273.428 144.981 273.77 144.645 273.94C143.806 274.282 143.134 273.77 142.631 272.916C142.295 272.063 142.463 271.21 143.134 271.039C143.806 270.527 144.645 271.039 144.981 272.063C144.981 271.892 144.981 271.892 144.981 272.063ZM142.799 272.404L144.477 271.722C144.141 271.21 143.638 270.868 143.134 271.039C142.799 271.38 142.631 271.892 142.799 272.404Z" fill="#CAABBF"/>
<path d="M149.681 269.843L150.52 271.55L150.184 271.72L149.345 270.014C149.009 269.331 148.674 269.16 148.17 269.331C147.666 269.502 147.499 270.014 147.834 270.696L148.506 272.232L148.17 272.403L147.331 270.696C146.995 270.014 146.659 269.843 146.156 270.014C145.652 270.184 145.484 270.696 145.82 271.379L146.491 272.915L146.156 273.086L144.813 270.184L145.149 270.014L145.316 270.526C145.316 270.184 145.484 269.843 145.988 269.672C146.324 269.502 146.827 269.672 147.163 270.014C147.163 269.502 147.331 269.16 147.834 268.99C148.674 268.648 149.345 268.99 149.681 269.843Z" fill="#CAABBF"/>
<path d="M150.688 266.769C150.688 266.599 150.688 266.428 150.856 266.428C151.024 266.428 151.191 266.428 151.191 266.599C151.191 266.769 151.191 266.94 151.024 266.94C151.024 267.111 150.856 266.94 150.688 266.769ZM151.191 267.793L151.527 267.623L152.87 270.524L152.534 270.695L151.191 267.793Z" fill="#CAABBF"/>
<path d="M155.724 267.794C156.059 268.647 155.891 269.5 155.22 269.842C154.884 270.012 154.381 269.842 154.045 269.671L154.716 271.378L154.381 271.548L152.534 267.452L152.87 267.282L153.206 267.794C153.206 267.282 153.541 266.94 153.877 266.77C154.381 266.428 155.22 266.94 155.724 267.794ZM155.388 267.964C155.052 267.282 154.381 266.94 153.877 267.111C153.374 267.282 153.206 267.964 153.541 268.647C153.877 269.33 154.381 269.671 155.052 269.5C155.388 269.159 155.724 268.647 155.388 267.964Z" fill="#CAABBF"/>
<path d="M156.563 268.817V268.476C156.899 268.646 157.234 268.646 157.57 268.476C158.074 268.305 158.074 267.964 158.074 267.793C157.738 267.11 156.395 268.305 155.891 267.11C155.724 266.598 155.891 266.086 156.563 265.916C156.899 265.745 157.234 265.745 157.57 265.916V266.257C157.234 266.086 157.066 266.257 156.731 266.257C156.227 266.428 156.227 266.769 156.395 266.94C156.731 267.793 158.074 266.598 158.577 267.622C158.745 268.134 158.577 268.646 157.906 268.817C157.234 268.987 156.899 268.987 156.563 268.817Z" fill="#CAABBF"/>
<path d="M160.088 264.379L161.431 267.28L161.095 267.451L160.927 266.939C160.927 267.28 160.759 267.621 160.256 267.792C159.584 267.963 159.081 267.792 158.577 266.939L157.738 265.232L158.074 265.061L158.913 266.768C159.249 267.451 159.584 267.621 160.088 267.451C160.591 267.28 160.759 266.768 160.424 266.085L159.752 264.549L160.088 264.379Z" fill="#CAABBF"/>
<path d="M165.627 263.695L166.466 265.401L166.131 265.572L165.291 263.865C164.956 263.183 164.62 263.012 164.116 263.183C163.613 263.353 163.445 263.865 163.781 264.548L164.452 266.084L164.116 266.255L163.277 264.548C162.941 263.865 162.606 263.695 162.102 263.865C161.599 264.036 161.431 264.548 161.766 265.231L162.438 266.767L162.102 266.937L160.759 264.036L161.095 263.865L161.263 264.377C161.263 264.036 161.431 263.695 161.934 263.524C162.27 263.353 162.774 263.524 163.109 263.865C163.109 263.353 163.277 263.012 163.781 262.841C164.788 262.5 165.291 262.841 165.627 263.695Z" fill="#CAABBF"/>
<path d="M168.984 259.597L170.831 263.692L170.495 263.863L170.159 263.351C170.159 263.863 169.824 264.204 169.488 264.375C168.817 264.716 167.977 264.204 167.641 263.351C167.306 262.498 167.474 261.645 168.145 261.474C168.481 261.303 168.984 261.474 169.32 261.645L168.481 259.938L168.984 259.597ZM169.824 262.327C169.488 261.645 168.984 261.303 168.313 261.474C167.809 261.645 167.642 262.327 167.977 263.01C168.313 263.692 168.817 264.034 169.488 263.863C169.992 263.692 170.159 263.01 169.824 262.327Z" fill="#CAABBF"/>
<path d="M170.831 261.986C170.495 261.133 170.663 260.28 171.334 260.109C172.006 259.768 172.845 260.28 173.181 261.133C173.516 261.986 173.349 262.84 172.677 263.01C172.006 263.181 171.166 262.84 170.831 261.986ZM173.013 261.133C172.677 260.45 172.174 260.109 171.67 260.28C171.166 260.45 170.999 261.133 171.334 261.816C171.67 262.498 172.174 262.84 172.845 262.669C173.181 262.498 173.349 261.816 173.013 261.133Z" fill="#CAABBF"/>
<path d="M172.845 258.06L173.181 257.889L175.027 261.985L174.692 262.155L172.845 258.06Z" fill="#CAABBF"/>
<path d="M175.027 260.449C174.691 259.596 174.859 258.743 175.531 258.572C176.202 258.231 177.041 258.743 177.377 259.596C177.713 260.449 177.545 261.303 176.874 261.473C176.202 261.644 175.363 261.303 175.027 260.449ZM177.209 259.596C176.874 258.913 176.37 258.572 175.866 258.743C175.363 258.913 175.195 259.596 175.531 260.279C175.866 260.961 176.37 261.303 176.874 261.132C177.209 260.791 177.377 260.279 177.209 259.596Z" fill="#CAABBF"/>
<path d="M178.72 257.206L178.888 257.547C178.384 257.718 178.216 258.23 178.552 258.912L179.224 260.448L178.888 260.619L177.545 257.718L177.881 257.547L178.216 258.059C178.049 257.718 178.216 257.376 178.72 257.206Z" fill="#CAABBF"/>
<path d="M181.406 259.253V258.912C181.742 259.082 182.077 259.082 182.413 258.912C182.916 258.741 182.917 258.4 182.917 258.229C182.581 257.546 181.238 258.741 180.734 257.546C180.566 257.034 180.734 256.522 181.238 256.352C181.574 256.181 181.909 256.181 182.245 256.352V256.693C181.909 256.522 181.742 256.693 181.406 256.693C180.902 256.864 180.902 257.205 181.07 257.376C181.406 258.229 182.749 257.034 183.252 258.058C183.42 258.57 183.252 259.082 182.581 259.253C182.077 259.424 181.742 259.424 181.406 259.253Z" fill="#CAABBF"/>
<path d="M182.245 254.814C182.245 254.644 182.245 254.473 182.413 254.473C182.581 254.473 182.749 254.473 182.749 254.644C182.749 254.814 182.749 254.985 182.581 254.985C182.581 254.985 182.413 254.985 182.245 254.814ZM182.749 255.668L183.084 255.497L184.427 258.398L184.091 258.569L182.749 255.668Z" fill="#CAABBF"/>
<path d="M186.609 257.374C186.609 257.545 186.441 257.715 186.274 257.715C185.77 257.886 185.434 257.715 185.266 257.203L184.427 255.497L183.924 255.667L183.756 255.326L184.259 255.155L183.924 254.473L184.259 254.302L184.595 254.985L185.266 254.644L185.434 254.985L184.763 255.326L185.602 257.033C185.77 257.374 185.938 257.545 186.274 257.374C186.441 257.374 186.441 257.203 186.609 257.033V257.374Z" fill="#CAABBF"/>
<path d="M189.463 254.472L190.302 256.35L189.966 256.52L189.799 256.008C189.799 256.35 189.631 256.691 189.127 256.862C188.624 257.032 188.12 256.862 187.784 256.35C187.616 255.838 187.616 255.496 188.288 255.155L189.127 254.814V254.643C188.959 254.131 188.624 253.96 188.12 254.131C187.784 254.302 187.616 254.472 187.449 254.814L187.113 254.643C187.281 254.302 187.616 253.96 187.952 253.79C188.624 253.448 189.127 253.619 189.463 254.472ZM189.463 255.496L189.295 254.984L188.456 255.326C187.952 255.496 187.952 255.838 188.12 256.008C188.288 256.35 188.624 256.52 188.959 256.35C189.463 256.179 189.631 256.008 189.463 255.496Z" fill="#CAABBF"/>
<path d="M194.331 252.764L195.17 254.471L194.834 254.642L194.163 252.935C193.827 252.252 193.491 252.082 192.988 252.252C192.484 252.423 192.316 252.935 192.652 253.618L193.324 255.154L192.988 255.324L192.316 253.618C191.981 252.935 191.645 252.764 191.141 252.935C190.638 253.106 190.47 253.618 190.806 254.3L191.477 255.836L191.141 256.007L189.799 253.106L190.134 252.935L190.302 253.447C190.302 253.106 190.47 252.764 190.974 252.594C191.309 252.423 191.813 252.594 192.149 252.935C192.149 252.423 192.316 252.082 192.82 251.911C193.324 251.57 193.995 251.911 194.331 252.764Z" fill="#CAABBF"/>
<path d="M197.52 251.91L195.506 252.764C195.841 253.276 196.345 253.617 196.849 253.446C197.184 253.276 197.352 253.105 197.352 252.764L197.688 252.934C197.688 253.276 197.352 253.617 197.016 253.788C196.345 254.129 195.506 253.617 195.17 252.764C194.834 251.91 195.002 251.057 195.674 250.886C196.345 250.545 197.016 250.886 197.52 251.91ZM195.338 252.422L197.016 251.74C196.681 251.228 196.177 250.886 195.674 251.057C195.338 251.228 195.17 251.74 195.338 252.422Z" fill="#CAABBF"/>
<path d="M199.87 252.25C199.87 252.421 199.702 252.592 199.534 252.592C199.031 252.762 198.695 252.592 198.527 252.08L197.688 250.373L197.184 250.544L197.016 250.202L197.52 250.032L197.184 249.349L197.52 249.178L197.856 249.861L198.527 249.52L198.695 249.861L198.024 250.202L198.863 251.909C199.031 252.25 199.199 252.421 199.534 252.25C199.702 252.25 199.702 252.08 199.87 251.909V252.25Z" fill="#CAABBF"/>
<path d="M200.877 251.911C200.877 252.082 200.877 252.082 200.877 252.252L201.045 253.105H200.877L200.709 252.252C200.542 252.252 200.542 252.252 200.374 252.082C200.374 251.911 200.374 251.74 200.542 251.74C200.542 251.57 200.709 251.74 200.877 251.911Z" fill="#CAABBF"/>
<path d="M204.57 249.007C204.906 249.86 204.738 250.713 204.066 250.884C203.731 251.055 203.227 250.884 202.891 250.713L203.563 252.249L203.227 252.42L201.381 248.495L201.716 248.324L202.052 248.836C202.052 248.324 202.388 247.983 202.724 247.812C203.395 247.812 204.234 248.154 204.57 249.007ZM204.234 249.177C203.899 248.495 203.395 248.154 202.891 248.324C202.388 248.495 202.22 249.178 202.556 249.86C202.891 250.543 203.395 250.884 203.899 250.713C204.402 250.372 204.57 249.86 204.234 249.177Z" fill="#CAABBF"/>
<path d="M206.752 246.446L208.095 249.347L207.759 249.518L207.591 249.006C207.591 249.347 207.424 249.688 206.92 249.859C206.249 250.03 205.745 249.859 205.409 249.006L204.738 247.299L205.074 247.129L205.745 248.835C206.081 249.518 206.416 249.688 206.92 249.518C207.424 249.347 207.591 248.835 207.256 248.153L206.584 246.617L206.752 246.446Z" fill="#CAABBF"/>
<path d="M208.766 245.763L208.934 246.104C208.431 246.275 208.263 246.787 208.599 247.469L209.27 249.005L208.934 249.176L207.591 246.275L207.927 246.104L208.263 246.616C208.263 246.104 208.431 245.933 208.766 245.763Z" fill="#CAABBF"/>
<path d="M211.956 247.639C211.956 247.81 211.788 247.981 211.62 247.981C211.116 248.151 210.781 247.981 210.613 247.469L209.774 245.762L209.27 245.933L209.102 245.591L209.606 245.421L209.27 244.738L209.606 244.567L209.941 245.25L210.613 244.909L210.781 245.25L210.109 245.591L210.949 247.298C211.116 247.639 211.284 247.81 211.62 247.639C211.788 247.639 211.788 247.469 211.956 247.298V247.639Z" fill="#CAABBF"/>
<path d="M211.62 246.274C211.284 245.421 211.452 244.567 212.124 244.397C212.795 244.055 213.634 244.567 213.97 245.421C214.306 246.274 214.138 247.127 213.466 247.298C212.795 247.639 212.124 247.127 211.62 246.274ZM213.802 245.591C213.466 244.909 212.963 244.567 212.459 244.738C211.956 244.909 211.788 245.591 212.124 246.274C212.459 246.957 212.963 247.298 213.466 247.127C213.97 246.786 214.138 246.274 213.802 245.591Z" fill="#CAABBF"/>
<path d="M219.845 243.029L220.516 244.736L220.181 244.907L219.509 243.2C219.174 242.517 218.838 242.347 218.502 242.517C217.999 242.688 217.831 243.2 218.166 243.883L218.838 245.419L218.502 245.589L217.831 243.883C217.495 243.2 217.159 243.029 216.656 243.2C216.152 243.371 215.984 243.883 216.32 244.565L216.991 246.101L216.656 246.272L215.313 243.371L215.649 243.2L215.816 243.712C215.816 243.371 215.984 243.029 216.488 242.859C216.824 242.688 217.327 242.859 217.663 243.2C217.663 242.688 217.831 242.347 218.334 242.176C218.838 241.835 219.341 242.176 219.845 243.029Z" fill="#CAABBF"/>
<path d="M219.677 240.468C219.677 240.297 219.677 240.127 219.845 240.127C220.013 240.127 220.181 240.127 220.181 240.297C220.181 240.468 220.181 240.639 220.013 240.639C219.845 240.809 219.677 240.639 219.677 240.468ZM220.181 241.492L220.516 241.321L221.859 244.223L221.524 244.393L220.181 241.492Z" fill="#CAABBF"/>
<path d="M224.041 241.322L224.713 243.028L224.377 243.199L223.706 241.492C223.37 240.81 223.034 240.639 222.531 240.81C222.027 240.98 221.859 241.492 222.195 242.175L222.866 243.711L222.531 243.882L221.188 240.98L221.524 240.81L221.691 241.322C221.691 240.98 221.859 240.639 222.363 240.468C223.034 240.298 223.706 240.468 224.041 241.322Z" fill="#CAABBF"/>
<path d="M223.874 238.931C223.874 238.76 223.874 238.59 224.041 238.59C224.209 238.59 224.377 238.59 224.377 238.76C224.377 238.931 224.377 239.102 224.209 239.102C224.041 239.102 223.874 239.102 223.874 238.931ZM224.377 239.784L224.713 239.614L226.056 242.515L225.72 242.686L224.377 239.784Z" fill="#CAABBF"/>
<path d="M229.916 239.102L230.588 240.808L230.252 240.979L229.581 239.272C229.245 238.59 228.909 238.419 228.574 238.59C228.07 238.76 227.902 239.272 228.238 239.955L228.909 241.491L228.574 241.661L227.902 239.955C227.566 239.272 227.231 239.102 226.895 239.272C226.391 239.443 226.224 239.955 226.559 240.637L227.231 242.173L226.895 242.344L225.552 239.443L225.888 239.272L226.056 239.784C226.056 239.443 226.224 239.102 226.727 238.931C227.063 238.76 227.566 238.931 227.902 239.272C227.902 238.76 228.07 238.419 228.574 238.248C229.077 237.907 229.581 238.248 229.916 239.102Z" fill="#CAABBF"/>
<path d="M232.434 236.711L233.609 239.613L233.274 239.783L233.106 239.271C233.106 239.612 232.938 239.954 232.434 240.124C231.763 240.295 231.259 240.124 230.924 239.271L230.252 237.565L230.588 237.394L231.259 239.101C231.595 239.783 231.931 239.954 232.434 239.783C232.938 239.612 233.106 239.101 232.77 238.418L232.099 236.882L232.434 236.711Z" fill="#CAABBF"/>
<path d="M237.806 236.028L238.477 237.734L238.141 237.905L237.47 236.198C237.134 235.516 236.799 235.345 236.463 235.516C235.959 235.686 235.791 236.198 236.127 236.881L236.799 238.417L236.463 238.588L235.791 236.881C235.456 236.198 235.12 236.028 234.784 236.198C234.281 236.369 234.113 236.881 234.449 237.564L235.12 239.1L234.784 239.27L233.609 236.369L233.945 236.198L234.113 236.71C234.113 236.369 234.281 236.028 234.784 235.857C235.12 235.686 235.624 235.857 235.959 236.198C235.959 235.686 236.127 235.345 236.631 235.174C236.799 235.004 237.302 235.174 237.806 236.028Z" fill="#CAABBF"/>
<path d="M238.813 233.124C238.813 232.954 238.813 232.783 238.981 232.783C239.149 232.783 239.316 232.783 239.316 232.954C239.316 233.124 239.316 233.295 239.149 233.295C238.981 233.466 238.813 233.295 238.813 233.124ZM239.316 234.148L239.652 233.978L240.827 236.879L240.491 237.049L239.316 234.148Z" fill="#CAABBF"/>
<path d="M242.506 232.783L243.681 235.684L243.345 235.855L243.177 235.343C243.177 235.684 243.009 236.025 242.506 236.196C241.834 236.367 241.331 236.196 240.995 235.343L240.323 233.636L240.659 233.466L241.331 235.172C241.666 235.855 242.002 236.025 242.506 235.855C243.009 235.684 243.177 235.172 242.841 234.49L242.17 232.954L242.506 232.783Z" fill="#CAABBF"/>
<path d="M244.184 235.172V234.83C244.52 235.001 244.856 235.001 245.191 234.83C245.695 234.66 245.695 234.489 245.695 234.148C245.359 233.465 244.184 234.489 243.681 233.465C243.513 232.953 243.681 232.441 244.184 232.27C244.52 232.1 244.856 232.1 245.191 232.27V232.612C244.856 232.441 244.688 232.612 244.352 232.612C243.849 232.782 243.848 233.124 244.016 233.294C244.352 234.148 245.695 232.953 246.031 233.977C246.199 234.489 246.031 235.001 245.359 235.172C244.856 235.342 244.52 235.342 244.184 235.172Z" fill="#CAABBF"/>
<path d="M249.052 231.586L249.891 233.292L249.556 233.463L249.388 232.951C249.388 233.292 249.22 233.634 248.716 233.804C248.213 233.975 247.709 233.804 247.541 233.292C247.374 232.78 247.374 232.439 248.045 232.098L248.716 231.756V231.586C248.549 231.074 248.213 230.903 247.709 231.074C247.374 231.245 247.206 231.415 247.038 231.756L246.702 231.586C246.87 231.244 247.038 230.903 247.541 230.903C248.213 230.733 248.716 230.903 249.052 231.586ZM249.052 232.61L248.884 232.098L248.213 232.439C247.709 232.61 247.709 232.951 247.877 233.122C248.045 233.463 248.381 233.634 248.716 233.463C248.884 233.463 249.052 233.122 249.052 232.61Z" fill="#CAABBF"/>
<path d="M251.738 232.439C251.738 232.61 251.57 232.781 251.402 232.781C250.899 232.951 250.563 232.781 250.395 232.269L249.724 230.562L249.388 230.733L249.22 230.391L249.556 230.221L249.22 229.538L249.556 229.367L249.891 230.05L250.563 229.709L250.731 230.05L250.059 230.391L250.731 232.098C250.899 232.439 251.066 232.61 251.402 232.439C251.57 232.439 251.57 232.269 251.738 232.098V232.439Z" fill="#CAABBF"/>
<path d="M252.577 232.098C252.577 232.269 252.577 232.269 252.577 232.439L252.745 233.293H252.577L252.409 232.439C252.241 232.439 252.241 232.439 252.073 232.269C252.073 232.098 252.073 231.927 252.241 231.927C252.409 231.757 252.577 231.927 252.577 232.098Z" fill="#CAABBF"/>
<path d="M140.616 281.115L141.456 282.821L141.12 282.992L140.281 281.285C139.945 280.603 139.609 280.432 139.106 280.603C138.602 280.773 138.434 281.285 138.77 281.968L139.441 283.504L139.106 283.675L137.091 279.579L137.427 279.408L138.266 281.115C138.266 280.773 138.602 280.432 138.938 280.261C139.609 280.091 140.281 280.261 140.616 281.115Z" fill="#CAABBF"/>
<path d="M143.302 279.92L144.141 281.797L143.806 281.968L143.638 281.456C143.638 281.797 143.47 282.138 142.966 282.309C142.463 282.48 141.959 282.309 141.624 281.797C141.456 281.285 141.456 280.944 142.127 280.602L142.966 280.261V280.09C142.799 279.578 142.295 279.408 141.959 279.578C141.624 279.749 141.456 279.92 141.288 280.261L140.952 280.09C141.12 279.749 141.456 279.408 141.791 279.237C142.463 279.066 142.966 279.237 143.302 279.92ZM143.47 281.114L143.302 280.602L142.463 280.944C141.959 281.114 141.959 281.456 142.127 281.797C142.295 282.138 142.631 282.309 142.966 282.138C143.302 281.797 143.47 281.456 143.47 281.114Z" fill="#CAABBF"/>
<path d="M144.645 281.284V280.943C144.981 281.114 145.316 281.114 145.652 280.943C146.156 280.773 146.156 280.431 146.156 280.261C145.82 279.578 144.477 280.773 143.974 279.578C143.806 279.066 143.974 278.554 144.645 278.383C144.981 278.213 145.316 278.213 145.652 278.383V278.725C145.316 278.554 144.981 278.725 144.813 278.725C144.309 278.895 144.309 279.237 144.477 279.407C144.813 280.261 146.156 279.066 146.659 280.09C146.827 280.602 146.659 281.114 145.988 281.284C145.317 281.455 144.813 281.455 144.645 281.284Z" fill="#CAABBF"/>
<path d="M147.667 278.723C147.331 277.87 147.499 277.017 148.17 276.676C148.506 276.505 149.009 276.505 149.345 276.846L149.177 277.188C148.842 277.017 148.506 276.846 148.338 277.017C147.834 277.188 147.666 277.87 148.002 278.553C148.338 279.235 149.009 279.577 149.513 279.406C149.849 279.235 150.017 279.065 150.017 278.723L150.352 278.894C150.352 279.406 150.016 279.747 149.681 279.918C148.841 280.089 148.17 279.577 147.667 278.723Z" fill="#CAABBF"/>
<path d="M152.199 275.309L153.542 278.21L153.206 278.381L153.038 277.869C153.038 278.21 152.87 278.552 152.366 278.722C151.695 278.893 151.191 278.722 150.688 277.869L149.849 276.162L150.184 275.992L151.024 277.698C151.359 278.381 151.695 278.552 152.199 278.381C152.702 278.21 152.87 277.698 152.534 277.016L151.863 275.48L152.199 275.309Z" fill="#CAABBF"/>
<path d="M158.913 274.113L159.752 275.82L159.416 275.99L158.577 274.284C158.241 273.601 157.906 273.43 157.402 273.601C156.899 273.772 156.731 274.284 157.067 274.966L157.738 276.502L157.402 276.673L156.563 274.966C156.227 274.284 155.892 274.113 155.388 274.284C154.884 274.454 154.716 274.966 155.052 275.649L155.724 277.185L155.388 277.356L154.045 274.454L154.381 274.284L154.549 274.796C154.549 274.454 154.716 274.113 155.22 273.942C155.556 273.772 156.059 273.942 156.395 274.284C156.395 273.772 156.563 273.43 157.067 273.26C157.906 273.089 158.577 273.26 158.913 274.113Z" fill="#CAABBF"/>
<path d="M158.745 271.722C158.745 271.552 158.745 271.381 158.913 271.381C159.081 271.381 159.249 271.381 159.249 271.552C159.249 271.722 159.249 271.893 159.081 271.893C158.913 271.893 158.745 271.722 158.745 271.722ZM159.249 272.576L159.584 272.405L160.927 275.306L160.591 275.477L159.249 272.576Z" fill="#CAABBF"/>
<path d="M163.277 272.405L164.116 274.112L163.781 274.283L162.941 272.576C162.606 271.893 162.27 271.723 161.766 271.893C161.263 272.064 161.095 272.576 161.431 273.259L162.102 274.795L161.766 274.965L160.424 272.064L160.759 271.893L160.927 272.405C160.927 272.064 161.095 271.723 161.599 271.552C162.27 271.381 162.941 271.552 163.277 272.405Z" fill="#CAABBF"/>
<path d="M163.109 270.014C163.109 269.844 163.109 269.673 163.277 269.673C163.445 269.673 163.613 269.673 163.613 269.844C163.613 270.014 163.613 270.185 163.445 270.185C163.445 270.185 163.277 270.185 163.109 270.014ZM163.613 270.868L163.949 270.697L165.291 273.598L164.956 273.769L163.613 270.868Z" fill="#CAABBF"/>
<path d="M169.488 270.014L170.327 271.721L169.991 271.891L169.152 270.185C168.816 269.502 168.481 269.331 167.977 269.502C167.474 269.673 167.306 270.185 167.641 270.867L168.313 272.403L167.977 272.574L167.138 270.867C166.802 270.185 166.466 270.014 165.963 270.185C165.459 270.355 165.291 270.867 165.627 271.55L166.299 273.086L165.963 273.257L164.62 270.355L164.956 270.185L165.124 270.697C165.124 270.355 165.291 270.014 165.795 269.843C166.131 269.673 166.634 269.843 166.97 270.185C166.97 269.673 167.138 269.331 167.641 269.161C168.481 268.99 169.152 269.161 169.488 270.014Z" fill="#CAABBF"/>
<path d="M171.502 269.501C171.166 268.647 171.334 267.794 172.006 267.453C172.341 267.282 172.845 267.282 173.181 267.623L173.013 267.965C172.677 267.794 172.341 267.623 172.174 267.794C171.67 267.965 171.502 268.647 171.838 269.33C172.174 270.013 172.677 270.354 173.349 270.183C173.684 270.013 173.852 269.842 173.852 269.501L174.188 269.671C174.188 270.183 173.852 270.525 173.516 270.695C172.677 270.866 171.838 270.354 171.502 269.501Z" fill="#CAABBF"/>
<path d="M174.02 268.647C173.684 267.794 173.852 266.94 174.524 266.77C175.195 266.428 176.034 266.94 176.37 267.794C176.706 268.647 176.538 269.5 175.866 269.671C175.195 269.842 174.356 269.5 174.02 268.647ZM176.202 267.794C175.866 267.111 175.363 266.77 174.859 266.94C174.356 267.111 174.188 267.794 174.524 268.476C174.859 269.159 175.363 269.5 175.866 269.33C176.37 268.988 176.538 268.476 176.202 267.794Z" fill="#CAABBF"/>
<path d="M179.392 266.257L180.231 267.963L179.895 268.134L179.224 266.428C178.888 265.745 178.552 265.574 178.049 265.745C177.545 265.916 177.377 266.427 177.713 267.11L178.384 268.646L178.049 268.817L176.706 265.916L177.042 265.745L177.209 266.257C177.209 265.916 177.377 265.574 177.881 265.404C178.384 265.233 178.888 265.404 179.392 266.257Z" fill="#CAABBF"/>
<path d="M180.566 267.451V267.109C180.902 267.28 181.238 267.28 181.574 267.109C182.077 266.939 182.077 266.597 182.077 266.427C181.741 265.744 180.399 266.939 179.895 265.744C179.727 265.232 179.895 264.72 180.399 264.549C180.734 264.379 181.07 264.379 181.406 264.549V264.891C181.07 264.72 180.902 264.891 180.566 264.891C180.063 265.061 180.063 265.403 180.231 265.573C180.566 266.427 181.909 265.232 182.413 266.256C182.581 266.768 182.413 267.28 181.741 267.451C181.238 267.621 180.734 267.451 180.566 267.451Z" fill="#CAABBF"/>
<path d="M184.427 266.085C184.427 266.255 184.259 266.426 184.091 266.426C183.588 266.597 183.252 266.426 182.916 265.914L182.077 264.207L181.574 264.378L181.406 264.037L181.909 263.866L181.574 263.183L181.909 263.013L182.245 263.695L182.916 263.354L183.084 263.695L182.413 264.037L183.252 265.743C183.42 266.085 183.588 266.255 183.924 266.085C184.091 266.085 184.091 265.914 184.259 265.743L184.427 266.085Z" fill="#CAABBF"/>
<path d="M183.252 262.158C183.252 261.987 183.252 261.817 183.42 261.817C183.588 261.817 183.756 261.817 183.756 261.987C183.756 262.158 183.756 262.329 183.588 262.329C183.588 262.499 183.42 262.329 183.252 262.158ZM183.756 263.182L184.091 263.011L185.434 265.913L185.099 266.083L183.756 263.182Z" fill="#CAABBF"/>
<path d="M187.449 264.889C187.449 265.059 187.281 265.23 187.113 265.23C186.609 265.401 186.274 265.23 186.106 264.718L185.267 263.011L184.763 263.182L184.595 262.841L185.099 262.67L184.763 261.987L185.099 261.817L185.434 262.499L186.106 262.158L186.274 262.499L185.602 262.841L186.442 264.547C186.609 264.889 186.777 265.059 187.113 264.889C187.281 264.889 187.281 264.718 187.449 264.547V264.889Z" fill="#CAABBF"/>
<path d="M189.127 261.134L190.47 264.035L190.134 264.206L189.966 263.694C189.966 264.035 189.799 264.376 189.295 264.547C188.624 264.718 188.12 264.547 187.784 263.694L186.945 261.987L187.281 261.816L187.952 263.523C188.288 264.206 188.623 264.376 189.127 264.206C189.631 264.035 189.799 263.523 189.463 262.84L188.791 261.304L189.127 261.134Z" fill="#CAABBF"/>
<path d="M192.484 263.01C192.484 263.181 192.316 263.351 192.149 263.351C191.645 263.522 191.309 263.351 191.141 262.839L190.302 261.133L189.799 261.304L189.631 260.962L190.134 260.792L189.799 260.109L190.134 259.938L190.47 260.621L191.141 260.28L191.309 260.621L190.638 260.962L191.477 262.669C191.645 263.01 191.813 263.181 192.149 263.01C192.316 263.01 192.316 262.839 192.484 262.669V263.01Z" fill="#CAABBF"/>
<path d="M192.149 261.645C191.813 260.791 191.981 259.938 192.652 259.767C193.324 259.426 194.163 259.938 194.499 260.791C194.834 261.645 194.666 262.498 193.995 262.669C193.324 262.839 192.484 262.498 192.149 261.645ZM194.331 260.791C193.995 260.109 193.491 259.768 192.988 259.938C192.484 260.109 192.316 260.791 192.652 261.474C192.988 262.157 193.491 262.498 193.995 262.327C194.331 261.986 194.499 261.474 194.331 260.791Z" fill="#CAABBF"/>
<path d="M196.177 260.108C195.841 259.254 196.009 258.401 196.681 258.23C197.016 258.06 197.52 258.06 197.856 258.401L197.688 258.742C197.352 258.572 197.016 258.401 196.849 258.572C196.345 258.742 196.177 259.425 196.513 260.108C196.849 260.79 197.352 261.132 197.856 260.961C198.191 260.79 198.359 260.62 198.359 260.278L198.695 260.449C198.695 260.961 198.359 261.302 198.024 261.302C197.352 261.302 196.681 260.961 196.177 260.108Z" fill="#CAABBF"/>
<path d="M198.695 259.083C198.359 258.23 198.527 257.376 199.199 257.206C199.87 256.864 200.709 257.376 201.045 258.23C201.381 259.083 201.213 259.936 200.541 260.107C199.87 260.278 199.199 259.936 198.695 259.083ZM200.877 258.23C200.541 257.547 200.038 257.206 199.534 257.376C199.031 257.547 198.863 258.23 199.199 258.912C199.534 259.595 200.038 259.936 200.541 259.766C201.045 259.595 201.213 258.912 200.877 258.23Z" fill="#CAABBF"/>
<path d="M205.745 256.18L206.416 257.887L206.081 258.057L205.409 256.351C205.074 255.668 204.738 255.497 204.234 255.668C203.731 255.839 203.563 256.351 203.899 257.033L204.57 258.569L204.234 258.74L203.563 257.033C203.227 256.351 202.891 256.18 202.388 256.351C201.884 256.521 201.716 257.033 202.052 257.716L202.723 259.252L202.388 259.423L201.045 256.521L201.381 256.351L201.549 256.863C201.549 256.521 201.716 256.18 202.22 256.009C202.556 255.839 203.059 256.009 203.395 256.351C203.395 255.839 203.563 255.497 204.066 255.327C204.738 254.985 205.241 255.327 205.745 256.18Z" fill="#CAABBF"/>
<path d="M209.102 255.155C209.438 256.009 209.27 256.862 208.599 257.033C208.263 257.203 207.759 257.033 207.424 256.862L208.095 258.398L207.759 258.569L205.913 254.643L206.249 254.473L206.584 254.985C206.584 254.473 206.92 254.132 207.256 253.961C207.927 253.79 208.766 254.132 209.102 255.155ZM208.766 255.155C208.431 254.473 207.927 254.132 207.424 254.302C206.92 254.473 206.752 255.155 207.088 255.838C207.424 256.521 207.927 256.862 208.431 256.691C208.934 256.521 209.102 255.838 208.766 255.155Z" fill="#CAABBF"/>
<path d="M210.277 252.936L210.445 253.277C209.941 253.448 209.774 253.96 210.109 254.643L210.781 256.178L210.445 256.349L209.102 253.448L209.438 253.277L209.606 253.789C209.606 253.448 209.774 253.107 210.277 252.936Z" fill="#CAABBF"/>
<path d="M213.634 253.447L211.62 254.13C211.956 254.642 212.459 254.983 212.963 254.812C213.299 254.642 213.466 254.471 213.466 254.13L213.802 254.3C213.802 254.642 213.466 254.983 213.131 255.154C212.459 255.495 211.62 254.983 211.284 254.13C210.949 253.277 211.116 252.423 211.788 252.253C212.459 252.082 213.131 252.423 213.634 253.447ZM211.452 253.959L213.131 253.277C212.795 252.765 212.291 252.423 211.788 252.594C211.452 252.765 211.284 253.277 211.452 253.959Z" fill="#CAABBF"/>
<path d="M216.32 252.081L216.991 253.788L216.656 253.958L215.984 252.252C215.649 251.569 215.313 251.398 214.809 251.569C214.306 251.74 214.138 252.252 214.474 252.934L215.145 254.47L214.809 254.641L212.963 250.545L213.299 250.374L213.97 252.081C213.97 251.74 214.306 251.398 214.641 251.228C215.313 250.886 215.984 251.228 216.32 252.081Z" fill="#CAABBF"/>
<path d="M219.341 251.227L217.327 251.91C217.663 252.422 218.166 252.763 218.67 252.592C219.006 252.422 219.174 252.251 219.174 251.91L219.509 252.08C219.509 252.422 219.174 252.763 218.838 252.934C218.166 253.275 217.327 252.763 216.991 251.91C216.656 251.056 216.824 250.203 217.495 250.032C218.166 249.862 219.006 250.203 219.341 251.227ZM217.327 251.739L219.006 251.056C218.67 250.544 218.166 250.203 217.663 250.374C217.159 250.544 217.159 251.056 217.327 251.739Z" fill="#CAABBF"/>
<path d="M222.027 249.861L222.699 251.567L222.363 251.738L221.691 250.031C221.356 249.349 221.02 249.178 220.516 249.349C220.013 249.519 219.845 250.031 220.181 250.714L220.852 252.25L220.516 252.421L219.174 249.519L219.509 249.349L219.677 249.861C219.677 249.519 219.845 249.178 220.349 249.008C221.188 248.666 221.691 249.008 222.027 249.861Z" fill="#CAABBF"/>
<path d="M223.202 250.884V250.543C223.538 250.714 223.874 250.714 224.209 250.543C224.713 250.372 224.713 250.031 224.713 249.861C224.377 249.178 223.034 250.372 222.531 249.178C222.363 248.666 222.531 248.154 223.034 247.983C223.37 247.813 223.706 247.813 224.041 247.983V248.325C223.706 248.154 223.538 248.325 223.202 248.325C222.699 248.495 222.699 248.837 222.866 249.007C223.202 249.861 224.545 248.666 225.049 249.69C225.216 250.202 225.049 250.714 224.377 250.884C223.874 251.055 223.538 251.055 223.202 250.884Z" fill="#CAABBF"/>
<path d="M226.895 247.812L227.734 249.518L227.399 249.689L227.231 249.177C227.231 249.518 227.063 249.86 226.559 250.03C226.056 250.201 225.552 250.03 225.384 249.518C225.216 249.006 225.217 248.665 225.888 248.324L226.559 247.982V247.812C226.391 247.3 226.056 247.129 225.552 247.3C225.216 247.47 225.049 247.641 224.881 247.982L224.545 247.812C224.713 247.47 224.881 247.129 225.384 247.129C226.056 246.788 226.559 247.129 226.895 247.812ZM226.895 248.836L226.727 248.324L226.056 248.665C225.552 248.836 225.552 249.177 225.72 249.348C225.888 249.689 226.224 249.86 226.559 249.689C226.895 249.518 227.063 249.348 226.895 248.836Z" fill="#CAABBF"/>
<path d="M231.595 246.104L232.266 247.81L231.931 247.981L231.259 246.274C230.924 245.592 230.588 245.421 230.252 245.592C229.749 245.763 229.581 246.274 229.916 246.957L230.588 248.493L230.252 248.664L229.581 246.957C229.245 246.274 228.909 246.104 228.574 246.274C228.07 246.445 227.902 246.957 228.238 247.64L228.909 249.176L228.574 249.346L227.231 246.445L227.566 246.274L227.734 246.786C227.734 246.445 227.902 246.104 228.406 245.933C228.741 245.763 229.245 245.933 229.581 246.274C229.581 245.763 229.749 245.421 230.252 245.251C230.756 245.08 231.259 245.251 231.595 246.104Z" fill="#CAABBF"/>
<path d="M232.938 247.298C232.938 247.128 232.938 246.958 233.106 246.958C233.273 246.958 233.441 246.958 233.441 247.128C233.441 247.298 233.441 247.468 233.273 247.468C233.106 247.468 232.938 247.468 232.938 247.298Z" fill="#CAABBF"/>
<path d="M70.62 57.7261L134.573 38.2563L129.538 27.8383L150.856 37.9148L143.47 55.3351L139.106 46.6249L74.9842 66.7779L70.62 57.7261Z" fill="#89368E"/>
<path d="M139.945 61.9956L75.9915 81.4654L81.0272 91.8834L59.7094 81.8069L67.0951 64.3866L71.4593 72.926L135.581 52.7731L139.945 61.9956Z" fill="#89368E"/>
<path opacity="0.4" d="M75.1522 198.797L249.052 317.494L166.466 352.335C166.466 352.335 154.549 356.775 149.009 345.845L75.1522 198.797Z" fill="white"/>
<path opacity="0.58" d="M162.774 19.2989L177.209 51.2362C178.049 53.1148 180.063 53.9688 182.077 53.4564L227.902 38.9395C230.084 38.2563 231.091 35.8653 230.084 33.6451L215.649 2.39096C214.809 0.512296 212.795 -0.341633 210.949 0.170729L164.956 14.0045C162.774 14.6877 161.767 17.2495 162.774 19.2989Z" fill="#89368E"/>
<g opacity="0.67">
<path d="M212.124 0.853937C213.299 0.853937 214.474 1.53708 214.977 2.7326L229.413 33.9867C229.748 34.8406 229.748 35.6946 229.413 36.5485C229.077 37.4024 228.406 37.9148 227.734 38.0856L181.909 52.6025C181.574 52.7733 181.238 52.7733 181.07 52.7733C179.895 52.7733 178.72 52.0902 178.216 50.8946L163.445 18.9574C163.109 18.1035 163.109 17.2495 163.445 16.3956C163.781 15.5417 164.452 15.0293 165.291 14.8585L211.284 1.02472C211.452 1.02472 211.788 0.853937 212.124 0.853937ZM212.124 0C211.788 0 211.452 -2.60855e-06 210.949 0.170785L164.956 14.0046C162.774 14.6877 161.766 17.0787 162.606 19.299L177.041 51.2362C177.713 52.7733 179.224 53.6272 180.734 53.6272C181.07 53.6272 181.574 53.6272 181.909 53.4565L227.734 38.9395C229.916 38.2564 230.924 35.8654 229.916 33.6451L215.481 2.39101C214.977 1.02471 213.634 0 212.124 0Z" fill="#B84AC0"/>
</g>
<path d="M190.638 24.7643L205.745 20.3238L201.213 29.8879L190.638 24.7643Z" fill="white"/>
<defs>
<linearGradient id="paint0_linear_107_1050" x1="150.017" y1="364.91" x2="150.017" y2="17.5711" gradientUnits="userSpaceOnUse">
<stop stop-color="#DD0E24"/>
<stop offset="1" stop-color="#DD3333"/>
</linearGradient>
<linearGradient id="paint1_linear_107_1050" x1="152.596" y1="347.521" x2="152.596" y2="8.97546" gradientUnits="userSpaceOnUse">
<stop stop-color="#ECE8FF"/>
<stop offset="1" stop-color="#FEFEFE"/>
</linearGradient>
</defs>
</svg>
