<svg width="164" height="316" viewBox="0 0 164 316" fill="none" xmlns="http://www.w3.org/2000/svg">
<path d="M18.2927 13.1636C19.5022 11.9186 20.9607 11.1004 22.5615 10.4245C23.3797 10.0688 24.0912 9.49958 25.0161 9.49958C25.0516 9.49958 25.0872 9.49958 25.1228 9.46401C26.439 8.07664 28.5023 8.14779 29.9608 7.00944C30.3165 6.76043 30.779 6.65371 31.2058 6.51142C37.0043 4.76832 42.8383 3.09637 48.7791 1.8513C54.8977 0.570655 61.0875 -0.0340919 67.3129 0.00148147C70.9769 0.0370549 74.6054 0.357215 78.2695 0.606228C78.4473 0.606228 78.6252 0.819667 78.8031 0.926387C77.9137 0.819667 77.0244 0.677375 76.1351 0.606228C71.5461 0.286068 66.9571 0.179349 62.3681 0.535083C61.0164 0.641803 59.6646 0.712951 58.3128 0.997538C58.5974 0.997538 58.9175 0.997538 59.2021 0.997538C60.7674 0.961965 62.3326 0.890818 63.9334 0.819671C65.7476 0.748524 67.5263 0.570657 69.3405 0.641804C72.7912 0.784098 76.2774 1.06868 79.728 1.3177C82.894 1.56671 85.9533 2.20703 89.0482 2.9185C89.7241 3.06079 90.4356 3.13194 91.3961 3.27423C90.6846 2.9185 90.1866 2.70506 89.7241 2.49162V2.56277C90.1154 2.63391 90.5423 2.66949 90.9336 2.77621C91.5028 2.9185 92.0364 2.9185 92.6767 2.77621C93.6728 2.56277 94.7755 2.59834 95.8072 2.66949C99.5068 2.88293 103.029 4.05685 106.621 4.94618C108.542 6.19125 110.819 6.2624 112.918 6.9383C115.017 7.61419 117.222 8.11222 119.25 8.96598C120.637 9.53516 122.025 10.2111 123.448 10.7802C123.519 10.8158 123.59 10.9225 123.626 11.0292L123.661 10.9937C122.167 10.5312 120.637 10.0332 119.108 9.64187C116.831 9.0727 114.661 8.0055 112.242 7.8632C112.633 8.46795 112.633 8.50353 113.345 8.71697C114.483 9.0727 115.693 9.35729 116.831 9.71302C118.539 10.2822 120.246 10.8869 121.954 11.4917C123.305 11.9542 124.622 12.5233 126.009 12.9502C129.531 14.053 132.661 16.0095 135.756 17.8949C137.713 19.1044 139.527 20.5629 141.483 21.7368C143.404 22.8752 144.97 24.4048 146.393 26.0412C148.527 28.5314 150.697 30.9859 152.262 33.9385C153.294 35.8951 154.539 37.7804 155.57 39.737C157.1 42.7252 158.167 45.9268 159.27 49.0928C160.8 53.4683 161.618 57.9861 162.294 62.5395C162.792 66.0613 163.183 69.5831 163.041 73.1404C162.827 77.9784 162.65 82.8164 161.476 87.5121C160.764 90.3579 160.159 93.2394 158.95 95.943C158.381 97.2236 157.883 98.5043 157.349 99.7849C157.278 99.9628 157.136 100.105 156.922 100.176C157.242 99.358 157.598 98.5398 157.883 97.6861C158.665 95.3027 159.448 92.8837 160.231 90.5003C160.302 90.2868 160.586 89.9666 160.053 89.8243C159.982 89.8243 159.982 89.3975 160.053 89.2196C161.405 84.8085 162.116 80.3263 162.223 75.7373C162.258 74.4922 162.365 73.2471 162.329 72.0021C162.329 71.6463 162.614 71.0416 161.903 70.9349C161.903 70.6503 161.938 70.3301 161.938 70.0455C161.903 70.0455 161.867 70.0455 161.796 70.0455C161.831 70.3301 161.867 70.6147 161.903 70.8993C161.867 71.006 161.796 71.1127 161.796 71.2195C161.831 73.8875 160.8 76.3776 160.586 78.9745C160.551 79.4369 160.586 79.8638 160.586 80.3618C160.408 80.2195 160.266 80.1128 159.982 79.8994C159.768 80.9666 159.59 81.8915 159.412 82.7808C159.484 82.8164 159.555 82.8164 159.626 82.852C159.768 82.4962 159.91 82.1405 160.017 81.7492C160.088 81.7492 160.159 81.7492 160.231 81.7492C160.231 81.9982 160.302 82.2828 160.231 82.5318C159.768 83.7057 159.412 84.9152 159.484 86.1959C159.057 86.6227 158.879 87.1208 158.808 87.939C159.377 87.3342 159.519 86.8006 159.448 86.1959C159.697 85.9113 159.982 85.2354 159.982 85.0575C159.982 84.9864 159.946 84.8796 159.946 84.8441C160.693 84.1326 160.48 83.101 160.978 82.2828C160.978 82.7452 161.049 83.1721 160.978 83.6346C160.835 84.6306 160.657 85.6623 160.373 86.6227C160.231 87.1208 160.231 87.7611 159.519 87.9745C159.377 88.0101 159.341 88.437 159.27 88.686C159.021 89.5753 158.772 90.4647 158.559 91.354C158.488 91.3184 158.416 91.3184 158.31 91.2829C158.381 90.8204 158.452 90.358 158.559 89.7532C158.345 89.9311 158.274 90.0378 158.096 90.1801C157.74 88.4014 159.021 86.9429 159.128 85.2354C158.95 85.3065 158.843 85.3421 158.808 85.3777C158.167 87.3698 157.563 89.3975 156.887 91.3896C155.962 94.0576 155.179 96.7967 153.863 99.2869C153.365 100.212 153.045 101.208 152.618 102.204C152.511 102.453 152.44 102.702 152.298 102.915C150.91 105.156 149.487 107.433 148.1 109.639C149.487 108.821 150.661 107.326 151.337 105.477C151.373 105.334 151.48 105.228 151.586 105.121C152.155 104.587 152.76 104.054 153.401 103.556C152.725 105.085 151.978 106.579 150.875 107.896C150.982 108.074 151.088 108.287 151.159 108.465C150.519 109.532 149.95 110.635 149.203 111.631C148.314 112.769 147.46 113.979 146.215 114.797C145.61 115.188 145.254 115.722 145.325 116.54C144.934 116.54 144.578 116.433 144.329 116.576C144.08 116.718 143.974 117.074 143.796 117.358C143.369 118.034 142.942 118.71 142.479 119.35C142.373 119.457 142.088 119.421 141.91 119.493C141.732 119.564 141.555 119.67 141.448 119.919C141.626 119.919 141.768 119.919 142.088 119.919C141.697 120.489 141.377 120.987 141.057 121.449C141.021 121.414 140.95 121.414 140.914 121.378C141.021 121.093 141.163 120.809 141.27 120.524C141.199 120.489 141.163 120.453 141.092 120.417C140.416 121.449 139.74 122.481 139.064 123.512C139.847 123.299 140.665 123.192 141.021 122.303C141.163 121.947 141.697 121.734 142.017 121.414C143.12 120.24 144.223 119.066 145.325 117.927C146.25 116.967 147.246 116.042 148.171 115.081C148.314 114.939 148.527 114.69 148.491 114.548C148.349 113.836 148.954 113.943 149.238 113.801C149.274 113.481 149.203 113.125 149.345 112.911C150.661 111.026 151.978 109.176 153.294 107.291C153.365 107.184 153.436 107.042 153.507 106.935C153.685 107.042 153.756 107.113 153.756 107.149C153.365 108.251 153.116 109.39 152.404 110.386C151.302 111.987 150.057 113.481 148.812 114.975C148.314 115.58 147.851 116.291 147.353 116.967C146.713 117.785 145.93 118.497 145.183 119.244C144.329 120.097 143.511 120.916 142.871 121.947C142.408 122.659 141.626 123.192 140.985 123.833C140.772 124.046 140.594 124.331 140.416 124.58C140.274 124.757 140.167 125.006 140.025 125.113C138.531 126.18 137.321 127.568 136.076 128.884C134.547 130.52 132.91 132.121 131.772 134.078C131.665 134.256 131.487 134.433 131.309 134.576C129.424 136.461 127.539 138.346 125.618 140.232C124.871 140.979 124.052 141.655 123.305 142.402C123.021 142.651 122.843 143.007 122.665 143.256C122.096 143.647 121.491 143.967 121.029 144.43C119.499 145.888 118.041 147.418 116.511 148.876C115.942 149.41 115.23 149.801 114.626 150.335C113.843 151.011 113.096 151.758 112.349 152.505C112.313 152.54 112.242 152.647 112.242 152.718C112.384 153.679 111.602 154.034 111.068 154.604C109.788 156.026 108.578 157.521 107.297 158.943C104.843 161.718 102.815 164.813 100.645 167.801C100.432 168.121 100.254 168.442 100.076 168.762C98.1906 172.141 96.0206 175.378 94.3487 178.9C93.6016 180.465 92.8546 182.031 92.1431 183.631C92.0008 183.952 91.9652 184.343 91.8941 184.663C92.8901 185.09 92.9969 185.054 93.4238 184.343C94.0641 183.276 94.7044 182.208 95.3803 181.177C95.4514 181.07 95.5937 181.035 95.8072 180.857C95.736 182.102 95.3091 183.098 94.8111 184.058C93.566 186.477 92.2854 188.861 91.1115 191.28C89.1549 195.264 87.1628 199.248 85.313 203.304C84.4592 205.189 83.9257 207.217 83.2142 209.173C83.0719 209.564 83.0363 210.062 82.3604 210.418C82.645 209.138 82.7517 207.964 83.2142 206.968C83.6411 206.043 83.4276 205.082 83.7122 204.157C82.2537 206.647 81.6845 209.458 80.6529 212.161C80.6173 211.663 80.5817 211.201 80.5817 210.632C79.9058 210.952 80.226 211.699 79.728 212.197C79.728 211.592 79.728 211.094 79.728 210.596C79.6568 210.596 79.5501 210.561 79.479 210.561C79.3011 211.201 79.1232 211.877 78.9809 212.517C78.8386 213.157 78.7319 213.798 78.4473 214.402C78.5541 212.517 78.6608 210.596 78.7675 208.711C78.6964 208.711 78.5896 208.675 78.5185 208.675C78.2339 209.6 77.8426 210.525 77.6292 211.485C77.2734 212.98 76.9888 214.509 76.7042 216.003C76.5975 216.608 76.3129 217.035 75.7438 217.391C75.3525 216.679 75.5303 215.897 75.4947 215.185C75.4947 214.651 75.5659 214.153 75.6015 213.62C75.6015 213.335 75.637 212.98 75.4947 212.73C74.5343 210.881 74.89 208.924 74.89 207.003C74.9256 204.975 74.9967 202.948 75.1034 200.885C75.139 200.387 75.3169 199.924 75.388 199.462C75.4592 198.928 75.637 198.359 74.9967 197.861C74.3564 198.857 74.392 199.96 74.143 201.062C73.4671 200.778 73.2536 200.209 73.2536 199.568C73.2536 198.537 73.0046 197.469 73.2536 196.438C73.3248 196.224 73.2536 195.975 73.1113 195.726C72.7556 196.331 72.7912 197.007 72.7912 197.647C72.72 199.817 72.7556 202.023 72.6133 204.193C72.5777 204.904 72.1508 205.616 71.9374 206.292C71.7951 206.683 71.6528 207.074 71.5461 207.466C71.2615 208.817 70.8346 210.098 70.2299 211.379C70.0876 210.062 71.0481 208.746 69.9809 207.501C69.8741 209.244 69.4117 210.916 69.0204 212.588C68.9137 212.588 68.807 212.553 68.7002 212.553C68.7002 212.161 68.7358 211.734 68.7002 211.343C68.6647 211.094 68.6291 210.738 68.4512 210.632C68.0955 210.418 67.9532 210.774 67.7753 210.987C67.7397 211.023 67.633 211.059 67.5974 211.059C67.4907 210.952 67.384 210.881 67.2061 210.738C67.0639 210.987 66.9216 211.236 66.7437 211.592C65.9255 210.418 66.4591 208.924 65.5342 207.928C65.0006 208.497 65.214 209.138 65.3919 209.742C65.7476 211.094 65.8188 212.446 65.4275 213.798C65.3208 214.189 65.0717 214.58 64.8939 214.972C64.7871 214.972 64.716 214.936 64.6093 214.936C64.4314 213.691 64.218 212.481 64.0401 211.236C63.969 211.236 63.8978 211.236 63.8622 211.236C63.8622 211.877 63.8622 212.553 63.8622 213.193C63.7911 213.229 63.7199 213.229 63.6488 213.264C63.3998 212.908 63.0085 212.588 62.9017 212.197C62.6883 211.414 62.1903 210.916 61.5855 210.312C61.3365 211.094 61.5144 212.019 60.5895 212.553C60.3405 212.517 59.9847 212.446 59.4867 212.375C59.7357 212.837 59.878 213.157 60.0915 213.513C59.878 213.691 59.6646 213.904 59.4511 214.047C58.3839 213.762 57.9571 212.944 57.4946 211.912C57.3879 212.161 57.3167 212.232 57.2812 212.339C57.2456 212.446 57.2456 212.553 57.21 212.695C56.8898 212.766 56.5697 212.837 56.1428 212.944C55.8938 212.019 55.6092 211.13 55.3602 210.205C54.7555 210.632 55.04 211.272 54.8622 211.948C54.6843 211.663 54.5776 211.557 54.5064 211.379C53.6882 209.6 52.9056 207.821 52.6566 205.829C52.1586 202.379 51.5183 198.964 50.9847 195.549C50.6289 193.272 50.8779 190.96 50.9847 188.647C51.0202 187.687 51.4471 186.797 51.6961 185.837C51.7673 185.517 51.8384 185.161 51.8384 184.841C51.9096 184.129 51.874 183.418 51.9807 182.707C52.0874 182.031 52.372 181.355 52.5855 180.608C52.7633 180.679 52.9768 180.75 53.2969 180.857C53.6527 179.718 54.044 178.58 54.3997 177.442C54.8266 175.948 55.2535 174.489 55.6803 172.995C56.712 169.438 58.2061 166.058 59.8424 162.75C60.7318 160.936 61.8346 159.193 62.8306 157.414C66.3168 151.117 70.2299 145.105 74.1785 139.129C74.89 138.062 75.5659 137.101 76.8821 136.781C77.0244 136.746 77.0956 136.603 77.3446 136.39C76.9888 137.137 76.5264 137.671 76.4196 138.275C76.2774 139.2 75.637 139.841 75.2813 140.588C74.8544 141.548 74.2497 142.366 73.5382 143.184C74.392 143.327 74.6765 142.758 74.9967 142.331C76.2418 140.623 77.4513 138.88 78.7319 137.208C80.5817 134.789 82.5027 132.406 84.3881 129.987C85.8822 128.101 87.3763 126.216 88.9059 124.331C89.5107 123.584 90.151 122.801 90.8625 122.125C91.9652 121.093 92.6411 119.742 93.5305 118.568C94.7044 117.002 95.8427 115.402 96.9811 113.836C97.2657 113.481 96.91 113.018 97.3368 112.591C98.404 111.524 99.3289 110.35 100.289 109.176C101.57 107.647 102.815 106.117 104.096 104.552C104.523 104.054 104.914 103.52 105.341 102.987C105.625 102.631 106.088 102.346 106.123 101.848C106.052 101.813 105.946 101.777 105.874 101.741C105.697 102.168 105.519 102.595 105.341 103.022C104.38 103.52 103.491 104.054 102.815 104.979C101.961 106.153 101.001 107.255 100.112 108.429C99.5068 109.176 99.0088 109.994 98.3684 110.742C97.9771 111.24 97.408 111.595 97.0167 112.093C96.0918 113.374 95.2024 114.655 94.3487 115.971C94.2775 116.078 94.2775 116.22 94.2064 116.291C93.2814 116.967 92.5344 117.785 92.0719 118.817C92.0008 118.959 91.5739 119.101 91.3961 119.03C90.898 118.817 90.6846 119.066 90.4711 119.386C88.5858 121.805 86.7004 124.188 84.8505 126.643C84.1747 127.532 83.7122 128.564 83.0719 129.524C81.6845 131.659 80.2616 133.758 78.8387 135.856C78.7675 135.821 78.6608 135.75 78.5896 135.714C78.9454 134.967 79.2655 134.256 79.6213 133.508C79.4078 133.402 79.2655 133.331 79.0877 133.259C82.396 128.884 85.7043 124.544 89.0126 120.168C89.1549 119.991 89.1905 119.706 89.2972 119.386C88.7281 119.315 88.5146 119.742 88.2656 120.026C86.8782 121.769 85.5264 123.512 84.1391 125.291C82.6806 127.176 81.2221 129.026 79.728 130.912C79.6568 130.983 79.5501 131.018 79.2655 131.196C79.4434 130.805 79.5145 130.556 79.6568 130.378C81.0798 128.279 82.5027 126.216 83.9612 124.153C84.8861 122.836 85.9533 121.591 86.8782 120.275C88.3367 118.212 89.8308 116.149 91.0759 113.979C91.8585 112.627 92.6055 111.204 93.4949 109.923C94.5265 108.429 95.5937 106.971 96.6609 105.512C96.9099 105.156 97.2657 104.907 97.6214 104.552C97.9771 105.583 97.5858 106.259 97.0167 107.184C97.4791 107.042 97.7281 107.006 97.906 106.864C98.2262 106.615 98.5463 106.33 98.7953 105.975C101.534 102.56 104.665 99.4648 107.511 96.1564C107.973 95.6228 108.4 95.0536 108.898 94.52C109.076 94.3422 109.289 94.0576 109.467 94.0576C110.143 94.1287 110.428 93.5596 110.535 93.2038C110.819 92.2078 111.566 91.4607 111.922 90.3224C111.459 90.4291 111.139 90.5002 110.677 90.5714C110.961 89.9311 111.246 89.3619 111.459 88.7927C111.637 88.3303 111.708 87.7967 111.851 87.2986C111.886 87.1563 111.851 86.9429 111.922 86.8718C112.74 86.0536 112.705 84.9152 112.989 83.8836C113.452 82.1405 113.38 80.3618 113.238 78.4409C112.705 78.761 112.776 79.2946 112.562 79.6504L112.598 79.6148C112.1 79.4013 112.384 78.9745 112.349 78.6187C112.278 78.1563 112.207 77.6582 112.1 77.1958C111.886 76.2709 111.673 75.3815 111.495 74.4566C111.317 73.6385 111.246 72.8203 111.104 72.0021C110.997 71.504 110.961 71.006 110.357 70.7214C110.108 70.6147 110.001 70.0811 109.93 69.7254C109.218 66.5238 107.831 63.6067 106.372 60.6897C105.056 58.0573 103.313 55.6739 101.463 53.3616C100.396 52.0098 99.1155 50.8359 97.6214 49.911C96.9811 49.5197 96.5542 48.8794 95.9139 48.4525C94.5977 47.5987 93.2459 46.7094 91.8585 45.9979C86.4869 43.1876 80.724 41.7647 74.7121 41.4089C68.3801 41.0176 62.1191 41.4445 55.8938 42.6184C52.7633 43.2232 49.6684 43.7212 46.538 44.326C46.1111 44.3971 45.3996 44.2548 45.5419 45.1086L45.0795 45.2153C44.866 44.4682 44.368 44.824 44.0123 44.9663C41.9134 45.6422 39.8502 46.2825 37.7869 47.0295C34.3007 48.3457 30.8145 49.7331 27.3283 51.0849C27.2216 51.1205 27.0793 51.2272 27.0082 51.1916C26.3679 50.8715 26.0121 51.3339 25.6208 51.7608C25.1939 51.3339 25.5497 51.1205 25.7631 50.907C27.0793 49.662 28.5378 48.5948 30.1742 47.8122C30.6722 47.5631 31.1347 47.243 31.8106 46.8872C31.3837 46.7449 31.1347 46.6382 30.8145 46.5315C30.9568 46.3181 31.0991 46.1046 31.2414 45.8912C31.0991 45.6066 30.9924 45.322 30.8857 45.1086C31.0991 44.8596 31.277 44.6461 31.4549 44.4327C29.605 44.326 28.2533 45.5354 26.6525 46.069C24.3402 46.8517 22.0635 47.7054 19.8579 48.7726C18.1504 49.5908 16.3362 50.1244 14.5575 50.7292C14.1306 50.8715 13.7393 51.1205 13.3124 51.2628C12.3164 51.6185 11.3559 51.9387 10.3598 52.2588C9.82622 52.4367 9.25705 52.5434 8.75902 52.828C7.51395 53.4683 6.34003 54.1798 5.09496 54.8557C5.02381 54.8913 4.98824 54.9624 4.91709 54.998C4.17005 55.2826 3.42301 55.5672 2.6404 55.8517C2.67597 54.8557 3.35186 54.0731 3.84989 53.2905C5.3084 51.0138 7.01592 48.8793 9.15033 47.1362C10.3243 46.1758 11.6405 45.4287 12.9567 44.6817C15.5535 43.2232 18.186 41.8358 20.854 40.484C22.9172 39.4524 25.0161 38.5275 27.0793 37.5314C28.0754 37.069 29.0714 36.6065 30.1742 36.1085C29.6406 35.8595 29.107 35.6105 28.3244 35.2192C27.0438 35.8239 25.5141 36.571 23.9844 37.318C23.9133 37.3536 23.8421 37.4247 23.771 37.4247C22.7394 37.4959 21.85 37.9939 20.9607 38.3852C20.7473 38.4919 20.4271 38.3496 20.0714 38.2785C20.2492 37.9939 20.356 37.7449 20.4982 37.5314C19.0753 38.065 17.7235 38.6342 16.6919 39.8081L16.7275 39.7726C15.767 39.9504 15.0555 40.6263 14.3085 41.1599C13.7037 41.5868 13.0634 41.9781 12.4231 42.3694C11.8895 42.7251 11.2847 42.9742 10.8934 43.401C9.64835 44.6817 7.65624 44.824 6.48232 46.2113C6.41117 46.2825 6.26888 46.3181 6.12659 46.3892C6.12659 46.1758 6.12659 46.0335 6.12659 45.7845C5.55741 46.0335 5.09496 46.2113 4.7748 46.8517C4.34792 47.6699 3.52972 48.0612 2.32023 48.1323C2.78268 47.5631 3.10284 47.1718 3.38743 46.7449C3.67202 46.3536 4.41907 46.1758 4.02776 45.4287C3.99218 45.3932 4.20562 45.2153 4.31234 45.1086C4.56135 44.8596 4.81038 44.575 4.95267 44.2192C4.38349 44.6461 3.84989 45.073 3.24514 45.4999C3.13842 45.2153 2.99612 44.9663 2.85383 44.6461C3.423 43.9346 4.02775 43.1876 4.66808 42.405C4.38349 42.3338 4.17005 42.2983 3.99218 42.2271C3.95661 42.1916 3.99218 41.8714 4.0989 41.7647C4.49021 41.3734 4.95266 41.0176 5.34397 40.6263C5.66413 40.3062 5.98429 40.0927 6.12659 39.5235C6.30445 38.8832 7.0515 38.3496 7.5851 37.8872C8.08313 37.4603 8.58115 37.1046 8.75902 36.4287C8.83016 36.2152 9.07918 35.9662 9.29262 35.9306C11.1069 35.5037 12.4231 34.1875 13.9527 33.227C14.6642 32.7646 15.3757 32.2666 16.0516 31.6262C15.8381 31.6618 15.5891 31.6618 15.3757 31.7685C13.7037 32.4089 11.8895 32.8002 10.5021 34.0808C10.2175 34.3298 9.89736 34.5433 9.61278 34.7923C8.40328 35.7883 7.19379 36.82 5.94872 37.816C5.73528 37.9939 5.45069 38.1006 5.1661 38.2429C4.88151 36.9978 6.09101 36.7488 6.66019 35.9306C5.98429 35.8951 5.55741 36.0373 5.23725 36.3931C4.70365 37.069 4.20563 37.7804 3.67202 38.4563C3.38744 38.8121 3.13842 39.2034 2.8894 39.5235C2.07122 39.1678 2.53368 38.8121 2.6404 38.4563C3.20957 36.82 4.34792 35.5749 5.23725 34.152C5.3084 34.0097 5.4507 33.9029 5.48627 33.7607C5.9843 31.733 7.54952 30.4879 8.97246 29.1717C9.04361 29.1361 9.07918 29.065 9.15033 29.0294C9.54163 28.7092 9.32819 27.9978 10.0041 27.8199C10.5021 27.7132 10.9646 27.4286 11.5693 27.144C11.3203 27.0373 11.178 26.9661 10.929 26.8594C11.4626 26.1479 12.3164 26.1835 12.9567 25.7922C12.3875 25.3298 12.3519 25.2942 11.8895 25.6143C10.182 26.7527 8.22542 27.5353 6.80248 29.1005C5.62856 30.3812 4.06333 30.8081 2.42695 31.3772C2.42695 31.1282 2.42695 30.8792 2.42695 30.559C1.78663 30.8436 1.25303 31.0926 0.612708 31.3772C0.505988 31.1282 0.399272 30.9148 0.328125 30.7013C0.470419 30.6302 0.577137 30.5235 0.648284 30.5235C1.85778 30.8792 2.28465 29.9187 2.85383 29.2428C2.71153 27.9622 3.77875 27.3574 4.41907 26.5748C5.13054 25.7211 5.842 24.9029 6.69576 24.227C8.33214 22.9463 10.0397 21.7724 11.7116 20.5629C12.2808 20.136 12.85 19.7447 13.348 19.14C13.0278 19.3178 12.6721 19.4246 12.3519 19.638C11.427 20.2072 10.5021 20.7764 9.57721 21.3811C8.90132 21.8436 8.26099 22.3772 7.65624 22.9108C7.12264 23.3376 6.62461 23.8001 6.12659 24.2625C4.91709 25.3653 3.7076 26.4325 2.42695 27.5709C2.35581 26.895 2.81826 26.5748 3.10285 26.1835C5.13053 23.5155 7.86968 21.7368 10.7156 20.0293C12.4942 18.9621 14.2017 17.8238 16.016 16.6854C15.8026 16.1874 15.6603 15.7605 15.4824 15.3336C16.1227 14.8356 16.7275 14.3376 17.3678 13.8751C17.8658 13.5194 18.0793 13.3415 18.2927 13.1636ZM98.6175 117.892C98.3684 118.248 98.155 118.568 97.906 118.923C98.2973 118.674 98.8309 118.532 98.6175 117.892C99.1866 118.034 99.3645 117.714 99.5424 117.074C99.1155 117.465 98.8665 117.678 98.6175 117.892ZM92.3566 15.3336C91.2894 15.4048 90.2221 15.4759 89.1905 15.5471C91.5028 15.9384 93.7795 16.1518 96.0562 16.472C97.7993 16.721 99.5068 17.1479 101.25 17.5036C102.708 17.7882 104.202 18.1084 105.625 18.4285C106.977 18.7487 108.4 18.6419 109.716 19.1756C110.606 19.5313 111.602 19.638 112.491 19.9937C113.452 20.3495 114.341 20.8475 115.266 21.2744C115.942 21.5945 116.546 22.0926 117.365 21.8791C117.578 21.808 117.863 22.0214 118.112 22.1281C118.325 22.1993 118.574 22.3416 118.752 22.306C119.357 22.1281 119.57 22.4839 119.819 22.8752C120.104 23.2665 120.424 23.6934 120.815 23.9068C122.345 24.7606 123.946 25.5788 125.511 26.397C127.61 27.4642 129.744 28.5314 131.879 29.5986C132.021 29.6697 132.199 29.7409 132.341 29.812C132.341 29.5986 132.27 29.4563 132.163 29.3851C129.424 27.393 126.685 25.3298 123.732 23.6934C119.072 21.0965 114.127 19.14 109.112 17.3613C108.649 17.1834 108.151 17.1834 107.689 17.0411C106.764 16.7566 105.839 16.472 104.95 16.0807C104.274 15.7961 103.598 15.7961 102.922 15.6538C101.285 15.2269 99.6491 14.7645 98.0127 14.3376C97.4435 14.1953 96.8388 14.0886 96.234 14.053C95.3091 13.9463 94.3842 13.9463 93.4238 13.8395C93.1036 13.804 92.7478 13.6972 92.4277 13.6617C90.1154 13.4127 87.8031 13.1636 85.4909 12.9502C84.1391 12.8079 82.8229 12.7368 81.4711 12.6656C84.0324 13.3415 86.6292 13.8751 89.1905 14.4443C90.2221 14.6577 91.2538 15.049 92.3566 15.3336ZM117.756 12.132C118.716 12.5233 119.535 12.8791 120.353 13.1636C122.274 13.804 124.124 14.6222 125.831 15.7605C126.507 16.223 127.29 16.6854 128.25 16.4008C128.428 16.3652 128.641 16.3653 128.819 16.4364C129.922 16.8277 131.06 17.1123 132.056 17.6459C133.657 18.4997 135.151 19.5313 136.717 20.4206C138.211 21.2744 139.598 22.2704 140.914 23.4088C141.555 23.9424 142.159 24.5116 142.835 25.0096C143.191 25.2942 143.618 25.472 143.974 25.7211C144.329 25.9701 144.685 26.2547 145.005 26.5392C145.041 26.4681 145.112 26.397 145.147 26.3258C143.725 25.0452 142.373 23.6934 140.914 22.4839C139.776 21.559 138.531 20.8119 137.286 19.9937C136.254 19.3178 135.223 18.6064 134.12 18.0372C132.305 17.0767 130.385 16.2585 128.57 15.298C125.76 13.8395 122.736 12.9146 119.748 11.8474C119.463 11.7407 118.93 11.7051 118.93 11.7051C118.716 12.4522 118.254 11.7763 117.756 12.132ZM106.55 106.295C107.618 105.832 108.08 104.587 109.325 104.232C108.827 104.943 108.436 105.512 108.009 106.117C108.293 106.259 108.471 106.366 108.614 106.437C108.72 106.366 108.756 106.366 108.791 106.33C109.503 105.726 110.108 104.943 111.21 105.085C111.353 105.121 111.602 104.872 111.708 104.694C111.993 104.303 112.207 103.911 112.456 103.485C111.566 103.129 111.388 104.552 110.463 104.089C111.246 102.773 112.811 102.133 113.416 100.781C113.131 100.532 112.847 100.319 112.598 100.105C110.641 101.492 107.013 105.156 106.55 106.295ZM158.63 49.5552C158.665 49.8398 158.701 50.1244 158.772 50.409C159.235 52.3655 159.733 54.2865 160.159 56.243C160.658 58.4842 161.191 60.7253 161.333 63.0376C161.476 64.923 161.831 66.8083 162.116 68.6937C162.045 62.0771 160.871 55.7094 158.63 49.5552ZM107.155 36.2152C107.013 35.9306 106.977 35.8239 106.906 35.7528C106.337 35.0057 105.483 34.8634 104.629 34.65C100.787 33.5828 96.9455 32.4444 93.1036 31.3417C92.1075 31.0571 91.1115 30.8436 90.1154 30.6302C90.0798 30.7013 90.0798 30.7725 90.0443 30.8792C95.8072 32.2666 101.428 34.0452 107.155 36.2152ZM98.0839 13.6261C96.5186 12.4522 91.8585 11.3494 90.5779 11.7763C91.7518 12.0609 92.9613 12.3455 94.1708 12.63C95.4159 12.9502 96.6609 13.2704 98.0839 13.6261ZM88.479 6.22683C88.6569 5.55093 88.4435 5.23077 87.8743 5.1952C87.3051 5.1952 86.6648 5.40864 86.1312 5.26635C85.0284 4.94619 83.9968 5.08848 82.645 5.1952C84.7794 5.55093 86.5937 5.87109 88.479 6.22683ZM66.2457 185.552C65.5698 185.588 65.4986 186.015 65.463 186.513C65.3563 187.794 65.6409 189.145 65.0006 190.39C64.9294 190.533 65.0717 190.782 65.1785 191.066C65.7476 190.035 66.2457 187.438 66.2457 185.552ZM144.649 114.975C145.752 114.263 147.531 111.844 147.673 110.884C146.642 111.702 144.863 114.085 144.649 114.975ZM79.7991 13.9107C79.7635 14.0174 79.7636 14.1241 79.728 14.1953C81.3644 14.4799 83.0007 14.8 84.6371 15.0846C84.0679 14.302 83.2142 14.3376 82.4316 14.1597C81.9335 14.053 81.3999 14.0886 80.8663 14.053C80.5462 14.053 80.1904 13.9818 79.7991 13.9107ZM67.7042 181.248C67.2061 182.208 66.7793 182.991 66.3168 183.845C67.5263 184.023 67.8109 183.454 67.7042 181.248ZM79.8347 9.49958C81.3644 9.96204 82.7517 10.1399 83.6766 9.92646C82.9296 9.42843 81.6134 9.28614 79.8347 9.49958ZM50.8068 2.74063C52.2297 3.34538 53.4036 3.06079 53.6527 2.17146C52.6566 2.34932 51.7317 2.56277 50.8068 2.74063ZM84.6371 7.08059C84.6371 6.97387 84.6727 6.86715 84.6727 6.76043C83.3209 6.51142 81.9691 6.12011 80.5462 6.44027C81.898 6.65371 83.2498 6.86715 84.6371 7.08059ZM128.677 108.821C128.606 108.785 128.499 108.714 128.428 108.678C127.752 109.994 127.041 111.346 126.365 112.662C126.436 112.698 126.507 112.734 126.614 112.769C127.29 111.453 128.001 110.137 128.677 108.821ZM86.985 9.71302C87.8031 9.99761 88.6569 10.3178 89.5462 10.2111C88.7636 9.64188 87.8743 9.6063 86.985 9.71302ZM122.345 111.275C123.128 110.564 123.305 109.817 123.305 108.998C122.985 109.71 122.131 110.137 122.345 111.275ZM76.2418 11.9186C76.2418 11.8474 76.2418 11.7763 76.2418 11.7051C75.1746 11.5984 74.1074 11.5273 73.0402 11.4205C73.0402 11.4917 73.0402 11.5628 73.0046 11.634C74.143 11.7407 75.2102 11.8474 76.2418 11.9186ZM85.1707 15.1202C86.9138 15.6182 87.0917 15.6538 87.6609 15.1558C87.2695 15.1558 86.9138 15.2269 86.5937 15.1202C86.2379 15.0135 85.9178 14.8 85.5265 14.5866C85.4197 14.7644 85.313 14.9423 85.1707 15.1202ZM111.78 9.6063C111.104 9.03713 109.93 8.75254 109.147 8.89483C110.108 9.14385 110.961 9.39286 111.78 9.6063ZM32.1663 34.2231C32.1308 34.152 32.1308 34.0808 32.0952 34.0097C31.3481 34.2587 30.6011 34.5077 29.8541 34.7923C29.8896 34.899 29.9252 34.9701 29.9608 35.0769C30.6722 34.7567 31.4193 34.5077 32.1663 34.2231ZM101.036 115.615C101.606 115.224 102.21 114.904 102.744 114.121C101.748 114.406 101.321 114.939 101.036 115.615ZM76.2418 215.505C76.3129 214.723 76.4196 213.976 76.4908 213.193C76.0283 213.94 75.9216 214.723 76.2418 215.505ZM87.981 27.3574C87.981 27.393 87.9454 27.4286 87.9454 27.4642C87.9454 27.4997 87.981 27.5353 88.0166 27.5353C88.6213 27.6064 89.2261 27.6776 89.9375 27.7843C89.2617 27.2863 88.6569 27.1084 87.981 27.3574ZM7.30051 43.2232C6.55346 43.3299 6.09102 43.7568 5.66414 44.575C6.34003 44.0414 6.83805 43.6501 7.30051 43.2232ZM114.127 10.2822C113.167 9.67745 113.167 9.67745 112.42 9.81974C113.096 9.99761 113.629 10.1399 114.127 10.2822ZM113.807 10.7802C113.772 10.8514 113.772 10.9225 113.736 10.9581C114.234 11.1004 114.697 11.2783 115.195 11.4205C115.195 11.385 115.23 11.3138 115.23 11.2783C114.768 11.1004 114.305 10.9225 113.807 10.7802ZM118.788 116.469C119.57 116.362 119.57 116.362 119.535 115.508C119.286 115.9 119.037 116.184 118.788 116.469ZM71.7951 3.77226C71.7951 3.73669 71.7951 3.66554 71.7951 3.62997C71.4394 3.62997 71.0481 3.62997 70.6923 3.62997C70.6923 3.66554 70.6923 3.73669 70.6923 3.77226C71.0836 3.77226 71.4394 3.77226 71.7951 3.77226ZM67.0638 8.21894C67.0638 8.14779 67.0283 8.04107 67.0283 7.96992C66.6014 8.0055 66.1745 8.04107 65.7476 8.07664C65.7476 8.18336 65.7476 8.25451 65.7832 8.36123C66.1745 8.32566 66.637 8.25451 67.0638 8.21894ZM109.361 107.184C109.254 107.113 109.183 107.042 109.076 106.971C108.827 107.291 108.578 107.575 108.365 107.896C108.436 107.967 108.507 108.002 108.578 108.074C108.863 107.789 109.112 107.504 109.361 107.184ZM144.009 107.931C143.938 107.86 143.902 107.825 143.831 107.753C143.653 107.967 143.476 108.145 143.298 108.358C143.333 108.394 143.369 108.429 143.404 108.465C143.618 108.287 143.796 108.109 144.009 107.931ZM104.558 112.236C104.629 112.271 104.665 112.271 104.736 112.307C104.843 112.093 104.985 111.915 105.092 111.702C105.021 111.666 104.985 111.631 104.914 111.595C104.807 111.809 104.665 112.022 104.558 112.236ZM112.135 10.5312C112.171 10.4956 112.207 10.4245 112.242 10.3889C111.957 10.3178 111.637 10.2466 111.353 10.1399C111.353 10.1755 111.353 10.2111 111.317 10.2111C111.602 10.3533 111.886 10.4245 112.135 10.5312ZM108.044 98.5754C108.116 98.611 108.187 98.6821 108.258 98.7177C108.365 98.5398 108.436 98.362 108.542 98.1841C108.507 98.1485 108.471 98.1485 108.4 98.113C108.258 98.2552 108.151 98.3975 108.044 98.5754ZM89.6885 5.94224C89.6885 5.87109 89.7241 5.79994 89.7241 5.7288C89.5818 5.69322 89.404 5.62208 89.2617 5.58651C89.2617 5.65765 89.2261 5.7288 89.2261 5.7288C89.3684 5.83552 89.5462 5.90667 89.6885 5.94224ZM110.926 105.583C110.321 105.477 110.179 105.655 110.392 106.259C110.606 106.01 110.712 105.832 110.926 105.583ZM156.851 44.7528C156.887 44.7173 156.922 44.7173 156.993 44.6817C156.922 44.5394 156.816 44.3615 156.744 44.2192C156.709 44.2548 156.673 44.2548 156.638 44.2904C156.673 44.4327 156.744 44.6105 156.851 44.7528ZM7.15821 40.0571C7.12264 39.986 7.08707 39.9504 7.01592 39.8793C6.87363 40.0216 6.69577 40.1639 6.55347 40.3062C6.58905 40.3417 6.62461 40.3773 6.66019 40.4129C6.83806 40.3062 6.98035 40.1639 7.15821 40.0571Z" fill="white"/>
<path d="M78.6625 246.098C79.1961 247.059 80.121 246.739 81.0459 246.916C80.6901 246.098 79.8008 246.596 79.4451 245.92C80.0142 245.992 80.5123 246.027 81.0103 246.098C81.0459 246.027 81.0459 245.992 81.0815 245.92C80.5123 245.671 79.9431 245.458 79.3739 245.209C79.4095 245.138 79.4095 245.102 79.4451 245.031C81.9352 245.636 84.4965 246.098 86.9511 246.845C88.8009 247.414 90.6507 248.09 92.3227 249.193C92.4649 249.264 92.6784 249.335 92.6784 249.442C92.9985 250.403 93.8879 250.794 94.5638 251.434C92.7851 251.114 91.3622 249.94 89.5479 249.513C89.4412 249.94 89.3345 250.331 89.2278 250.723C89.4056 250.865 89.5479 251.043 89.6902 251.079C90.6507 251.256 91.3622 251.861 91.9669 252.501C92.9274 253.533 94.1725 253.889 95.382 254.387C96.2713 254.743 97.1606 255.134 98.2279 255.596C98.4413 255.454 98.8326 255.134 99.2239 254.849C100.078 255.098 100.967 255.347 101.856 255.596C101.963 255.632 102.105 255.632 102.176 255.703C102.497 256.166 102.781 256.628 103.173 257.233C100.825 257.126 98.797 256.628 96.6982 256.201C96.5203 256.699 96.8405 256.877 97.1251 256.984C97.6231 257.162 98.1567 257.162 98.6547 257.339C99.7931 257.766 101.003 257.909 102.176 258.193C102.603 258.3 102.995 258.513 103.422 258.691C102.817 259.758 102.71 259.794 101.821 259.011C101.678 258.905 101.501 258.834 101.323 258.762C100.433 258.229 100.433 258.229 99.8287 259.26C100.291 260.007 101.714 258.976 101.821 260.47C101.607 260.505 101.358 260.648 101.145 260.612C100.433 260.47 99.7219 260.541 99.046 260.719C98.8326 260.79 98.5836 260.683 98.3346 260.577C98.05 260.47 97.7654 260.292 97.4808 260.15C97.4452 260.221 97.3741 260.256 97.3385 260.328C97.4452 260.47 97.552 260.719 97.6943 260.719C98.5836 260.861 98.7259 261.573 98.5836 262.177C98.4057 262.996 98.9037 263.814 98.5124 264.632C98.4413 264.774 98.5836 265.094 98.7259 265.237C99.4373 266.055 99.4018 267.122 99.6508 268.118C99.7931 268.581 99.8998 269.079 100.184 269.434C100.754 270.181 100.896 271.035 100.896 271.853C100.896 272.6 100.505 273.348 100.256 274.13C99.8642 275.304 99.4729 276.478 99.1172 277.545C99.4729 277.972 99.7219 278.328 100.007 278.648C99.7575 278.861 99.4729 279.075 99.2239 279.288C98.6903 280.391 98.797 281.601 99.4373 282.703C98.9749 283.023 98.5836 283.272 98.1923 283.557C97.4452 284.091 97.4452 284.375 98.1923 284.98C98.299 285.087 98.3701 285.193 98.6191 285.514C98.2634 285.407 98.0856 285.371 97.9788 285.3C97.6587 285.087 97.4097 285.158 97.1962 285.407C97.0895 285.549 96.9472 285.691 96.8405 285.869C96.3424 286.972 95.8444 288.075 95.3464 289.142C95.3108 289.249 95.3464 289.356 95.3464 289.498C95.7733 289.711 96.2002 289.96 96.5559 290.138C96.4492 290.636 96.2357 291.063 96.3424 291.383C96.4847 291.739 96.9116 291.952 97.2318 292.201C97.5519 292.45 98.1211 292.45 98.2279 292.984C97.801 293.375 97.4808 293.055 97.1251 292.984C96.5203 292.806 95.9867 292.699 95.4531 293.233C95.2397 293.446 94.8839 293.482 94.4926 293.66C94.7417 294.727 95.8088 294.941 96.4136 295.616C96.9828 296.257 97.7298 296.719 98.5124 297.324C97.9433 297.288 97.5875 297.288 97.2318 297.253C97.1962 297.324 97.1606 297.431 97.1251 297.502C98.1923 298.569 100.042 298.854 100.469 300.668C100.362 300.739 100.256 300.81 100.149 300.881C99.5796 301.166 99.5085 301.273 99.8642 301.771C100.149 302.162 100.54 302.518 100.256 303.087C99.5441 303.229 98.8682 303.087 98.1923 302.838C97.5875 302.624 96.9472 302.518 96.2002 302.838C96.4492 304.225 97.0539 305.648 96.3424 307.071C95.3108 306.609 94.3503 306.039 93.3187 305.719C92.2871 305.364 91.2199 305.15 90.1527 304.972C89.6902 304.901 89.1922 305.079 88.7297 305.15C88.5875 305.15 88.4451 305.186 88.3384 305.115C87.4847 304.794 87.4847 304.759 87.0934 305.613C87.0578 305.684 87.0222 305.719 86.9511 305.79C86.204 306.146 85.9906 305.541 85.706 305.008C85.2435 305.364 84.8167 305.364 84.3542 305.043C84.1052 304.866 83.785 304.866 83.5004 304.723C82.8957 304.439 82.3977 304.51 81.8641 305.008C80.7257 306.075 79.2316 306.609 77.7731 306.715C76.7771 306.787 75.8166 306.609 74.8917 307.178C74.0379 306.893 73.113 306.786 72.615 305.933C72.4727 305.684 72.3304 305.399 72.1881 305.15C71.1565 303.443 69.7691 303.371 68.6308 304.972C66.9588 305.15 65.3224 305.257 63.6861 305.47C62.7967 305.577 61.9074 305.648 61.0536 306.039C60.7335 306.182 60.1643 305.862 59.773 305.933C59.3817 306.004 59.0615 306.36 58.6702 306.466C58.1722 306.609 57.6386 306.644 57.1406 306.715C57.105 306.715 57.0694 306.751 57.0338 306.751C55.6109 306.288 54.3302 306.964 52.8006 307.32C52.9785 307.036 53.0496 306.893 53.1207 306.858C54.437 306.324 55.7176 305.613 57.105 305.292C58.7413 304.901 60.4489 304.794 62.1208 304.545C62.939 304.439 63.7216 304.296 64.5042 304.047C60.2354 303.798 56.1089 304.83 51.8401 305.47C52.4449 304.403 53.7255 304.439 54.2591 303.478C52.5871 303.158 50.8796 303.976 49.9903 305.435C49.5634 306.146 49.0298 306.822 48.9231 307.747C48.8875 308.174 48.3183 308.565 47.8559 309.134C47.678 308.103 47.5713 307.32 47.3934 306.324C47.0377 306.787 46.8598 307.036 46.6464 307.285C46.5397 307.249 46.3618 307.249 46.3618 307.178C46.2907 306.893 46.2195 306.609 46.2551 306.36C46.2906 306.004 46.4685 305.613 46.5041 305.257C46.5397 304.759 46.682 304.154 45.8282 304.119C45.6859 304.119 45.5436 303.834 45.3657 303.656C45.0456 303.798 44.761 303.941 44.263 304.154C44.3697 303.798 44.3697 303.549 44.512 303.478C44.8321 303.229 45.2234 303.016 45.5436 302.802C46.1839 302.411 46.3262 301.842 46.0416 300.988C45.4013 301.628 44.8321 302.162 44.1562 302.838C43.8361 302.375 43.5515 301.984 43.3025 301.628C42.6622 301.949 41.9863 302.269 41.3459 302.589C40.4922 301.771 40.421 301.735 39.3894 302.304C38.927 302.553 38.5001 302.838 38.002 303.158C37.6819 302.233 37.6819 301.379 37.9309 300.561C38.1443 299.743 38.4645 298.925 38.7135 298.035C37.1127 297.466 35.7965 298.747 34.2668 298.498C33.6621 297.431 35.334 297.075 35.1206 296.043C34.8716 295.972 34.6226 295.865 34.338 295.759C34.338 295.616 34.3024 295.474 34.338 295.403C34.9783 294.336 35.6542 293.304 36.9704 292.913C37.6463 292.699 38.1088 292.166 38.3934 291.632C37.9665 291.17 37.5752 291.81 37.0771 291.668C37.1839 291.454 37.255 291.241 37.4329 291.134C38.1088 290.707 38.7491 290.28 39.3538 289.711C40.2076 288.893 41.3459 288.359 42.3776 287.719C42.8756 287.399 42.9467 286.901 42.8756 286.403C42.7689 285.407 42.7333 284.446 42.9468 283.486C43.089 282.881 42.9823 282.276 42.1997 282.205C42.0218 281.387 43.3381 281.174 42.6977 280.284C42.342 280.427 41.9151 280.604 41.5238 280.747C41.6305 279.929 41.7017 279.146 41.8084 278.399C41.3815 277.936 41.0614 278.221 40.7412 278.399C40.2787 278.648 39.8519 278.79 39.4961 278.257C39.6028 277.545 40.9546 277.936 40.6345 276.905C39.425 277.012 38.5001 277.687 37.5396 278.221C37.1839 278.399 36.8993 278.399 36.6503 278.079C36.3657 277.723 36.4724 277.296 37.006 277.154C37.8953 276.905 38.0021 276.193 38.0376 275.482C38.0376 275.304 37.8953 274.948 37.7886 274.913C37.1483 274.77 37.1839 274.166 36.8281 273.597C37.6107 273.348 38.5712 273.952 39.2115 272.992C39.0692 272.885 38.8914 272.636 38.6779 272.636C38.3578 272.636 38.0376 272.707 37.9665 272.316C37.8953 271.925 38.1799 271.853 38.5001 271.747C38.9625 271.604 39.3894 270.715 39.176 270.288C38.6068 269.15 39.2827 268.438 39.9942 267.727C40.2432 267.478 40.5633 267.051 40.4922 266.838C40.2787 266.233 39.8163 266.838 39.425 266.766C39.176 266.34 39.425 266.126 39.7451 266.019C40.1009 265.877 40.5278 265.77 40.4566 265.272C40.3855 264.81 40.2432 264.312 40.0297 263.921C39.923 263.743 39.4961 263.743 39.2471 263.707C39.0337 263.672 38.7847 263.707 38.4289 263.707C38.7491 263.031 39.9586 262.996 39.4961 262C39.176 262 38.8558 261.964 38.3578 261.964C38.5712 261.395 38.7491 260.932 38.927 260.47C38.7847 260.114 38.6424 259.723 38.5001 259.332C38.1443 258.371 37.6463 258.051 36.6147 258.193C36.1167 258.264 35.5831 258.336 35.0139 258.407C34.9427 257.588 35.4052 257.411 35.9388 257.304C36.3657 257.233 36.757 257.162 37.4329 257.019C36.9704 256.592 36.7214 256.343 36.4012 256.059C35.8676 256.379 35.334 256.592 34.9072 256.948C34.0534 257.66 34.089 257.695 33.1641 256.77C34.4803 256.308 35.7253 255.845 37.0416 255.383C36.4012 254.422 35.6542 255.276 34.9783 255.027C35.0139 254.387 35.1562 253.818 35.8321 253.533C36.3657 253.32 36.508 252.893 36.7214 252.43C37.0771 251.541 37.504 250.652 37.8953 249.762C38.5356 248.339 39.8163 247.663 41.2037 247.201C42.4487 246.774 43.7649 246.596 45.0812 246.418C45.7571 246.312 46.3618 246.098 46.7531 245.565C47.2156 244.924 47.8203 244.782 48.5318 244.782C49.2433 244.782 49.9547 244.782 50.6662 244.711C51.4132 244.64 52.1603 244.462 52.8717 244.355C54.437 244.106 55.9666 243.786 57.5674 244.106C58.599 244.32 59.6663 244.248 60.6979 244.355C62.6544 244.569 64.611 244.889 66.6031 244.818C67.528 244.782 68.4885 244.64 69.4134 244.604C70.3739 244.569 71.3343 244.604 72.2948 244.604C72.4371 244.604 72.5438 244.711 72.9351 244.924C71.6901 245.031 70.694 245.138 69.698 245.244C69.698 245.316 69.698 245.422 69.698 245.494C70.6584 245.28 71.4411 246.205 72.4371 245.743C72.5438 245.707 72.7217 245.814 72.864 245.885C74.0023 246.276 75.1051 246.703 76.2435 247.059C76.6703 247.201 77.0972 247.272 77.5241 246.916C77.8799 246.347 78.3067 246.276 78.6625 246.098ZM39.6029 270.466C40.2076 270.039 40.6701 269.755 41.0258 269.434C41.3815 269.079 41.3815 268.652 41.0614 268.225C40.2788 268.652 39.923 269.363 39.6029 270.466ZM88.5163 250.403C88.5519 250.296 88.5874 250.189 88.6586 250.082C87.7693 249.727 86.8799 249.371 85.9906 249.015C85.955 249.086 85.9194 249.193 85.8839 249.264C86.7021 249.762 87.5202 250.26 88.5163 250.403ZM66.2118 303.798C67.4924 304.332 68.0972 304.332 68.7019 303.798C67.9193 303.798 67.1723 303.798 66.2118 303.798ZM84.2475 249.513C83.9273 248.802 83.9273 248.802 83.3226 248.766C83.5716 248.98 83.8206 249.158 84.2475 249.513ZM42.3776 276.549C42.1641 276.442 41.9507 276.336 41.9151 276.371C41.8084 276.478 41.7373 276.656 41.6661 276.798C41.6661 276.834 41.8796 276.976 41.9151 276.94C42.0574 276.869 42.1641 276.763 42.3776 276.549ZM98.1923 263.102C98.1211 262.711 98.1567 262.569 98.0855 262.462C97.9788 262.355 97.8365 262.32 97.6943 262.249C97.6587 262.284 97.6231 262.355 97.5875 262.391C97.7654 262.569 97.8721 262.711 98.1923 263.102Z" fill="white"/>
<path d="M110.32 162.465C110.605 162.074 110.818 161.647 111.138 161.291C111.565 160.829 112.028 160.402 112.455 159.94C114.02 158.41 114.98 156.453 116.297 154.746C116.688 154.248 117.186 153.821 117.613 153.359C117.897 153.074 118.146 152.718 118.395 152.398C118.538 152.22 118.68 151.971 118.858 151.936C119.392 151.864 119.569 151.438 119.89 151.117C120.067 150.94 120.281 150.619 120.459 150.619C121.49 150.584 122.024 149.766 122.735 149.232C124.763 147.702 126.755 146.102 128.747 144.501C129.068 144.252 129.352 144.003 129.743 144.358C130.135 144.714 129.992 145.105 129.708 145.461C129.53 145.675 129.388 145.888 129.317 145.995C129.388 146.6 129.53 147.133 129.459 147.596C129.352 148.272 129.032 148.378 128.427 148.094C128.178 147.987 127.894 147.845 127.538 147.667C127.573 148.912 126.933 149.588 126.044 150.192C124.301 151.402 122.629 152.683 120.886 153.963C120.779 154.07 120.637 154.177 120.53 154.212C118.68 155.066 117.399 156.667 115.905 157.947C114.767 158.944 113.842 160.224 112.81 161.363C112.419 161.789 111.992 162.145 111.565 162.536C111.174 162.999 110.783 162.928 110.32 162.465Z" fill="white"/>
<path d="M148.919 121.698C149.738 122.339 149.915 123.157 149.524 123.797C149.097 124.509 148.599 125.184 148.35 125.931C147.995 127.105 147.247 127.852 146.18 128.457C146.287 129.098 146.002 129.56 145.504 129.987C145.184 130.271 144.864 130.769 144.9 131.161C144.971 132.086 144.366 132.619 143.868 133.188C143.406 133.758 142.765 134.22 141.84 134.149C141.947 134.967 141.662 135.394 140.844 135.465C140.56 135.501 140.204 135.785 140.097 136.034C139.67 136.995 139.208 137.813 138.39 138.56C137.749 139.129 137.109 139.627 136.398 140.09C136.291 140.161 136.077 140.054 135.971 140.054C136.398 139.236 136.789 138.453 137.251 137.706C137.607 137.137 137.998 136.604 138.425 136.105C139.421 134.932 140.417 133.793 140.773 132.228C140.88 131.837 141.164 131.41 141.52 131.125C142.979 129.845 144.117 128.244 145.54 126.892C146.287 126.18 146.856 125.327 147.71 124.686C148.35 124.26 148.991 123.441 148.813 122.41C148.848 122.232 148.919 122.018 148.919 121.698Z" fill="white"/>
<path d="M103.386 307.925C102.852 308.423 102.354 308.886 101.785 309.419C100.433 308.743 99.0812 308.103 97.765 307.463C97.6583 306.004 96.8401 304.439 99.1168 303.763C99.7927 304.226 100.611 304.937 101.5 305.4C102.603 305.933 102.354 307.249 103.386 307.925Z" fill="white"/>
<path d="M81.2927 310.522C80.6523 310.415 79.9765 310.415 79.4073 310.166C78.3756 309.739 77.3085 310.131 76.2768 309.846C75.8144 309.704 75.3519 309.704 75.0673 309.17C74.0357 309.81 73.1819 309.063 72.2214 308.957C70.6206 308.814 69.0198 308.601 67.419 308.387C67.0277 308.316 66.3518 308.494 66.4585 307.747C67.4546 307.676 68.4507 307.534 69.4112 307.605C70.8341 307.712 72.257 307.925 73.6444 308.138C74.9606 308.316 76.2412 308.459 77.5219 308.743C78.2689 308.921 79.016 309.241 79.7274 309.561C80.2966 309.81 80.7947 310.095 81.3283 310.38C81.3638 310.415 81.3282 310.451 81.2927 310.522Z" fill="white"/>
<path d="M132.485 145.817C132.378 145.675 132.094 145.497 132.094 145.39C132.414 144.181 132.485 142.9 133.303 141.869C133.659 141.442 133.944 141.406 134.299 141.797C134.584 142.118 134.94 142.26 135.402 142.224C135.971 142.189 136.22 142.473 136.114 143.149C135.082 142.971 135.011 144.039 134.477 144.537C134.335 144.679 134.228 144.963 133.944 145.07C133.481 145.248 133.054 145.497 132.485 145.817Z" fill="white"/>
<path d="M101.784 168.975C102.069 170.185 101.358 170.789 100.753 171.43C99.7923 172.461 98.8319 173.457 98.2271 174.738C97.9425 175.378 97.6224 175.983 97.1243 176.517C96.6974 176.944 96.5196 177.655 96.3417 178.224C96.1283 178.865 95.8793 179.469 95.3457 180.11C95.1678 179.434 95.2745 179.007 95.488 178.544C96.3417 176.446 97.5512 174.56 98.7607 172.675C98.903 172.461 99.0809 172.212 99.2943 172.106C99.7212 171.821 99.9702 171.536 100.148 171.038C100.397 170.327 100.931 169.722 101.393 169.117C101.393 169.046 101.571 169.046 101.784 168.975Z" fill="white"/>
<path d="M105.377 303.549C104.879 302.696 104.203 303.443 103.563 303.336C103.563 303.016 104.025 302.696 103.563 302.304C103.385 302.162 103.456 301.593 103.598 301.308C103.847 300.846 104.203 300.454 104.808 300.383C105.412 301.308 106.266 302.233 105.377 303.549Z" fill="white"/>
<path d="M62.7969 242.826C65.9985 242.648 69.1289 242.933 72.2238 243.573C72.2238 243.644 72.2238 243.751 72.1883 243.822C69.0934 243.466 65.9273 243.146 62.7969 242.826Z" fill="white"/>
<path d="M93.6039 316C93.2481 315.893 92.8924 315.822 92.5366 315.68C92.3944 315.609 92.2165 315.466 92.1809 315.324C92.0742 314.826 91.4694 314.47 91.8607 313.83C92.4299 313.51 92.928 313.617 93.426 314.079C93.9952 314.613 93.3548 315.253 93.7817 315.751C93.7106 315.858 93.6394 315.929 93.6039 316Z" fill="white"/>
<path d="M35.6886 275.802C35.4396 277.225 34.0523 278.221 32.5938 278.186C32.9851 276.656 34.4791 276.62 35.6886 275.802Z" fill="white"/>
<path d="M116.94 262.888C116.228 262.924 115.73 262.604 115.41 262.106C115.268 261.928 115.197 261.501 115.303 261.359C115.446 261.181 115.837 261.074 116.05 261.145C116.691 261.359 117.046 262.035 116.94 262.888Z" fill="white"/>
<path d="M100.822 277.047C101.889 277.58 103.028 277.616 103.348 278.897C102.138 278.932 101.285 278.363 100.822 277.047Z" fill="white"/>
<path d="M98.723 241.509C98.225 242.292 98.225 242.292 96.6953 241.901C96.802 241.58 96.8732 241.189 97.0866 240.94C97.3712 240.584 97.6914 240.904 97.976 241.082C98.225 241.225 98.474 241.367 98.723 241.509Z" fill="white"/>
<path d="M138.816 140.481C139.35 139.876 139.67 139.485 140.061 139.058C140.31 139.236 140.524 139.414 140.773 139.627C140.346 139.983 140.026 140.268 139.67 140.517C139.563 140.588 139.314 140.517 138.816 140.481Z" fill="white"/>
<path d="M106.762 268.581C107.046 268.189 107.224 267.905 107.402 267.691C108.007 267.763 108.22 268.083 108.149 268.545C108.113 268.723 107.864 269.043 107.793 269.008C107.473 268.936 107.153 268.759 106.762 268.581Z" fill="white"/>
<path d="M105.127 165.418C105.305 164.813 105.483 164.208 105.696 163.568C106.265 163.746 106.443 164.03 106.23 164.422C106.016 164.813 105.696 165.169 105.412 165.524C105.305 165.489 105.198 165.453 105.127 165.418Z" fill="white"/>
<path d="M16.9043 39.7729C17.3311 39.6306 17.7936 39.4883 18.4339 39.2749C17.6513 40.1642 16.7975 40.4488 15.9082 40.6978C16.2639 40.3777 16.5841 40.0575 16.9398 39.7374L16.9043 39.7729Z" fill="white"/>
<path d="M154.113 102.098C154.113 101.102 154.967 100.532 155.252 99.6787C155.323 100.675 154.611 101.351 154.113 102.098Z" fill="white"/>
<path d="M78.8008 0.961062C79.6545 0.676474 80.5083 0.854344 81.3621 0.996637C82.038 1.13893 82.7494 1.21007 83.3898 1.45909C81.8957 1.28122 80.366 1.10336 78.8008 0.961062Z" fill="white"/>
<path d="M87.199 2.24237C86.2741 2.02893 85.3136 1.81549 84.3887 1.60205C85.3492 1.6732 86.3096 1.6732 87.199 2.06451C87.2346 2.06451 87.199 2.17123 87.199 2.24237Z" fill="white"/>
<path d="M34.6202 280.818C34.8336 281.672 33.8731 281.529 33.6597 282.312C33.4462 281.28 34.3356 281.28 34.6202 280.818Z" fill="white"/>
<path d="M116.334 257.695C116.654 258.015 116.797 258.335 116.405 258.62C116.299 258.691 115.907 258.62 115.872 258.513C115.658 258.086 115.943 257.873 116.334 257.695Z" fill="white"/>
<path d="M89.723 2.52725C89.2961 2.49168 88.8336 2.45611 88.4067 2.42054C88.0154 2.38497 87.5886 2.31382 87.1973 2.24267C87.2684 2.24267 87.3396 2.27824 87.4107 2.24267C88.2289 1.99366 88.9759 2.20709 89.723 2.52725Z" fill="white"/>
<path d="M108.223 161.256C108.081 161.612 107.939 161.932 107.797 162.359C107.405 161.861 107.405 161.861 108.01 161.149C108.081 161.185 108.152 161.221 108.223 161.256Z" fill="white"/>
<path d="M93.6387 249.193C93.9944 249.442 94.279 249.656 94.7059 249.976C93.7098 250.012 93.7098 250.012 93.6387 249.193Z" fill="white"/>
<path d="M123.876 282.063C123.912 282.384 123.947 282.704 123.983 283.131C123.663 283.059 123.52 283.024 123.271 282.953C123.414 282.597 123.52 282.312 123.627 282.028C123.663 282.028 123.77 282.063 123.876 282.063Z" fill="white"/>
<path d="M101.357 288.111C101.678 288.395 101.927 288.609 102.353 289C101.393 288.751 101.393 288.751 101.357 288.111Z" fill="white"/>
<path d="M18.2924 13.1632C18.0789 13.3411 17.8299 13.519 17.6165 13.6968C17.2607 13.4478 17.5097 13.2344 17.7232 13.1276C17.9011 13.0209 18.1501 13.0209 18.3635 12.9854C18.3279 13.0565 18.3279 13.1276 18.2924 13.1632Z" fill="white"/>
<path d="M38.2865 261.715C37.9307 261.822 37.6817 261.893 37.4683 261.964C37.4327 261.786 37.3971 261.68 37.4327 261.644C37.575 261.395 37.7884 261.253 38.2865 261.715Z" fill="white"/>
<path d="M99.3639 263.743C99.5418 263.956 99.6485 264.063 99.7196 264.205C99.6129 264.276 99.4706 264.383 99.3995 264.383C99.2928 264.347 99.1505 264.241 99.1149 264.098C99.0793 264.027 99.2216 263.921 99.3639 263.743Z" fill="white"/>
<path d="M131.307 143.469C131.022 143.255 130.809 143.077 130.631 142.935C130.738 142.828 130.773 142.722 130.809 142.722C131.164 142.722 131.413 142.828 131.307 143.469Z" fill="white"/>
<path d="M112.738 82.6385C112.774 82.2828 112.809 81.927 112.845 81.5713C112.916 81.5713 113.023 81.6069 113.094 81.6069C113.058 81.9626 113.023 82.3183 112.987 82.6385C112.916 82.6741 112.809 82.6741 112.738 82.6385Z" fill="white"/>
<path d="M103.456 280.427C103.385 280.64 103.314 280.854 103.207 281.067C103.207 281.103 102.852 280.996 102.852 280.961C102.887 280.747 102.958 280.498 103.029 280.285C103.172 280.356 103.314 280.391 103.456 280.427Z" fill="white"/>
<path d="M40.9891 285.62C40.8112 284.908 41.1314 284.837 41.6294 284.908C41.4515 285.086 41.2737 285.3 40.9891 285.62Z" fill="white"/>
<path d="M88.3012 236.743C88.0166 236.707 87.5542 236.849 87.6965 236.173C87.9099 236.387 88.1234 236.565 88.3012 236.743Z" fill="white"/>
<path d="M156.954 95.6937C156.954 95.5158 156.918 95.3379 156.918 95.1601C156.989 95.1601 157.06 95.1601 157.131 95.1245C157.131 95.3024 157.167 95.4802 157.167 95.6581C157.167 95.6937 157.131 95.7293 157.131 95.7648C157.096 95.7293 157.06 95.7293 156.954 95.6937Z" fill="white"/>
<path d="M134.12 16.2588C134.333 16.4011 134.582 16.5434 134.796 16.6857C134.76 16.7212 134.76 16.7924 134.725 16.828C134.511 16.6857 134.262 16.5789 134.049 16.4367C134.049 16.3655 134.084 16.3299 134.12 16.2588Z" fill="white"/>
<path d="M112.561 84.3812C112.596 84.2033 112.632 83.9899 112.703 83.812C112.703 83.812 112.845 83.8476 112.916 83.8476C112.881 84.0255 112.845 84.2389 112.774 84.4168C112.703 84.4168 112.632 84.4168 112.561 84.3812Z" fill="white"/>
<path d="M112.811 79.6506C112.917 79.8284 113.024 80.0419 113.131 80.2197C113.06 80.2553 112.953 80.2909 112.882 80.2909C112.846 80.0775 112.846 79.864 112.811 79.6506Z" fill="white"/>
<path d="M0.541431 39.3457C0.399137 39.6659 0.25685 39.9505 0.114556 40.2706C-0.170031 39.7014 0.11455 39.4524 0.541431 39.3457Z" fill="white"/>
<path d="M0.57831 39.3807C0.542737 39.025 0.720606 38.8827 1.14749 38.9538C0.934047 39.0605 0.756177 39.2028 0.57831 39.3807Z" fill="white"/>
<path d="M71.8334 306.609C71.7267 306.467 71.62 306.36 71.5488 306.253C71.5488 306.217 71.7267 306.075 71.7267 306.075C71.8334 306.146 71.9401 306.253 72.0113 306.36C72.0469 306.36 71.9401 306.467 71.8334 306.609Z" fill="white"/>
<path d="M123.59 11.0651C123.91 11.1007 124.23 11.1007 124.55 11.1363C124.515 11.243 124.515 11.3141 124.479 11.4209C124.195 11.2786 123.91 11.1363 123.59 11.0651Z" fill="white"/>
<path d="M101.677 16.6497C101.428 16.543 101.179 16.4718 100.895 16.3651C100.895 16.3295 100.895 16.3295 100.895 16.2939C101.144 16.3651 101.357 16.4007 101.57 16.4718C101.642 16.5074 101.677 16.543 101.748 16.5785C101.748 16.5785 101.713 16.6141 101.677 16.6497Z" fill="white"/>
<path d="M92.3203 15.3696C92.6405 15.2273 92.9251 15.2273 93.2452 15.6186C92.8184 15.7254 92.5338 15.6542 92.3203 15.3696Z" fill="white"/>
</svg>
