<svg width="44" height="44" viewBox="0 0 44 44" fill="none" xmlns="http://www.w3.org/2000/svg">
<g clip-path="url(#clip0_224_963)">
<path d="M39.0738 19.0381C40.3929 18.0325 41.25 16.4494 41.25 14.6665C41.25 11.6333 38.7832 9.1665 35.75 9.1665C32.7168 9.1665 30.25 11.6333 30.25 14.6665C30.25 16.4558 31.1126 18.0426 32.439 19.0482C32.2988 19.1105 32.1548 19.1637 32.0192 19.2343C31.57 19.4671 31.394 20.0208 31.6268 20.4699C31.8606 20.92 32.4152 21.0942 32.8625 20.8613C33.7388 20.4067 34.738 20.1665 35.75 20.1665C39.2874 20.1665 42.1667 23.0448 42.1667 26.5832V30.2498C42.1667 31.766 40.9328 32.9998 39.4167 32.9998H34.7783C34.2714 32.9998 33.8617 33.4105 33.8617 33.9165C33.8617 34.4225 34.2714 34.8332 34.7783 34.8332H39.4167C41.9439 34.8332 44 32.7771 44 30.2498V26.5832C44 23.2172 41.9714 20.3196 39.0738 19.0381ZM32.0833 14.6665C32.0833 12.6443 33.7278 10.9998 35.75 10.9998C37.7722 10.9998 39.4167 12.6443 39.4167 14.6665C39.4167 16.6887 37.7722 18.3332 35.75 18.3332C33.7278 18.3332 32.0833 16.6887 32.0833 14.6665Z" fill="#89368E"/>
<path d="M12.3732 20.4699C12.606 20.0208 12.43 19.4671 11.9808 19.2343C11.8452 19.1637 11.7013 19.1105 11.561 19.0482C12.8874 18.0435 13.75 16.4558 13.75 14.6665C13.75 11.6333 11.2832 9.1665 8.25 9.1665C5.21675 9.1665 2.75 11.6333 2.75 14.6665C2.75 16.4494 3.60708 18.0325 4.92617 19.0381C2.02858 20.3196 0 23.2172 0 26.5832V30.2498C0 32.7771 2.05608 34.8332 4.58333 34.8332H9.22167C9.72858 34.8332 10.1383 34.4225 10.1383 33.9165C10.1383 33.4105 9.72858 32.9998 9.22167 32.9998H4.58333C3.06717 32.9998 1.83333 31.766 1.83333 30.2498V26.5832C1.83333 23.0448 4.71258 20.1665 8.25 20.1665C9.262 20.1665 10.2612 20.4067 11.1375 20.8613C11.5839 21.0923 12.1394 20.9191 12.3732 20.4699ZM4.58333 14.6665C4.58333 12.6443 6.22783 10.9998 8.25 10.9998C10.2722 10.9998 11.9167 12.6443 11.9167 14.6665C11.9167 16.6887 10.2722 18.3332 8.25 18.3332C6.22783 18.3332 4.58333 16.6887 4.58333 14.6665Z" fill="#89368E"/>
<path d="M25.6441 18.1086C27.317 16.949 28.417 15.0185 28.417 12.8332C28.417 9.29484 25.5377 6.4165 22.0003 6.4165C18.4629 6.4165 15.5837 9.29484 15.5837 12.8332C15.5837 15.0185 16.6837 16.949 18.3566 18.1086C14.5946 19.5734 11.917 23.2263 11.917 27.4998V32.9998C11.917 35.5271 13.9731 37.5832 16.5003 37.5832H27.5003C30.0276 37.5832 32.0837 35.5271 32.0837 32.9998V27.4998C32.0837 23.2254 29.4061 19.5734 25.6441 18.1086ZM17.417 12.8332C17.417 10.3059 19.4731 8.24984 22.0003 8.24984C24.5276 8.24984 26.5837 10.3059 26.5837 12.8332C26.5837 15.3604 24.5276 17.4165 22.0003 17.4165C19.4731 17.4165 17.417 15.3604 17.417 12.8332ZM30.2503 32.9998C30.2503 34.516 29.0165 35.7498 27.5003 35.7498H16.5003C14.9842 35.7498 13.7503 34.516 13.7503 32.9998V27.4998C13.7503 22.9513 17.4509 19.2498 22.0003 19.2498C26.5497 19.2498 30.2503 22.9513 30.2503 27.4998V32.9998Z" fill="#17161A"/>
</g>
<defs>
<clipPath id="clip0_224_963">
<rect width="44" height="44" fill="white"/>
</clipPath>
</defs>
</svg>
