<svg width="28" height="25" viewBox="0 0 28 25" fill="none" xmlns="http://www.w3.org/2000/svg">
<path d="M18.5672 2.29633C18.7633 2.29633 18.9227 2.45569 18.9227 2.65179C18.9226 2.8478 18.7632 3.00629 18.5672 3.00629C16.9109 3.00631 15.4239 4.1142 14.952 5.69965C14.9003 5.87431 14.7267 5.97727 14.5506 5.94574L14.5477 5.95062L14.5106 5.9389C14.3227 5.88281 14.2153 5.68548 14.2713 5.4975C14.8206 3.65173 16.5315 2.29635 18.5672 2.29633Z" fill="#ED1847" stroke="#F9FFF9" stroke-width="0.120832"/>
<path d="M22.6937 17.093H20.9254C20.7627 17.093 20.6307 16.961 20.6307 16.7983C20.6307 16.6356 20.7627 16.5036 20.9254 16.5036H22.6937C25.1313 16.5036 27.1145 14.5203 27.1145 12.0828C27.1145 9.64524 25.1313 7.66196 22.6937 7.66196H22.6512C22.5657 7.66196 22.4845 7.62491 22.4285 7.56029C22.3725 7.49566 22.3472 7.40997 22.3594 7.32535C22.3857 7.14178 22.399 6.95737 22.399 6.77781C22.399 4.66529 20.6801 2.94641 18.5676 2.94641C17.7458 2.94641 16.962 3.20324 16.301 3.68931C16.1557 3.79604 15.9494 3.74868 15.8654 3.58889C13.9933 0.0240452 9.10358 -0.454677 6.56851 2.64643C5.50058 3.95288 5.08098 5.65236 5.41721 7.30873C5.45426 7.49167 5.31427 7.66219 5.12838 7.66219H5.01028C2.57275 7.66219 0.589471 9.64547 0.589471 12.083C0.589471 14.5205 2.57275 16.5038 5.01028 16.5038H6.77859C6.94131 16.5038 7.07331 16.6358 7.07331 16.7985C7.07331 16.9613 6.94132 17.0933 6.77859 17.0933H5.01028C2.24767 17.0933 0 14.8456 0 12.083C0 9.39787 2.12324 7.19924 4.77893 7.07798C4.52947 5.35953 5.00649 3.62614 6.11211 2.2734C8.82627 -1.04705 14.0278 -0.674869 16.2266 3.02767C16.928 2.5879 17.7307 2.3572 18.5675 2.3572C21.1269 2.3572 23.1551 4.53562 22.9776 7.08073C25.6088 7.2283 27.7039 9.41533 27.7039 12.0828C27.7039 14.8456 25.4562 17.0931 22.6936 17.0931L22.6937 17.093Z" fill="#ED1847"/>
<path d="M13.8133 9.20325C17.9094 9.20327 21.242 12.5358 21.242 16.632C21.242 20.728 17.9094 24.0606 13.8133 24.0607C9.71719 24.0607 6.38461 20.7281 6.38458 16.632C6.38458 12.5358 9.71712 9.20325 13.8133 9.20325ZM13.8133 9.91418C10.109 9.91418 7.09552 12.9277 7.09552 16.632C7.09555 20.3362 10.1091 23.3497 13.8133 23.3497C17.5175 23.3497 20.531 20.3362 20.5311 16.632C20.5311 12.9277 17.5175 9.91421 13.8133 9.91418Z" fill="#ED1847" stroke="#F9FFF9" stroke-width="0.120832"/>
<path d="M13.9453 13.7117C14.0977 13.7117 14.2216 13.8356 14.2216 13.988V19.5984C14.2214 19.7509 14.0976 19.8738 13.9453 19.8738C13.7929 19.8738 13.6691 19.7507 13.6689 19.5984V13.988C13.6689 13.8355 13.7927 13.7117 13.9453 13.7117Z" fill="#ED1847" stroke="#ED1847" stroke-width="0.120832"/>
<path d="M13.7939 13.7581C13.9011 13.6872 14.0471 13.6988 14.1415 13.7932L15.8671 15.5198C15.9749 15.6277 15.975 15.8026 15.8671 15.9104L15.8661 15.9094C15.8122 15.9633 15.7421 15.9905 15.6718 15.9905C15.6014 15.9904 15.5303 15.9641 15.4765 15.9104L13.9453 14.3782L12.415 15.9104L12.414 15.9094C12.3063 16.0171 12.1322 16.018 12.0244 15.9104C11.9165 15.8026 11.9167 15.6277 12.0244 15.5198L13.7509 13.7932L13.7939 13.7581Z" fill="#ED1847" stroke="#ED1847" stroke-width="0.120832"/>
</svg>
