<svg width="77" height="160" viewBox="0 0 77 160" fill="none" xmlns="http://www.w3.org/2000/svg">
<path d="M45.7695 158.671C46.1913 158.937 46.1913 159.468 45.7695 159.734C45.3477 160 44.7149 160 44.2931 159.734C43.8712 159.468 43.8712 158.937 44.2931 158.671C44.7149 158.405 45.3477 158.405 45.7695 158.671Z" fill="white"/>
<path d="M49.566 155.747C49.9878 156.013 49.9878 156.545 49.566 156.81C49.1442 157.076 48.5114 157.076 48.0896 156.81C47.6677 156.545 47.6677 156.013 48.0896 155.747C48.5114 155.482 49.1442 155.482 49.566 155.747Z" fill="white"/>
<path d="M53.3625 153.089C53.7844 153.355 53.7844 153.887 53.3625 154.153C52.9407 154.418 52.3079 154.418 51.8861 154.153C51.4642 153.887 51.4642 153.355 51.8861 153.089C52.3079 152.824 52.9407 152.824 53.3625 153.089Z" fill="white"/>
<path d="M56.5263 151.495C57.1087 151.495 57.5809 151.138 57.5809 150.697C57.5809 150.257 57.1087 149.9 56.5263 149.9C55.9438 149.9 55.4717 150.257 55.4717 150.697C55.4717 151.138 55.9438 151.495 56.5263 151.495Z" fill="white"/>
<path d="M61.1666 147.508C61.5884 147.774 61.5884 148.306 61.1666 148.571C60.7447 148.837 60.112 148.837 59.6902 148.571C59.2683 148.306 59.2683 147.774 59.6902 147.508C60.112 147.242 60.7447 147.242 61.1666 147.508Z" fill="white"/>
<path d="M64.9631 144.585C65.3849 144.85 65.3849 145.382 64.9631 145.648C64.5413 145.913 63.9085 145.913 63.4867 145.648C63.0648 145.382 63.0648 144.85 63.4867 144.585C63.9085 144.319 64.5413 144.319 64.9631 144.585Z" fill="white"/>
<path d="M68.7596 141.927C69.1815 142.193 69.1815 142.724 68.7596 142.99C68.3378 143.256 67.705 143.256 67.2832 142.99C66.8613 142.724 66.8613 142.193 67.2832 141.927C67.705 141.661 68.5487 141.661 68.7596 141.927Z" fill="white"/>
<path d="M72.767 139.003C73.1889 139.269 73.1889 139.801 72.767 140.066C72.3452 140.332 71.7125 140.332 71.2906 140.066C70.8688 139.801 70.8688 139.269 71.2906 139.003C71.7125 138.738 72.3452 138.738 72.767 139.003Z" fill="white"/>
<path d="M76.5637 136.345C76.9855 136.611 76.9855 137.143 76.5637 137.409C76.1418 137.674 75.5091 137.674 75.0873 137.409C74.6654 137.143 74.6654 136.611 75.0873 136.345C75.5091 136.08 76.1418 136.08 76.5637 136.345Z" fill="white"/>
<path d="M37.3327 160C37.9151 160 38.3873 159.643 38.3873 159.203C38.3873 158.762 37.9151 158.405 37.3327 158.405C36.7502 158.405 36.2781 158.762 36.2781 159.203C36.2781 159.643 36.7502 160 37.3327 160Z" fill="white"/>
<path d="M41.9729 155.747C42.3947 156.013 42.3947 156.545 41.9729 156.81C41.551 157.076 40.9183 157.076 40.4964 156.81C40.0746 156.545 40.0746 156.013 40.4964 155.747C40.7074 155.482 41.551 155.482 41.9729 155.747Z" fill="white"/>
<path d="M45.7695 153.089C46.1913 153.355 46.1913 153.887 45.7695 154.153C45.3477 154.418 44.7149 154.418 44.2931 154.153C43.8712 153.887 43.8712 153.355 44.2931 153.089C44.7149 152.824 45.3477 152.824 45.7695 153.089Z" fill="white"/>
<path d="M49.566 150.166C49.9878 150.432 49.9878 150.963 49.566 151.229C49.1442 151.495 48.5114 151.495 48.0896 151.229C47.6677 150.963 47.6677 150.432 48.0896 150.166C48.5114 149.9 49.1442 149.9 49.566 150.166Z" fill="white"/>
<path d="M53.3625 147.508C53.7844 147.774 53.7844 148.306 53.3625 148.571C52.9407 148.837 52.3079 148.837 51.8861 148.571C51.4642 148.306 51.4642 147.774 51.8861 147.508C52.3079 147.242 52.9407 147.242 53.3625 147.508Z" fill="white"/>
<path d="M57.37 144.585C57.7918 144.85 57.7918 145.382 57.37 145.648C56.9481 145.913 56.3154 145.913 55.8935 145.648C55.4717 145.382 55.4717 144.85 55.8935 144.585C56.3154 144.319 56.9481 144.319 57.37 144.585Z" fill="white"/>
<path d="M61.1666 141.927C61.5884 142.193 61.5884 142.724 61.1666 142.99C60.7447 143.256 60.112 143.256 59.6902 142.99C59.2683 142.724 59.2683 142.193 59.6902 141.927C60.112 141.661 60.7447 141.661 61.1666 141.927Z" fill="white"/>
<path d="M64.9631 139.003C65.3849 139.269 65.3849 139.801 64.9631 140.066C64.5413 140.332 63.9085 140.332 63.4867 140.066C63.0648 139.801 63.0648 139.269 63.4867 139.003C63.9085 138.738 64.5413 138.738 64.9631 139.003Z" fill="white"/>
<path d="M68.7596 136.345C69.1815 136.611 69.1815 137.143 68.7596 137.409C68.3378 137.674 67.705 137.674 67.2832 137.409C66.8613 137.143 66.8613 136.611 67.2832 136.345C67.705 136.08 68.5487 136.08 68.7596 136.345Z" fill="white"/>
<path d="M72.767 133.422C73.1889 133.688 73.1889 134.219 72.767 134.485C72.3452 134.751 71.7125 134.751 71.2906 134.485C70.8688 134.219 70.8688 133.688 71.2906 133.422C71.7125 133.156 72.3452 133.156 72.767 133.422Z" fill="white"/>
<path d="M76.5637 130.764C76.9855 131.03 76.9855 131.561 76.5637 131.827C76.1418 132.093 75.5091 132.093 75.0873 131.827C74.6654 131.561 74.6654 131.03 75.0873 130.764C75.5091 130.232 76.1418 130.232 76.5637 130.764Z" fill="white"/>
<path d="M34.1689 155.747C34.5907 156.013 34.5907 156.545 34.1689 156.81C33.7471 157.076 33.1143 157.076 32.6925 156.81C32.2706 156.545 32.2706 156.013 32.6925 155.747C33.1143 155.482 33.7471 155.482 34.1689 155.747Z" fill="white"/>
<path d="M37.9654 153.089C38.3873 153.355 38.3873 153.887 37.9654 154.153C37.5436 154.418 36.9108 154.418 36.489 154.153C36.0671 153.887 36.0671 153.355 36.489 153.089C36.9108 152.824 37.5436 152.824 37.9654 153.089Z" fill="white"/>
<path d="M41.9729 150.166C42.3947 150.432 42.3947 150.963 41.9729 151.229C41.551 151.495 40.9183 151.495 40.4964 151.229C40.0746 150.963 40.0746 150.432 40.4964 150.166C40.7074 149.9 41.551 149.9 41.9729 150.166Z" fill="white"/>
<path d="M45.7695 147.508C46.1913 147.774 46.1913 148.306 45.7695 148.571C45.3477 148.837 44.7149 148.837 44.2931 148.571C43.8712 148.306 43.8712 147.774 44.2931 147.508C44.7149 147.242 45.3477 147.242 45.7695 147.508Z" fill="white"/>
<path d="M48.9333 145.913C49.5157 145.913 49.9879 145.556 49.9879 145.116C49.9879 144.676 49.5157 144.319 48.9333 144.319C48.3508 144.319 47.8787 144.676 47.8787 145.116C47.8787 145.556 48.3508 145.913 48.9333 145.913Z" fill="white"/>
<path d="M53.3625 141.927C53.7844 142.193 53.7844 142.724 53.3625 142.99C52.9407 143.256 52.3079 143.256 51.8861 142.99C51.4642 142.724 51.4642 142.193 51.8861 141.927C52.3079 141.661 52.9407 141.661 53.3625 141.927Z" fill="white"/>
<path d="M57.37 139.003C57.7918 139.269 57.7918 139.801 57.37 140.066C56.9481 140.332 56.3154 140.332 55.8935 140.066C55.4717 139.801 55.4717 139.269 55.8935 139.003C56.3154 138.738 56.9481 138.738 57.37 139.003Z" fill="white"/>
<path d="M61.1666 136.345C61.5884 136.611 61.5884 137.143 61.1666 137.409C60.7447 137.674 60.112 137.674 59.6902 137.409C59.2683 137.143 59.2683 136.611 59.6902 136.345C60.112 136.08 60.7447 136.08 61.1666 136.345Z" fill="white"/>
<path d="M64.9631 133.422C65.3849 133.688 65.3849 134.219 64.9631 134.485C64.5413 134.751 63.9085 134.751 63.4867 134.485C63.0648 134.219 63.0648 133.688 63.4867 133.422C63.9085 133.156 64.5413 133.156 64.9631 133.422Z" fill="white"/>
<path d="M68.7596 130.764C69.1815 131.03 69.1815 131.561 68.7596 131.827C68.3378 132.093 67.705 132.093 67.2832 131.827C66.8613 131.561 66.8613 131.03 67.2832 130.764C67.705 130.232 68.5487 130.232 68.7596 130.764Z" fill="white"/>
<path d="M72.767 127.84C73.1889 128.106 73.1889 128.638 72.767 128.903C72.3452 129.169 71.7125 129.169 71.2906 128.903C70.8688 128.638 70.8688 128.106 71.2906 127.84C71.7125 127.575 72.3452 127.575 72.767 127.84Z" fill="white"/>
<path d="M76.5637 124.917C76.9855 125.183 76.9855 125.714 76.5637 125.98C76.1418 126.246 75.5091 126.246 75.0873 125.98C74.6654 125.714 74.6654 125.183 75.0873 124.917C75.5091 124.651 76.1418 124.651 76.5637 124.917Z" fill="white"/>
<path d="M30.3724 153.089C30.7942 153.355 30.7942 153.887 30.3724 154.153C29.9506 154.418 29.3178 154.418 28.896 154.153C28.4741 153.887 28.4741 153.355 28.896 153.089C29.3178 152.824 29.9506 152.824 30.3724 153.089Z" fill="white"/>
<path d="M33.3252 151.495C33.9077 151.495 34.3798 151.138 34.3798 150.697C34.3798 150.257 33.9077 149.9 33.3252 149.9C32.7428 149.9 32.2706 150.257 32.2706 150.697C32.2706 151.138 32.7428 151.495 33.3252 151.495Z" fill="white"/>
<path d="M37.9654 147.508C38.3873 147.774 38.3873 148.306 37.9654 148.571C37.5436 148.837 36.9108 148.837 36.489 148.571C36.0671 148.306 36.0671 147.774 36.489 147.508C36.9108 147.242 37.5436 147.242 37.9654 147.508Z" fill="white"/>
<path d="M41.9729 144.585C42.3947 144.85 42.3947 145.382 41.9729 145.648C41.551 145.913 40.9183 145.913 40.4964 145.648C40.0746 145.382 40.0746 144.85 40.4964 144.585C40.7074 144.319 41.551 144.319 41.9729 144.585Z" fill="white"/>
<path d="M45.7695 141.927C46.1913 142.193 46.1913 142.724 45.7695 142.99C45.3477 143.256 44.7149 143.256 44.2931 142.99C43.8712 142.724 43.8712 142.193 44.2931 141.927C44.7149 141.661 45.3477 141.661 45.7695 141.927Z" fill="white"/>
<path d="M49.566 139.003C49.9878 139.269 49.9878 139.801 49.566 140.066C49.1442 140.332 48.5114 140.332 48.0896 140.066C47.6677 139.801 47.6677 139.269 48.0896 139.003C48.5114 138.738 49.1442 138.738 49.566 139.003Z" fill="white"/>
<path d="M53.3625 136.345C53.7844 136.611 53.7844 137.143 53.3625 137.409C52.9407 137.674 52.3079 137.674 51.8861 137.409C51.4642 137.143 51.4642 136.611 51.8861 136.345C52.3079 136.08 52.9407 136.08 53.3625 136.345Z" fill="white"/>
<path d="M57.37 133.422C57.7918 133.688 57.7918 134.219 57.37 134.485C56.9481 134.751 56.3154 134.751 55.8935 134.485C55.4717 134.219 55.4717 133.688 55.8935 133.422C56.3154 133.156 56.9481 133.156 57.37 133.422Z" fill="white"/>
<path d="M61.1666 130.764C61.5884 131.03 61.5884 131.561 61.1666 131.827C60.7447 132.093 60.112 132.093 59.6902 131.827C59.2683 131.561 59.2683 131.03 59.6902 130.764C60.112 130.232 60.7447 130.232 61.1666 130.764Z" fill="white"/>
<path d="M64.9631 127.84C65.3849 128.106 65.3849 128.638 64.9631 128.903C64.5413 129.169 63.9085 129.169 63.4867 128.903C63.0648 128.638 63.0648 128.106 63.4867 127.84C63.9085 127.575 64.5413 127.575 64.9631 127.84Z" fill="white"/>
<path d="M68.7596 124.917C69.1815 125.183 69.1815 125.714 68.7596 125.98C68.3378 126.246 67.705 126.246 67.2832 125.98C66.8613 125.714 66.8613 125.183 67.2832 124.917C67.705 124.651 68.5487 124.651 68.7596 124.917Z" fill="white"/>
<path d="M72.767 122.259C73.1889 122.525 73.1889 123.056 72.767 123.322C72.3452 123.588 71.7125 123.588 71.2906 123.322C70.8688 123.056 70.8688 122.525 71.2906 122.259C71.7125 121.993 72.3452 121.993 72.767 122.259Z" fill="white"/>
<path d="M76.5637 119.335C76.9855 119.601 76.9855 120.133 76.5637 120.399C76.1418 120.664 75.5091 120.664 75.0873 120.399C74.6654 120.133 74.6654 119.601 75.0873 119.335C75.5091 119.07 76.1418 119.07 76.5637 119.335Z" fill="white"/>
<path d="M26.3649 150.166C26.7868 150.432 26.7868 150.963 26.3649 151.229C25.9431 151.495 25.3104 151.495 24.8885 151.229C24.4667 150.963 24.4667 150.432 24.8885 150.166C25.3104 149.9 25.9431 149.9 26.3649 150.166Z" fill="white"/>
<path d="M30.3724 147.508C30.7942 147.774 30.7942 148.306 30.3724 148.571C29.9506 148.837 29.3178 148.837 28.896 148.571C28.4741 148.306 28.4741 147.774 28.896 147.508C29.1069 147.242 29.9506 147.242 30.3724 147.508Z" fill="white"/>
<path d="M34.1689 144.585C34.5907 144.85 34.5907 145.382 34.1689 145.648C33.7471 145.913 33.1143 145.913 32.6925 145.648C32.2706 145.382 32.2706 144.85 32.6925 144.585C33.1143 144.319 33.7471 144.319 34.1689 144.585Z" fill="white"/>
<path d="M72.767 116.678C73.1889 116.943 73.1889 117.475 72.767 117.741C72.3452 118.007 71.7125 118.007 71.2906 117.741C70.8688 117.475 70.8688 116.943 71.2906 116.678C71.5015 116.412 72.3452 116.412 72.767 116.678Z" fill="white"/>
<path d="M22.5683 147.508C22.9902 147.774 22.9902 148.306 22.5683 148.571C22.1465 148.837 21.5137 148.837 21.0919 148.571C20.6701 148.306 20.6701 147.774 21.0919 147.508C21.5137 147.242 22.1465 147.242 22.5683 147.508Z" fill="white"/>
<path d="M26.3649 144.585C26.7868 144.85 26.7868 145.382 26.3649 145.648C25.9431 145.913 25.3104 145.913 24.8885 145.648C24.4667 145.382 24.4667 144.85 24.8885 144.585C25.3104 144.319 25.9431 144.319 26.3649 144.585Z" fill="white"/>
<path d="M30.3724 141.927C30.7942 142.193 30.7942 142.724 30.3724 142.99C29.9506 143.256 29.3178 143.256 28.896 142.99C28.4741 142.724 28.4741 142.193 28.896 141.927C29.1069 141.661 29.9506 141.661 30.3724 141.927Z" fill="white"/>
<path d="M18.7718 144.585C19.1937 144.85 19.1937 145.382 18.7718 145.648C18.35 145.913 17.7172 145.913 17.2954 145.648C16.8735 145.382 16.8735 144.85 17.2954 144.585C17.7172 144.319 18.35 144.319 18.7718 144.585Z" fill="white"/>
<path d="M22.5683 141.927C22.9902 142.193 22.9902 142.724 22.5683 142.99C22.1465 143.256 21.5137 143.256 21.0919 142.99C20.6701 142.724 20.6701 142.193 21.0919 141.927C21.5137 141.661 22.1465 141.661 22.5683 141.927Z" fill="white"/>
<path d="M26.3649 139.003C26.7868 139.269 26.7868 139.801 26.3649 140.066C25.9431 140.332 25.3104 140.332 24.8885 140.066C24.4667 139.801 24.4667 139.269 24.8885 139.003C25.3104 138.738 25.9431 138.738 26.3649 139.003Z" fill="white"/>
<path d="M14.7644 141.927C15.1862 142.193 15.1862 142.724 14.7644 142.99C14.3425 143.256 13.7098 143.256 13.2879 142.99C12.8661 142.724 12.8661 142.193 13.2879 141.927C13.7098 141.661 14.5534 141.661 14.7644 141.927Z" fill="white"/>
<path d="M17.9281 140.332C18.5106 140.332 18.9827 139.975 18.9827 139.535C18.9827 139.094 18.5106 138.737 17.9281 138.737C17.3457 138.737 16.8735 139.094 16.8735 139.535C16.8735 139.975 17.3457 140.332 17.9281 140.332Z" fill="white"/>
<path d="M22.5683 136.345C22.9902 136.611 22.9902 137.143 22.5683 137.408C22.1465 137.674 21.5137 137.674 21.0919 137.408C20.6701 137.143 20.6701 136.611 21.0919 136.345C21.5137 135.814 22.1465 135.814 22.5683 136.345Z" fill="white"/>
<path d="M10.9679 139.003C11.3897 139.269 11.3897 139.801 10.9679 140.066C10.546 140.332 9.91327 140.332 9.49143 140.066C9.06959 139.801 9.06959 139.269 9.49143 139.003C9.91327 138.738 10.546 138.738 10.9679 139.003Z" fill="white"/>
<path d="M14.7644 136.345C15.1862 136.611 15.1862 137.143 14.7644 137.408C14.3425 137.674 13.7098 137.674 13.2879 137.408C12.8661 137.143 12.8661 136.611 13.2879 136.345C13.7098 135.814 14.5534 135.814 14.7644 136.345Z" fill="white"/>
<path d="M18.7718 133.422C19.1937 133.688 19.1937 134.219 18.7718 134.485C18.35 134.751 17.7172 134.751 17.2954 134.485C16.8735 134.219 16.8735 133.688 17.2954 133.422C17.7172 133.156 18.35 133.156 18.7718 133.422Z" fill="white"/>
<path d="M7.17124 136.345C7.59308 136.611 7.59308 137.143 7.17124 137.408C6.7494 137.674 6.11663 137.674 5.6948 137.408C5.27296 137.143 5.27296 136.611 5.6948 136.345C6.11663 135.814 6.7494 135.814 7.17124 136.345Z" fill="white"/>
<path d="M10.9679 133.422C11.3897 133.688 11.3897 134.219 10.9679 134.485C10.546 134.751 9.91327 134.751 9.49143 134.485C9.06959 134.219 9.06959 133.688 9.49143 133.422C9.91327 133.156 10.546 133.156 10.9679 133.422Z" fill="white"/>
<path d="M14.1316 131.827C14.7141 131.827 15.1862 131.47 15.1862 131.03C15.1862 130.59 14.7141 130.233 14.1316 130.233C13.5492 130.233 13.077 130.59 13.077 131.03C13.077 131.47 13.5492 131.827 14.1316 131.827Z" fill="white"/>
<path d="M7.17124 130.498C7.59308 130.764 7.59308 131.295 7.17124 131.561C6.7494 131.827 6.11663 131.827 5.6948 131.561C5.27296 131.295 5.27296 130.764 5.6948 130.498C6.11663 130.232 6.7494 130.232 7.17124 130.498Z" fill="white"/>
<path d="M10.9679 127.84C11.3897 128.106 11.3897 128.638 10.9679 128.903C10.546 129.169 9.91327 129.169 9.49143 128.903C9.06959 128.638 9.06959 128.106 9.49143 127.84C9.91327 127.575 10.546 127.575 10.9679 127.84Z" fill="white"/>
<path d="M6.32754 126.246C6.90998 126.246 7.38214 125.889 7.38214 125.448C7.38214 125.008 6.90998 124.651 6.32754 124.651C5.74511 124.651 5.27295 125.008 5.27295 125.448C5.27295 125.889 5.74511 126.246 6.32754 126.246Z" fill="white"/>
<path d="M3.37471 133.422C3.79655 133.688 3.79655 134.219 3.37471 134.485C2.95288 134.751 2.32013 134.751 1.89829 134.485C1.47645 134.219 1.47645 133.688 1.89829 133.422C2.32013 133.156 2.95288 133.156 3.37471 133.422Z" fill="white"/>
<path d="M3.37471 127.84C3.79655 128.106 3.79655 128.638 3.37471 128.903C2.95288 129.169 2.32013 129.169 1.89829 128.903C1.47645 128.638 1.47645 128.106 1.89829 127.84C2.32013 127.575 2.95288 127.575 3.37471 127.84Z" fill="white"/>
<path d="M3.37471 122.259C3.79655 122.525 3.79655 123.056 3.37471 123.322C2.95288 123.588 2.32013 123.588 1.89829 123.322C1.47645 123.056 1.47645 122.525 1.89829 122.259C2.32013 121.993 2.95288 121.993 3.37471 122.259Z" fill="white"/>
<path d="M10.335 123.588C10.9174 123.588 11.3896 123.231 11.3896 122.79C11.3896 122.35 10.9174 121.993 10.335 121.993C9.75255 121.993 9.2804 122.35 9.2804 122.79C9.2804 123.231 9.75255 123.588 10.335 123.588Z" fill="white"/>
<path d="M48.0895 130.498L49.1441 140.598L69.3923 125.449L70.0251 124.917C73.1889 122.259 74.8762 117.475 74.8762 110.033C74.8762 103.92 73.8216 98.339 71.9234 93.0234C70.0251 87.7078 66.8613 82.9237 62.6429 78.1396L40.4964 87.7078L21.9355 100.731L42.1838 115.615L48.0895 130.498Z" fill="#89368E"/>
<path d="M48.5113 142.193L47.2458 130.764L41.551 116.412L20.2482 100.997L40.0746 87.1761L62.8538 77.3422L63.2757 77.6079C67.494 82.392 70.8687 87.4418 72.767 92.7575C74.6653 98.0731 75.7199 103.92 75.7199 110.033C75.7199 117.475 74.2434 122.525 71.0797 125.448L70.0251 126.246L48.5113 142.193ZM23.412 100.997L42.8165 115.083L48.7222 130.498L49.5659 139.003L69.3923 124.12C72.3452 121.728 73.8216 116.944 73.8216 110.033C73.8216 104.186 72.9779 98.6046 71.0797 93.5548C69.1814 88.5049 66.4394 83.9867 62.432 79.4684L40.7073 89.0365L23.412 100.997Z" fill="white"/>
<path d="M34.8017 48.1062H13.077V77.8737H34.8017V48.1062Z" fill="white"/>
<path d="M39.231 84.7842H13.077V117.741H39.231V84.7842Z" fill="white"/>
<path d="M45.7694 18.6046L21.9355 1.32886L0.843628 17.0099L21.9355 39.3355L44.2929 75.4817L48.3004 92.2259L54.628 87.4418L64.3302 80.2657L68.5486 77.0764C68.7596 76.8106 68.9705 76.8106 69.1814 76.5448C69.6032 76.279 69.8141 75.7475 70.236 75.4817C72.1343 72.8239 73.1888 68.8372 73.1888 63.2558C73.1888 54.7508 70.8687 46.7774 66.4394 39.6013C62.0101 32.4252 55.0498 25.2491 45.7694 18.6046Z" fill="#89368E"/>
<path d="M47.8786 93.8206L43.6602 76.0133L21.3028 39.6013L0 17.2757V16.2126L21.9356 0L46.1913 17.8073C55.4717 24.7176 62.6429 31.8937 67.2832 39.3355C71.9234 46.7774 74.2435 55.0166 74.2435 63.7874C74.2435 69.6346 73.1889 73.8871 71.0797 76.5449C70.8688 76.8106 70.6579 77.0764 70.4469 77.3422L69.8142 77.8738C69.6033 78.1395 69.1814 78.4053 68.9705 78.4053L47.8786 93.8206ZM2.10919 17.01L22.3574 38.2724L45.1367 75.216L48.7223 90.897L68.1269 76.5449C68.3378 76.2791 68.5487 76.2791 68.7596 76.0133C69.1814 75.7475 69.3924 75.4817 69.8142 74.9502C71.7125 72.5581 72.5561 68.8372 72.5561 63.5216C72.5561 55.2824 70.236 47.5748 66.0177 40.3987C61.5884 33.2226 54.628 26.3123 45.5585 19.402L21.9356 2.39203L2.10919 17.01Z" fill="white"/>
<path d="M19.1936 109.236L36.6999 96.4783L41.9729 119.335L30.5832 127.309L14.9752 116.412L19.1936 109.236Z" fill="#89368E"/>
<path d="M30.5832 128.638L13.7097 116.678L18.9827 108.438L37.3326 94.8835L43.0275 119.867L30.5832 128.638ZM16.0298 116.146L30.5832 126.246L41.1292 118.804L36.278 97.8071L19.8264 110.033L16.0298 116.146Z" fill="white"/>
<path d="M19.1936 68.5716L35.0125 56.6115L43.8711 77.0766L28.4741 88.2394L17.9281 74.9503L19.1936 68.5716Z" fill="#89368E"/>
<path d="M28.2632 89.5682L16.8735 75.216L18.35 68.0399L35.0126 55.2825L44.7148 77.3423L28.2632 89.5682ZM18.7718 74.6845L28.4741 87.1762L42.8166 76.8107L34.5907 58.2061L19.8264 69.3688L18.7718 74.6845Z" fill="white"/>
<path d="M35.0126 61.1295L25.0994 68.5714C25.0994 68.5714 29.3177 72.2923 34.3798 72.0265C39.4419 71.7607 39.6528 65.382 39.6528 65.382L35.0126 61.1295Z" fill="#17161A"/>
<path d="M37.3326 100.199L25.7321 109.236C25.7321 109.236 32.4815 115.88 37.5435 112.425C42.6056 108.704 37.3326 100.199 37.3326 100.199Z" fill="#17161A"/>
<path d="M0.843728 16.7443L24.6776 34.02C33.958 40.9303 40.9183 47.8406 45.3476 55.2825C49.7769 62.7243 52.097 70.432 52.097 78.9369C52.097 84.5183 51.0425 88.5051 49.1442 91.1629C47.2459 93.8207 44.504 94.3522 41.3402 93.0233V93.8207C45.5585 98.6047 48.7223 103.655 50.6206 108.704C52.5189 114.02 53.5735 119.601 53.5735 125.714C53.5735 134.751 51.2534 140.332 46.6131 141.927C41.9729 143.787 35.6454 141.661 27.4195 135.814L0.632812 116.412V16.7443H0.843728ZM19.1937 68.5715L24.6776 72.5582C27.4195 74.4187 29.3178 75.216 30.7942 74.6845C32.2707 74.1529 32.9034 72.2924 32.9034 69.1031C32.9034 63.5217 29.9505 58.4718 24.2557 54.4851L18.9828 50.7642V68.5715H19.1937ZM19.1937 88.2393V109.236L25.7322 114.02C31.427 118.273 34.3799 116.678 34.3799 109.768C34.3799 106.578 33.5362 103.389 32.0597 100.465C30.5833 97.5416 28.2632 95.1496 25.3103 93.0233L19.1937 88.2393Z" fill="#89368E"/>
<path d="M45.3476 61.3952C45.5585 61.661 45.7694 62.1926 45.9803 62.4584L66.0176 47.3089C61.5883 40.3986 54.8389 33.4883 45.7694 26.8437L21.9355 9.56799L2.32007 24.1859L24.6775 40.3986C33.9579 47.0431 40.9183 54.2192 45.3476 61.3952Z" fill="#17161A"/>
<path d="M43.0275 143.787C38.5982 143.787 33.3252 141.395 26.9976 136.877L0 117.209V16.2127L0.843679 15.6812L25.0994 33.4885C34.3798 40.3988 41.5511 47.5748 46.1913 55.0167C50.8315 62.4586 53.1516 70.6978 53.1516 79.4685C53.1516 85.3157 52.097 89.5682 49.9878 92.226C48.3004 94.3522 46.1913 95.4154 43.4493 94.8838C47.0349 99.1363 49.7769 103.92 51.4642 108.439C53.3625 113.754 54.4171 119.601 54.4171 125.714C54.4171 135.282 51.8861 141.13 46.824 142.99C45.5585 143.522 44.293 143.787 43.0275 143.787ZM1.47643 116.146L27.8413 135.282C35.6453 140.864 41.9729 142.99 46.4022 141.395C50.8315 139.801 52.9407 134.751 52.9407 125.98C52.9407 120.133 52.097 114.552 50.1987 109.502C48.3005 104.452 45.3476 99.4021 41.1292 94.8838L40.9183 94.618V92.226L41.9729 92.4918C44.9258 93.5549 47.2459 93.0233 48.9332 90.8971C50.8315 88.5051 51.6752 84.7841 51.6752 79.4685C51.6752 71.2293 49.3551 63.5217 45.1367 56.3456C40.7074 49.1695 33.747 42.2592 24.6775 35.3489L1.89827 18.8705V116.146H1.47643ZM31.0051 117.475C29.5287 117.475 27.6304 116.678 25.3103 115.083L18.3499 110.033V86.6446L25.7321 91.9602C28.685 94.0865 31.216 96.7443 32.6924 99.9336C34.3798 103.123 35.2235 106.312 35.2235 109.768C35.2235 113.488 34.3798 115.88 33.1143 116.944C32.4815 117.209 31.8488 117.475 31.0051 117.475ZM20.0373 108.704L26.154 113.223C28.8959 115.349 31.0051 115.88 32.2706 115.083C33.1143 114.286 33.747 112.691 33.747 109.768C33.747 106.578 33.1143 103.655 31.6379 100.997C30.1614 98.339 28.0522 95.6812 25.0994 93.8207L20.0373 90.0998V108.704ZM29.9505 76.0134C28.4741 76.0134 26.5758 75.216 24.4666 73.6213L18.5609 69.3689V49.1695L24.8885 53.6878C31.0051 58.2061 33.958 63.2559 33.958 69.3689C33.958 73.0898 33.1143 75.216 31.216 75.7476C30.7942 75.7476 30.3723 76.0134 29.9505 76.0134ZM20.0373 68.0399L25.3103 71.7609C27.8413 73.6213 29.7396 74.1529 30.7942 73.8871C31.216 73.6214 32.4815 73.3556 32.4815 69.3689C32.4815 64.0532 29.7396 59.535 24.2557 55.5483L20.2482 52.6247V68.0399H20.0373Z" fill="white"/>
<path d="M47.8786 102.591L69.1814 87.1759L64.5412 80.2656L49.566 90.8969L44.9257 93.8205L41.551 94.0862L47.8786 102.591Z" fill="white"/>
<path d="M52.7298 116.944L73.8217 100.731L74.6653 110.033L73.8217 119.07L69.8142 125.714L50.1987 139.801C50.1987 139.801 53.1516 133.954 53.1516 133.422C53.1516 132.89 53.9953 123.322 53.9953 123.322L52.7298 116.944Z" fill="white"/>
</svg>
