<svg width="110" height="160" viewBox="0 0 110 160" fill="none" xmlns="http://www.w3.org/2000/svg">
<path d="M7.2138 131.212C7.75825 131.484 7.75825 132.029 7.2138 132.301C6.66935 132.573 5.85269 132.573 5.30824 132.301C4.76379 132.029 4.76379 131.484 5.30824 131.212C5.85269 130.94 6.66935 130.94 7.2138 131.212Z" fill="white"/>
<path d="M11.8417 128.49C12.3862 128.762 12.3862 129.307 11.8417 129.579C11.2973 129.851 10.4806 129.851 9.93617 129.579C9.39172 129.307 9.39172 128.762 9.93617 128.49C10.7528 128.218 11.5695 128.218 11.8417 128.49Z" fill="white"/>
<path d="M2.3139 128.49C2.85835 128.762 2.85835 129.307 2.3139 129.579C1.76945 129.851 0.952786 129.851 0.408337 129.579C-0.136112 129.307 -0.136112 128.762 0.408337 128.49C0.952786 128.218 1.76945 128.218 2.3139 128.49Z" fill="white"/>
<path d="M7.2138 125.496C7.75825 125.768 7.75825 126.312 7.2138 126.584C6.66935 126.857 5.85269 126.857 5.30824 126.584C4.76379 126.312 4.76379 125.768 5.30824 125.496C5.85269 125.223 6.66935 125.223 7.2138 125.496Z" fill="white"/>
<path d="M2.3139 122.773C2.85835 123.046 2.85835 123.59 2.3139 123.862C1.76945 124.135 0.952786 124.135 0.408337 123.862C-0.136112 123.59 -0.136112 123.046 0.408337 122.773C0.952786 122.501 1.76945 122.501 2.3139 122.773Z" fill="white"/>
<path d="M65.4702 158.707C66.0146 158.979 66.0146 159.524 65.4702 159.796C64.9257 160.068 64.109 160.068 63.5646 159.796C63.0201 159.524 63.0201 158.979 63.5646 158.707C64.109 158.435 64.9257 158.435 65.4702 158.707Z" fill="white"/>
<path d="M70.3701 155.985C70.9145 156.257 70.9145 156.801 70.3701 157.073C69.8256 157.346 69.0089 157.346 68.4645 157.073C67.92 156.801 67.92 156.257 68.4645 155.985C69.0089 155.712 69.8256 155.712 70.3701 155.985Z" fill="white"/>
<path d="M75.27 153.262C75.8144 153.535 75.8144 154.079 75.27 154.351C74.7255 154.624 73.9088 154.624 73.3644 154.351C72.8199 154.079 72.8199 153.535 73.3644 153.262C73.9088 152.99 74.7255 152.99 75.27 153.262Z" fill="white"/>
<path d="M80.1701 150.268C80.7146 150.54 80.7146 151.085 80.1701 151.357C79.6257 151.629 78.809 151.629 78.2645 151.357C77.7201 151.085 77.7201 150.54 78.2645 150.268C78.809 149.996 79.6257 149.996 80.1701 150.268Z" fill="white"/>
<path d="M84.798 147.546C85.3425 147.818 85.3425 148.362 84.798 148.635C84.2536 148.907 83.4369 148.907 82.8925 148.635C82.348 148.362 82.348 147.818 82.8925 147.546C83.7091 147.273 84.5258 147.273 84.798 147.546Z" fill="white"/>
<path d="M89.698 144.823C90.2424 145.096 90.2424 145.64 89.698 145.912C89.1535 146.185 88.3368 146.185 87.7924 145.912C87.2479 145.64 87.2479 145.096 87.7924 144.823C88.3368 144.551 89.1535 144.551 89.698 144.823Z" fill="white"/>
<path d="M94.5981 142.101C95.1425 142.374 95.1425 142.918 94.5981 143.19C94.0536 143.462 93.237 143.462 92.6925 143.19C92.1481 142.918 92.1481 142.374 92.6925 142.101C93.237 141.557 94.0536 141.557 94.5981 142.101Z" fill="white"/>
<path d="M99.498 139.107C100.042 139.379 100.042 139.924 99.498 140.196C98.9535 140.468 98.1369 140.468 97.5924 140.196C97.048 139.924 97.048 139.379 97.5924 139.107C98.1369 138.835 98.9535 138.835 99.498 139.107Z" fill="white"/>
<path d="M55.9421 158.707C56.4865 158.979 56.4865 159.524 55.9421 159.796C55.3976 160.068 54.581 160.068 54.0365 159.796C53.4921 159.524 53.4921 158.979 54.0365 158.707C54.581 158.435 55.3976 158.435 55.9421 158.707Z" fill="white"/>
<path d="M60.57 155.985C61.1145 156.257 61.1145 156.801 60.57 157.073C60.0256 157.346 59.2089 157.346 58.6644 157.073C58.12 156.801 58.12 156.257 58.6644 155.985C59.2089 155.712 60.2978 155.712 60.57 155.985Z" fill="white"/>
<path d="M65.4702 153.262C66.0146 153.535 66.0146 154.079 65.4702 154.351C64.9257 154.624 64.109 154.624 63.5646 154.351C63.0201 154.079 63.0201 153.535 63.5646 153.262C64.109 152.99 64.9257 152.99 65.4702 153.262Z" fill="white"/>
<path d="M70.3701 150.268C70.9145 150.54 70.9145 151.085 70.3701 151.357C69.8256 151.629 69.0089 151.629 68.4645 151.357C67.92 151.085 67.92 150.54 68.4645 150.268C69.0089 149.996 69.8256 149.996 70.3701 150.268Z" fill="white"/>
<path d="M75.27 147.546C75.8144 147.818 75.8144 148.362 75.27 148.635C74.7255 148.907 73.9088 148.907 73.3644 148.635C72.8199 148.362 72.8199 147.818 73.3644 147.546C73.9088 147.273 74.7255 147.273 75.27 147.546Z" fill="white"/>
<path d="M80.1701 144.823C80.7146 145.096 80.7146 145.64 80.1701 145.912C79.6257 146.185 78.809 146.185 78.2645 145.912C77.7201 145.64 77.7201 145.096 78.2645 144.823C78.809 144.551 79.6257 144.551 80.1701 144.823Z" fill="white"/>
<path d="M84.798 142.101C85.3425 142.374 85.3425 142.918 84.798 143.19C84.2536 143.462 83.4369 143.462 82.8925 143.19C82.348 142.918 82.348 142.374 82.8925 142.101C83.7091 141.557 84.5258 141.557 84.798 142.101Z" fill="white"/>
<path d="M89.698 139.107C90.2424 139.379 90.2424 139.924 89.698 140.196C89.1535 140.468 88.3368 140.468 87.7924 140.196C87.2479 139.924 87.2479 139.379 87.7924 139.107C88.3368 138.835 89.1535 138.835 89.698 139.107Z" fill="white"/>
<path d="M94.5981 136.385C95.1425 136.657 95.1425 137.201 94.5981 137.473C94.0536 137.746 93.237 137.746 92.6925 137.473C92.1481 137.201 92.1481 136.657 92.6925 136.385C93.237 136.112 94.0536 136.112 94.5981 136.385Z" fill="white"/>
<path d="M51.0422 155.985C51.5866 156.257 51.5866 156.801 51.0422 157.073C50.4977 157.346 49.6811 157.346 49.1366 157.073C48.5922 156.801 48.5922 156.257 49.1366 155.985C49.6811 155.712 50.4977 155.712 51.0422 155.985Z" fill="white"/>
<path d="M55.9421 153.262C56.4865 153.535 56.4865 154.079 55.9421 154.351C55.3976 154.624 54.581 154.624 54.0365 154.351C53.4921 154.079 53.4921 153.535 54.0365 153.262C54.581 152.99 55.3976 152.99 55.9421 153.262Z" fill="white"/>
<path d="M60.57 150.268C61.1145 150.54 61.1145 151.085 60.57 151.357C60.0256 151.629 59.2089 151.629 58.6644 151.357C58.12 151.085 58.12 150.54 58.6644 150.268C59.2089 149.996 60.2978 149.996 60.57 150.268Z" fill="white"/>
<path d="M65.4702 147.546C66.0146 147.818 66.0146 148.362 65.4702 148.635C64.9257 148.907 64.109 148.907 63.5646 148.635C63.0201 148.362 63.0201 147.818 63.5646 147.546C64.109 147.273 64.9257 147.273 65.4702 147.546Z" fill="white"/>
<path d="M70.3701 144.823C70.9145 145.096 70.9145 145.64 70.3701 145.912C69.8256 146.185 69.0089 146.185 68.4645 145.912C67.92 145.64 67.92 145.096 68.4645 144.823C69.0089 144.551 69.8256 144.551 70.3701 144.823Z" fill="white"/>
<path d="M75.27 142.101C75.8144 142.374 75.8144 142.918 75.27 143.19C74.7255 143.462 73.9088 143.462 73.3644 143.19C72.8199 142.918 72.8199 142.374 73.3644 142.101C73.9088 141.557 74.7255 141.557 75.27 142.101Z" fill="white"/>
<path d="M80.1701 139.107C80.7146 139.379 80.7146 139.924 80.1701 140.196C79.6257 140.468 78.809 140.468 78.2645 140.196C77.7201 139.924 77.7201 139.379 78.2645 139.107C78.809 138.835 79.6257 138.835 80.1701 139.107Z" fill="white"/>
<path d="M84.798 136.385C85.3425 136.657 85.3425 137.201 84.798 137.473C84.2536 137.746 83.4369 137.746 82.8925 137.473C82.348 137.201 82.348 136.657 82.8925 136.385C83.7091 136.112 84.5258 136.112 84.798 136.385Z" fill="white"/>
<path d="M89.698 133.662C90.2424 133.935 90.2424 134.479 89.698 134.751C89.1535 135.023 88.3368 135.023 87.7924 134.751C87.2479 134.479 87.2479 133.935 87.7924 133.662C88.3368 133.39 89.1535 133.39 89.698 133.662Z" fill="white"/>
<path d="M46.1421 153.262C46.6865 153.535 46.6865 154.079 46.1421 154.351C45.5976 154.624 44.7809 154.624 44.2365 154.351C43.692 154.079 43.692 153.535 44.2365 153.262C44.7809 152.99 45.5976 152.99 46.1421 153.262Z" fill="white"/>
<path d="M51.0422 150.268C51.5866 150.54 51.5866 151.085 51.0422 151.357C50.4977 151.629 49.6811 151.629 49.1366 151.357C48.5922 151.085 48.5922 150.54 49.1366 150.268C49.6811 149.996 50.4977 149.996 51.0422 150.268Z" fill="white"/>
<path d="M55.9421 147.546C56.4865 147.818 56.4865 148.362 55.9421 148.635C55.3976 148.907 54.581 148.907 54.0365 148.635C53.4921 148.362 53.4921 147.818 54.0365 147.546C54.581 147.273 55.3976 147.273 55.9421 147.546Z" fill="white"/>
<path d="M41.2419 150.268C41.7863 150.54 41.7863 151.085 41.2419 151.357C40.6974 151.629 39.8808 151.629 39.3363 151.357C38.7919 151.085 38.7919 150.54 39.3363 150.268C39.8808 149.996 40.6974 149.996 41.2419 150.268Z" fill="white"/>
<path d="M46.1421 147.546C46.6865 147.818 46.6865 148.362 46.1421 148.635C45.5976 148.907 44.7809 148.907 44.2365 148.635C43.692 148.362 43.692 147.818 44.2365 147.546C44.7809 147.273 45.5976 147.273 46.1421 147.546Z" fill="white"/>
<path d="M36.342 147.546C36.8864 147.818 36.8864 148.362 36.342 148.635C35.7975 148.907 34.9809 148.907 34.4364 148.635C33.892 148.362 33.892 147.818 34.4364 147.546C34.9809 147.273 35.7975 147.273 36.342 147.546Z" fill="white"/>
<path d="M41.2419 144.823C41.7863 145.096 41.7863 145.64 41.2419 145.912C40.6974 146.185 39.8808 146.185 39.3363 145.912C38.7919 145.64 38.7919 145.096 39.3363 144.823C39.8808 144.551 40.6974 144.551 41.2419 144.823Z" fill="white"/>
<path d="M31.714 144.823C32.2585 145.096 32.2585 145.64 31.714 145.912C31.1696 146.185 30.3529 146.185 29.8085 145.912C29.264 145.64 29.264 145.096 29.8085 144.823C30.3529 144.551 31.1696 144.551 31.714 144.823Z" fill="white"/>
<path d="M36.342 142.101C36.8864 142.374 36.8864 142.918 36.342 143.19C35.7975 143.462 34.9809 143.462 34.4364 143.19C33.892 142.918 33.892 142.374 34.4364 142.101C34.9809 141.557 35.7975 141.557 36.342 142.101Z" fill="white"/>
<path d="M26.8141 141.829C27.3586 142.101 27.3586 142.646 26.8141 142.918C26.2697 143.19 25.453 143.19 24.9086 142.918C24.3641 142.646 24.3641 142.101 24.9086 141.829C25.453 141.557 26.2697 141.557 26.8141 141.829Z" fill="white"/>
<path d="M31.4421 139.107C31.9865 139.379 31.9865 139.924 31.4421 140.196C30.8976 140.468 30.081 140.468 29.5365 140.196C28.9921 139.924 28.9921 139.379 29.5365 139.107C30.081 138.835 30.8976 138.835 31.4421 139.107Z" fill="white"/>
<path d="M21.914 139.107C22.4584 139.379 22.4584 139.924 21.914 140.196C21.3695 140.468 20.5529 140.468 20.0084 140.196C19.464 139.924 19.464 139.379 20.0084 139.107C20.5529 138.835 21.3695 138.835 21.914 139.107Z" fill="white"/>
<path d="M26.8141 136.385C27.3586 136.657 27.3586 137.201 26.8141 137.473C26.2697 137.746 25.453 137.746 24.9086 137.473C24.3641 137.201 24.3641 136.657 24.9086 136.385C25.453 136.112 26.2697 136.112 26.8141 136.385Z" fill="white"/>
<path d="M17.0141 136.385C17.5585 136.657 17.5585 137.201 17.0141 137.473C16.4696 137.746 15.653 137.746 15.1085 137.473C14.5641 137.201 14.5641 136.657 15.1085 136.385C15.653 136.112 16.4696 136.112 17.0141 136.385Z" fill="white"/>
<path d="M21.914 133.662C22.4584 133.935 22.4584 134.479 21.914 134.751C21.3695 135.024 20.5529 135.024 20.0084 134.751C19.464 134.479 19.464 133.935 20.0084 133.662C20.5529 133.118 21.3695 133.118 21.914 133.662Z" fill="white"/>
<path d="M12.114 133.662C12.6584 133.935 12.6584 134.479 12.114 134.751C11.5695 135.024 10.7528 135.024 10.2084 134.751C9.66394 134.479 9.66394 133.935 10.2084 133.662C10.7528 133.118 11.5695 133.118 12.114 133.662Z" fill="white"/>
<path d="M17.0141 130.668C17.5585 130.94 17.5585 131.485 17.0141 131.757C16.4696 132.029 15.653 132.029 15.1085 131.757C14.5641 131.485 14.5641 130.94 15.1085 130.668C15.653 130.396 16.4696 130.396 17.0141 130.668Z" fill="white"/>
<path d="M102.493 136.385C103.037 136.112 103.854 136.112 104.398 136.385C104.943 136.657 104.943 137.201 104.398 137.473C103.854 137.746 103.037 137.746 102.493 137.473C101.948 137.201 101.948 136.657 102.493 136.385Z" fill="white"/>
<path d="M109.298 133.662C109.842 133.935 109.842 134.479 109.298 134.751C108.754 135.023 107.937 135.023 107.392 134.751C106.848 134.479 106.848 133.935 107.392 133.662C107.937 133.39 108.754 133.39 109.298 133.662Z" fill="white"/>
<path d="M97.5924 133.662C98.1369 133.39 98.9535 133.39 99.498 133.662C100.042 133.935 100.042 134.479 99.498 134.751C98.9535 135.023 98.1369 135.023 97.5924 134.751C97.048 134.479 97.048 133.935 97.5924 133.662Z" fill="white"/>
<path d="M104.398 130.94C104.943 131.212 104.943 131.757 104.398 132.029C103.854 132.301 103.037 132.301 102.493 132.029C101.948 131.757 101.948 131.212 102.493 130.94C103.037 130.396 103.854 130.396 104.398 130.94Z" fill="white"/>
<path d="M109.298 127.946C109.842 128.218 109.842 128.762 109.298 129.035C108.754 129.307 107.937 129.307 107.392 129.035C106.848 128.762 106.848 128.218 107.392 127.946C107.937 127.673 108.754 127.673 109.298 127.946Z" fill="white"/>
<path d="M92.6925 130.94C93.237 130.668 94.0536 130.668 94.5981 130.94C95.1425 131.212 95.1425 131.757 94.5981 132.029C94.0536 132.301 93.237 132.301 92.6925 132.029C92.1481 131.485 92.1481 131.212 92.6925 130.94Z" fill="white"/>
<path d="M99.498 127.946C100.042 128.218 100.042 128.762 99.498 129.035C98.9535 129.307 98.1369 129.307 97.5924 129.035C97.048 128.762 97.048 128.218 97.5924 127.946C98.1369 127.673 98.9535 127.673 99.498 127.946Z" fill="white"/>
<path d="M104.398 125.223C104.943 125.496 104.943 126.04 104.398 126.312C103.854 126.585 103.037 126.585 102.493 126.312C101.948 126.04 101.948 125.496 102.493 125.223C103.037 124.951 103.854 124.951 104.398 125.223Z" fill="white"/>
<path d="M93.5092 50.3616C85.8869 37.5671 74.7257 26.9503 60.57 18.7836L29.8086 1.08899L2.58618 17.1502C2.58618 17.1502 22.4586 34.3004 23.003 34.5726C23.2753 34.5726 25.9975 36.7504 29.8086 39.4727L53.7644 56.895L63.2922 99.3621L64.6534 122.773L65.47 141.557L92.6925 125.496C100.859 120.868 104.943 110.251 104.943 93.1009C105.215 77.5841 101.131 63.1562 93.5092 50.3616Z" fill="#89368E"/>
<path d="M64.6534 143.735L63.8367 123.318L62.4756 99.9064L52.9478 57.7116L29.2642 40.5615C25.453 37.8392 22.4586 35.9336 22.4586 35.6614C21.9141 35.3892 6.66955 22.0502 2.04173 17.9668L1.76953 17.6946V16.6057L30.0809 0L61.1145 17.9668C75.5424 26.1336 86.7036 37.0225 94.3259 49.8171C102.22 62.8839 106.032 77.3118 106.032 93.373C106.032 110.795 101.676 121.957 93.237 126.584L64.6534 143.735ZM4.49178 17.4224C12.3863 24.228 23.2752 33.4836 23.8197 34.0281C23.8197 34.0281 26.8142 36.2059 30.6253 38.9281L54.8533 56.6227L64.6534 99.6342L66.0145 123.318L66.559 140.468L92.4203 125.223C100.315 120.868 104.126 110.251 104.126 93.6453C104.126 78.1285 100.315 63.7005 92.6925 51.1782C85.0702 38.6559 74.1813 28.0391 60.0256 19.8724L29.8087 2.45001L4.49178 17.4224Z" fill="white"/>
<path d="M18.6475 47.0947L20.0086 117.329L45.0532 131.212L61.1145 123.59L64.9256 96.3674C64.9256 96.3674 49.9533 61.5226 49.681 60.9782C49.4088 60.4337 22.1864 42.4669 22.1864 42.4669L18.6475 47.0947Z" fill="white"/>
<path d="M26.5421 110.523L61.1146 89.0173L64.6535 108.618L40.1533 127.129L23.8198 116.24L26.5421 110.523Z" fill="#89368E"/>
<path d="M40.1533 128.49L22.4587 116.784L25.4532 109.979L61.3869 87.6561L65.4702 109.434L40.1533 128.49ZM25.181 115.967L40.1533 126.04L63.5647 108.345L60.298 90.9228L27.3588 111.34L25.181 115.967Z" fill="white"/>
<path d="M36.342 109.706C36.342 109.706 44.781 115.968 51.5866 115.151C58.3923 114.334 59.4811 98.0008 59.4811 98.0008L56.4866 97.1841L36.342 109.706Z" fill="#17161A"/>
<path d="M77.7201 109.434C77.7201 126.585 73.6368 137.201 65.47 141.829C57.3033 146.457 45.8699 144.279 31.1698 135.84L2.58618 119.234V17.1503L33.3475 34.8449C47.5032 43.0116 58.3922 53.6284 66.2867 66.4229C73.909 79.2175 77.7201 93.6454 77.7201 109.434ZM52.9477 96.0954C52.9477 86.8397 51.3144 78.9452 48.0477 72.4119C44.781 66.1507 39.8809 60.9784 33.3475 57.1673L26.2697 53.0839V110.251L31.7142 113.246C39.0643 117.329 44.2365 118.146 47.7754 115.151C51.3144 112.701 52.9477 106.168 52.9477 96.0954Z" fill="#89368E"/>
<path d="M77.448 100.451L104.67 84.934L105.215 103.445L100.587 117.329L95.1426 124.951L70.0979 139.107L75.2702 130.123L77.7202 114.606L77.448 100.451Z" fill="white"/>
<path d="M55.9422 59.6171L83.1646 43.5558C76.9035 36.7502 69.5534 31.0335 60.8422 26.1334L30.0809 8.43884L2.8584 24.5001L33.6198 42.1947C42.331 47.0947 49.681 52.8114 55.9422 59.6171Z" fill="#17161A"/>
<path d="M68.4646 79.2172L95.9593 63.4281C95.1426 61.7948 94.3259 60.1614 93.237 58.5281C91.3314 55.5336 89.4259 52.5391 86.9759 49.5447L59.7534 65.6059C61.9312 68.3282 64.109 71.3227 66.0146 74.5893C66.8312 76.2227 67.6479 77.5838 68.4646 79.2172Z" fill="#17161A"/>
<path d="M55.9422 145.368C48.8644 145.368 40.4254 142.646 30.8976 136.929L1.49731 120.051V16.6057L2.58624 16.0613L33.6198 34.0281C48.0477 42.1948 59.2089 53.0838 66.8312 65.8784C74.7257 78.9452 78.5369 93.3731 78.5369 109.434C78.5369 126.857 74.1813 138.018 65.7423 142.646C63.0201 144.551 59.7534 145.368 55.9422 145.368ZM3.67512 118.69L31.7143 135.023C46.1422 143.19 57.3034 145.368 64.9257 141.012C72.5479 136.657 76.6313 126.04 76.6313 109.434C76.6313 93.9175 72.8202 79.4896 65.1979 66.9673C57.5756 54.4449 46.6866 43.8282 32.5309 35.6614L3.67512 19.0558V118.69ZM42.8754 118.418C39.6087 118.418 35.7976 117.057 31.442 114.607L25.7253 111.34V51.4505L34.1643 56.3505C40.9699 60.1617 45.8699 65.6062 49.1366 71.8673C52.4033 78.4007 54.0367 86.5674 54.0367 95.8231C54.0367 106.168 52.1311 112.973 48.5922 115.968C46.9588 117.601 45.0532 118.418 42.8754 118.418ZM27.6309 109.979L32.5309 112.701C39.3366 116.512 44.2366 117.329 47.2311 114.607C50.4977 111.884 51.8589 105.623 51.8589 96.0953C51.8589 86.8397 50.2255 79.2174 47.2311 72.9562C44.2366 66.695 39.3365 61.795 33.0754 58.2561L27.6309 54.9894V109.979Z" fill="white"/>
</svg>
