<svg width="91" height="48" viewBox="0 0 91 48" fill="none" xmlns="http://www.w3.org/2000/svg">
<path d="M42.595 14.6539C42.3734 14.2008 41.922 13.9196 41.4168 13.9196C41.2167 13.9196 41.0219 13.9647 40.8392 14.0533C40.1907 14.3726 39.9217 15.1603 40.2394 15.8099C40.461 16.2621 40.9132 16.5434 41.4184 16.5434C41.6201 16.5434 41.8141 16.4983 41.9952 16.4097C42.3109 16.2546 42.546 15.9871 42.6591 15.6556C42.7723 15.324 42.7493 14.968 42.595 14.6539Z" fill="url(#paint0_radial_272_454)"/>
<path d="M38.4613 9.61041C38.2064 9.43838 37.9082 9.34767 37.6006 9.34767C37.0864 9.34767 36.6081 9.60181 36.3211 10.0269C36.0907 10.3679 36.007 10.7779 36.0852 11.1835C36.165 11.5883 36.3959 11.9376 36.7376 12.1672C36.9933 12.34 37.2915 12.4307 37.5983 12.4307C38.1126 12.4307 38.5909 12.1766 38.8779 11.7515C39.3528 11.0469 39.1659 10.0861 38.4613 9.61041Z" fill="url(#paint1_radial_272_454)"/>
<path d="M32.2441 6.34621H32.2433C32.2006 6.34386 32.1589 6.3423 32.1161 6.3423C31.1963 6.3423 30.4237 7.06171 30.3569 7.97922C30.3223 8.44893 30.4729 8.90482 30.7823 9.26244C31.0909 9.6185 31.5203 9.83354 31.9915 9.8682C32.0343 9.87055 32.077 9.87211 32.1187 9.87211C33.0394 9.87211 33.8119 9.1527 33.8779 8.23441C33.9118 7.7647 33.7603 7.30959 33.4517 6.95275C33.1431 6.59513 32.7138 6.38009 32.2444 6.34621H32.2441Z" fill="url(#paint2_radial_272_454)"/>
<path d="M25.7864 4.72388C25.7382 4.72049 25.6884 4.71893 25.6394 4.71893C24.589 4.71893 23.7061 5.54104 23.6298 6.5907C23.5914 7.1287 23.7643 7.64949 24.1164 8.0556C24.4685 8.46248 24.9586 8.70828 25.4966 8.74738C25.5456 8.75077 25.5946 8.75233 25.6436 8.75233C26.694 8.75233 27.5769 7.93022 27.6533 6.88055C27.6924 6.34412 27.5195 5.82411 27.1666 5.41644C26.8137 5.00877 26.3236 4.76298 25.7864 4.72388Z" fill="url(#paint3_radial_272_454)"/>
<path d="M19.198 5.99197C18.8724 5.99197 18.5594 6.06417 18.2672 6.20779C17.2201 6.72181 16.7856 7.99147 17.2996 9.03879C17.6575 9.76863 18.3858 10.2222 19.2006 10.2222C19.5246 10.2222 19.8376 10.15 20.1306 10.0063C21.1777 9.49233 21.6122 8.22267 21.0982 7.17535C20.7403 6.44551 20.012 5.99197 19.1983 5.99197H19.198Z" fill="url(#paint4_radial_272_454)"/>
<path d="M12.4004 13.4934C12.7575 13.7351 13.1735 13.8623 13.6028 13.8623C14.322 13.8623 14.9906 13.5078 15.3917 12.9122C15.7131 12.4346 15.8301 11.8609 15.7207 11.2961C15.6101 10.7315 15.2872 10.2422 14.8097 9.92085C14.4526 9.67923 14.0366 9.55203 13.6073 9.55203C12.8881 9.55203 12.2195 9.90652 11.8184 10.5021C11.497 10.9781 11.3807 11.5518 11.4905 12.1182C11.601 12.6838 11.9237 13.172 12.4004 13.4934Z" fill="url(#paint5_radial_272_454)"/>
<path d="M8.35835 19.4917C8.7363 19.7458 9.17551 19.8803 9.62983 19.8803C10.3896 19.8803 11.0963 19.505 11.5206 18.8763C11.8603 18.3729 11.9841 17.7659 11.8686 17.1682C11.7516 16.571 11.4101 16.0546 10.906 15.715C10.5291 15.4601 10.0889 15.3256 9.63453 15.3256C8.87471 15.3256 8.16807 15.7009 7.74372 16.3296C7.04203 17.3702 7.3178 18.7887 8.35835 19.4919V19.4917Z" fill="url(#paint6_radial_272_454)"/>
<path d="M8.54617 26.7546C9.75614 26.7546 10.7717 25.8087 10.859 24.6013C10.903 23.9825 10.7044 23.3838 10.2994 22.9164C9.89403 22.4473 9.33023 22.165 8.71247 22.1201C7.42535 22.0187 6.32172 23.0038 6.23023 24.2677C6.13796 25.5433 7.10135 26.6561 8.37701 26.7481C8.43435 26.7523 8.49039 26.7546 8.54617 26.7546Z" fill="url(#paint7_radial_272_454)"/>
<path d="M11.9539 31.7092C12.1457 31.1485 12.1074 30.5474 11.8468 30.016C11.4714 29.2512 10.7082 28.776 9.85457 28.776C9.51415 28.776 9.18598 28.8524 8.87971 29.0028C8.34823 29.2634 7.95047 29.7162 7.75863 30.2758C7.56678 30.8373 7.6051 31.4384 7.86654 31.9691C8.24188 32.7346 9.00431 33.2098 9.85796 33.2098C10.1968 33.2098 10.5247 33.1334 10.8328 32.983C11.3651 32.7224 11.7628 32.2696 11.9539 31.7092Z" fill="url(#paint8_radial_272_454)"/>
<path d="M13.7985 34.317C13.2788 34.317 12.7754 34.5055 12.3834 34.8477C11.9491 35.2265 11.6882 35.7512 11.6484 36.3259C11.6085 36.8996 11.7954 37.4554 12.1741 37.8896C12.5844 38.3596 13.1763 38.6286 13.8001 38.6286C14.3198 38.6286 14.8232 38.4401 15.2152 38.0979C15.6494 37.7199 15.9104 37.196 15.9502 36.6213C15.9901 36.0465 15.8032 35.4903 15.4245 35.0568C15.015 34.586 14.4223 34.3168 13.7985 34.3168V34.317Z" fill="url(#paint9_radial_272_454)"/>
<path d="M20.3605 38.5791C20.0368 38.3599 19.6596 38.2446 19.2691 38.2446C18.6167 38.2446 18.0094 38.5668 17.6452 39.1066C17.3528 39.5409 17.2472 40.0619 17.3463 40.5736C17.4461 41.0868 17.7393 41.5297 18.1728 41.8229C18.4973 42.0422 18.8761 42.1574 19.266 42.1574C19.9177 42.1574 20.525 41.8352 20.8891 41.2946C21.1816 40.8619 21.2879 40.3408 21.1881 39.8268C21.0875 39.3136 20.794 38.8707 20.3605 38.5791Z" fill="url(#paint10_radial_272_454)"/>
<path d="M25.5728 39.9931H25.5712C25.5285 39.9908 25.4857 39.9892 25.444 39.9892C24.5234 39.9892 23.7508 40.7086 23.6849 41.6277C23.651 42.0982 23.8016 42.5533 24.1103 42.9094C24.4189 43.2662 24.8482 43.4812 25.3176 43.5151C25.3611 43.5182 25.4039 43.5201 25.4474 43.5201C26.3665 43.5201 27.1391 42.8007 27.2058 41.8824C27.2405 41.4127 27.0898 40.9568 26.7804 40.5992C26.4718 40.2431 26.0425 40.0281 25.5731 39.9934L25.5728 39.9931Z" fill="url(#paint11_radial_272_454)"/>
<path d="M31.4478 39.5943C31.2119 39.5943 30.9831 39.6472 30.7693 39.752C30.3995 39.9334 30.1232 40.2483 29.99 40.638C29.8565 41.0277 29.8834 41.4458 30.065 41.8151C30.3262 42.3476 30.8572 42.6781 31.4504 42.6781C31.6871 42.6781 31.9152 42.6252 32.1281 42.5205C32.498 42.339 32.7751 42.0242 32.9083 41.6345C33.0418 41.2448 33.0149 40.8267 32.8332 40.4573C32.572 39.9248 32.0411 39.5943 31.4478 39.5943Z" fill="url(#paint12_radial_272_454)"/>
<path d="M35.6897 16.5129C36.4433 16.5129 37.0543 15.902 37.0543 15.1484C37.0543 14.3947 36.4433 13.7838 35.6897 13.7838C34.9361 13.7838 34.3252 14.3947 34.3252 15.1484C34.3252 15.902 34.9361 16.5129 35.6897 16.5129Z" fill="url(#paint13_radial_272_454)"/>
<path d="M29.8929 13.862C30.7722 13.862 31.485 13.1492 31.485 12.2699C31.485 11.3906 30.7722 10.6778 29.8929 10.6778C29.0136 10.6778 28.3008 11.3906 28.3008 12.2699C28.3008 13.1492 29.0136 13.862 29.8929 13.862Z" fill="url(#paint14_radial_272_454)"/>
<path d="M23.0347 14.0893C24.0395 14.0893 24.8541 13.2747 24.8541 12.2699C24.8541 11.2651 24.0395 10.4505 23.0347 10.4505C22.0299 10.4505 21.2153 11.2651 21.2153 12.2699C21.2153 13.2747 22.0299 14.0893 23.0347 14.0893Z" fill="url(#paint15_radial_272_454)"/>
<path d="M16.9493 18.074C18.0798 18.074 18.9962 17.1575 18.9962 16.027C18.9962 14.8965 18.0798 13.9801 16.9493 13.9801C15.8188 13.9801 14.9023 14.8965 14.9023 16.027C14.9023 17.1575 15.8188 18.074 16.9493 18.074Z" fill="url(#paint16_radial_272_454)"/>
<path d="M14.4124 25.3494C15.6684 25.3494 16.6866 24.3312 16.6866 23.0752C16.6866 21.8192 15.6684 20.801 14.4124 20.801C13.1564 20.801 12.1382 21.8192 12.1382 23.0752C12.1382 24.3312 13.1564 25.3494 14.4124 25.3494Z" fill="url(#paint17_radial_272_454)"/>
<path d="M15.6524 32.126C16.7829 32.126 17.6993 31.2095 17.6993 30.0791C17.6993 28.9486 16.7829 28.0321 15.6524 28.0321C14.5219 28.0321 13.6055 28.9486 13.6055 30.0791C13.6055 31.2095 14.5219 32.126 15.6524 32.126Z" fill="url(#paint18_radial_272_454)"/>
<path d="M20.544 36.7774C21.5488 36.7774 22.3634 35.9629 22.3634 34.958C22.3634 33.9532 21.5488 33.1386 20.544 33.1386C19.5392 33.1386 18.7246 33.9532 18.7246 34.958C18.7246 35.9629 19.5392 36.7774 20.544 36.7774Z" fill="url(#paint19_radial_272_454)"/>
<path d="M26.6834 38.7055C27.5627 38.7055 28.2755 37.9927 28.2755 37.1134C28.2755 36.2341 27.5627 35.5213 26.6834 35.5213C25.8041 35.5213 25.0913 36.2341 25.0913 37.1134C25.0913 37.9927 25.8041 38.7055 26.6834 38.7055Z" fill="url(#paint20_radial_272_454)"/>
<path d="M32.7249 37.2257C33.4785 37.2257 34.0894 36.6148 34.0894 35.8612C34.0894 35.1076 33.4785 34.4967 32.7249 34.4967C31.9713 34.4967 31.3604 35.1076 31.3604 35.8612C31.3604 36.6148 31.9713 37.2257 32.7249 37.2257Z" fill="url(#paint21_radial_272_454)"/>
<path d="M43.3167 9.14749C43.0623 8.89283 42.7234 8.7526 42.3632 8.7526C42.003 8.7526 41.6644 8.89283 41.4094 9.14749C40.8837 9.6735 40.8837 10.529 41.4094 11.0547C41.6641 11.3094 42.003 11.4496 42.3632 11.4496C42.7234 11.4496 43.0623 11.3094 43.3169 11.0545C43.5716 10.7998 43.7118 10.4612 43.7118 10.101C43.7118 9.74075 43.5716 9.40216 43.3167 9.14749Z" fill="url(#paint22_radial_272_454)"/>
<path d="M38.3443 4.15148C37.9317 4.15148 37.5438 4.31205 37.2522 4.60372C36.6503 5.20584 36.6503 6.18565 37.2522 6.78777C37.5438 7.07945 37.9317 7.24001 38.3443 7.24001C38.7569 7.24001 39.1448 7.07945 39.4362 6.78777C39.7276 6.49636 39.8879 6.10876 39.8879 5.69562C39.8879 5.28247 39.7274 4.89488 39.4362 4.60346C39.1448 4.31179 38.7569 4.15122 38.3443 4.15122V4.15148Z" fill="url(#paint23_radial_272_454)"/>
<path d="M34.667 2.48875C34.4259 2.06884 34.0359 1.76804 33.5683 1.64162C33.413 1.59965 33.2534 1.57828 33.0942 1.57828C32.2781 1.57828 31.5589 2.12905 31.3454 2.91753C31.219 3.38515 31.2821 3.87362 31.5232 4.29328C31.7643 4.7132 32.1545 5.01374 32.6216 5.14042C32.7772 5.18238 32.9365 5.20376 33.096 5.20376C33.9121 5.20376 34.6313 4.65299 34.8447 3.86424C34.9714 3.39688 34.9083 2.90841 34.667 2.48849V2.48875Z" fill="url(#paint24_radial_272_454)"/>
<path d="M29.0634 2.4262C29.1977 1.9299 29.1307 1.4112 28.8747 0.965993C28.619 0.520531 28.2051 0.201228 27.7091 0.0669899C27.5441 0.0224175 27.3749 0 27.2057 0C26.3393 0 25.5761 0.584652 25.3499 1.42162C25.2156 1.91791 25.2826 2.43636 25.5386 2.88182C25.7943 3.32729 26.2082 3.64659 26.7042 3.78083C26.8692 3.8254 27.0386 3.84808 27.2076 3.84808C28.0735 3.84808 28.8369 3.26317 29.0634 2.4262Z" fill="url(#paint25_radial_272_454)"/>
<path d="M22.4466 3.11745C22.7148 2.65009 22.7854 2.10689 22.6449 1.58766C22.4077 0.710549 21.608 0.0980015 20.7004 0.0980015C20.5229 0.0980015 20.3457 0.121722 20.1729 0.16838C19.6534 0.308874 19.2194 0.643557 18.9512 1.11039C18.6832 1.57749 18.6128 2.12096 18.7533 2.64045C18.9908 3.51756 19.7905 4.13037 20.6981 4.13037C20.8756 4.13037 21.0528 4.10665 21.2251 4.05999C21.7441 3.9195 22.1778 3.58481 22.4463 3.11745H22.4466Z" fill="url(#paint26_radial_272_454)"/>
<path d="M16.4686 5.02547C16.7501 4.5357 16.8236 3.9659 16.6758 3.42113C16.4272 2.50127 15.5886 1.85901 14.637 1.85901C14.4508 1.85901 14.2647 1.88377 14.0838 1.93277C12.9589 2.23722 12.2913 3.40001 12.5955 4.52501C12.8444 5.44487 13.683 6.08713 14.6349 6.08713C14.8207 6.08713 15.0068 6.06236 15.1877 6.01336C15.7325 5.86609 16.1873 5.51525 16.4686 5.02547Z" fill="url(#paint27_radial_272_454)"/>
<path d="M9.40737 9.50199C10.0043 9.50199 10.5652 9.26975 10.9869 8.84775C11.8578 7.97663 11.8578 6.55944 10.9869 5.68832C10.5652 5.26632 10.004 5.03381 9.40737 5.03381C8.81072 5.03381 8.24953 5.26632 7.82778 5.68832C7.4063 6.10954 7.17432 6.67074 7.17432 7.2679C7.17432 7.86507 7.4063 8.42626 7.82778 8.84748C8.24979 9.26923 8.81072 9.50199 9.40737 9.50199Z" fill="url(#paint28_radial_272_454)"/>
<path d="M4.80359 14.7274C4.99934 14.7806 5.20109 14.8074 5.40284 14.8074C6.43478 14.8074 7.34369 14.1112 7.61347 13.1139C7.94346 11.8943 7.21962 10.6335 6.00026 10.3035C5.80373 10.2503 5.60198 10.2235 5.40101 10.2235C4.36881 10.2235 3.45964 10.92 3.19012 11.917C2.86013 13.1366 3.58423 14.3974 4.80359 14.7274Z" fill="url(#paint29_radial_272_454)"/>
<path d="M2.36821 21.2628C2.5697 21.3173 2.77692 21.3449 2.98389 21.3449C4.0432 21.3449 4.97661 20.63 5.25343 19.6061C5.41764 18.9996 5.33553 18.3651 5.02274 17.8203C4.70996 17.2756 4.2035 16.8848 3.59695 16.7206C3.39546 16.6662 3.1885 16.6385 2.98128 16.6385C1.92197 16.6385 0.988554 17.3535 0.711476 18.3774C0.547523 18.9844 0.629369 19.6186 0.942419 20.1631C1.25495 20.7079 1.7614 21.0984 2.36821 21.2628Z" fill="url(#paint30_radial_272_454)"/>
<path d="M5.85261 31.5385C5.58231 30.5404 4.67236 29.8434 3.63989 29.8434C3.43736 29.8434 3.23561 29.8705 3.0396 29.9234C2.44843 30.0835 1.95474 30.464 1.64978 30.9952C1.34481 31.5267 1.26479 32.145 1.42483 32.7362C1.69461 33.7342 2.60456 34.4312 3.63729 34.4312C3.8393 34.4312 4.04104 34.4044 4.23758 34.3512C5.45798 34.021 6.18234 32.7594 5.85261 31.5387V31.5385Z" fill="url(#paint31_radial_272_454)"/>
<path d="M6.84808 35.7541C6.26187 35.7541 5.71058 35.9824 5.29561 36.3968C4.43987 37.2534 4.43987 38.646 5.29561 39.5018C5.71032 39.9165 6.26187 40.1451 6.84808 40.1451C7.4343 40.1451 7.98611 39.9168 8.40056 39.5018C8.81526 39.0871 9.04386 38.5358 9.04386 37.9493C9.04386 37.3628 8.81552 36.8115 8.40056 36.3968C7.98585 35.9821 7.43456 35.7538 6.84808 35.7538V35.7541Z" fill="url(#paint32_radial_272_454)"/>
<path d="M11.6889 40.265C11.1283 40.265 10.601 40.4834 10.2042 40.8799C9.80779 41.2766 9.58936 41.8039 9.58936 42.3646C9.58936 42.9253 9.80779 43.4528 10.2042 43.8493C10.6007 44.2458 11.128 44.4642 11.6889 44.4642C12.2499 44.4642 12.7769 44.2458 13.1734 43.8493C13.5701 43.4528 13.7885 42.9255 13.7885 42.3646C13.7885 41.8037 13.5701 41.2766 13.1734 40.8799C12.7767 40.4832 12.2496 40.265 11.6889 40.265Z" fill="url(#paint33_radial_272_454)"/>
<path d="M18.4153 43.2206C18.2472 43.175 18.0738 43.1518 17.9005 43.1518C17.0143 43.1518 16.2331 43.75 16.0011 44.6065C15.7178 45.6546 16.3397 46.7376 17.3875 47.021C17.5562 47.0666 17.7295 47.0898 17.9026 47.0898C18.7888 47.0898 19.57 46.4916 19.8017 45.6348C19.9388 45.127 19.8705 44.5963 19.6086 44.1404C19.3469 43.6846 18.9231 43.3577 18.4153 43.2203V43.2206Z" fill="url(#paint34_radial_272_454)"/>
<path d="M36.6907 43.0566C36.4363 42.802 36.0974 42.6617 35.7372 42.6617C35.377 42.6617 35.0384 42.802 34.7835 43.0566C34.2577 43.5826 34.2577 44.4381 34.7835 44.9639C35.0381 45.2185 35.377 45.3588 35.7372 45.3588C36.0974 45.3588 36.4363 45.2185 36.691 44.9636C36.9456 44.7089 37.0859 44.3703 37.0859 44.0101C37.0859 43.6499 36.9456 43.3113 36.6907 43.0566Z" fill="url(#paint35_radial_272_454)"/>
<path d="M2.44423 28.1064C3.59842 28.1064 4.60351 27.2843 4.83393 26.1512C4.964 25.5121 4.83758 24.8607 4.47735 24.317C4.11764 23.7732 3.5674 23.402 2.92827 23.272C2.76692 23.2391 2.60244 23.2225 2.43927 23.2225C1.28482 23.2225 0.279729 24.0446 0.0493085 25.1776C-0.219168 26.4968 0.635788 27.7884 1.95497 28.0569C2.11632 28.0897 2.28079 28.1064 2.44423 28.1064Z" fill="url(#paint36_radial_272_454)"/>
<path d="M30.359 44.2129C29.9464 44.2129 29.5585 44.3735 29.2668 44.6652C28.665 45.2673 28.665 46.2471 29.2668 46.8492C29.5585 47.1409 29.9464 47.3014 30.359 47.3014C30.7716 47.3014 31.1595 47.1409 31.4509 46.8492C31.7423 46.5578 31.9026 46.1702 31.9026 45.757C31.9026 45.3439 31.742 44.9563 31.4509 44.6649C31.1595 44.3732 30.7716 44.2129 30.359 44.2129Z" fill="url(#paint37_radial_272_454)"/>
<path d="M25.7021 45.285C25.461 44.8651 25.0711 44.5643 24.6035 44.4379C24.4481 44.3959 24.2886 44.3745 24.1293 44.3745C23.3132 44.3745 22.5941 44.9253 22.3806 45.7138C22.2542 46.1814 22.3172 46.6699 22.5583 47.0895C22.7995 47.5094 23.1897 47.81 23.6568 47.9367C23.8124 47.9786 23.9716 48 24.1312 48C24.9473 48 25.6664 47.4492 25.8799 46.6605C26.0066 46.1931 25.9435 45.7046 25.7021 45.2847V45.285Z" fill="url(#paint38_radial_272_454)"/>
<path d="M37.4632 38.8113C37.2416 38.3583 36.7902 38.077 36.285 38.077C36.0848 38.077 35.8901 38.1221 35.7074 38.2108C35.0589 38.5301 34.7899 39.3178 35.1076 39.9673C35.3292 40.4196 35.7814 40.7008 36.2866 40.7008C36.4883 40.7008 36.6822 40.6557 36.8634 40.5671C37.1791 40.412 37.4142 40.1446 37.5273 39.813C37.6404 39.4815 37.6175 39.1254 37.4632 38.8113Z" fill="url(#paint39_radial_272_454)"/>
<path d="M27.7291 19.2271C24.8027 19.2271 22.5032 21.4852 22.5032 24.3691C22.5032 27.253 24.8027 29.5327 27.7291 29.5327C29.1924 29.5327 30.698 28.8634 31.8057 27.798L33.2691 29.4282C31.7852 30.8915 29.6733 31.8322 27.6037 31.8322C23.3188 31.8322 19.9951 28.5917 19.9951 24.3907C19.9951 20.2301 23.3599 17.0321 27.6874 17.0321C29.7567 17.0321 31.8263 17.8892 33.248 19.2902L31.8055 21.0882C30.7391 19.9379 29.213 19.2271 27.7291 19.2271Z" fill="#3C3C3B"/>
<path d="M46.3989 26.1465C46.3989 29.5124 44.0371 31.8119 40.6092 31.8119C37.1597 31.8119 34.7979 29.5124 34.7979 26.1465C34.7979 22.8023 37.1597 20.5236 40.6092 20.5236C44.0374 20.5236 46.3989 22.8023 46.3989 26.1465ZM37.2019 26.188C37.2019 28.3412 38.6021 29.8046 40.6092 29.8046C42.5949 29.8046 43.9957 28.3412 43.9957 26.188C43.9957 24.0563 42.5946 22.5721 40.6092 22.5721C38.6021 22.5721 37.2019 24.056 37.2019 26.188Z" fill="#3C3C3B"/>
<path d="M52.6534 29.6375C52.9881 29.6375 53.3436 29.5121 53.7612 29.282L54.0959 31.2468C53.3851 31.6438 52.6743 31.8322 52.0057 31.8322C50.4587 31.8322 49.2461 30.7244 49.2461 28.5917V16.2165H51.6295V28.341C51.6295 29.2403 52.0265 29.6375 52.6534 29.6375Z" fill="#3C3C3B"/>
<path d="M66.9736 26.1465C66.9736 29.5124 64.6118 31.8119 61.1839 31.8119C57.7344 31.8119 55.3726 29.5124 55.3726 26.1465C55.3726 22.8023 57.7344 20.5236 61.1839 20.5236C64.6121 20.5236 66.9736 22.8023 66.9736 26.1465ZM57.7766 26.188C57.7766 28.3412 59.1768 29.8046 61.1839 29.8046C63.1696 29.8046 64.5704 28.3412 64.5704 26.188C64.5704 24.0563 63.1693 22.5721 61.1839 22.5721C59.1768 22.5721 57.7766 24.056 57.7766 26.188Z" fill="#3C3C3B"/>
<path d="M76.2595 20.5236V22.8231C74.0231 22.6978 72.6015 24.0149 72.413 25.9166V31.728H70.0098V20.6075H72.413V22.8231C73.1663 21.3176 74.504 20.5236 76.2595 20.5236Z" fill="#3C3C3B"/>
<path d="M81.3618 17.4294C81.3618 18.245 80.7555 18.851 79.9608 18.851C79.1661 18.851 78.5605 18.2447 78.5605 17.4294C78.5605 16.594 79.1668 15.9877 79.9608 15.9877C80.7548 15.9877 81.3618 16.594 81.3618 17.4294ZM81.1525 20.6073V31.7277H78.7701V20.6073H81.1525Z" fill="#3C3C3B"/>
<path d="M90.8128 31.0169C89.9341 31.5393 88.9942 31.8325 88.1372 31.8325C86.3809 31.8325 84.959 30.6202 84.959 28.1953V17.9734H87.3424V21.0251H90.6244V22.8231H87.3424V27.7774C87.3424 29.0938 87.7816 29.6583 88.5756 29.6583C89.0148 29.6583 89.558 29.5121 90.2065 29.1774L90.8128 31.0169Z" fill="#3C3C3B"/>
<path d="M45.5272 36.6116C45.8825 36.462 46.2915 36.3872 46.7557 36.3872V38.0025C46.5613 37.9876 46.4299 37.9801 46.3632 37.9801C45.8619 37.9801 45.4694 38.1203 45.1852 38.4008C44.9009 38.6812 44.7591 39.1017 44.7591 39.6629V42.5116H43.0093V36.4771H44.6806V37.2734C44.8897 36.9818 45.1722 36.7612 45.5275 36.6116H45.5272Z" fill="#3C3C3B"/>
<path d="M49.5207 42.203C49.0161 41.9376 48.6214 41.5691 48.3373 41.0981C48.0529 40.6271 47.9111 40.0924 47.9111 39.494C47.9111 38.8955 48.0529 38.3612 48.3373 37.8902C48.6214 37.4189 49.0161 37.0506 49.5207 36.7852C50.0253 36.5201 50.5956 36.3869 51.2311 36.3869C51.8666 36.3869 52.4351 36.5199 52.9363 36.7852C53.4371 37.0506 53.8296 37.4191 54.114 37.8902C54.3981 38.3612 54.5399 38.8958 54.5399 39.494C54.5399 40.0922 54.3981 40.6271 54.114 41.0981C53.8296 41.5693 53.4371 41.9376 52.9363 42.203C52.4354 42.4683 51.8669 42.6013 51.2311 42.6013C50.5954 42.6013 50.0253 42.4686 49.5207 42.203ZM52.3363 40.711C52.6238 40.4084 52.768 40.0028 52.768 39.494C52.768 38.9852 52.6241 38.5798 52.3363 38.2772C52.0483 37.9743 51.68 37.8229 51.2314 37.8229C50.7828 37.8229 50.4127 37.9743 50.121 38.2772C49.8293 38.5798 49.6836 38.9857 49.6836 39.494C49.6836 40.0023 49.8293 40.4084 50.121 40.711C50.4124 41.0139 50.7828 41.1653 51.2314 41.1653C51.68 41.1653 52.0485 41.0139 52.3363 40.711ZM51.7024 34.0879H53.5867L51.5567 35.7032H50.1882L51.7024 34.0879Z" fill="#3C3C3B"/>
<path d="M59.9573 42.2197C59.7852 42.3471 59.5741 42.4423 59.3239 42.5059C59.0731 42.5695 58.8132 42.6013 58.5442 42.6013C57.8188 42.6013 57.2615 42.418 56.8729 42.0515C56.4843 41.6853 56.2896 41.1471 56.2896 40.4365V35.1423H58.0393V36.6116H59.5313V37.9577H58.0393V40.4141C58.0393 40.6682 58.1029 40.8645 58.2301 41.0029C58.3573 41.1413 58.5406 41.2104 58.7796 41.2104C59.0489 41.2104 59.2881 41.1356 59.4977 40.986L59.9575 42.2197H59.9573Z" fill="#3C3C3B"/>
<path d="M67.7531 36.4771V42.5116H66.0929V41.7938C65.8612 42.0555 65.5844 42.2554 65.2633 42.3938C64.9416 42.5319 64.5936 42.6013 64.2201 42.6013C63.4272 42.6013 62.7993 42.3729 62.3358 41.917C61.8721 41.4609 61.6401 40.7842 61.6401 39.8868V36.4771H63.3899V39.629C63.3899 40.601 63.7976 41.0869 64.6127 41.0869C65.0313 41.0869 65.368 40.9505 65.6222 40.6774C65.8761 40.4044 66.0035 39.9989 66.0035 39.4606V36.4769H67.7533L67.7531 36.4771Z" fill="#3C3C3B"/>
<path d="M70.6801 42.057C70.2987 41.6947 70.1079 41.1804 70.1079 40.5147V34.1886H71.8577V40.4138C71.8577 40.668 71.9231 40.8643 72.054 41.0027C72.1846 41.1411 72.3696 41.2101 72.6092 41.2101C72.6991 41.2101 72.7903 41.1989 72.8842 41.1765C72.9775 41.1541 73.0502 41.128 73.1029 41.0978L73.1813 42.455C72.8899 42.5523 72.5868 42.601 72.2729 42.601C71.5924 42.601 71.0614 42.4198 70.6801 42.0568V42.057Z" fill="#3C3C3B"/>
<path d="M75.8229 42.203C75.3183 41.9376 74.9237 41.5691 74.6396 41.0981C74.3552 40.6271 74.2134 40.0924 74.2134 39.494C74.2134 38.8955 74.3552 38.3612 74.6396 37.8902C74.9237 37.4189 75.3183 37.0506 75.8229 36.7852C76.3276 36.5201 76.8979 36.3869 77.5334 36.3869C78.1688 36.3869 78.7373 36.5199 79.2386 36.7852C79.7393 37.0506 80.1319 37.4191 80.4162 37.8902C80.7003 38.3612 80.8421 38.8958 80.8421 39.494C80.8421 40.0922 80.7003 40.6271 80.4162 41.0981C80.1319 41.5693 79.7393 41.9376 79.2386 42.203C78.7376 42.4683 78.1691 42.6013 77.5334 42.6013C76.8976 42.6013 76.3276 42.4686 75.8229 42.203ZM78.6386 40.711C78.9261 40.4084 79.0702 40.0028 79.0702 39.494C79.0702 38.9852 78.9263 38.5798 78.6386 38.2772C78.3505 37.9743 77.9822 37.8229 77.5336 37.8229C77.085 37.8229 76.7149 37.9743 76.4232 38.2772C76.1316 38.5798 75.9859 38.9857 75.9859 39.494C75.9859 40.0023 76.1316 40.4084 76.4232 40.711C76.7146 41.0139 77.085 41.1653 77.5336 41.1653C77.9822 41.1653 78.3508 41.0139 78.6386 40.711Z" fill="#3C3C3B"/>
<path d="M83.2988 42.4159C82.8202 42.2927 82.4389 42.1376 82.1548 41.9507L82.7381 40.6943C83.0074 40.8663 83.3327 41.0068 83.714 41.115C84.0954 41.2234 84.4694 41.2777 84.8356 41.2777C85.5759 41.2777 85.9463 41.0947 85.9463 40.7282C85.9463 40.5564 85.8452 40.4329 85.6434 40.3581C85.4417 40.2832 85.1312 40.2196 84.7126 40.1673C84.2189 40.0924 83.8113 40.0064 83.4899 39.9092C83.1682 39.8122 82.8898 39.6402 82.6542 39.3934C82.4188 39.1465 82.301 38.7952 82.301 38.339C82.301 37.9577 82.4113 37.6196 82.6318 37.3237C82.8523 37.0284 83.174 36.7988 83.5967 36.634C84.019 36.4696 84.5182 36.3872 85.094 36.3872C85.5201 36.3872 85.9445 36.4341 86.3667 36.5277C86.789 36.6213 87.1388 36.75 87.4156 36.9148L86.8323 38.1597C86.3013 37.8607 85.7219 37.7108 85.0937 37.7108C84.7196 37.7108 84.4392 37.7635 84.2523 37.868C84.0654 37.9725 83.9721 38.1075 83.9721 38.2718C83.9721 38.4586 84.073 38.5895 84.2747 38.6643C84.4765 38.7391 84.7978 38.81 85.2394 38.8775C85.7331 38.9596 86.1368 39.0475 86.4509 39.1408C86.7648 39.2346 87.0377 39.4046 87.2697 39.6514C87.5014 39.898 87.6174 40.2421 87.6174 40.6831C87.6174 41.0571 87.5053 41.39 87.2809 41.6814C87.0564 41.9731 86.7293 42.1993 86.2995 42.3602C85.8694 42.5207 85.3588 42.6013 84.7684 42.6013C84.2674 42.6013 83.7774 42.5395 83.2988 42.4159Z" fill="#3C3C3B"/>
<defs>
<radialGradient id="paint0_radial_272_454" cx="0" cy="0" r="1" gradientUnits="userSpaceOnUse" gradientTransform="translate(8.18435 0.156365) scale(51.0505 51.0505)">
<stop offset="0.091" stop-color="#FFE100"/>
<stop offset="0.157" stop-color="#FFCE0F"/>
<stop offset="0.29" stop-color="#FF9D37"/>
<stop offset="0.476" stop-color="#FF5077"/>
<stop offset="0.612" stop-color="#FF14AA"/>
<stop offset="1" stop-color="#7129A3"/>
</radialGradient>
<radialGradient id="paint1_radial_272_454" cx="0" cy="0" r="1" gradientUnits="userSpaceOnUse" gradientTransform="translate(8.51212 0.411564) scale(51.0504 51.0505)">
<stop offset="0.091" stop-color="#FFE100"/>
<stop offset="0.157" stop-color="#FFCE0F"/>
<stop offset="0.29" stop-color="#FF9D37"/>
<stop offset="0.476" stop-color="#FF5077"/>
<stop offset="0.612" stop-color="#FF14AA"/>
<stop offset="1" stop-color="#7129A3"/>
</radialGradient>
<radialGradient id="paint2_radial_272_454" cx="0" cy="0" r="1" gradientUnits="userSpaceOnUse" gradientTransform="translate(8.77999 0.485074) scale(51.0505 51.0504)">
<stop offset="0.091" stop-color="#FFE100"/>
<stop offset="0.157" stop-color="#FFCE0F"/>
<stop offset="0.29" stop-color="#FF9D37"/>
<stop offset="0.476" stop-color="#FF5077"/>
<stop offset="0.612" stop-color="#FF14AA"/>
<stop offset="1" stop-color="#7129A3"/>
</radialGradient>
<radialGradient id="paint3_radial_272_454" cx="0" cy="0" r="1" gradientUnits="userSpaceOnUse" gradientTransform="translate(8.77985 0.156387) scale(51.0505 51.0505)">
<stop offset="0.091" stop-color="#FFE100"/>
<stop offset="0.157" stop-color="#FFCE0F"/>
<stop offset="0.29" stop-color="#FF9D37"/>
<stop offset="0.476" stop-color="#FF5077"/>
<stop offset="0.612" stop-color="#FF14AA"/>
<stop offset="1" stop-color="#7129A3"/>
</radialGradient>
<radialGradient id="paint4_radial_272_454" cx="0" cy="0" r="1" gradientUnits="userSpaceOnUse" gradientTransform="translate(8.59159 -0.242427) scale(51.0505 51.0505)">
<stop offset="0.091" stop-color="#FFE100"/>
<stop offset="0.157" stop-color="#FFCE0F"/>
<stop offset="0.29" stop-color="#FF9D37"/>
<stop offset="0.476" stop-color="#FF5077"/>
<stop offset="0.612" stop-color="#FF14AA"/>
<stop offset="1" stop-color="#7129A3"/>
</radialGradient>
<radialGradient id="paint5_radial_272_454" cx="0" cy="0" r="1" gradientUnits="userSpaceOnUse" gradientTransform="translate(8.51298 -0.296114) scale(51.0505 51.0505)">
<stop offset="0.091" stop-color="#FFE100"/>
<stop offset="0.157" stop-color="#FFCE0F"/>
<stop offset="0.29" stop-color="#FF9D37"/>
<stop offset="0.476" stop-color="#FF5077"/>
<stop offset="0.612" stop-color="#FF14AA"/>
<stop offset="1" stop-color="#7129A3"/>
</radialGradient>
<radialGradient id="paint6_radial_272_454" cx="0" cy="0" r="1" gradientUnits="userSpaceOnUse" gradientTransform="translate(8.18475 0.156369) scale(51.0505 51.0505)">
<stop offset="0.091" stop-color="#FFE100"/>
<stop offset="0.157" stop-color="#FFCE0F"/>
<stop offset="0.29" stop-color="#FF9D37"/>
<stop offset="0.476" stop-color="#FF5077"/>
<stop offset="0.612" stop-color="#FF14AA"/>
<stop offset="1" stop-color="#7129A3"/>
</radialGradient>
<radialGradient id="paint7_radial_272_454" cx="0" cy="0" r="1" gradientUnits="userSpaceOnUse" gradientTransform="translate(8.01469 0.156385) scale(51.0505 51.0505)">
<stop offset="0.091" stop-color="#FFE100"/>
<stop offset="0.157" stop-color="#FFCE0F"/>
<stop offset="0.29" stop-color="#FF9D37"/>
<stop offset="0.476" stop-color="#FF5077"/>
<stop offset="0.612" stop-color="#FF14AA"/>
<stop offset="1" stop-color="#7129A3"/>
</radialGradient>
<radialGradient id="paint8_radial_272_454" cx="0" cy="0" r="1" gradientUnits="userSpaceOnUse" gradientTransform="translate(8.18454 0.156367) scale(51.0505 51.0505)">
<stop offset="0.091" stop-color="#FFE100"/>
<stop offset="0.157" stop-color="#FFCE0F"/>
<stop offset="0.29" stop-color="#FF9D37"/>
<stop offset="0.476" stop-color="#FF5077"/>
<stop offset="0.612" stop-color="#FF14AA"/>
<stop offset="1" stop-color="#7129A3"/>
</radialGradient>
<radialGradient id="paint9_radial_272_454" cx="0" cy="0" r="1" gradientUnits="userSpaceOnUse" gradientTransform="translate(8.43966 0.241298) scale(51.0505 51.0505)">
<stop offset="0.091" stop-color="#FFE100"/>
<stop offset="0.157" stop-color="#FFCE0F"/>
<stop offset="0.29" stop-color="#FF9D37"/>
<stop offset="0.476" stop-color="#FF5077"/>
<stop offset="0.612" stop-color="#FF14AA"/>
<stop offset="1" stop-color="#7129A3"/>
</radialGradient>
<radialGradient id="paint10_radial_272_454" cx="0" cy="0" r="1" gradientUnits="userSpaceOnUse" gradientTransform="translate(8.60957 0.241317) scale(51.0505 51.0505)">
<stop offset="0.091" stop-color="#FFE100"/>
<stop offset="0.157" stop-color="#FFCE0F"/>
<stop offset="0.29" stop-color="#FF9D37"/>
<stop offset="0.476" stop-color="#FF5077"/>
<stop offset="0.612" stop-color="#FF14AA"/>
<stop offset="1" stop-color="#7129A3"/>
</radialGradient>
<radialGradient id="paint11_radial_272_454" cx="0" cy="0" r="1" gradientUnits="userSpaceOnUse" gradientTransform="translate(8.78024 0.156417) scale(51.0504 51.0504)">
<stop offset="0.091" stop-color="#FFE100"/>
<stop offset="0.157" stop-color="#FFCE0F"/>
<stop offset="0.29" stop-color="#FF9D37"/>
<stop offset="0.476" stop-color="#FF5077"/>
<stop offset="0.612" stop-color="#FF14AA"/>
<stop offset="1" stop-color="#7129A3"/>
</radialGradient>
<radialGradient id="paint12_radial_272_454" cx="0" cy="0" r="1" gradientUnits="userSpaceOnUse" gradientTransform="translate(8.60985 -0.183759) scale(51.0505 51.0504)">
<stop offset="0.091" stop-color="#FFE100"/>
<stop offset="0.157" stop-color="#FFCE0F"/>
<stop offset="0.29" stop-color="#FF9D37"/>
<stop offset="0.476" stop-color="#FF5077"/>
<stop offset="0.612" stop-color="#FF14AA"/>
<stop offset="1" stop-color="#7129A3"/>
</radialGradient>
<radialGradient id="paint13_radial_272_454" cx="0" cy="0" r="1" gradientUnits="userSpaceOnUse" gradientTransform="translate(8.18468 0.156408) scale(51.0505)">
<stop offset="0.091" stop-color="#FFE100"/>
<stop offset="0.157" stop-color="#FFCE0F"/>
<stop offset="0.29" stop-color="#FF9D37"/>
<stop offset="0.476" stop-color="#FF5077"/>
<stop offset="0.612" stop-color="#FF14AA"/>
<stop offset="1" stop-color="#7129A3"/>
</radialGradient>
<radialGradient id="paint14_radial_272_454" cx="0" cy="0" r="1" gradientUnits="userSpaceOnUse" gradientTransform="translate(8.18482 0.156411) scale(51.0505)">
<stop offset="0.091" stop-color="#FFE100"/>
<stop offset="0.157" stop-color="#FFCE0F"/>
<stop offset="0.29" stop-color="#FF9D37"/>
<stop offset="0.476" stop-color="#FF5077"/>
<stop offset="0.612" stop-color="#FF14AA"/>
<stop offset="1" stop-color="#7129A3"/>
</radialGradient>
<radialGradient id="paint15_radial_272_454" cx="0" cy="0" r="1" gradientUnits="userSpaceOnUse" gradientTransform="translate(8.18483 0.156418) scale(51.0504)">
<stop offset="0.091" stop-color="#FFE100"/>
<stop offset="0.157" stop-color="#FFCE0F"/>
<stop offset="0.29" stop-color="#FF9D37"/>
<stop offset="0.476" stop-color="#FF5077"/>
<stop offset="0.612" stop-color="#FF14AA"/>
<stop offset="1" stop-color="#7129A3"/>
</radialGradient>
<radialGradient id="paint16_radial_272_454" cx="0" cy="0" r="1" gradientUnits="userSpaceOnUse" gradientTransform="translate(8.18496 0.15642) scale(51.0504)">
<stop offset="0.091" stop-color="#FFE100"/>
<stop offset="0.157" stop-color="#FFCE0F"/>
<stop offset="0.29" stop-color="#FF9D37"/>
<stop offset="0.476" stop-color="#FF5077"/>
<stop offset="0.612" stop-color="#FF14AA"/>
<stop offset="1" stop-color="#7129A3"/>
</radialGradient>
<radialGradient id="paint17_radial_272_454" cx="0" cy="0" r="1" gradientUnits="userSpaceOnUse" gradientTransform="translate(8.1848 0.156413) scale(51.0505)">
<stop offset="0.091" stop-color="#FFE100"/>
<stop offset="0.157" stop-color="#FFCE0F"/>
<stop offset="0.29" stop-color="#FF9D37"/>
<stop offset="0.476" stop-color="#FF5077"/>
<stop offset="0.612" stop-color="#FF14AA"/>
<stop offset="1" stop-color="#7129A3"/>
</radialGradient>
<radialGradient id="paint18_radial_272_454" cx="0" cy="0" r="1" gradientUnits="userSpaceOnUse" gradientTransform="translate(8.18485 0.156416) scale(51.0505 51.0504)">
<stop offset="0.091" stop-color="#FFE100"/>
<stop offset="0.157" stop-color="#FFCE0F"/>
<stop offset="0.29" stop-color="#FF9D37"/>
<stop offset="0.476" stop-color="#FF5077"/>
<stop offset="0.612" stop-color="#FF14AA"/>
<stop offset="1" stop-color="#7129A3"/>
</radialGradient>
<radialGradient id="paint19_radial_272_454" cx="0" cy="0" r="1" gradientUnits="userSpaceOnUse" gradientTransform="translate(8.35489 -0.0135232) scale(51.0505 51.0504)">
<stop offset="0.091" stop-color="#FFE100"/>
<stop offset="0.157" stop-color="#FFCE0F"/>
<stop offset="0.29" stop-color="#FF9D37"/>
<stop offset="0.476" stop-color="#FF5077"/>
<stop offset="0.612" stop-color="#FF14AA"/>
<stop offset="1" stop-color="#7129A3"/>
</radialGradient>
<radialGradient id="paint20_radial_272_454" cx="0" cy="0" r="1" gradientUnits="userSpaceOnUse" gradientTransform="translate(8.2698 -0.183764) scale(51.0505)">
<stop offset="0.091" stop-color="#FFE100"/>
<stop offset="0.157" stop-color="#FFCE0F"/>
<stop offset="0.29" stop-color="#FF9D37"/>
<stop offset="0.476" stop-color="#FF5077"/>
<stop offset="0.612" stop-color="#FF14AA"/>
<stop offset="1" stop-color="#7129A3"/>
</radialGradient>
<radialGradient id="paint21_radial_272_454" cx="0" cy="0" r="1" gradientUnits="userSpaceOnUse" gradientTransform="translate(8.18507 0.156401) scale(51.0505)">
<stop offset="0.091" stop-color="#FFE100"/>
<stop offset="0.157" stop-color="#FFCE0F"/>
<stop offset="0.29" stop-color="#FF9D37"/>
<stop offset="0.476" stop-color="#FF5077"/>
<stop offset="0.612" stop-color="#FF14AA"/>
<stop offset="1" stop-color="#7129A3"/>
</radialGradient>
<radialGradient id="paint22_radial_272_454" cx="0" cy="0" r="1" gradientUnits="userSpaceOnUse" gradientTransform="translate(7.70286 0.372992) scale(51.0504 51.0505)">
<stop offset="0.091" stop-color="#FFE100"/>
<stop offset="0.157" stop-color="#FFCE0F"/>
<stop offset="0.29" stop-color="#FF9D37"/>
<stop offset="0.476" stop-color="#FF5077"/>
<stop offset="0.612" stop-color="#FF14AA"/>
<stop offset="1" stop-color="#7129A3"/>
</radialGradient>
<radialGradient id="paint23_radial_272_454" cx="0" cy="0" r="1" gradientUnits="userSpaceOnUse" gradientTransform="translate(8.18448 0.468136) scale(51.0505 51.0505)">
<stop offset="0.091" stop-color="#FFE100"/>
<stop offset="0.157" stop-color="#FFCE0F"/>
<stop offset="0.29" stop-color="#FF9D37"/>
<stop offset="0.476" stop-color="#FF5077"/>
<stop offset="0.612" stop-color="#FF14AA"/>
<stop offset="1" stop-color="#7129A3"/>
</radialGradient>
<radialGradient id="paint24_radial_272_454" cx="0" cy="0" r="1" gradientUnits="userSpaceOnUse" gradientTransform="translate(8.72299 0.609933) scale(51.0505 51.0505)">
<stop offset="0.091" stop-color="#FFE100"/>
<stop offset="0.157" stop-color="#FFCE0F"/>
<stop offset="0.29" stop-color="#FF9D37"/>
<stop offset="0.476" stop-color="#FF5077"/>
<stop offset="0.612" stop-color="#FF14AA"/>
<stop offset="1" stop-color="#7129A3"/>
</radialGradient>
<radialGradient id="paint25_radial_272_454" cx="0" cy="0" r="1" gradientUnits="userSpaceOnUse" gradientTransform="translate(8.97823 0.496553) scale(51.0505 51.0505)">
<stop offset="0.091" stop-color="#FFE100"/>
<stop offset="0.157" stop-color="#FFCE0F"/>
<stop offset="0.29" stop-color="#FF9D37"/>
<stop offset="0.476" stop-color="#FF5077"/>
<stop offset="0.612" stop-color="#FF14AA"/>
<stop offset="1" stop-color="#7129A3"/>
</radialGradient>
<radialGradient id="paint26_radial_272_454" cx="0" cy="0" r="1" gradientUnits="userSpaceOnUse" gradientTransform="translate(8.83662 -0.00261323) scale(51.0505 51.0505)">
<stop offset="0.091" stop-color="#FFE100"/>
<stop offset="0.157" stop-color="#FFCE0F"/>
<stop offset="0.29" stop-color="#FF9D37"/>
<stop offset="0.476" stop-color="#FF5077"/>
<stop offset="0.612" stop-color="#FF14AA"/>
<stop offset="1" stop-color="#7129A3"/>
</radialGradient>
<radialGradient id="paint27_radial_272_454" cx="0" cy="0" r="1" gradientUnits="userSpaceOnUse" gradientTransform="translate(8.52455 -0.0987851) scale(51.0505 51.0504)">
<stop offset="0.091" stop-color="#FFE100"/>
<stop offset="0.157" stop-color="#FFCE0F"/>
<stop offset="0.29" stop-color="#FF9D37"/>
<stop offset="0.476" stop-color="#FF5077"/>
<stop offset="0.612" stop-color="#FF14AA"/>
<stop offset="1" stop-color="#7129A3"/>
</radialGradient>
<radialGradient id="paint28_radial_272_454" cx="0" cy="0" r="1" gradientUnits="userSpaceOnUse" gradientTransform="translate(8.43981 -0.35371) scale(51.0505 51.0505)">
<stop offset="0.091" stop-color="#FFE100"/>
<stop offset="0.157" stop-color="#FFCE0F"/>
<stop offset="0.29" stop-color="#FF9D37"/>
<stop offset="0.476" stop-color="#FF5077"/>
<stop offset="0.612" stop-color="#FF14AA"/>
<stop offset="1" stop-color="#7129A3"/>
</radialGradient>
<radialGradient id="paint29_radial_272_454" cx="0" cy="0" r="1" gradientUnits="userSpaceOnUse" gradientTransform="translate(8.26954 -0.353714) scale(51.0505 51.0505)">
<stop offset="0.091" stop-color="#FFE100"/>
<stop offset="0.157" stop-color="#FFCE0F"/>
<stop offset="0.29" stop-color="#FF9D37"/>
<stop offset="0.476" stop-color="#FF5077"/>
<stop offset="0.612" stop-color="#FF14AA"/>
<stop offset="1" stop-color="#7129A3"/>
</radialGradient>
<radialGradient id="paint30_radial_272_454" cx="0" cy="0" r="1" gradientUnits="userSpaceOnUse" gradientTransform="translate(7.92933 -0.0987853) scale(51.0505 51.0505)">
<stop offset="0.091" stop-color="#FFE100"/>
<stop offset="0.157" stop-color="#FFCE0F"/>
<stop offset="0.29" stop-color="#FF9D37"/>
<stop offset="0.476" stop-color="#FF5077"/>
<stop offset="0.612" stop-color="#FF14AA"/>
<stop offset="1" stop-color="#7129A3"/>
</radialGradient>
<radialGradient id="paint31_radial_272_454" cx="0" cy="0" r="1" gradientUnits="userSpaceOnUse" gradientTransform="translate(7.50439 0.0713915) scale(51.0505 51.0505)">
<stop offset="0.091" stop-color="#FFE100"/>
<stop offset="0.157" stop-color="#FFCE0F"/>
<stop offset="0.29" stop-color="#FF9D37"/>
<stop offset="0.476" stop-color="#FF5077"/>
<stop offset="0.612" stop-color="#FF14AA"/>
<stop offset="1" stop-color="#7129A3"/>
</radialGradient>
<radialGradient id="paint32_radial_272_454" cx="0" cy="0" r="1" gradientUnits="userSpaceOnUse" gradientTransform="translate(7.58913 0.49651) scale(51.0505 51.0505)">
<stop offset="0.091" stop-color="#FFE100"/>
<stop offset="0.157" stop-color="#FFCE0F"/>
<stop offset="0.29" stop-color="#FF9D37"/>
<stop offset="0.476" stop-color="#FF5077"/>
<stop offset="0.612" stop-color="#FF14AA"/>
<stop offset="1" stop-color="#7129A3"/>
</radialGradient>
<radialGradient id="paint33_radial_272_454" cx="0" cy="0" r="1" gradientUnits="userSpaceOnUse" gradientTransform="translate(7.92949 0.411539) scale(51.0505 51.0505)">
<stop offset="0.091" stop-color="#FFE100"/>
<stop offset="0.157" stop-color="#FFCE0F"/>
<stop offset="0.29" stop-color="#FF9D37"/>
<stop offset="0.476" stop-color="#FF5077"/>
<stop offset="0.612" stop-color="#FF14AA"/>
<stop offset="1" stop-color="#7129A3"/>
</radialGradient>
<radialGradient id="paint34_radial_272_454" cx="0" cy="0" r="1" gradientUnits="userSpaceOnUse" gradientTransform="translate(8.77984 0.0714182) scale(51.0505 51.0505)">
<stop offset="0.091" stop-color="#FFE100"/>
<stop offset="0.157" stop-color="#FFCE0F"/>
<stop offset="0.29" stop-color="#FF9D37"/>
<stop offset="0.476" stop-color="#FF5077"/>
<stop offset="0.612" stop-color="#FF14AA"/>
<stop offset="1" stop-color="#7129A3"/>
</radialGradient>
<radialGradient id="paint35_radial_272_454" cx="0" cy="0" r="1" gradientUnits="userSpaceOnUse" gradientTransform="translate(8.18474 -0.523859) scale(51.0504 51.0504)">
<stop offset="0.091" stop-color="#FFE100"/>
<stop offset="0.157" stop-color="#FFCE0F"/>
<stop offset="0.29" stop-color="#FF9D37"/>
<stop offset="0.476" stop-color="#FF5077"/>
<stop offset="0.612" stop-color="#FF14AA"/>
<stop offset="1" stop-color="#7129A3"/>
</radialGradient>
<radialGradient id="paint36_radial_272_454" cx="0" cy="0" r="1" gradientUnits="userSpaceOnUse" gradientTransform="translate(7.84426 -0.0987918) scale(51.0505 51.0505)">
<stop offset="0.091" stop-color="#FFE100"/>
<stop offset="0.157" stop-color="#FFCE0F"/>
<stop offset="0.29" stop-color="#FF9D37"/>
<stop offset="0.476" stop-color="#FF5077"/>
<stop offset="0.612" stop-color="#FF14AA"/>
<stop offset="1" stop-color="#7129A3"/>
</radialGradient>
<radialGradient id="paint37_radial_272_454" cx="0" cy="0" r="1" gradientUnits="userSpaceOnUse" gradientTransform="translate(8.94991 -0.438847) scale(51.0505 51.0504)">
<stop offset="0.091" stop-color="#FFE100"/>
<stop offset="0.157" stop-color="#FFCE0F"/>
<stop offset="0.29" stop-color="#FF9D37"/>
<stop offset="0.476" stop-color="#FF5077"/>
<stop offset="0.612" stop-color="#FF14AA"/>
<stop offset="1" stop-color="#7129A3"/>
</radialGradient>
<radialGradient id="paint38_radial_272_454" cx="0" cy="0" r="1" gradientUnits="userSpaceOnUse" gradientTransform="translate(8.86472 -0.353805) scale(51.0505 51.0506)">
<stop offset="0.091" stop-color="#FFE100"/>
<stop offset="0.157" stop-color="#FFCE0F"/>
<stop offset="0.29" stop-color="#FF9D37"/>
<stop offset="0.476" stop-color="#FF5077"/>
<stop offset="0.612" stop-color="#FF14AA"/>
<stop offset="1" stop-color="#7129A3"/>
</radialGradient>
<radialGradient id="paint39_radial_272_454" cx="0" cy="0" r="1" gradientUnits="userSpaceOnUse" gradientTransform="translate(8.18434 0.15647) scale(51.0505 51.0504)">
<stop offset="0.091" stop-color="#FFE100"/>
<stop offset="0.157" stop-color="#FFCE0F"/>
<stop offset="0.29" stop-color="#FF9D37"/>
<stop offset="0.476" stop-color="#FF5077"/>
<stop offset="0.612" stop-color="#FF14AA"/>
<stop offset="1" stop-color="#7129A3"/>
</radialGradient>
</defs>
</svg>
