<?xml version="1.0" standalone="no"?>
<!DOCTYPE svg PUBLIC "-//W3C//DTD SVG 20010904//EN"
 "http://www.w3.org/TR/2001/REC-SVG-20010904/DTD/svg10.dtd">
<svg version="1.0" xmlns="http://www.w3.org/2000/svg"
 width="2918.000000pt" height="1876.000000pt" viewBox="0 0 2918.000000 1876.000000"
 preserveAspectRatio="xMidYMid meet">

<g transform="translate(0.000000,1876.000000) scale(0.100000,-0.100000)"
fill="#000000" stroke="none">
<path d="M11147 15415 c-76 -21 -148 -60 -204 -112 l-52 -48 -11 -120 c-6 -66
-20 -185 -30 -264 l-20 -145 31 -47 c93 -146 253 -226 433 -217 109 6 180 31
261 91 118 87 185 211 193 358 8 151 -30 257 -129 363 -121 130 -309 186 -472
141z"/>
<path d="M12606 14730 c-126 -23 -240 -113 -299 -238 -30 -62 -32 -75 -32
-172 0 -97 2 -110 31 -170 45 -94 102 -153 188 -195 124 -62 248 -64 371 -6
150 70 245 233 232 401 -19 250 -244 424 -491 380z"/>
<path d="M10848 14116 c-90 -32 -159 -83 -174 -127 -7 -18 -40 -119 -74 -222
-68 -209 -68 -212 -19 -308 46 -92 119 -163 216 -211 78 -39 93 -42 178 -46
75 -4 108 0 163 17 179 54 305 202 332 391 30 199 -80 398 -266 487 -73 35
-86 38 -184 41 -91 2 -114 -1 -172 -22z"/>
<path d="M13700 13489 c-117 -24 -229 -118 -270 -227 -43 -114 -24 -252 49
-348 162 -216 497 -182 618 64 25 50 28 68 28 152 0 88 -3 101 -33 162 -72
146 -237 229 -392 197z"/>
<path d="M12355 13313 c-121 -44 -196 -110 -249 -222 -29 -61 -31 -74 -31
-172 0 -101 1 -108 38 -181 179 -363 704 -285 778 115 32 174 -64 358 -228
439 -59 29 -78 33 -162 35 -73 3 -108 -1 -146 -14z"/>
<path d="M10266 12950 c-244 -87 -357 -353 -248 -584 102 -217 355 -307 568
-201 132 65 211 170 236 314 32 185 -67 373 -239 453 -59 28 -81 33 -163 35
-76 3 -107 -1 -154 -17z"/>
<path d="M11886 12129 c-63 -15 -155 -70 -192 -113 -19 -22 -47 -65 -61 -96
-24 -48 -27 -68 -28 -150 0 -88 3 -101 33 -162 90 -184 313 -258 496 -166 59
30 133 104 161 162 116 240 -44 513 -309 531 -34 2 -78 0 -100 -6z"/>
<path d="M13413 12086 c-103 -34 -176 -98 -222 -196 -22 -46 -26 -69 -26 -145
0 -78 4 -98 28 -147 38 -77 96 -134 175 -171 86 -40 185 -43 277 -7 82 32 163
113 195 195 36 93 34 191 -7 277 -60 129 -164 199 -303 205 -45 2 -92 -3 -117
-11z"/>
<path d="M23803 11525 c-105 -32 -175 -96 -227 -205 -28 -59 -31 -74 -31 -165
0 -91 3 -106 32 -167 40 -84 97 -141 181 -181 61 -29 76 -32 162 -32 83 0 103
4 158 29 81 37 161 122 193 203 31 80 31 214 0 295 -42 110 -128 192 -235 223
-60 18 -176 18 -233 0z"/>
<path d="M15630 9747 c0 -1918 -3 -1829 64 -2009 45 -120 89 -190 174 -275 57
-57 94 -83 165 -118 114 -56 199 -75 345 -75 168 0 303 32 473 111 l85 41 -44
261 c-25 144 -46 263 -47 265 -2 2 -25 -8 -52 -21 -148 -75 -299 -87 -390 -31
-58 36 -105 110 -122 190 -8 42 -11 512 -11 1726 l0 1668 -320 0 -320 0 0
-1733z"/>
<path d="M9561 11249 c-359 -38 -734 -179 -1024 -386 -115 -83 -327 -291 -416
-410 -364 -485 -480 -1101 -321 -1711 182 -700 750 -1245 1476 -1417 305 -73
667 -74 967 -4 353 83 752 294 1003 531 l66 64 -192 214 c-106 118 -194 217
-195 218 -2 2 -50 -34 -107 -80 -172 -139 -353 -240 -542 -303 -178 -59 -249
-70 -466 -70 -168 0 -210 3 -299 23 -552 124 -957 531 -1077 1083 -27 121 -27
439 0 558 59 272 182 503 367 689 225 228 504 365 833 408 420 56 860 -95
1204 -412 46 -42 84 -75 86 -73 1 2 85 106 185 232 100 125 184 233 187 240 9
24 -145 157 -301 260 -123 81 -365 198 -512 246 -135 45 -318 84 -465 100
-113 13 -336 12 -457 0z"/>
<path d="M25273 9523 c3 -1655 -2 -1529 71 -1725 77 -206 217 -363 401 -449
121 -57 182 -70 345 -76 168 -6 263 8 430 63 125 41 333 141 327 158 -2 6 -39
117 -82 246 -43 129 -79 236 -80 238 -1 1 -36 -13 -77 -33 -192 -88 -387 -115
-495 -66 -88 39 -139 110 -180 247 -15 53 -17 132 -21 817 l-3 757 445 0 446
0 0 240 0 240 -445 0 -445 0 0 415 0 415 -320 0 -321 0 4 -1487z"/>
<path d="M13135 10313 c-255 -22 -517 -101 -710 -215 -155 -91 -326 -247 -429
-391 -110 -154 -204 -383 -242 -592 -29 -153 -26 -521 4 -661 74 -343 246
-638 486 -833 103 -84 155 -117 274 -176 475 -236 1105 -232 1572 11 267 138
488 367 614 635 209 444 204 1016 -14 1445 -224 439 -659 718 -1209 773 -97
10 -255 12 -346 4z m365 -570 c268 -53 495 -236 615 -496 128 -276 123 -673
-11 -940 -144 -285 -378 -449 -698 -487 -412 -49 -790 161 -946 527 -99 235
-111 549 -28 803 145 447 581 689 1068 593z"/>
<path d="M18652 10309 c-205 -20 -423 -83 -604 -175 -379 -194 -646 -551 -732
-979 -90 -450 -7 -907 227 -1255 66 -98 226 -262 326 -334 321 -231 758 -333
1202 -281 815 95 1338 685 1339 1512 0 454 -151 833 -445 1111 -322 305 -799
451 -1313 401z m378 -560 c346 -63 603 -309 697 -669 31 -117 42 -343 23 -472
-56 -387 -301 -672 -658 -765 -79 -20 -122 -25 -232 -26 -138 -1 -205 8 -320
45 -395 126 -629 508 -607 988 23 504 347 865 816 910 85 8 198 4 281 -11z"/>
<path d="M22750 10309 c-258 -30 -476 -134 -650 -308 -85 -85 -117 -128 -198
-261 l-22 -35 0 298 0 297 -325 0 -325 0 0 -1505 0 -1505 325 0 324 0 3 828
c3 822 3 827 26 907 25 91 85 222 134 293 165 241 458 382 796 382 l82 0 0
310 0 310 -47 -1 c-27 -1 -82 -5 -123 -10z"/>
<path d="M23600 8795 l0 -1505 320 0 320 0 0 1505 0 1505 -320 0 -320 0 0
-1505z"/>
<path d="M6625 9959 c-202 -76 -588 -184 -840 -234 -71 -14 -140 -28 -152 -31
-21 -4 -23 -10 -23 -62 1 -137 64 -305 156 -409 60 -70 174 -144 265 -174 63
-20 92 -24 199 -23 139 1 205 18 316 85 121 73 236 231 269 370 19 82 19 218
0 294 -16 65 -84 207 -100 211 -5 2 -46 -11 -90 -27z"/>
<path d="M5005 9618 c-38 -4 -254 -10 -479 -12 l-410 -4 -23 -39 c-13 -21 -35
-74 -49 -118 -82 -253 20 -546 240 -693 160 -107 331 -138 510 -92 114 29 189
73 281 165 127 126 185 265 185 439 0 102 -19 178 -71 284 -45 93 -34 89 -184
70z"/>
<path d="M2875 9576 c-144 -28 -242 -82 -350 -190 -129 -130 -188 -273 -188
-456 0 -303 200 -561 493 -636 78 -21 233 -23 310 -5 30 7 93 31 140 53 69 33
101 56 171 127 71 70 94 102 127 171 52 110 66 173 66 290 0 117 -14 180 -66
290 -55 114 -177 239 -288 293 -135 66 -283 88 -415 63z"/>
<path d="M6426 8275 c-146 -37 -291 -150 -354 -275 -46 -92 -62 -161 -62 -270
1 -155 59 -290 172 -395 166 -155 416 -189 626 -87 71 34 190 145 226 211 170
314 32 685 -300 802 -78 27 -228 34 -308 14z"/>
<path d="M4883 8079 c-118 -20 -247 -92 -333 -185 -101 -111 -170 -309 -155
-444 18 -154 75 -280 173 -378 242 -242 632 -234 864 17 130 140 188 358 143
536 -80 316 -372 507 -692 454z"/>
<path d="M3215 7794 c-143 -30 -250 -86 -341 -179 -115 -116 -177 -266 -177
-430 0 -104 16 -170 65 -275 32 -67 57 -101 117 -160 127 -127 264 -183 441
-182 169 0 307 59 430 182 295 294 217 794 -154 982 -108 54 -281 82 -381 62z"/>
<path d="M7739 6891 c-214 -68 -349 -251 -349 -472 0 -228 149 -416 375 -474
206 -53 441 52 543 243 150 281 1 627 -303 707 -78 20 -196 18 -266 -4z"/>
<path d="M16086 6440 l-207 -220 186 0 186 0 269 215 c149 118 270 217 270
220 0 3 -112 5 -249 5 l-248 0 -207 -220z"/>
<path d="M21260 5733 c0 -753 3 -909 15 -968 44 -207 187 -345 405 -391 87
-18 274 -14 355 8 l50 13 -1 45 c-1 25 -5 107 -9 183 -6 123 -9 138 -24 132
-49 -19 -119 -25 -171 -14 -69 14 -121 64 -139 132 -8 33 -11 291 -11 901 l0
856 -235 0 -235 0 0 -897z"/>
<path d="M5875 6562 c-103 -35 -169 -77 -244 -158 -64 -68 -119 -170 -140
-258 -15 -62 -16 -196 -2 -258 51 -222 227 -396 449 -443 92 -20 165 -19 256
5 221 56 385 227 432 450 41 194 -36 423 -185 550 -153 131 -378 176 -566 112z"/>
<path d="M11090 6536 c-115 -26 -210 -101 -258 -204 -23 -49 -27 -70 -27 -152
0 -87 3 -101 32 -161 39 -79 102 -140 181 -177 49 -23 70 -27 147 -27 78 0 98
4 152 29 74 34 154 113 185 183 15 33 23 75 26 133 4 96 -15 166 -68 239 -79
109 -237 168 -370 137z"/>
<path d="M17530 5608 c0 -835 1 -839 59 -964 34 -72 102 -150 169 -193 169
-107 488 -122 687 -32 34 16 65 32 67 37 4 7 -28 98 -114 327 -2 4 -30 -4 -63
-19 -72 -33 -180 -38 -231 -11 -42 22 -81 70 -94 115 -6 22 -10 178 -10 390
l0 352 200 0 200 0 0 185 0 185 -200 0 -200 0 0 195 0 195 -235 0 -235 0 0
-762z"/>
<path d="M9429 6255 c-124 -34 -224 -116 -280 -231 -29 -58 -34 -80 -37 -159
-5 -112 11 -176 67 -262 91 -141 278 -219 440 -184 277 59 423 358 299 611
-87 180 -300 278 -489 225z"/>
<path d="M4094 6201 c-220 -35 -411 -197 -476 -404 -30 -96 -32 -274 -4 -357
44 -129 111 -224 209 -297 80 -59 146 -88 248 -109 305 -62 605 132 684 441
49 191 -12 410 -153 553 -132 133 -331 200 -508 173z"/>
<path d="M14843 6030 c-155 -17 -300 -79 -391 -167 -30 -29 -56 -53 -58 -53
-2 0 -4 45 -4 100 l0 100 -225 0 -225 0 0 -815 0 -815 240 0 240 0 0 438 c0
465 3 500 50 593 66 128 252 213 425 193 l55 -7 0 222 c0 204 -1 221 -17 220
-10 -1 -51 -5 -90 -9z"/>
<path d="M16050 6030 c-321 -33 -575 -201 -701 -465 -56 -116 -71 -182 -76
-331 -10 -268 67 -469 245 -636 179 -168 408 -246 692 -235 165 7 257 29 395
97 215 106 366 293 426 525 29 114 29 297 0 420 -100 416 -506 675 -981 625z
m256 -405 c110 -36 206 -138 246 -259 28 -89 31 -241 5 -326 -37 -126 -135
-230 -254 -272 -85 -30 -235 -23 -315 14 -156 72 -241 217 -241 413 1 234 123
402 326 445 58 12 171 5 233 -15z"/>
<path d="M23148 6029 c-374 -39 -653 -261 -750 -596 -20 -67 -23 -101 -23
-243 1 -158 2 -169 32 -258 43 -128 101 -222 197 -318 181 -180 412 -263 706
-251 161 6 257 29 385 90 320 155 497 484 455 847 -46 403 -349 685 -781 730
-111 11 -110 11 -221 -1z m263 -405 c104 -38 203 -140 239 -249 79 -240 -9
-495 -205 -591 -56 -27 -68 -29 -180 -29 -116 0 -123 1 -186 32 -82 41 -150
111 -192 200 -27 60 -31 80 -35 181 -4 88 -1 128 13 179 40 148 160 261 309
293 59 13 179 4 237 -16z"/>
<path d="M25170 6029 c-382 -37 -620 -237 -620 -521 0 -164 63 -281 198 -366
80 -52 234 -94 457 -127 263 -38 325 -67 325 -153 0 -37 -6 -50 -33 -77 -55
-55 -122 -69 -301 -62 -179 6 -288 32 -435 102 -52 25 -95 44 -95 43 -4 -7
-111 -237 -132 -285 l-24 -53 68 -34 c159 -79 353 -124 572 -133 242 -9 383
15 547 93 209 100 310 275 283 490 -13 98 -48 169 -115 233 -95 90 -198 127
-510 181 -298 53 -350 77 -350 167 0 41 4 49 42 83 49 43 101 59 213 67 138
10 339 -31 463 -94 27 -13 50 -23 52 -21 2 2 37 77 79 167 58 124 73 167 64
173 -84 53 -307 112 -488 128 -127 11 -138 11 -260 -1z"/>
<path d="M18970 5527 c0 -267 5 -520 10 -567 22 -185 78 -310 184 -416 77 -77
171 -130 281 -160 91 -24 284 -29 375 -10 104 22 229 84 295 147 l55 52 0 -97
0 -96 225 0 225 0 0 815 0 815 -234 0 -235 0 -3 -472 c-4 -465 -4 -474 -27
-536 -30 -80 -102 -161 -178 -199 -74 -35 -201 -44 -288 -18 -84 24 -155 97
-186 191 -22 67 -23 83 -27 552 l-4 482 -234 0 -234 0 0 -483z"/>
<path d="M12013 5560 c-74 -24 -162 -100 -197 -169 -95 -186 -20 -400 169
-488 51 -23 73 -28 145 -28 71 0 94 5 140 26 81 39 134 90 172 167 30 60 33
75 33 157 0 76 -4 98 -26 146 -79 167 -261 246 -436 189z"/>
<path d="M7391 5514 c-222 -60 -383 -271 -382 -502 0 -96 13 -158 53 -242 40
-83 149 -194 230 -233 214 -102 450 -65 613 98 332 332 96 898 -373 894 -48 0
-111 -7 -141 -15z"/>
<path d="M10727 5159 c-119 -28 -228 -117 -281 -228 -29 -61 -31 -74 -31 -176
0 -103 2 -114 32 -177 41 -88 113 -160 201 -201 62 -30 75 -32 172 -32 97 0
110 2 172 32 131 62 216 174 241 316 20 119 -19 247 -105 342 -96 106 -261
157 -401 124z"/>
<path d="M9058 5041 c-75 -24 -144 -69 -206 -135 -84 -89 -126 -198 -125 -326
4 -414 499 -622 801 -337 183 174 198 455 34 654 -47 58 -140 119 -219 143
-84 26 -206 26 -285 1z"/>
<path d="M5400 4984 c-122 -24 -230 -82 -315 -168 -142 -144 -195 -336 -146
-528 37 -143 108 -247 224 -329 131 -92 313 -124 471 -83 189 49 350 210 401
404 19 72 19 211 0 284 -48 183 -197 342 -374 397 -64 20 -210 33 -261 23z"/>
<path d="M11873 4326 c-100 -33 -169 -92 -221 -189 -24 -47 -27 -62 -27 -157
0 -95 3 -111 28 -162 61 -123 187 -201 327 -201 140 0 263 75 325 200 27 53
30 67 30 158 0 88 -3 107 -27 157 -34 73 -104 143 -176 176 -69 31 -192 40
-259 18z"/>
<path d="M7065 4200 c-289 -62 -478 -338 -422 -616 43 -208 190 -367 388 -419
69 -19 199 -19 268 0 213 56 368 238 395 465 21 173 -76 380 -227 484 -109 75
-283 112 -402 86z"/>
<path d="M10384 3897 c-73 -28 -107 -51 -161 -110 -234 -254 -72 -668 272
-694 179 -14 335 79 413 245 24 51 27 69 27 168 0 107 -1 112 -38 186 -44 91
-102 147 -197 192 -56 26 -78 31 -160 33 -80 3 -105 -1 -156 -20z"/>
<path d="M8733 3866 c-85 -21 -164 -66 -229 -131 -97 -96 -144 -209 -144 -345
0 -136 47 -249 144 -346 186 -186 483 -191 672 -12 106 100 156 215 156 358 1
142 -50 258 -156 358 -116 110 -287 156 -443 118z"/>
</g>
</svg>
