<svg width="60" height="60" viewBox="0 0 60 60" fill="none" xmlns="http://www.w3.org/2000/svg">
<g id="fast-delivery" clip-path="url(#clip0_918_124)">
<g id="Group">
<path id="Vector" d="M20.1193 45.8265C23.036 44.4247 24.264 40.9239 22.8621 38.0072C21.4603 35.0906 17.9594 33.8626 15.0428 35.2645C12.1261 36.6663 10.8981 40.1671 12.3 43.0838C13.7019 46.0004 17.2027 47.2284 20.1193 45.8265Z" stroke="#89368E" stroke-width="2.34375" stroke-miterlimit="22.9256" stroke-linecap="round" stroke-linejoin="round"/>
<path id="Vector_2" d="M17.582 40.5469H17.5829" stroke="#89368E" stroke-width="2.34375" stroke-miterlimit="22.9256" stroke-linecap="round" stroke-linejoin="round"/>
<path id="Vector_3" d="M49.108 46.0578C52.1509 44.9562 53.7246 41.5965 52.623 38.5537C51.5215 35.5109 48.1618 33.9371 45.1189 35.0387C42.0761 36.1402 40.5024 39.4999 41.6039 42.5428C42.7055 45.5856 46.0652 47.1593 49.108 46.0578Z" stroke="#89368E" stroke-width="2.34375" stroke-miterlimit="22.9256" stroke-linecap="round" stroke-linejoin="round"/>
<path id="Vector_4" d="M47.1133 40.5469H47.1141" stroke="#89368E" stroke-width="2.34375" stroke-miterlimit="22.9256" stroke-linecap="round" stroke-linejoin="round"/>
<path id="Vector_5" d="M46.5286 17.6953V26.4843C50.2391 26.4843 52.7777 26.4843 56.488 26.4843C57.8699 26.4843 58.8318 27.4755 58.8318 28.8281V41.7186H53.0315M55.1832 26.3194L51.2158 17.1094H41.8409M41.2544 35.8593V13.5938H8.20703L5.86328 41.7186H11.6636M51.3998 36.4452H58.246M41.1957 41.7186H23.4995M6.4491 36.4452H13.2661M21.897 36.4452H42.8275" stroke="#89368E" stroke-width="2.34375" stroke-miterlimit="22.9256" stroke-linecap="round" stroke-linejoin="round"/>
<path id="Vector_6" d="M9.27215 30.7324H1.17578" stroke="#89368E" stroke-width="2.34375" stroke-miterlimit="22.9256" stroke-linecap="round" stroke-linejoin="round"/>
<path id="Vector_7" d="M17.4753 25.0195H4.69141" stroke="#89368E" stroke-width="2.34375" stroke-miterlimit="22.9256" stroke-linecap="round" stroke-linejoin="round"/>
<path id="Vector_8" d="M12.2018 19.3066H2.93359" stroke="#89368E" stroke-width="2.34375" stroke-miterlimit="22.9256" stroke-linecap="round" stroke-linejoin="round"/>
<path id="Vector_9" d="M21.8177 19.3066H17.4766" stroke="#89368E" stroke-width="2.34375" stroke-miterlimit="22.9256" stroke-linecap="round" stroke-linejoin="round"/>
<path id="Vector_10" d="M24.9205 25.0195H22.75" stroke="#89368E" stroke-width="2.34375" stroke-miterlimit="22.9256" stroke-linecap="round" stroke-linejoin="round"/>
</g>
</g>
<defs>
<clipPath id="clip0_918_124">
<rect width="60.0002" height="60" fill="white"/>
</clipPath>
</defs>
</svg>
