<svg width="60" height="60" viewBox="0 0 60 60" fill="none" xmlns="http://www.w3.org/2000/svg">
<g id="graphic-design" clip-path="url(#clip0_915_1569)">
<path id="Vector" d="M51.8591 9.31915H58.8281C59.4754 9.31915 60 8.79456 60 8.14728V1.17188C60 0.524597 59.4754 0 58.8281 0H51.8591C51.2119 0 50.6873 0.524597 50.6873 1.17188V3.4877H34.6564V1.17188C34.6564 0.524597 34.1318 0 33.4845 0H26.5155C25.8682 0 25.3436 0.524597 25.3436 1.17188V3.4877H9.31274V1.17188C9.31274 0.524597 8.78815 0 8.14087 0H1.17188C0.524597 0 0 0.524597 0 1.17188V8.14728C0 8.79456 0.524597 9.31915 1.17188 9.31915H8.14087C8.78815 9.31915 9.31274 8.79456 9.31274 8.14728V5.83145H19.0613C15.6285 7.38785 12.5336 9.67392 10.0117 12.5647C6.05759 17.0975 3.77151 22.8333 3.50739 28.8281H1.17188C0.524597 28.8281 0 29.3527 0 30V36.9754C0 37.6227 0.524597 38.1473 1.17188 38.1473H8.14087C8.78815 38.1473 9.31274 37.6227 9.31274 36.9754V30C9.31274 29.3527 8.78815 28.8281 8.14087 28.8281H5.85388C6.39404 17.7846 14.518 8.38074 25.3436 6.26678V8.14774C25.3436 8.79501 25.8682 9.31961 26.5155 9.31961H33.4845C34.1318 9.31961 34.6564 8.79501 34.6564 8.14774V6.26678C45.482 8.38074 53.606 17.7846 54.1461 28.8281H51.8591C51.2119 28.8281 50.6873 29.3527 50.6873 30V36.9754C50.6873 37.6227 51.2119 38.1473 51.8591 38.1473H58.8281C59.4754 38.1473 60 37.6227 60 36.9754V30C60 29.3527 59.4754 28.8281 58.8281 28.8281H56.4926C56.2285 22.8333 53.9424 17.0975 49.9883 12.5647C47.4664 9.67392 44.3715 7.38785 40.9387 5.83145H50.6873V8.14774C50.6873 8.79456 51.2119 9.31915 51.8591 9.31915ZM6.96899 6.9754H2.34375V2.34375H6.96899V6.9754ZM6.96899 35.8035H2.34375V31.1719H6.96899V35.8035ZM57.6562 35.8035H53.031V31.1719H57.6562V35.8035ZM32.3126 6.9754H27.6874V2.34375H32.3126V6.9754ZM53.031 2.34375H57.6562V6.9754H53.031V2.34375Z" fill="#89368E"/>
<path id="Vector_2" d="M31.0257 12.9112C30.8197 12.5372 30.4265 12.3047 29.9994 12.3047C29.5723 12.3047 29.1791 12.5372 28.9731 12.9112L24.1057 21.7479C23.7935 22.3151 24 23.0278 24.5672 23.3395C25.1334 23.6517 25.8466 23.4457 26.1588 22.8786L28.8276 18.0331V26.6753C27.2007 27.177 26.0151 28.6945 26.0151 30.4839C26.0151 32.6807 27.8026 34.4682 29.9994 34.4682C32.1962 34.4682 33.9838 32.6807 33.9838 30.4839C33.9838 28.6945 32.7982 27.177 31.1713 26.6753V18.0331L39.211 32.6303C36.5697 35.3018 34.7693 38.7286 34.0699 42.4219H25.929C25.2291 38.7286 23.4287 35.3018 20.7879 32.6303L22.1309 30.1918C22.4431 29.6251 22.2367 28.9124 21.67 28.6002C21.1033 28.288 20.3901 28.494 20.0779 29.0611L18.3017 32.2865C18.0408 32.7599 18.1379 33.3508 18.5366 33.7161C21.0602 36.0274 22.8125 39.0889 23.5376 42.4219H22.4463C20.5077 42.4219 18.9307 43.9993 18.9307 45.9375C18.9307 47.3053 19.7158 48.4918 20.8588 49.0727V58.8281C20.8588 59.4754 21.3834 60 22.0307 60C22.678 60 23.2026 59.4754 23.2026 58.8281V49.4531H36.7963V58.8281C36.7963 59.4754 37.3209 60 37.9682 60C38.6155 60 39.1401 59.4754 39.1401 58.8281V49.0727C40.2831 48.4918 41.0682 47.3048 41.0682 45.9375C41.0682 43.9989 39.4912 42.4219 37.5525 42.4219H36.4612C37.1863 39.0884 38.9386 36.0274 41.4623 33.7157C41.861 33.3504 41.9581 32.7599 41.6971 32.2861L31.0257 12.9112ZM29.9994 32.1245C29.0949 32.1245 28.3588 31.3884 28.3588 30.4839C28.3588 29.5789 29.0949 28.8432 29.9994 28.8432C30.904 28.8432 31.6401 29.5789 31.6401 30.4839C31.6401 31.3884 30.904 32.1245 29.9994 32.1245ZM38.7244 45.9375C38.7244 46.5839 38.1989 47.1094 37.5525 47.1094H22.4463C21.8 47.1094 21.2745 46.5839 21.2745 45.9375C21.2745 45.2911 21.8 44.7656 22.4463 44.7656H37.5525C38.1989 44.7656 38.7244 45.2911 38.7244 45.9375Z" fill="#89368E"/>
<path id="Vector_3" d="M23.043 27.2012C23.3515 27.2012 23.6536 27.0767 23.8715 26.8588C24.0894 26.6395 24.2148 26.3387 24.2148 26.0293C24.2148 25.7208 24.0894 25.42 23.8715 25.2007C23.6536 24.9828 23.3515 24.8574 23.043 24.8574C22.7335 24.8574 22.4314 24.9828 22.2135 25.2007C21.9956 25.42 21.8711 25.7208 21.8711 26.0293C21.8711 26.3387 21.9956 26.6395 22.2135 26.8588C22.4314 27.0767 22.7335 27.2012 23.043 27.2012Z" fill="#89368E"/>
</g>
<defs>
<clipPath id="clip0_915_1569">
<rect width="60" height="60" fill="white"/>
</clipPath>
</defs>
</svg>
