<svg width="60" height="60" viewBox="0 0 60 60" fill="none" xmlns="http://www.w3.org/2000/svg">
<g id="solution" clip-path="url(#clip0_918_81)">
<g id="g1038">
<g id="g1040">
<g id="Clip path group">
<mask id="mask0_918_81" style="mask-type:luminance" maskUnits="userSpaceOnUse" x="0" y="0" width="61" height="61">
<g id="clipPath1046">
<path id="path1044" d="M0.0078125 0.00391006H60.008V60.0039H0.0078125V0.00391006Z" fill="white"/>
</g>
</mask>
<g mask="url(#mask0_918_81)">
<g id="g1042">
<g id="g1048">
<path id="path1050" d="M49.7674 0.882183H42.5547V6.33058C42.5547 6.91734 43.0304 7.393 43.6172 7.393H43.7309C44.0184 7.393 44.2894 7.27253 44.4933 7.0698C45.0284 6.53789 45.7656 6.20929 46.5796 6.20929C48.325 6.20929 49.7176 7.72031 49.5204 9.50554C49.3719 10.8514 48.2969 11.9409 46.9529 12.1052C45.9942 12.2225 45.112 11.8808 44.4964 11.2705C44.2912 11.0671 44.0195 10.9444 43.7304 10.9444H43.6172C43.0304 10.9444 42.5547 11.42 42.5547 12.0068V17.4552H48.0031C48.5899 17.4552 49.0655 17.9309 49.0655 18.5176V18.6308C49.0655 18.9199 48.9428 19.1916 48.7394 19.3969C48.1291 20.0125 47.7874 20.8946 47.9047 21.8534C48.069 23.1973 49.1585 24.2722 50.5044 24.4208C52.2896 24.6179 53.8006 23.2255 53.8006 21.48C53.8006 20.666 53.472 19.9288 52.9401 19.3938C52.7374 19.1899 52.6169 18.9189 52.6169 18.6313V18.5176C52.6169 17.9309 53.0926 17.4552 53.6793 17.4552H59.1277V2.06601C59.1277 1.41211 58.5978 0.882183 57.9439 0.882183H53.8732" stroke="#89368E" stroke-width="1.75781" stroke-miterlimit="10" stroke-linecap="round" stroke-linejoin="round"/>
</g>
<g id="g1052">
<path id="path1054" d="M47.9046 46.9502C47.7874 45.9914 48.129 45.1094 48.7393 44.4938C48.9427 44.2885 49.0654 44.0168 49.0654 43.7277V43.6145C49.0654 43.0277 48.5898 42.552 48.003 42.552H42.5546V48.0004C42.5546 48.5871 42.0789 49.0628 41.4922 49.0628H41.379C41.0899 49.0628 40.8182 48.9401 40.6129 48.7367C39.9973 48.1264 39.1151 47.7848 38.1564 47.902C36.8125 48.0663 35.7375 49.1557 35.589 50.5016C35.3918 52.287 36.7843 53.798 38.5298 53.798C39.3438 53.798 40.081 53.4693 40.616 52.9374C40.8199 52.7346 41.0909 52.6142 41.3785 52.6142H42.5546V59.125H57.9438C58.5977 59.125 59.1276 58.5951 59.1276 57.9413V42.552H53.6792C53.0925 42.552 52.6168 43.0277 52.6168 43.6145V43.7282C52.6168 44.0157 52.7373 44.2867 52.94 44.4906C53.4719 45.0257 53.8006 45.7629 53.8006 46.5769C53.8006 48.3223 52.2895 49.7148 50.5043 49.5177C49.1584 49.3691 48.0689 48.2942 47.9046 46.9502Z" stroke="#89368E" stroke-width="1.75781" stroke-miterlimit="10" stroke-linecap="round" stroke-linejoin="round"/>
</g>
<g id="g1056">
<path id="path1058" d="M8.12729 59.125H17.4598V53.6771C17.4598 53.0901 16.9839 52.6142 16.3969 52.6142H16.2837C15.9961 52.6142 15.725 52.7346 15.5211 52.9374C14.9862 53.4693 14.2489 53.7979 13.435 53.7979C11.6894 53.7979 10.2969 52.2869 10.4941 50.5016C10.6427 49.1557 11.7176 48.0664 13.0616 47.902C14.0203 47.7846 14.9024 48.1264 15.5181 48.7367C15.7234 48.9401 15.995 49.0628 16.284 49.0628H16.3969C16.9839 49.0628 17.4598 48.5869 17.4598 47.9999V42.552H12.0115C11.4246 42.552 10.9489 42.0763 10.9489 41.4896V41.3764C10.9489 41.0873 11.0716 40.8156 11.2752 40.6103C11.8854 39.9947 12.2271 39.1125 12.1098 38.1538C11.9455 36.8099 10.856 35.735 9.5101 35.5864C7.72486 35.3893 6.21384 36.7817 6.21384 38.5272C6.21384 39.3412 6.54256 40.0784 7.07447 40.6134C7.27709 40.8173 7.39756 41.0883 7.39756 41.3759V41.4896C7.39756 42.0763 6.92189 42.552 6.33513 42.552H0.886719V57.9412C0.886719 58.5951 1.41676 59.125 2.07055 59.125H4.02325" stroke="#89368E" stroke-width="1.75781" stroke-miterlimit="10" stroke-linecap="round" stroke-linejoin="round"/>
</g>
<g id="g1060">
<path id="path1062" d="M12.1098 13.0569C12.227 14.0156 11.8854 14.8977 11.2751 15.5133C11.0716 15.7186 10.9489 15.9902 10.9489 16.2793V16.3925C10.9489 16.9794 11.4246 17.4551 12.0114 17.4551H17.4598V12.0067C17.4598 11.4199 17.9354 10.9443 18.5222 10.9443H18.6354C18.9245 10.9443 19.1961 11.067 19.4015 11.2704C20.017 11.8807 20.8992 12.2223 21.8579 12.1051C23.2019 11.9408 24.2768 10.8513 24.4254 9.50543C24.6225 7.72008 23.2301 6.20906 21.4846 6.20906C20.6706 6.20906 19.9334 6.53777 19.3984 7.06969C19.1945 7.27242 18.9234 7.39289 18.6359 7.39289H18.5222C17.9354 7.39289 17.4598 6.91723 17.4598 6.33047V0.882071H2.07055C1.41664 0.882071 0.886719 1.41199 0.886719 2.06578V17.4551H6.33513C6.92189 17.4551 7.39756 16.9794 7.39756 16.3925V16.2789C7.39756 15.9914 7.27709 15.7204 7.07435 15.5164C6.54244 14.9814 6.21373 14.2441 6.21373 13.4302C6.21373 11.6848 7.72486 10.2922 9.5101 10.4893C10.856 10.6379 11.9455 11.7129 12.1098 13.0569Z" stroke="#89368E" stroke-width="1.75781" stroke-miterlimit="10" stroke-linecap="round" stroke-linejoin="round"/>
</g>
<g id="g1064">
<path id="path1066" d="M27.9883 9.28711H28.6914" stroke="#89368E" stroke-width="1.75781" stroke-linecap="round" stroke-linejoin="round"/>
</g>
<g id="g1068">
<path id="path1070" d="M32.625 9.28711H36.3389" stroke="#89368E" stroke-width="1.75781" stroke-linecap="round" stroke-linejoin="round" stroke-dasharray="1.75 3.93"/>
</g>
<g id="g1072">
<path id="path1074" d="M38.3047 9.28711H39.0078" stroke="#89368E" stroke-width="1.75781" stroke-linecap="round" stroke-linejoin="round"/>
</g>
<g id="g1076">
<path id="path1078" d="M50.7227 27.9844V28.6875" stroke="#89368E" stroke-width="1.75781" stroke-linecap="round" stroke-linejoin="round"/>
</g>
<g id="g1080">
<path id="path1082" d="M50.7227 32.6201V36.334" stroke="#89368E" stroke-width="1.75781" stroke-linecap="round" stroke-linejoin="round" stroke-dasharray="1.75 3.93"/>
</g>
<g id="g1084">
<path id="path1086" d="M50.7227 38.3027V39.0059" stroke="#89368E" stroke-width="1.75781" stroke-linecap="round" stroke-linejoin="round"/>
</g>
<g id="g1088">
<path id="path1090" d="M32.0234 50.7188H31.3203" stroke="#89368E" stroke-width="1.75781" stroke-linecap="round" stroke-linejoin="round"/>
</g>
<g id="g1092">
<path id="path1094" d="M27.3897 50.7188H23.6758" stroke="#89368E" stroke-width="1.75781" stroke-linecap="round" stroke-linejoin="round" stroke-dasharray="1.75 3.93"/>
</g>
<g id="g1096">
<path id="path1098" d="M21.707 50.7188H21.0039" stroke="#89368E" stroke-width="1.75781" stroke-linecap="round" stroke-linejoin="round"/>
</g>
<g id="g1100">
<path id="path1102" d="M9.28906 32.0215V31.3184" stroke="#89368E" stroke-width="1.75781" stroke-linecap="round" stroke-linejoin="round"/>
</g>
<g id="g1104">
<path id="path1106" d="M9.28906 27.3848V23.6709" stroke="#89368E" stroke-width="1.75781" stroke-linecap="round" stroke-linejoin="round" stroke-dasharray="1.75 3.93"/>
</g>
<g id="g1108">
<path id="path1110" d="M9.28906 21.7031V21" stroke="#89368E" stroke-width="1.75781" stroke-linecap="round" stroke-linejoin="round"/>
</g>
<g id="g1112">
<path id="path1114" d="M30.0088 32.2891C28.7454 32.2891 27.7213 31.265 27.7213 30.0016C27.7213 28.7382 28.7454 27.7141 30.0088 27.7141C31.2722 27.7141 32.2963 28.7382 32.2963 30.0016C32.2963 31.265 31.2722 32.2891 30.0088 32.2891ZM39.5259 30.0016C39.5259 29.6271 39.5042 29.2577 39.4621 28.8945C39.4046 28.3979 39.6374 27.9128 40.0703 27.6629L41.9226 26.5935C42.5214 26.2477 42.7268 25.4819 42.3809 24.8829L40.6278 21.8464C40.282 21.2474 39.516 21.0422 38.9172 21.388L37.064 22.458C36.6298 22.7086 36.0917 22.6674 35.6897 22.3677C35.1032 21.9309 34.4648 21.5601 33.7852 21.2661C33.3211 21.0653 33.0142 20.6158 33.0142 20.1101V17.98C33.0142 17.2884 32.4536 16.7277 31.762 16.7277H28.2557C27.5641 16.7277 27.0034 17.2884 27.0034 17.98V20.1101C27.0034 20.6158 26.6965 21.0653 26.2324 21.2661C25.5529 21.5601 24.9144 21.9309 24.3279 22.3677C23.926 22.6674 23.3878 22.7086 22.9537 22.458L21.1004 21.388C20.5016 21.0422 19.7357 21.2474 19.3899 21.8464L17.6367 24.8829C17.2909 25.4819 17.4962 26.2477 18.095 26.5935L19.9473 27.6629C20.3802 27.9128 20.6131 28.3979 20.5555 28.8945C20.5134 29.2577 20.4918 29.6271 20.4918 30.0016C20.4918 30.376 20.5134 30.7455 20.5555 31.1086C20.6131 31.6053 20.3802 32.0903 19.9473 32.3403L18.095 33.4096C17.4962 33.7554 17.2909 34.5213 17.6367 35.1202L19.3899 38.1568C19.7357 38.7557 20.5016 38.9609 21.1004 38.6151L22.9537 37.5452C23.3878 37.2945 23.926 37.3357 24.3279 37.6354C24.9144 38.0723 25.5529 38.443 26.2324 38.7371C26.6965 38.9378 27.0034 39.3873 27.0034 39.893V42.0231C27.0034 42.7148 27.5641 43.2754 28.2557 43.2754H31.762C32.4536 43.2754 33.0142 42.7148 33.0142 42.0231V39.893C33.0142 39.3873 33.3211 38.9378 33.7852 38.7371C34.4648 38.443 35.1032 38.0723 35.6897 37.6354C36.0917 37.3357 36.6298 37.2945 37.064 37.5452L38.9172 38.6151C39.516 38.9609 40.282 38.7557 40.6278 38.1568L42.3809 35.1202C42.7268 34.5213 42.5214 33.7554 41.9226 33.4096L40.0703 32.3403C39.6374 32.0903 39.4046 31.6053 39.4621 31.1086C39.5042 30.7455 39.5259 30.376 39.5259 30.0016Z" stroke="#89368E" stroke-width="1.75781" stroke-miterlimit="10" stroke-linecap="round" stroke-linejoin="round"/>
</g>
<g id="g1116">
<path id="path1118" d="M30.0088 35.9219C26.7398 35.9219 24.0898 33.2719 24.0898 30.003C24.0898 26.734 26.7398 24.0839 30.0088 24.0839C33.2777 24.0839 35.9277 26.734 35.9277 30.003C35.9277 33.2719 33.2777 35.9219 30.0088 35.9219Z" stroke="#89368E" stroke-width="1.75781" stroke-miterlimit="10" stroke-linecap="round" stroke-linejoin="round"/>
</g>
</g>
</g>
</g>
</g>
</g>
</g>
<defs>
<clipPath id="clip0_918_81">
<rect width="60.0002" height="60" fill="white"/>
</clipPath>
</defs>
</svg>
