<svg width="60" height="60" viewBox="0 0 60 60" fill="none" xmlns="http://www.w3.org/2000/svg">
<g id="laser-cutting-machine">
<g id="Layer 2">
<path id="Vector" d="M56.2505 57.1875C56.4013 57.1945 56.5516 57.165 56.6885 57.1015C56.8255 57.038 56.9451 56.9423 57.0371 56.8227C57.1292 56.703 57.191 56.5629 57.2172 56.4142C57.2435 56.2656 57.2335 56.1128 57.188 55.9688L49.688 32.5313C49.6048 32.348 49.4739 32.1905 49.309 32.0751C49.1441 31.9596 48.9512 31.8906 48.7505 31.875H34.688V28.125H37.5005C37.6273 28.1401 37.7558 28.1262 37.8764 28.0845C37.997 28.0427 38.1066 27.9741 38.1968 27.8838C38.2871 27.7936 38.3557 27.684 38.3974 27.5634C38.4392 27.4428 38.4531 27.3143 38.438 27.1875V3.75005C38.4531 3.6233 38.4392 3.49479 38.3974 3.37418C38.3557 3.25358 38.2871 3.14402 38.1968 3.05377C38.1066 2.96352 37.997 2.89491 37.8764 2.85313C37.7558 2.81135 37.6273 2.79747 37.5005 2.81255H22.5005C22.3738 2.79747 22.2453 2.81135 22.1247 2.85313C22.0041 2.89491 21.8945 2.96352 21.8043 3.05377C21.714 3.14402 21.6454 3.25358 21.6036 3.37418C21.5618 3.49479 21.548 3.6233 21.563 3.75005V27.1875C21.548 27.3143 21.5618 27.4428 21.6036 27.5634C21.6454 27.684 21.714 27.7936 21.8043 27.8838C21.8945 27.9741 22.0041 28.0427 22.1247 28.0845C22.2453 28.1262 22.3738 28.1401 22.5005 28.125H25.313V31.875H11.2505C11.0498 31.8906 10.857 31.9596 10.6921 32.0751C10.5272 32.1905 10.3963 32.348 10.313 32.5313L2.81303 55.9688C2.76758 56.1128 2.75757 56.2656 2.78384 56.4142C2.81011 56.5629 2.8719 56.703 2.96395 56.8227C3.05599 56.9423 3.17557 57.038 3.31252 57.1015C3.44947 57.165 3.59973 57.1945 3.75053 57.1875H56.2505ZM23.438 4.68755H36.563V26.25H23.438V4.68755ZM32.813 28.125V33.9375L30.0005 37.0313L27.188 33.9375V28.125H32.813ZM11.9068 33.75H25.313V34.3125C25.3256 34.5578 25.4254 34.7905 25.5943 34.9688L29.063 38.8125V44.0625H15.938C15.7473 44.0729 15.5643 44.1414 15.4135 44.2586C15.2627 44.3759 15.1513 44.5365 15.0943 44.7188L13.2193 50.3438C13.151 50.4793 13.1205 50.6307 13.131 50.7821C13.1415 50.9334 13.1926 51.0792 13.279 51.2039C13.3653 51.3287 13.4837 51.4278 13.6217 51.4909C13.7597 51.5541 13.9122 51.5788 14.063 51.5625H46.8755C47.1645 51.5389 47.4332 51.4045 47.6255 51.1875C47.7246 51.0728 47.7865 50.9308 47.8033 50.7802C47.82 50.6296 47.7907 50.4774 47.7193 50.3438L43.0318 37.2188L41.3443 37.7813L45.563 49.6875H15.3755L16.5943 45.9375H36.563V44.0625H30.938V38.8125L34.4068 34.9688C34.5757 34.7905 34.6754 34.5578 34.688 34.3125V33.75H48.0943L54.938 55.3125H5.06303L11.9068 33.75Z" fill="#89368E"/>
<path id="Vector_2" d="M23.1445 38.4863L24.3445 37.0463L27.3541 39.5543L26.1541 40.9943L23.1445 38.4863Z" fill="#89368E"/>
<path id="Vector_3" d="M21.4102 42.3223L21.8733 40.5054L25.716 41.4849L25.2528 43.3018L21.4102 42.3223Z" fill="#89368E"/>
<path id="Vector_4" d="M32.6523 39.6172L35.6763 37.0972L36.8763 38.5372L33.8523 41.0572L32.6523 39.6172Z" fill="#89368E"/>
<path id="Vector_5" d="M34.25 41.4219L38.0654 40.4493L38.5286 42.2662L34.7131 43.2387L34.25 41.4219Z" fill="#89368E"/>
</g>
</g>
</svg>
