<svg width="60" height="60" viewBox="0 0 60 60" fill="none" xmlns="http://www.w3.org/2000/svg">
<g id="hand" clip-path="url(#clip0_915_1633)">
<path id="Vector" d="M0.9375 4.45312H2.34375C2.53023 4.45312 2.70907 4.37905 2.84093 4.24718C2.9728 4.11532 3.04688 3.93648 3.04688 3.75C3.04688 3.56352 2.9728 3.38468 2.84093 3.25282C2.70907 3.12095 2.53023 3.04688 2.34375 3.04688H0.9375C0.75102 3.04688 0.572177 3.12095 0.440316 3.25282C0.308454 3.38468 0.234375 3.56352 0.234375 3.75C0.234375 3.93648 0.308454 4.11532 0.440316 4.24718C0.572177 4.37905 0.75102 4.45312 0.9375 4.45312Z" fill="#89368E"/>
<path id="Vector_2" d="M5.15625 4.45312H6.5625C6.74898 4.45312 6.92782 4.37905 7.05968 4.24718C7.19155 4.11532 7.26562 3.93648 7.26562 3.75C7.26562 3.56352 7.19155 3.38468 7.05968 3.25282C6.92782 3.12095 6.74898 3.04688 6.5625 3.04688H5.15625C4.96977 3.04688 4.79093 3.12095 4.65907 3.25282C4.5272 3.38468 4.45313 3.56352 4.45312 3.75C4.45313 3.93648 4.5272 4.11532 4.65907 4.24718C4.79093 4.37905 4.96977 4.45312 5.15625 4.45312Z" fill="#89368E"/>
<path id="Vector_3" d="M3.75 4.45312C3.56352 4.45313 3.38468 4.5272 3.25282 4.65907C3.12095 4.79093 3.04688 4.96977 3.04688 5.15625V6.5625C3.04688 6.74898 3.12095 6.92782 3.25282 7.05968C3.38468 7.19155 3.56352 7.26562 3.75 7.26562C3.93648 7.26562 4.11532 7.19155 4.24718 7.05968C4.37905 6.92782 4.45312 6.74898 4.45312 6.5625V5.15625C4.45312 4.96977 4.37905 4.79093 4.24718 4.65907C4.11532 4.5272 3.93648 4.45313 3.75 4.45312Z" fill="#89368E"/>
<path id="Vector_4" d="M3.75 3.04688C3.93648 3.04688 4.11532 2.9728 4.24718 2.84093C4.37905 2.70907 4.45312 2.53023 4.45312 2.34375V0.9375C4.45312 0.75102 4.37905 0.572177 4.24718 0.440316C4.11532 0.308454 3.93648 0.234375 3.75 0.234375C3.56352 0.234375 3.38468 0.308454 3.25282 0.440316C3.12095 0.572177 3.04688 0.75102 3.04688 0.9375V2.34375C3.04688 2.53023 3.12095 2.70907 3.25282 2.84093C3.38468 2.9728 3.56352 3.04688 3.75 3.04688Z" fill="#89368E"/>
<path id="Vector_5" d="M54.8438 42.4219H53.4375C53.251 42.4219 53.0722 42.496 52.9403 42.6278C52.8085 42.7597 52.7344 42.9385 52.7344 43.125C52.7344 43.3115 52.8085 43.4903 52.9403 43.6222C53.0722 43.754 53.251 43.8281 53.4375 43.8281H54.8438C55.0302 43.8281 55.2091 43.754 55.3409 43.6222C55.4728 43.4903 55.5469 43.3115 55.5469 43.125C55.5469 42.9385 55.4728 42.7597 55.3409 42.6278C55.2091 42.496 55.0302 42.4219 54.8438 42.4219Z" fill="#89368E"/>
<path id="Vector_6" d="M59.0625 42.4219H57.6562C57.4698 42.4219 57.2909 42.496 57.1591 42.6278C57.0272 42.7597 56.9531 42.9385 56.9531 43.125C56.9531 43.3115 57.0272 43.4903 57.1591 43.6222C57.2909 43.754 57.4698 43.8281 57.6562 43.8281H59.0625C59.249 43.8281 59.4278 43.754 59.5597 43.6222C59.6915 43.4903 59.7656 43.3115 59.7656 43.125C59.7656 42.9385 59.6915 42.7597 59.5597 42.6278C59.4278 42.496 59.249 42.4219 59.0625 42.4219Z" fill="#89368E"/>
<path id="Vector_7" d="M56.25 43.8281C56.0635 43.8281 55.8847 43.9022 55.7528 44.0341C55.621 44.1659 55.5469 44.3448 55.5469 44.5312V45.9375C55.5469 46.124 55.621 46.3028 55.7528 46.4347C55.8847 46.5665 56.0635 46.6406 56.25 46.6406C56.4365 46.6406 56.6153 46.5665 56.7472 46.4347C56.879 46.3028 56.9531 46.124 56.9531 45.9375V44.5312C56.9531 44.3448 56.879 44.1659 56.7472 44.0341C56.6153 43.9022 56.4365 43.8281 56.25 43.8281Z" fill="#89368E"/>
<path id="Vector_8" d="M55.5469 40.3125V41.7188C55.5469 41.9052 55.621 42.0841 55.7528 42.2159C55.8847 42.3478 56.0635 42.4219 56.25 42.4219C56.4365 42.4219 56.6153 42.3478 56.7472 42.2159C56.879 42.0841 56.9531 41.9052 56.9531 41.7188V40.3125C56.9531 40.126 56.879 39.9472 56.7472 39.8153C56.6153 39.6835 56.4365 39.6094 56.25 39.6094C56.0635 39.6094 55.8847 39.6835 55.7528 39.8153C55.621 39.9472 55.5469 40.126 55.5469 40.3125Z" fill="#89368E"/>
<path id="Vector_9" d="M46.1719 27.1875C46.1719 27.001 46.0978 26.8222 45.9659 26.6903C45.8341 26.5585 45.6552 26.4844 45.4688 26.4844H44.0625C43.876 26.4844 43.6972 26.5585 43.5653 26.6903C43.4335 26.8222 43.3594 27.001 43.3594 27.1875C43.3594 27.374 43.4335 27.5528 43.5653 27.6847C43.6972 27.8165 43.876 27.8906 44.0625 27.8906H45.4688C45.6552 27.8906 45.8341 27.8165 45.9659 27.6847C46.0978 27.5528 46.1719 27.374 46.1719 27.1875Z" fill="#89368E"/>
<path id="Vector_10" d="M49.6875 26.4844H48.2812C48.0948 26.4844 47.9159 26.5585 47.7841 26.6903C47.6522 26.8222 47.5781 27.001 47.5781 27.1875C47.5781 27.374 47.6522 27.5528 47.7841 27.6847C47.9159 27.8165 48.0948 27.8906 48.2812 27.8906H49.6875C49.874 27.8906 50.0528 27.8165 50.1847 27.6847C50.3165 27.5528 50.3906 27.374 50.3906 27.1875C50.3906 27.001 50.3165 26.8222 50.1847 26.6903C50.0528 26.5585 49.874 26.4844 49.6875 26.4844Z" fill="#89368E"/>
<path id="Vector_11" d="M46.1719 30C46.1719 30.1865 46.246 30.3653 46.3778 30.4972C46.5097 30.629 46.6885 30.7031 46.875 30.7031C47.0615 30.7031 47.2403 30.629 47.3722 30.4972C47.504 30.3653 47.5781 30.1865 47.5781 30V28.5938C47.5781 28.4073 47.504 28.2284 47.3722 28.0966C47.2403 27.9647 47.0615 27.8906 46.875 27.8906C46.6885 27.8906 46.5097 27.9647 46.3778 28.0966C46.246 28.2284 46.1719 28.4073 46.1719 28.5938V30Z" fill="#89368E"/>
<path id="Vector_12" d="M46.875 26.4844C47.0615 26.4844 47.2403 26.4103 47.3722 26.2784C47.504 26.1466 47.5781 25.9677 47.5781 25.7812V24.375C47.5781 24.1885 47.504 24.0097 47.3722 23.8778C47.2403 23.746 47.0615 23.6719 46.875 23.6719C46.6885 23.6719 46.5097 23.746 46.3778 23.8778C46.246 24.0097 46.1719 24.1885 46.1719 24.375V25.7812C46.1719 25.9677 46.246 26.1466 46.3778 26.2784C46.5097 26.4103 46.6885 26.4844 46.875 26.4844Z" fill="#89368E"/>
<path id="Vector_13" d="M7.96875 35.8594H6.5625C6.37602 35.8594 6.19718 35.9335 6.06532 36.0653C5.93345 36.1972 5.85938 36.376 5.85938 36.5625C5.85938 36.749 5.93345 36.9278 6.06532 37.0597C6.19718 37.1915 6.37602 37.2656 6.5625 37.2656H7.96875C8.15523 37.2656 8.33407 37.1915 8.46593 37.0597C8.5978 36.9278 8.67188 36.749 8.67188 36.5625C8.67188 36.376 8.5978 36.1972 8.46593 36.0653C8.33407 35.9335 8.15523 35.8594 7.96875 35.8594Z" fill="#89368E"/>
<path id="Vector_14" d="M12.1875 35.8594H10.7812C10.5948 35.8594 10.4159 35.9335 10.2841 36.0653C10.1522 36.1972 10.0781 36.376 10.0781 36.5625C10.0781 36.749 10.1522 36.9278 10.2841 37.0597C10.4159 37.1915 10.5948 37.2656 10.7812 37.2656H12.1875C12.374 37.2656 12.5528 37.1915 12.6847 37.0597C12.8165 36.9278 12.8906 36.749 12.8906 36.5625C12.8906 36.376 12.8165 36.1972 12.6847 36.0653C12.5528 35.9335 12.374 35.8594 12.1875 35.8594Z" fill="#89368E"/>
<path id="Vector_15" d="M9.375 37.2656C9.18852 37.2656 9.00968 37.3397 8.87782 37.4716C8.74595 37.6034 8.67188 37.7823 8.67188 37.9688V39.375C8.67188 39.5615 8.74595 39.7403 8.87782 39.8722C9.00968 40.004 9.18852 40.0781 9.375 40.0781C9.56148 40.0781 9.74032 40.004 9.87218 39.8722C10.004 39.7403 10.0781 39.5615 10.0781 39.375V37.9688C10.0781 37.7823 10.004 37.6034 9.87218 37.4716C9.74032 37.3397 9.56148 37.2656 9.375 37.2656Z" fill="#89368E"/>
<path id="Vector_16" d="M9.375 35.8594C9.56148 35.8594 9.74032 35.7853 9.87218 35.6534C10.004 35.5216 10.0781 35.3427 10.0781 35.1562V33.75C10.0781 33.5635 10.004 33.3847 9.87218 33.2528C9.74032 33.121 9.56148 33.0469 9.375 33.0469C9.18852 33.0469 9.00968 33.121 8.87782 33.2528C8.74595 33.3847 8.67188 33.5635 8.67188 33.75V35.1562C8.67188 35.3427 8.74595 35.5216 8.87782 35.6534C9.00968 35.7853 9.18852 35.8594 9.375 35.8594Z" fill="#89368E"/>
<path id="Vector_17" d="M46.4063 51.7969C45.9891 51.7969 45.5812 51.9206 45.2343 52.1524C44.8875 52.3841 44.6171 52.7136 44.4574 53.099C44.2978 53.4845 44.256 53.9086 44.3374 54.3178C44.4188 54.7269 44.6197 55.1028 44.9147 55.3978C45.2097 55.6928 45.5856 55.8937 45.9947 55.9751C46.4039 56.0565 46.828 56.0147 47.2135 55.8551C47.5989 55.6954 47.9284 55.425 48.1601 55.0782C48.3919 54.7313 48.5156 54.3234 48.5156 53.9062C48.5149 53.347 48.2924 52.8109 47.897 52.4155C47.5016 52.0201 46.9655 51.7976 46.4063 51.7969ZM46.4063 54.6094C46.2672 54.6094 46.1312 54.5681 46.0156 54.4909C45.9 54.4136 45.8099 54.3038 45.7566 54.1753C45.7034 54.0468 45.6895 53.9055 45.7166 53.7691C45.7438 53.6327 45.8107 53.5074 45.9091 53.4091C46.0074 53.3107 46.1327 53.2438 46.2691 53.2166C46.4055 53.1895 46.5468 53.2034 46.6753 53.2566C46.8038 53.3099 46.9136 53.4 46.9909 53.5156C47.0681 53.6312 47.1094 53.7672 47.1094 53.9062C47.1091 54.0927 47.035 54.2714 46.9032 54.4032C46.7714 54.535 46.5927 54.6091 46.4063 54.6094Z" fill="#89368E"/>
<path id="Vector_18" d="M5.15625 48.9844C4.73906 48.9844 4.33123 49.1081 3.98435 49.3399C3.63746 49.5716 3.3671 49.9011 3.20744 50.2865C3.04779 50.672 3.00602 51.0961 3.08741 51.5053C3.1688 51.9144 3.3697 52.2903 3.6647 52.5853C3.9597 52.8803 4.33555 53.0812 4.74473 53.1626C5.15391 53.244 5.57804 53.2022 5.96347 53.0426C6.34891 52.8829 6.67835 52.6125 6.91013 52.2657C7.14191 51.9188 7.26563 51.5109 7.26563 51.0938C7.26488 50.5345 7.04241 49.9984 6.64698 49.603C6.25156 49.2076 5.71546 48.9851 5.15625 48.9844ZM5.15625 51.7969C5.01719 51.7969 4.88124 51.7556 4.76562 51.6784C4.64999 51.6011 4.55987 51.4913 4.50665 51.3628C4.45343 51.2343 4.43951 51.093 4.46664 50.9566C4.49377 50.8202 4.56073 50.6949 4.65907 50.5966C4.7574 50.4982 4.88268 50.4313 5.01908 50.4041C5.15547 50.377 5.29685 50.3909 5.42533 50.4441C5.5538 50.4974 5.66362 50.5875 5.74088 50.7031C5.81814 50.8187 5.85938 50.9547 5.85938 51.0938C5.85913 51.2802 5.78497 51.4589 5.65316 51.5907C5.52135 51.7225 5.34266 51.7966 5.15625 51.7969Z" fill="#89368E"/>
<path id="Vector_19" d="M11.9797 13.7548L8.01503 12.312C7.899 12.2698 7.77391 12.2588 7.65231 12.2802C7.53071 12.3016 7.41687 12.3546 7.32222 12.4338L4.09065 15.1451C3.99683 15.224 3.92524 15.3261 3.88298 15.4412C3.84072 15.5563 3.82925 15.6804 3.84972 15.8013L4.58284 19.9563C4.60407 20.0779 4.65705 20.1917 4.7364 20.2862C4.81575 20.3807 4.91866 20.4525 5.03472 20.4945L8.9994 21.942C9.11526 21.9843 9.24023 21.9953 9.3617 21.9739C9.48318 21.9525 9.59686 21.8995 9.69128 21.8201L12.9238 19.1079C13.0178 19.0291 13.0896 18.9271 13.1319 18.8119C13.1741 18.6968 13.1855 18.5726 13.1647 18.4517L12.4316 14.2967C12.411 14.1744 12.3583 14.0599 12.2789 13.9647C12.1995 13.8695 12.0963 13.797 11.9797 13.7548ZM9.09878 20.4813L5.89722 19.317L5.30565 15.9617L7.91565 13.7717L11.1172 14.937L11.7088 18.2923L9.09878 20.4813Z" fill="#89368E"/>
<path id="Vector_20" d="M59.6581 12.1383C59.6965 12.026 59.7058 11.9059 59.6853 11.7891C59.6648 11.6723 59.6151 11.5625 59.5409 11.47C59.4666 11.3776 59.3702 11.3053 59.2606 11.2601C59.1509 11.2148 59.0316 11.1979 58.9138 11.2111L53.691 11.8036L51.7747 9.49829L52.7872 6.67641L57.8975 5.44735C58.0125 5.41912 58.1185 5.36239 58.2058 5.2824C58.2931 5.2024 58.3588 5.10171 58.3969 4.98962C58.435 4.87753 58.4443 4.75764 58.4239 4.64102C58.4034 4.5244 58.354 4.41481 58.28 4.32235C57.3903 3.2192 56.2296 2.36563 54.9115 1.845C53.5933 1.32436 52.1627 1.15445 50.7592 1.35185C49.3558 1.54925 48.0275 2.10722 46.9041 2.97127C45.7808 3.83533 44.9006 4.97593 44.3497 6.28172L43.1244 6.50204L38.6244 7.29422L37.8425 2.8636C37.7014 2.06915 37.2512 1.36301 36.5905 0.899822C35.9298 0.436634 35.1125 0.254154 34.3175 0.392348C33.6016 0.521153 32.9563 0.904382 32.5006 1.47141C32.1671 1.01679 31.7132 0.664488 31.19 0.45429C30.6668 0.244092 30.0953 0.184377 29.5399 0.281889C28.9846 0.379401 28.4676 0.630255 28.0473 1.00612C27.627 1.38198 27.3202 1.86787 27.1616 2.40891C26.7664 2.16897 26.3213 2.02329 25.8608 1.98318C25.4002 1.94306 24.9366 2.00959 24.5059 2.1776C24.0753 2.34561 23.6891 2.61059 23.3773 2.95197C23.0656 3.29335 22.8367 3.70196 22.7085 4.1461C22.2091 3.84482 21.6333 3.69403 21.0504 3.71181C20.4674 3.72959 19.902 3.9152 19.4219 4.24635C18.9418 4.5775 18.5674 5.04015 18.3437 5.57877C18.12 6.11739 18.0564 6.70913 18.1606 7.28297L18.7785 10.7911L17.8119 10.9692L14.511 11.5514C13.3061 10.254 11.7139 9.38131 9.97216 9.06357C8.23039 8.74583 6.43257 9.00014 4.84728 9.78853C3.26198 10.5769 1.97431 11.857 1.17662 13.4377C0.378933 15.0183 0.114053 16.8146 0.42155 18.5582C0.729048 20.3018 1.59242 21.8991 2.88268 23.1115C4.17294 24.3239 5.82083 25.0864 7.58018 25.2849C9.33952 25.4834 11.1159 25.1074 12.6439 24.213C14.1719 23.3186 15.3695 21.9539 16.0578 20.3227L17.8119 20.0086L18.9838 19.8023V20.4277C18.9828 21.4685 19.2391 22.4933 19.7298 23.4112C20.2204 24.3291 20.9303 25.1115 21.7963 25.6889V31.1723H20.6244C20.4379 31.1723 20.2591 31.2464 20.1272 31.3783C19.9953 31.5101 19.9213 31.689 19.9213 31.8755V59.063C19.9213 59.2495 19.9953 59.4283 20.1272 59.5602C20.2591 59.692 20.4379 59.7661 20.6244 59.7661H38.4369C38.6234 59.7661 38.8022 59.692 38.9341 59.5602C39.0659 59.4283 39.14 59.2495 39.14 59.063V31.8755C39.14 31.689 39.0659 31.5101 38.9341 31.3783C38.8022 31.2464 38.6234 31.1723 38.4369 31.1723H37.265V25.747L37.5172 25.6214C38.5708 25.099 39.4569 24.2919 40.0752 23.2916C40.6934 22.2912 41.019 21.1377 41.015 19.9617V15.9173L43.1244 15.5423L45.8956 15.0539C46.8597 16.0929 48.0767 16.8641 49.4278 17.2923C50.7789 17.7205 52.2179 17.791 53.6044 17.497C54.9909 17.203 56.2775 16.5545 57.3385 15.6148C58.3995 14.6751 59.1987 13.4763 59.6581 12.1355V12.1383ZM34.5622 1.78172C34.9906 1.70649 35.4313 1.80433 35.7876 2.05375C36.1439 2.30317 36.3866 2.68379 36.4625 3.11204L37.4441 8.67235H34.1122L33.2309 3.67735C33.1576 3.24963 33.2564 2.81026 33.5058 2.45513C33.7552 2.09999 34.135 1.85792 34.5622 1.78172ZM29.781 1.67204C29.9933 1.63408 30.2111 1.63834 30.4218 1.68456C30.6326 1.73078 30.8321 1.81807 31.0091 1.94143C31.1861 2.06479 31.3371 2.22182 31.4534 2.40353C31.5696 2.58524 31.649 2.78809 31.6869 3.00047L32.6844 8.67235H29.3525L28.4525 3.56766C28.3775 3.13933 28.4755 2.69875 28.7249 2.34252C28.9742 1.98629 29.3547 1.74349 29.7828 1.66735L29.781 1.67204ZM25.3278 3.40922C25.7563 3.33453 26.1968 3.4327 26.553 3.68223C26.9092 3.93175 27.152 4.31229 27.2281 4.74047L27.9294 8.71641C27.7848 8.75654 27.6571 8.84247 27.5655 8.96129C27.4739 9.08012 27.4233 9.22544 27.4213 9.37547V10.313C27.4268 10.8121 27.5172 11.3066 27.6884 11.7755C27.4614 11.9835 27.1798 12.1224 26.8766 12.1758C26.4481 12.251 26.0073 12.1532 25.6508 11.9038C25.2944 11.6544 25.0515 11.2738 24.9753 10.8455L23.9994 5.30579C23.9247 4.87738 24.0227 4.43681 24.272 4.08049C24.5213 3.72417 24.9016 3.48113 25.3297 3.40454L25.3278 3.40922ZM20.8756 5.14172C21.3042 5.06584 21.7454 5.16296 22.1025 5.41179C22.4596 5.66063 22.7034 6.04089 22.7806 6.46922L23.5944 11.0855C23.6318 11.2977 23.6271 11.5151 23.5805 11.7255C23.5338 11.9359 23.4462 12.135 23.3227 12.3115C23.1991 12.488 23.042 12.6384 22.8602 12.7542C22.6785 12.87 22.4758 12.9488 22.2636 12.9863C22.0514 13.0237 21.8339 13.0189 21.6236 12.9723C21.4132 12.9257 21.2141 12.8381 21.0376 12.7145C20.8611 12.591 20.7107 12.4338 20.5949 12.2521C20.4791 12.0704 20.4003 11.8677 20.3628 11.6555L19.5491 7.03922C19.4748 6.61187 19.5727 6.1725 19.8212 5.81701C20.0697 5.46151 20.4488 5.21876 20.8756 5.14172ZM15.426 19.0017C15.3045 19.0231 15.1907 19.076 15.0961 19.1551C15.0015 19.2343 14.9294 19.3369 14.8869 19.4527C14.3752 20.8588 13.4139 22.0568 12.1519 22.8608C10.8899 23.6648 9.39794 24.0299 7.90732 23.8995C6.4167 23.7691 5.01077 23.1504 3.90762 22.1394C2.80446 21.1285 2.06574 19.7818 1.80603 18.3082C1.54632 16.8346 1.78014 15.3164 2.47123 13.9893C3.16232 12.6621 4.27204 11.6001 5.62827 10.9679C6.9845 10.3358 8.51142 10.1688 9.97221 10.493C11.433 10.8172 12.746 11.6143 13.7075 12.7608C13.7867 12.8543 13.8888 12.9255 14.0039 12.9674C14.119 13.0094 14.243 13.0205 14.3638 12.9998L17.8119 12.3933L19.0513 12.1748C19.2058 12.758 19.5314 13.2815 19.986 13.6779C20.4406 14.0744 21.0035 14.3258 21.6022 14.3996C22.2009 14.4734 22.808 14.3663 23.3454 14.0921C23.8827 13.818 24.3256 13.3892 24.6172 12.8611C25.129 13.314 25.7809 13.5771 26.4636 13.6065C27.1464 13.6359 27.8184 13.4296 28.3672 13.0223C28.779 13.5624 29.3095 14.0006 29.9176 14.3029C30.5257 14.6053 31.1952 14.7638 31.8744 14.7661H33.9519C33.6509 15.1109 33.382 15.4825 33.1485 15.8761L17.8119 18.5808L15.426 19.0017ZM37.7338 32.5786V58.3598H21.3275V32.5786H37.7338ZM39.6088 19.9617C39.612 20.8761 39.359 21.7731 38.8784 22.5511C38.3979 23.329 37.7091 23.9568 36.89 24.3633L36.2497 24.6839C36.1325 24.7421 36.0339 24.8318 35.9648 24.9429C35.8958 25.054 35.8591 25.1821 35.8588 25.313V31.1723H23.2025V25.313C23.2026 25.1972 23.174 25.0832 23.1194 24.9812C23.0648 24.8791 22.9858 24.7921 22.8894 24.728L22.5819 24.5227C21.9072 24.0737 21.3541 23.4649 20.9716 22.7504C20.5892 22.036 20.3894 21.238 20.39 20.4277V19.5539L32.4622 17.4258C32.2295 18.1574 32.1103 18.9203 32.1088 19.688C32.1088 19.8745 32.1828 20.0533 32.3147 20.1852C32.4466 20.317 32.6254 20.3911 32.8119 20.3911C32.9984 20.3911 33.1772 20.317 33.3091 20.1852C33.4409 20.0533 33.515 19.8745 33.515 19.688C33.5128 18.8884 33.669 18.0964 33.9748 17.3576C34.2805 16.6189 34.7297 15.948 35.2963 15.3839L36.1203 14.5598C36.2185 14.4616 36.2853 14.3364 36.3124 14.2002C36.3395 14.064 36.3257 13.9228 36.2727 13.7944C36.2196 13.666 36.1297 13.5563 36.0144 13.4789C35.899 13.4016 35.7633 13.3602 35.6244 13.3598H31.8744C31.0666 13.3589 30.2922 13.0375 29.721 12.4663C29.1498 11.8952 28.8285 11.1208 28.8275 10.313V10.0786H37.4994C38.0586 10.0793 38.5947 10.3018 38.9901 10.6972C39.3855 11.0927 39.608 11.6288 39.6088 12.188V19.9617ZM46.7 13.8427C46.6208 13.7492 46.5187 13.6781 46.4036 13.6362C46.2885 13.5942 46.1645 13.583 46.0438 13.6036L43.1244 14.1173L41.015 14.4923V12.188C41.0138 11.5089 40.8159 10.8447 40.4452 10.2757C40.0745 9.70667 39.547 9.25724 38.9263 8.98172L38.8728 8.67891L43.1244 7.92985L44.9816 7.60266C45.103 7.58098 45.2165 7.52784 45.311 7.44855C45.4054 7.36926 45.4774 7.26659 45.5197 7.15079C45.8967 6.11261 46.5214 5.18212 47.3395 4.44003C48.1576 3.69795 49.1444 3.16669 50.2143 2.89236C51.2842 2.61802 52.4049 2.6089 53.4791 2.86577C54.5534 3.12264 55.5487 3.63775 56.3788 4.36641L52.0897 5.39766C51.9762 5.4248 51.8712 5.47982 51.7843 5.55774C51.6974 5.63566 51.6312 5.73401 51.5919 5.84391L50.315 9.40172C50.2735 9.51687 50.2629 9.64086 50.2841 9.7614C50.3053 9.88194 50.3577 9.99484 50.436 10.0889L52.8528 12.9952C52.9274 13.0848 53.0231 13.1545 53.1312 13.198C53.2394 13.2415 53.3566 13.2575 53.4725 13.2445L57.8563 12.7467C57.3256 13.7154 56.5665 14.54 55.6448 15.1488C54.7232 15.7576 53.667 16.1323 52.5677 16.2404C51.4685 16.3485 50.3594 16.1867 49.3369 15.769C48.3144 15.3513 47.4092 14.6895 46.7 13.8427Z" fill="#89368E"/>
</g>
<defs>
<clipPath id="clip0_915_1633">
<rect width="60" height="60" fill="white"/>
</clipPath>
</defs>
</svg>
