<svg width="60" height="60" viewBox="0 0 60 60" fill="none" xmlns="http://www.w3.org/2000/svg">
<g id="like">
<path id="Vector" d="M3.63281 58.2422C3.63281 59.2131 4.41971 60 5.39062 60H15.9375C17.6276 60 19.1336 59.1998 20.0995 57.9593C24.3842 59.3129 28.8318 60 33.3307 60H47.5781C50.4858 60 52.8516 57.6343 52.8516 54.7266C52.8516 54.0404 52.7184 53.3849 52.4789 52.7829C54.7165 52.1732 56.3672 50.1237 56.3672 47.6953C56.3672 46.3458 55.8568 45.1135 55.02 44.1797C55.8572 43.2458 56.3672 42.0135 56.3672 40.6641C56.3672 39.3146 55.8568 38.0823 55.02 37.1484C55.8572 36.2146 56.3672 34.9823 56.3672 33.6328C56.3672 30.7251 54.0015 28.3594 51.0938 28.3594H41.472C41.6084 28.0362 41.7494 27.7084 41.8932 27.3752C42.9597 24.9019 44.0625 22.3444 44.0625 19.5703C44.0625 14.7116 40.1326 10.6641 35.2734 10.6641C34.4357 10.6641 33.7143 11.2555 33.55 12.0772L32.6523 16.5656C31.4731 22.4606 30.1707 23.1281 25.3253 25.611C24.0445 26.2669 22.5398 27.0383 20.7838 28.0394C19.9754 26.1621 18.1078 24.8438 15.9375 24.8438H5.39062C4.41971 24.8438 3.63281 25.6306 3.63281 26.6016V58.2422ZM26.9279 28.7398C29.5518 27.3953 31.447 26.4244 32.9311 24.7806C34.4485 23.0992 35.3668 20.9189 36.0997 17.2549L36.6742 14.3811C38.8788 15.0266 40.5469 17.1419 40.5469 19.5703C40.5469 21.6183 39.5901 23.8371 38.6646 25.9831C38.329 26.7618 37.9866 27.5578 37.6817 28.3594H35.2734C34.3025 28.3594 33.5156 29.1463 33.5156 30.1172C33.5156 31.0881 34.3025 31.875 35.2734 31.875H51.0938C52.0628 31.875 52.8516 32.6637 52.8516 33.6328C52.8516 34.6019 52.0628 35.3906 51.0938 35.3906H47.5781C46.6072 35.3906 45.8203 36.1775 45.8203 37.1484C45.8203 38.1194 46.6072 38.9062 47.5781 38.9062H51.0938C52.0628 38.9062 52.8516 39.695 52.8516 40.6641C52.8516 41.6331 52.0628 42.4219 51.0938 42.4219H47.5781C46.6072 42.4219 45.8203 43.2088 45.8203 44.1797C45.8203 45.1506 46.6072 45.9375 47.5781 45.9375H51.0938C52.0628 45.9375 52.8516 46.7262 52.8516 47.6953C52.8516 48.6644 52.0628 49.4531 51.0938 49.4531H47.5781C46.6072 49.4531 45.8203 50.24 45.8203 51.2109C45.8203 52.1819 46.6072 52.9688 47.5781 52.9688C48.5472 52.9688 49.3359 53.7575 49.3359 54.7266C49.3359 55.6956 48.5472 56.4844 47.5781 56.4844H33.3307C29.2104 56.4844 25.1367 55.8582 21.2109 54.624V31.8599C23.4773 30.5086 25.3729 29.5367 26.9279 28.7398ZM7.14844 28.3594H15.9375C16.9066 28.3594 17.6953 29.1481 17.6953 30.1172V54.7266C17.6953 55.6956 16.9066 56.4844 15.9375 56.4844H7.14844V28.3594Z" fill="#89368E"/>
<path id="Vector_2" d="M14.1797 51.2109C14.1797 52.1819 13.3928 52.9688 12.4219 52.9688C11.451 52.9688 10.6641 52.1819 10.6641 51.2109C10.6641 50.24 11.451 49.4531 12.4219 49.4531C13.3928 49.4531 14.1797 50.24 14.1797 51.2109Z" fill="#89368E"/>
<path id="Vector_3" d="M35.2734 1.75781V5.39062C35.2734 6.36154 36.0603 7.14844 37.0312 7.14844C38.0022 7.14844 38.7891 6.36154 38.7891 5.39062V1.75781C38.7891 0.786896 38.0022 0 37.0312 0C36.0603 0 35.2734 0.786896 35.2734 1.75781Z" fill="#89368E"/>
<path id="Vector_4" d="M46.3351 4.66308L43.849 7.14919C43.1623 7.83584 43.1623 8.94866 43.849 9.63531C44.5356 10.3215 45.6484 10.3215 46.3351 9.63531L48.8207 7.14919C49.5074 6.46255 49.5074 5.34972 48.8207 4.66308C48.1341 3.97689 47.0213 3.97689 46.3351 4.66308Z" fill="#89368E"/>
<path id="Vector_5" d="M25.2415 4.66308C24.5549 5.34972 24.5549 6.46255 25.2415 7.14919L27.7272 9.63531C28.4138 10.3215 29.5267 10.3215 30.2133 9.63531C30.8995 8.94866 30.8995 7.83584 30.2133 7.14919L27.7272 4.66308C27.041 3.97689 25.9277 3.97689 25.2415 4.66308Z" fill="#89368E"/>
</g>
</svg>
