<svg width="60" height="60" viewBox="0 0 60 60" fill="none" xmlns="http://www.w3.org/2000/svg">
<g id="chronometer">
<g id="Group">
<path id="Vector" d="M54.306 18.5109L57.6992 15.1177L55.2133 12.6318L51.7666 16.0786C49.4384 14.1729 46.7211 12.7259 43.7536 11.877V7.70117H47.0017V4.18555H28.2007V7.70117H31.4489V11.8771C28.4815 12.7259 25.7641 14.173 23.4359 16.0787L19.9892 12.632L17.5033 15.1179L20.8964 18.511C17.3573 22.4734 15.2031 27.6979 15.2031 33.4162C15.2031 45.7666 25.2509 55.8144 37.6012 55.8144C49.9514 55.8144 59.9993 45.7666 59.9993 33.4162C59.9993 27.6978 57.8453 22.4732 54.306 18.5109ZM34.9646 7.70117H40.238V11.1724C39.373 11.0705 38.4932 11.0179 37.6013 11.0179C36.7094 11.0179 35.8295 11.0704 34.9646 11.1723V7.70117ZM37.6013 52.2987C27.1894 52.2987 18.7189 43.8281 18.7189 33.4162C18.7189 23.0043 27.1895 14.5337 37.6013 14.5337C48.0131 14.5337 56.4837 23.0043 56.4837 33.4162C56.4837 43.8281 48.0131 52.2987 37.6013 52.2987Z" fill="#89368E"/>
<path id="Vector_2" d="M37.6028 18.0488H35.845V32.6875L25.498 43.0359L26.7414 44.2788C29.6478 47.1838 33.505 48.7836 37.6028 48.7836C46.0762 48.7836 52.9696 41.8896 52.9696 33.4155C52.9696 24.9423 46.0761 18.0488 37.6028 18.0488ZM37.6028 45.2681C35.0357 45.2681 32.5904 44.4529 30.5608 42.9447L39.3606 34.1437V21.6944C45.065 22.5461 49.454 27.478 49.454 33.4156C49.454 39.9512 44.1375 45.2681 37.6028 45.2681Z" fill="#89368E"/>
<path id="Vector_3" d="M3.51562 28.1426H10.5418V31.6582H3.51562V28.1426Z" fill="#89368E"/>
<path id="Vector_4" d="M0 19.9395H13.7517V23.4551H0V19.9395Z" fill="#89368E"/>
<path id="Vector_5" d="M0 35.1738H10.5418V38.6895H0V35.1738Z" fill="#89368E"/>
<path id="Vector_6" d="M3.51562 43.377H13.7517V46.8926H3.51562V43.377Z" fill="#89368E"/>
</g>
</g>
</svg>
