<svg width="333" height="470" viewBox="0 0 333 470" fill="none" xmlns="http://www.w3.org/2000/svg">
<path d="M241.116 457.303L8.12111 402.343C4.84085 401.569 2.77115 398.448 3.44512 395.292L75.4607 58.0019C76.1347 54.8453 79.2748 52.9531 82.5551 53.7268L315.453 108.664C318.734 109.438 320.803 112.559 320.129 115.716L248.114 453.005C247.44 456.162 244.3 458.054 241.116 457.303Z" fill="#263238"/>
<path fill-rule="evenodd" clip-rule="evenodd" d="M82.4493 54.2159C79.4166 53.5005 76.5572 55.2505 75.9453 58.1165L3.9297 395.406C3.31778 398.272 5.19147 401.139 8.2242 401.854L241.219 456.814C244.15 457.505 247.013 455.762 247.626 452.891L319.642 115.601C320.254 112.735 318.38 109.869 315.348 109.153L82.4493 54.2159ZM74.9735 57.8872C75.7095 54.44 79.1304 52.4056 82.6582 53.2377L315.556 108.175C319.084 109.007 321.35 112.383 320.614 115.83L248.598 453.12C247.863 456.562 244.447 458.603 241.01 457.792L8.01534 402.832C4.48756 402 2.22186 398.624 2.95788 395.177L74.9735 57.8872Z" fill="#263238"/>
<path d="M307.439 114.965L87.4121 63.1157L17.4384 390.537L237.465 442.386L307.439 114.965Z" fill="white"/>
<path fill-rule="evenodd" clip-rule="evenodd" d="M86.9248 63.0013C86.9825 62.7312 87.2469 62.5635 87.5152 62.6267L307.542 114.476C307.81 114.539 307.981 114.809 307.923 115.079L237.949 442.5C237.892 442.771 237.627 442.938 237.359 442.875L17.3325 391.026C17.0641 390.963 16.8934 390.693 16.9511 390.423L86.9248 63.0013ZM87.7921 63.7194L18.0275 390.162L237.082 441.782L306.847 115.339L87.7921 63.7194Z" fill="#263238"/>
<path fill-rule="evenodd" clip-rule="evenodd" d="M227.275 185.044L210.853 181.159L210.986 180.167L227.409 184.051L227.275 185.044Z" fill="#263238"/>
<path fill-rule="evenodd" clip-rule="evenodd" d="M198.069 178.136L96.3604 154.079L96.4941 153.087L198.202 177.143L198.069 178.136Z" fill="#263238"/>
<path fill-rule="evenodd" clip-rule="evenodd" d="M224.249 197.827L183.286 188.139L183.42 187.146L224.382 196.835L224.249 197.827Z" fill="#263238"/>
<path fill-rule="evenodd" clip-rule="evenodd" d="M172.089 185.49L120.489 173.285L120.623 172.292L172.223 184.497L172.089 185.49Z" fill="#263238"/>
<path fill-rule="evenodd" clip-rule="evenodd" d="M110.877 171.012L93.335 166.863L93.4688 165.87L111.011 170.02L110.877 171.012Z" fill="#263238"/>
<path fill-rule="evenodd" clip-rule="evenodd" d="M221.229 210.611L141.448 191.741L141.582 190.748L221.362 209.618L221.229 210.611Z" fill="#263238"/>
<path fill-rule="evenodd" clip-rule="evenodd" d="M123.81 187.569L90.3116 179.646L90.4453 178.654L123.944 186.577L123.81 187.569Z" fill="#263238"/>
<path fill-rule="evenodd" clip-rule="evenodd" d="M257.53 190.394C250.108 190.378 244.206 196.486 244.35 204.038C244.494 211.59 250.629 217.723 258.051 217.738C265.474 217.753 271.375 211.645 271.231 204.094C271.087 196.542 264.952 190.409 257.53 190.394ZM243.358 204.036C243.203 195.93 249.539 189.37 257.511 189.387C265.482 189.403 272.068 195.989 272.223 204.096C272.378 212.202 266.042 218.761 258.071 218.745C250.099 218.729 243.513 212.142 243.358 204.036Z" fill="#263238"/>
<path fill-rule="evenodd" clip-rule="evenodd" d="M83.0293 210.006L99.5452 213.913L99.4114 214.905L82.8955 210.999L83.0293 210.006Z" fill="#263238"/>
<path fill-rule="evenodd" clip-rule="evenodd" d="M112.328 216.936L213.943 240.971L213.809 241.963L112.194 217.929L112.328 216.936Z" fill="#263238"/>
<path fill-rule="evenodd" clip-rule="evenodd" d="M80.0039 222.79L120.966 232.479L120.833 233.471L79.8701 223.783L80.0039 222.79Z" fill="#263238"/>
<path fill-rule="evenodd" clip-rule="evenodd" d="M132.166 235.127L183.766 247.332L183.632 248.325L132.032 236.12L132.166 235.127Z" fill="#263238"/>
<path fill-rule="evenodd" clip-rule="evenodd" d="M193.379 249.605L210.921 253.754L210.787 254.747L193.245 250.598L193.379 249.605Z" fill="#263238"/>
<path fill-rule="evenodd" clip-rule="evenodd" d="M76.9805 235.573L156.854 254.465L156.72 255.458L76.8467 236.566L76.9805 235.573Z" fill="#263238"/>
<path fill-rule="evenodd" clip-rule="evenodd" d="M174.398 258.615L207.897 266.538L207.763 267.531L174.265 259.608L174.398 258.615Z" fill="#263238"/>
<path fill-rule="evenodd" clip-rule="evenodd" d="M244.051 247.408C236.629 247.392 230.727 253.5 230.872 261.052C231.016 268.604 237.151 274.736 244.573 274.752C251.995 274.767 257.897 268.659 257.753 261.108C257.608 253.556 251.473 247.423 244.051 247.408ZM229.88 261.05C229.725 252.944 236.06 246.384 244.032 246.401C252.003 246.417 258.59 253.003 258.744 261.11C258.899 269.216 252.564 275.775 244.592 275.759C236.621 275.742 230.034 269.156 229.88 261.05Z" fill="#263238"/>
<path fill-rule="evenodd" clip-rule="evenodd" d="M200.327 298.976L183.904 295.092L184.037 294.099L200.459 297.983L200.327 298.976Z" fill="#263238"/>
<path fill-rule="evenodd" clip-rule="evenodd" d="M171.118 292.068L69.4102 268.012L69.543 267.019L171.251 291.075L171.118 292.068Z" fill="#263238"/>
<path fill-rule="evenodd" clip-rule="evenodd" d="M197.3 311.76L156.338 302.071L156.471 301.078L197.433 310.767L197.3 311.76Z" fill="#263238"/>
<path fill-rule="evenodd" clip-rule="evenodd" d="M145.139 299.422L93.5391 287.217L93.6719 286.225L145.272 298.429L145.139 299.422Z" fill="#263238"/>
<path fill-rule="evenodd" clip-rule="evenodd" d="M83.9288 284.945L66.3867 280.795L66.5195 279.802L84.0616 283.952L83.9288 284.945Z" fill="#263238"/>
<path fill-rule="evenodd" clip-rule="evenodd" d="M194.28 324.543L114.5 305.673L114.633 304.68L194.413 323.55L194.28 324.543Z" fill="#263238"/>
<path fill-rule="evenodd" clip-rule="evenodd" d="M96.8619 301.502L63.3633 293.579L63.4961 292.586L96.9947 300.509L96.8619 301.502Z" fill="#263238"/>
<path fill-rule="evenodd" clip-rule="evenodd" d="M223.543 306.224C217.171 310.096 215.285 318.535 219.321 325.072C223.358 331.608 231.794 333.775 238.165 329.904C244.537 326.032 246.423 317.593 242.386 311.056C238.35 304.52 229.914 302.353 223.543 306.224ZM218.483 325.581C214.148 318.562 216.178 309.508 223.008 305.358C229.838 301.208 238.89 303.527 243.225 310.547C247.56 317.566 245.53 326.619 238.7 330.77C231.87 334.92 222.818 332.601 218.483 325.581Z" fill="#263238"/>
<path d="M227.941 57.1309C226.879 56.8822 226.284 55.8651 226.481 54.936L228.643 44.7153C229.095 42.5782 227.712 40.4988 225.493 39.9788L208.513 35.9997C206.294 35.4797 204.203 36.7452 203.751 38.8823L201.609 49.0101C201.392 50.0322 200.367 50.572 199.402 50.3459C198.341 50.0972 197.392 50.7526 197.195 51.6817L191.397 79.0918L223.814 86.6883L229.593 59.3711C229.713 58.3264 229.002 57.3796 227.941 57.1309ZM213.858 52.8557C210.964 52.1775 209.12 49.4049 209.709 46.6174C210.299 43.83 213.086 42.1426 215.981 42.8208C218.875 43.4991 220.719 46.2717 220.129 49.0591C219.559 51.7537 216.752 53.534 213.858 52.8557Z" fill="#263238"/>
<path fill-rule="evenodd" clip-rule="evenodd" d="M203.267 38.7684C203.78 36.3406 206.151 34.9323 208.618 35.5103L225.598 39.4894C228.065 40.0674 229.644 42.4013 229.13 44.8291L226.968 55.0498C226.83 55.7048 227.249 56.4548 228.046 56.6415C229.333 56.9432 230.24 58.1125 230.088 59.4381C230.086 59.4539 230.084 59.4695 230.081 59.4849L224.302 86.8021C224.245 87.0724 223.981 87.2405 223.712 87.1776L191.295 79.5812C191.026 79.5183 190.855 79.2482 190.912 78.978L196.711 51.5679C196.965 50.3646 198.181 49.5458 199.507 49.8565C200.241 50.0286 200.973 49.6113 201.124 48.8962L203.267 38.7684ZM208.411 36.489C206.439 36.0271 204.629 37.1498 204.238 38.9961L202.096 49.1239C201.815 50.4529 200.495 51.1154 199.3 50.8353C198.503 50.6486 197.821 51.1406 197.683 51.7956L191.988 78.7163L223.433 86.085L229.104 59.2821C229.179 58.5265 228.666 57.8141 227.839 57.6203C226.513 57.3096 225.742 56.0254 225.996 54.8221L228.159 44.6014C228.549 42.755 227.363 40.9301 225.391 40.4681L208.411 36.489ZM215.879 43.3102C213.232 42.69 210.725 44.2345 210.197 46.7313C209.669 49.228 211.316 51.7461 213.963 52.3663C216.604 52.9852 219.135 51.3549 219.645 48.9453C220.173 46.4485 218.526 43.9304 215.879 43.3102ZM209.225 46.5035C209.876 43.4254 212.944 41.5952 216.086 42.3314C219.228 43.0677 221.268 46.0948 220.617 49.173C219.986 52.1525 216.904 54.0828 213.756 53.3451C210.614 52.6088 208.574 49.5817 209.225 46.5035Z" fill="#263238"/>
<path d="M254.466 103.191L156.003 81.3931L157.808 71.4593C158.682 66.6428 163.039 63.641 167.455 64.6186L249.663 82.8178C254.173 83.8161 257.032 88.5199 256.176 93.2359L254.372 103.17L254.466 103.191Z" fill="white"/>
<path fill-rule="evenodd" clip-rule="evenodd" d="M167.364 65.1116C163.238 64.1981 159.123 67.0017 158.293 71.567L156.579 81.0079L253.973 102.569L255.688 93.1281C256.5 88.6555 253.786 84.2435 249.573 83.3108L167.364 65.1116ZM254.91 102.986L256.662 93.3437C257.562 88.3842 254.558 83.3888 249.752 82.3247L167.543 64.1255C162.838 63.0839 158.24 66.284 157.32 71.3515L155.515 81.2853C155.466 81.5576 155.644 81.8266 155.913 81.8862L254.375 103.684C254.644 103.743 254.902 103.571 254.951 103.298C254.971 103.189 254.955 103.081 254.91 102.986Z" fill="#263238"/>
<path d="M161.79 67.3088L254.859 88.3421C253.532 85.5204 251.316 83.5065 248.606 82.894L169.179 64.9439C166.469 64.3315 163.827 65.2474 161.79 67.3088Z" fill="#263238"/>
<path fill-rule="evenodd" clip-rule="evenodd" d="M161.434 66.9329C163.561 64.7801 166.356 63.7927 169.251 64.447L248.678 82.3971C251.573 83.0513 253.913 85.1994 255.299 88.146C255.382 88.3214 255.366 88.5229 255.258 88.6687C255.151 88.8144 254.969 88.8801 254.787 88.8391L161.718 67.8058C161.536 67.7647 161.385 67.6238 161.325 67.4402C161.265 67.2566 161.307 67.061 161.434 66.9329ZM162.855 67.0363L253.939 87.6207C252.653 85.4171 250.761 83.8944 248.534 83.391L169.107 65.4409C166.879 64.9375 164.679 65.5355 162.855 67.0363Z" fill="#263238"/>
<path d="M253.766 101.897L155.73 80.092L154.643 87.0772L252.679 108.883L253.766 101.897Z" fill="white"/>
<path fill-rule="evenodd" clip-rule="evenodd" d="M155.245 79.984C155.288 79.7101 155.54 79.5365 155.809 79.5963L253.845 101.402C254.114 101.461 254.297 101.732 254.254 102.006L253.167 108.991C253.124 109.265 252.872 109.438 252.603 109.379L154.567 87.5733C154.298 87.5135 154.115 87.243 154.158 86.9691L155.245 79.984ZM156.141 80.6964L155.208 86.6898L252.27 108.279L253.203 102.285L156.141 80.6964Z" fill="#263238"/>
<path fill-rule="evenodd" clip-rule="evenodd" d="M261.777 253.237C262.628 254.682 262.176 256.526 260.768 257.356L240.1 269.539L236.534 258.316C236.027 256.72 236.885 255.038 238.451 254.559C240.016 254.081 241.697 254.986 242.204 256.582L243.453 260.515L257.686 252.125C259.094 251.295 260.926 251.793 261.777 253.237Z" fill="#D93F87"/>
<path fill-rule="evenodd" clip-rule="evenodd" d="M275.394 195.665C276.245 197.109 275.793 198.954 274.385 199.784L253.717 211.967L250.151 200.743C249.644 199.147 250.502 197.465 252.068 196.987C253.633 196.508 255.314 197.414 255.821 199.01L257.07 202.942L271.303 194.552C272.712 193.722 274.543 194.22 275.394 195.665Z" fill="#D93F87"/>
<path fill-rule="evenodd" clip-rule="evenodd" d="M240.602 128.684L224.18 124.799L224.312 123.806L240.735 127.691L240.602 128.684Z" fill="#263238"/>
<path fill-rule="evenodd" clip-rule="evenodd" d="M211.394 121.776L109.686 97.7192L109.818 96.7263L211.526 120.783L211.394 121.776Z" fill="#263238"/>
<path fill-rule="evenodd" clip-rule="evenodd" d="M237.576 141.467L196.613 131.779L196.746 130.786L237.709 140.475L237.576 141.467Z" fill="#263238"/>
<path fill-rule="evenodd" clip-rule="evenodd" d="M185.414 129.13L133.814 116.925L133.947 115.932L185.547 128.137L185.414 129.13Z" fill="#263238"/>
<path fill-rule="evenodd" clip-rule="evenodd" d="M124.204 114.652L106.662 110.503L106.795 109.51L124.337 113.659L124.204 114.652Z" fill="#263238"/>
<path fill-rule="evenodd" clip-rule="evenodd" d="M234.556 154.251L154.775 135.381L154.908 134.388L234.688 153.258L234.556 154.251Z" fill="#263238"/>
<path fill-rule="evenodd" clip-rule="evenodd" d="M137.137 131.21L103.639 123.286L103.771 122.293L137.27 130.217L137.137 131.21Z" fill="#263238"/>
<path fill-rule="evenodd" clip-rule="evenodd" d="M263.81 135.936C257.439 139.808 255.553 148.247 259.589 154.783C263.626 161.32 272.061 163.487 278.433 159.615C284.804 155.744 286.69 147.304 282.654 140.768C278.617 134.232 270.182 132.064 263.81 135.936ZM258.75 155.293C254.416 148.273 256.445 139.22 263.275 135.07C270.105 130.92 279.158 133.239 283.492 140.258C287.827 147.278 285.798 156.331 278.968 160.481C272.138 164.632 263.085 162.312 258.75 155.293Z" fill="#263238"/>
<path fill-rule="evenodd" clip-rule="evenodd" d="M288.724 139.305C289.575 140.75 289.123 142.594 287.715 143.424L267.067 155.595L263.467 144.494C262.951 142.901 263.799 141.213 265.361 140.725C266.924 140.237 268.609 141.132 269.126 142.725L270.38 146.594L284.633 138.193C286.042 137.362 287.873 137.86 288.724 139.305Z" fill="#D93F87"/>
<path fill-rule="evenodd" clip-rule="evenodd" d="M246.876 307.051C247.731 308.493 247.285 310.338 245.879 311.173L225.321 323.383L221.717 312.269C221.2 310.676 222.048 308.989 223.611 308.501C225.173 308.012 226.859 308.908 227.375 310.501L228.626 314.358L242.781 305.951C244.187 305.117 246.02 305.609 246.876 307.051Z" fill="#D93F87"/>
</svg>
