<svg width="308" height="290" viewBox="0 0 308 290" fill="none" xmlns="http://www.w3.org/2000/svg">
<path d="M242.046 414.365L9.0508 359.405C5.77054 358.631 3.70084 355.51 4.37481 352.353L76.3904 15.0637C77.0644 11.9071 80.2045 10.0148 83.4848 10.7886L316.383 65.726C319.663 66.4997 321.733 69.6209 321.059 72.7775L249.043 410.067C248.369 413.224 245.229 415.116 242.046 414.365Z" fill="#263238"/>
<path fill-rule="evenodd" clip-rule="evenodd" d="M83.379 11.2777C80.3463 10.5623 77.4869 12.3123 76.875 15.1782L4.85938 352.468C4.24747 355.334 6.12116 358.2 9.15389 358.916L242.149 413.876C245.08 414.567 247.943 412.824 248.556 409.953L320.572 72.6628C321.184 69.7968 319.31 66.9304 316.277 66.215L83.379 11.2777ZM75.9032 14.949C76.6392 11.5018 80.0601 9.46732 83.5879 10.2995L316.486 65.2368C320.014 66.069 322.28 69.4448 321.544 72.892L249.528 410.182C248.793 413.624 245.376 415.665 241.94 414.854L8.94503 359.894C5.41725 359.062 3.15155 355.686 3.88757 352.239L75.9032 14.949Z" fill="#263238"/>
<path d="M308.368 72.0264L88.3418 20.1775L18.3681 347.599L238.395 399.448L308.368 72.0264Z" fill="white"/>
<path fill-rule="evenodd" clip-rule="evenodd" d="M87.8545 20.0631C87.9122 19.7929 88.1765 19.6252 88.4449 19.6885L308.471 71.5374C308.74 71.6007 308.911 71.8709 308.853 72.141L238.879 399.562C238.821 399.832 238.557 400 238.289 399.937L18.2622 348.088C17.9938 348.025 17.8231 347.754 17.8808 347.484L87.8545 20.0631ZM88.7218 20.7811L18.9572 347.224L238.012 398.844L307.776 72.4011L88.7218 20.7811Z" fill="#263238"/>
<path fill-rule="evenodd" clip-rule="evenodd" d="M228.205 142.106L211.782 138.221L211.916 137.229L228.339 141.113L228.205 142.106Z" fill="#263238"/>
<path fill-rule="evenodd" clip-rule="evenodd" d="M198.998 135.198L97.2901 111.141L97.4238 110.148L199.132 134.205L198.998 135.198Z" fill="#263238"/>
<path fill-rule="evenodd" clip-rule="evenodd" d="M225.178 154.889L184.216 145.2L184.35 144.208L225.312 153.896L225.178 154.889Z" fill="#263238"/>
<path fill-rule="evenodd" clip-rule="evenodd" d="M173.019 142.552L121.419 130.347L121.553 129.354L173.153 141.559L173.019 142.552Z" fill="#263238"/>
<path fill-rule="evenodd" clip-rule="evenodd" d="M111.807 128.074L94.2647 123.925L94.3984 122.932L111.941 127.081L111.807 128.074Z" fill="#263238"/>
<path fill-rule="evenodd" clip-rule="evenodd" d="M222.158 167.673L142.378 148.803L142.512 147.81L222.292 166.68L222.158 167.673Z" fill="#263238"/>
<path fill-rule="evenodd" clip-rule="evenodd" d="M124.74 144.631L91.2412 136.708L91.375 135.715L124.874 143.639L124.74 144.631Z" fill="#263238"/>
<path fill-rule="evenodd" clip-rule="evenodd" d="M258.459 147.456C251.037 147.44 245.136 153.548 245.28 161.1C245.424 168.652 251.559 174.784 258.981 174.8C266.403 174.815 272.305 168.707 272.161 161.155C272.017 153.604 265.882 147.471 258.459 147.456ZM244.288 161.098C244.133 152.992 250.469 146.432 258.44 146.448C266.412 146.465 272.998 153.051 273.153 161.157C273.307 169.264 266.972 175.823 259 175.807C251.029 175.79 244.442 169.204 244.288 161.098Z" fill="#263238"/>
<path fill-rule="evenodd" clip-rule="evenodd" d="M83.959 167.068L100.475 170.975L100.341 171.967L83.8252 168.061L83.959 167.068Z" fill="#263238"/>
<path fill-rule="evenodd" clip-rule="evenodd" d="M113.258 173.998L214.873 198.033L214.739 199.025L113.124 174.991L113.258 173.998Z" fill="#263238"/>
<path fill-rule="evenodd" clip-rule="evenodd" d="M80.9336 179.852L121.896 189.54L121.762 190.533L80.7998 180.844L80.9336 179.852Z" fill="#263238"/>
<path fill-rule="evenodd" clip-rule="evenodd" d="M133.096 192.189L184.696 204.394L184.562 205.386L132.962 193.182L133.096 192.189Z" fill="#263238"/>
<path fill-rule="evenodd" clip-rule="evenodd" d="M194.309 206.667L211.851 210.816L211.717 211.809L194.175 207.66L194.309 206.667Z" fill="#263238"/>
<path fill-rule="evenodd" clip-rule="evenodd" d="M77.9102 192.635L157.784 211.527L157.65 212.52L77.7764 193.628L77.9102 192.635Z" fill="#263238"/>
<path fill-rule="evenodd" clip-rule="evenodd" d="M175.328 215.677L208.827 223.6L208.693 224.593L175.194 216.669L175.328 215.677Z" fill="#263238"/>
<path fill-rule="evenodd" clip-rule="evenodd" d="M244.981 204.47C237.559 204.454 231.657 210.562 231.801 218.114C231.945 225.665 238.081 231.798 245.503 231.814C252.925 231.829 258.826 225.721 258.682 218.169C258.538 210.618 252.403 204.485 244.981 204.47ZM230.809 218.112C230.655 210.005 236.99 203.446 244.962 203.462C252.933 203.479 259.519 210.065 259.674 218.171C259.829 226.278 253.493 232.837 245.522 232.821C237.55 232.804 230.964 226.218 230.809 218.112Z" fill="#263238"/>
<path fill-rule="evenodd" clip-rule="evenodd" d="M201.256 256.038L184.834 252.154L184.967 251.161L201.389 255.045L201.256 256.038Z" fill="#263238"/>
<path fill-rule="evenodd" clip-rule="evenodd" d="M172.048 249.13L70.3399 225.073L70.4727 224.081L172.181 248.137L172.048 249.13Z" fill="#263238"/>
<path fill-rule="evenodd" clip-rule="evenodd" d="M198.23 268.822L157.268 259.133L157.4 258.14L198.363 267.829L198.23 268.822Z" fill="#263238"/>
<path fill-rule="evenodd" clip-rule="evenodd" d="M146.069 256.484L94.4688 244.279L94.6016 243.286L146.201 255.491L146.069 256.484Z" fill="#263238"/>
<path fill-rule="evenodd" clip-rule="evenodd" d="M84.8585 242.006L67.3164 237.857L67.4492 236.864L84.9913 241.013L84.8585 242.006Z" fill="#263238"/>
<path fill-rule="evenodd" clip-rule="evenodd" d="M195.21 281.605L115.43 262.735L115.562 261.742L195.343 280.612L195.21 281.605Z" fill="#263238"/>
<path fill-rule="evenodd" clip-rule="evenodd" d="M97.7916 258.564L64.293 250.64L64.4258 249.647L97.9244 257.571L97.7916 258.564Z" fill="#263238"/>
<path fill-rule="evenodd" clip-rule="evenodd" d="M224.472 263.286C218.101 267.158 216.215 275.597 220.251 282.133C224.288 288.67 232.723 290.837 239.095 286.965C245.466 283.094 247.352 274.655 243.316 268.118C239.279 261.582 230.844 259.415 224.472 263.286ZM219.413 282.643C215.078 275.623 217.107 266.57 223.937 262.42C230.767 258.27 239.82 260.589 244.154 267.608C248.489 274.628 246.46 283.681 239.63 287.831C232.8 291.982 223.747 289.663 219.413 282.643Z" fill="#263238"/>
<path d="M228.87 14.1927C227.809 13.944 227.214 12.9269 227.411 11.9977L229.573 1.77704C230.025 -0.360023 228.642 -2.43946 226.423 -2.95945L209.442 -6.93854C207.223 -7.45854 205.133 -6.19301 204.681 -4.05595L202.538 6.07185C202.322 7.09392 201.296 7.63377 200.332 7.40768C199.27 7.15899 198.322 7.81436 198.125 8.74352L192.327 36.1536L224.744 43.7501L230.523 16.4329C230.643 15.3882 229.932 14.4414 228.87 14.1927ZM214.788 9.9175C211.893 9.23924 210.049 6.46667 210.639 3.6792C211.229 0.891733 214.016 -0.795639 216.91 -0.117385C219.805 0.560869 221.649 3.33345 221.059 6.12091C220.489 8.81547 217.682 10.5957 214.788 9.9175Z" fill="#263238"/>
<path fill-rule="evenodd" clip-rule="evenodd" d="M204.196 -4.16984C204.71 -6.5976 207.081 -8.00597 209.547 -7.42795L226.528 -3.44886C228.995 -2.87084 230.574 -0.536892 230.06 1.89087L227.898 12.1116C227.759 12.7666 228.178 13.5166 228.975 13.7033C230.263 14.005 231.17 15.1742 231.018 16.4999C231.016 16.5156 231.014 16.5312 231.01 16.5467L225.231 43.8639C225.174 44.1342 224.91 44.3023 224.642 44.2394L192.224 36.643C191.956 36.5801 191.785 36.31 191.842 36.0397L197.641 8.62963C197.895 7.42632 199.111 6.6076 200.437 6.91827C201.171 7.09035 201.903 6.67311 202.054 5.95796L204.196 -4.16984ZM209.34 -6.44919C207.369 -6.91116 205.559 -5.78847 205.168 -3.94211L203.026 6.18568C202.744 7.51467 201.425 8.17713 200.23 7.89703C199.433 7.71032 198.751 8.20235 198.612 8.85735L192.917 35.7781L224.363 43.1468L230.033 16.3439C230.108 15.5883 229.595 14.8759 228.768 14.6821C227.442 14.3714 226.672 13.0872 226.926 11.8839L229.088 1.66314C229.479 -0.183212 228.292 -2.00813 226.321 -2.4701L209.34 -6.44919ZM216.808 0.371966C214.162 -0.248263 211.655 1.29627 211.127 3.79303C210.598 6.2898 212.246 8.80786 214.893 9.42809C217.534 10.0469 220.065 8.41663 220.575 6.00702C221.103 3.51026 219.455 0.992196 216.808 0.371966ZM210.155 3.56531C210.806 0.487143 213.873 -1.34307 217.016 -0.606794C220.158 0.129485 222.198 3.15658 221.546 6.23475C220.916 9.21424 217.834 11.1445 214.686 10.4068C211.544 9.67057 209.504 6.64348 210.155 3.56531Z" fill="#263238"/>
<path d="M255.395 60.2524L156.933 38.4549L158.737 28.521C159.612 23.7046 163.969 20.7028 168.385 21.6803L250.593 39.8796C255.103 40.8779 257.962 45.5816 257.106 50.2977L255.301 60.2316L255.395 60.2524Z" fill="white"/>
<path fill-rule="evenodd" clip-rule="evenodd" d="M168.294 22.1734C164.168 21.2599 160.052 24.0634 159.223 28.6288L157.508 38.0696L254.903 59.6307L256.618 50.1899C257.43 45.7172 254.716 41.3053 250.502 40.3726L168.294 22.1734ZM255.84 60.0482L257.591 50.4055C258.492 45.446 255.488 40.4505 250.681 39.3865L168.473 21.1873C163.768 20.1457 159.17 23.3458 158.249 28.4132L156.445 38.3471C156.396 38.6194 156.574 38.8884 156.842 38.9479L255.305 60.7454C255.574 60.8049 255.832 60.6324 255.881 60.3602C255.901 60.2512 255.884 60.1428 255.84 60.0482Z" fill="#263238"/>
<path d="M162.719 24.3706L255.789 45.4039C254.462 42.5822 252.245 40.5682 249.535 39.9558L170.108 22.0057C167.399 21.3933 164.756 22.3092 162.719 24.3706Z" fill="#263238"/>
<path fill-rule="evenodd" clip-rule="evenodd" d="M162.363 23.9947C164.49 21.8419 167.286 20.8545 170.181 21.5087L249.608 39.4588C252.503 40.1131 254.843 42.2611 256.229 45.2078C256.311 45.3832 256.295 45.5847 256.188 45.7304C256.08 45.8762 255.899 45.9419 255.717 45.9009L162.647 24.8676C162.466 24.8265 162.314 24.6855 162.255 24.502C162.195 24.3184 162.237 24.1228 162.363 23.9947ZM163.785 24.0981L254.868 44.6824C253.583 42.4789 251.691 40.9562 249.463 40.4528L170.037 22.5027C167.809 21.9993 165.609 22.5973 163.785 24.0981Z" fill="#263238"/>
<path d="M254.696 58.9591L156.66 37.1538L155.573 44.139L253.608 65.9443L254.696 58.9591Z" fill="white"/>
<path fill-rule="evenodd" clip-rule="evenodd" d="M156.175 37.0457C156.217 36.7718 156.47 36.5983 156.739 36.6581L254.774 58.4634C255.043 58.5232 255.227 58.7937 255.184 59.0676L254.097 66.0528C254.054 66.3267 253.801 66.5002 253.533 66.4404L155.497 44.6351C155.228 44.5753 155.045 44.3048 155.087 44.0309L156.175 37.0457ZM157.071 37.7582L156.138 43.7515L253.2 65.3403L254.133 59.347L157.071 37.7582Z" fill="#263238"/>
<path fill-rule="evenodd" clip-rule="evenodd" d="M262.707 210.299C263.558 211.744 263.106 213.588 261.697 214.418L241.029 226.601L237.464 215.377C236.957 213.781 237.815 212.1 239.38 211.621C240.946 211.142 242.626 212.048 243.133 213.644L244.383 217.576L258.615 209.187C260.024 208.356 261.856 208.854 262.707 210.299Z" fill="#D93F87"/>
<path fill-rule="evenodd" clip-rule="evenodd" d="M276.324 152.727C277.175 154.171 276.723 156.015 275.314 156.846L254.647 169.028L251.081 157.805C250.574 156.209 251.432 154.527 252.998 154.048C254.563 153.57 256.243 154.476 256.75 156.072L258 160.004L272.233 151.614C273.641 150.784 275.473 151.282 276.324 152.727Z" fill="#D93F87"/>
<path fill-rule="evenodd" clip-rule="evenodd" d="M241.532 85.7453L225.109 81.861L225.242 80.8682L241.665 84.7525L241.532 85.7453Z" fill="#263238"/>
<path fill-rule="evenodd" clip-rule="evenodd" d="M212.323 78.8375L110.615 54.781L110.748 53.7881L212.456 77.8446L212.323 78.8375Z" fill="#263238"/>
<path fill-rule="evenodd" clip-rule="evenodd" d="M238.505 98.5292L197.543 88.8405L197.676 87.8477L238.638 97.5363L238.505 98.5292Z" fill="#263238"/>
<path fill-rule="evenodd" clip-rule="evenodd" d="M186.344 86.1914L134.744 73.9868L134.877 72.9939L186.477 85.1986L186.344 86.1914Z" fill="#263238"/>
<path fill-rule="evenodd" clip-rule="evenodd" d="M125.134 71.7138L107.592 67.5646L107.725 66.5718L125.267 70.7209L125.134 71.7138Z" fill="#263238"/>
<path fill-rule="evenodd" clip-rule="evenodd" d="M235.485 111.313L155.705 92.4426L155.838 91.4497L235.618 110.32L235.485 111.313Z" fill="#263238"/>
<path fill-rule="evenodd" clip-rule="evenodd" d="M138.067 88.2714L104.568 80.3481L104.701 79.3552L138.2 87.2785L138.067 88.2714Z" fill="#263238"/>
<path fill-rule="evenodd" clip-rule="evenodd" d="M264.74 92.9978C258.368 96.8694 256.482 105.309 260.519 111.845C264.555 118.382 272.991 120.549 279.362 116.677C285.734 112.805 287.62 104.366 283.583 97.8298C279.547 91.2933 271.111 89.1262 264.74 92.9978ZM259.68 112.355C255.345 105.335 257.375 96.2819 264.205 92.1317C271.035 87.9814 280.087 90.3006 284.422 97.3202C288.757 104.34 286.727 113.393 279.897 117.543C273.067 121.693 264.015 119.374 259.68 112.355Z" fill="#263238"/>
<path fill-rule="evenodd" clip-rule="evenodd" d="M289.654 96.3667C290.505 97.8114 290.053 99.6556 288.645 100.486L267.997 112.657L264.397 101.555C263.881 99.9623 264.728 98.275 266.291 97.7867C267.853 97.2984 269.539 98.194 270.055 99.7871L271.31 103.656L285.563 95.2543C286.971 94.424 288.803 94.9221 289.654 96.3667Z" fill="#D93F87"/>
<path fill-rule="evenodd" clip-rule="evenodd" d="M247.805 264.112C248.661 265.554 248.215 267.4 246.809 268.235L226.25 280.444L222.647 269.331C222.13 267.738 222.978 266.051 224.541 265.563C226.103 265.074 227.789 265.97 228.305 267.563L229.556 271.42L243.711 263.013C245.117 262.178 246.95 262.67 247.805 264.112Z" fill="#D93F87"/>
</svg>
