<svg width="44" height="44" viewBox="0 0 44 44" fill="none" xmlns="http://www.w3.org/2000/svg">
<g clip-path="url(#clip0_241_1858)">
<path d="M41.3747 15.8981C40.5188 15.7738 39.7021 15.458 38.9852 14.9743C38.2684 14.4906 37.6699 13.8513 37.2343 13.1042C36.7987 12.3571 36.5373 11.5214 36.4695 10.6593C36.4017 9.79711 36.5292 8.93078 36.8427 8.12477C37.0419 7.59784 37.0713 7.02176 36.9266 6.47731C36.7819 5.93285 36.4705 5.44732 36.036 5.08878C34.1176 3.47789 31.9341 2.21241 29.5827 1.34878C29.0472 1.14987 28.4627 1.12502 27.9123 1.27776C27.3619 1.43051 26.8737 1.75305 26.5173 2.19945C25.981 2.88534 25.2954 3.44008 24.5127 3.82159C23.73 4.20311 22.8707 4.40139 22 4.40139C21.1293 4.40139 20.27 4.20311 19.4873 3.82159C18.7046 3.44008 18.0191 2.88534 17.4827 2.19945C17.1263 1.75305 16.6382 1.43051 16.0878 1.27776C15.5374 1.12502 14.9528 1.14987 14.4174 1.34878C12.2462 2.14612 10.2162 3.28489 8.40403 4.72211C7.94722 5.08374 7.6182 5.58211 7.46512 6.14426C7.31205 6.70641 7.34297 7.3028 7.55336 7.84611C7.8918 8.67344 8.03163 9.56857 7.96164 10.4597C7.89164 11.3508 7.61378 12.2132 7.15032 12.9775C6.68686 13.7419 6.05072 14.3869 5.29292 14.861C4.53513 15.3351 3.67676 15.625 2.7867 15.7074C2.20884 15.7692 1.66609 16.0149 1.23835 16.4083C0.810616 16.8017 0.520493 17.3221 0.410698 17.8928C0.137602 19.2446 3.17392e-05 20.6203 3.17392e-05 21.9994C-0.00197553 23.154 0.0912292 24.3068 0.278698 25.4461C0.372 26.0351 0.656726 26.5769 1.08885 26.9878C1.52098 27.3987 2.07645 27.6559 2.66936 27.7194C3.57898 27.8048 4.45492 28.1068 5.22386 28.6002C5.9928 29.0935 6.63238 29.7639 7.08906 30.5552C7.54574 31.3465 7.80623 32.2357 7.84873 33.1483C7.89124 34.0609 7.71451 34.9704 7.33336 35.8008C7.08392 36.3408 7.02205 36.9488 7.15756 37.528C7.29308 38.1073 7.61822 38.6247 8.08136 38.9981C9.98819 40.5797 12.1507 41.8247 14.476 42.6794C14.7734 42.7824 15.0854 42.8369 15.4 42.8407C15.8315 42.8398 16.2564 42.7354 16.6392 42.5364C17.022 42.3373 17.3515 42.0494 17.6 41.6968C18.1228 40.9351 18.8235 40.3126 19.6414 39.8832C20.4593 39.4538 21.3696 39.2305 22.2933 39.2328C23.1884 39.2339 24.0708 39.444 24.8703 39.8463C25.6698 40.2486 26.3644 40.832 26.8987 41.5501C27.2541 42.0278 27.7575 42.3746 28.3305 42.5364C28.9035 42.6982 29.5139 42.666 30.0667 42.4448C32.1929 41.589 34.1723 40.4063 35.9333 38.9394C36.3757 38.5737 36.6907 38.0771 36.833 37.521C36.9753 36.9649 36.9376 36.378 36.7253 35.8448C36.3804 35.0281 36.23 34.1424 36.286 33.2576C36.342 32.3729 36.6029 31.5132 37.0481 30.7466C37.4933 29.98 38.1106 29.3273 38.8513 28.8401C39.5919 28.3529 40.4357 28.0446 41.316 27.9394C41.8868 27.8605 42.4177 27.6019 42.8317 27.2011C43.2457 26.8003 43.5213 26.278 43.6187 25.7101C43.8542 24.4868 43.9818 23.2451 44 21.9994C44.0003 20.6855 43.8775 19.3745 43.6333 18.0834C43.5343 17.528 43.2628 17.0179 42.8573 16.6256C42.4518 16.2333 41.9331 15.9788 41.3747 15.8981ZM40.7587 25.0501C39.4678 25.2387 38.2361 25.7162 37.1555 26.447C36.0748 27.1779 35.1731 28.1433 34.5175 29.2712C33.862 30.3991 33.4694 31.6604 33.3692 32.9611C33.269 34.2618 33.4636 35.5684 33.9387 36.7834C32.4843 38.0022 30.8521 38.9914 29.0987 39.7168C28.2918 38.6683 27.2542 37.8199 26.0663 37.2374C24.8785 36.6549 23.5723 36.354 22.2493 36.3581C20.8881 36.3654 19.5476 36.6917 18.3352 37.3106C17.1228 37.9295 16.0724 38.8239 15.268 39.9221C13.3687 39.1996 11.5964 38.1798 10.0174 36.9008C10.5524 35.6706 10.7926 34.3325 10.7187 32.993C10.6449 31.6536 10.259 30.35 9.59202 29.1861C8.91789 28.0094 7.97795 27.0067 6.84726 26.258C5.71658 25.5093 4.42649 25.0354 3.08003 24.8741C2.96233 23.9206 2.91332 22.9599 2.93336 21.9994C2.93374 20.8624 3.04178 19.7281 3.25603 18.6114C4.56936 18.4576 5.82996 18.0047 6.94102 17.2878C8.05208 16.5708 8.98405 15.6087 9.66536 14.4754C10.3457 13.3537 10.7603 12.0911 10.8772 10.7844C10.9942 9.47765 10.8104 8.1615 10.34 6.93678C11.8368 5.76264 13.5034 4.82301 15.2827 4.15011C16.0971 5.1445 17.1221 5.94568 18.2837 6.49581C19.4454 7.04594 20.7147 7.33131 22 7.33131C23.2853 7.33131 24.5546 7.04594 25.7163 6.49581C26.8779 5.94568 27.9029 5.1445 28.7173 4.15011C30.6507 4.88061 32.4497 5.92632 34.0413 7.24478C33.6064 8.44232 33.4404 9.7209 33.5551 10.9898C33.6697 12.2587 34.0622 13.4868 34.7047 14.587C35.3472 15.6872 36.2239 16.6326 37.2727 17.356C38.3215 18.0793 39.5166 18.5631 40.7733 18.7728C40.9641 19.8378 41.0623 20.9174 41.0667 21.9994C41.0626 23.0212 40.9793 24.0412 40.8173 25.0501H40.7587Z" fill="#89368E"/>
<path d="M22.0002 13.1995C20.2597 13.1995 18.5583 13.7156 17.1112 14.6825C15.664 15.6495 14.5361 17.0239 13.8701 18.6318C13.204 20.2398 13.0297 22.0092 13.3693 23.7162C13.7088 25.4233 14.547 26.9913 15.7777 28.222C17.0084 29.4527 18.5764 30.2908 20.2834 30.6304C21.9904 30.9699 23.7598 30.7956 25.3678 30.1296C26.9758 29.4635 28.3502 28.3356 29.3171 26.8885C30.2841 25.4413 30.8002 23.7399 30.8002 21.9995C30.8002 19.6656 29.873 17.4272 28.2227 15.7769C26.5724 14.1266 24.3341 13.1995 22.0002 13.1995ZM22.0002 27.8661C20.8399 27.8661 19.7056 27.522 18.7408 26.8774C17.7761 26.2328 17.0241 25.3165 16.5801 24.2445C16.1361 23.1725 16.0199 21.9929 16.2463 20.8549C16.4726 19.7169 17.0314 18.6716 17.8518 17.8511C18.6723 17.0306 19.7176 16.4719 20.8557 16.2455C21.9937 16.0192 23.1733 16.1353 24.2453 16.5794C25.3173 17.0234 26.2335 17.7753 26.8781 18.7401C27.5228 19.7049 27.8669 20.8391 27.8669 21.9995C27.8669 23.5554 27.2488 25.0476 26.1485 26.1478C25.0483 27.248 23.5561 27.8661 22.0002 27.8661Z" fill="#17161A"/>
</g>
<defs>
<clipPath id="clip0_241_1858">
<rect width="44" height="44" fill="white"/>
</clipPath>
</defs>
</svg>
