<svg width="44" height="44" viewBox="0 0 44 44" fill="none" xmlns="http://www.w3.org/2000/svg">
<g clip-path="url(#clip0_241_1872)">
<path d="M28.7868 0C20.5867 0 13.9154 6.67133 13.9154 14.8714C13.9154 16.6944 14.2393 18.4659 14.8788 20.1482L0.65925 34.3688C0.456008 34.5721 0.341797 34.8477 0.341797 35.1351V42.9162C0.341797 43.5148 0.827 44 1.42555 44H7.83787C8.12498 44 8.40033 43.8861 8.60357 43.6832L10.7645 41.5256C10.9681 41.3223 11.0825 41.0463 11.0825 40.7586V38.1052H13.7326C14.3311 38.1052 14.8163 37.62 14.8163 37.0214V35.9593H15.8786C16.4771 35.9593 16.9624 35.4741 16.9624 34.8755V32.5435H19.2944C19.5817 32.5435 19.8573 32.4293 20.0607 32.226L23.5086 28.7781C25.1911 29.4183 26.9629 29.7426 28.7866 29.7426C36.9867 29.7426 43.658 23.0713 43.658 14.8712C43.6581 6.67133 36.9868 0 28.7868 0ZM28.7868 27.5751C27.0128 27.5751 25.2972 27.2168 23.6873 26.5101C23.271 26.3274 22.8023 26.4279 22.4953 26.7271C22.4919 26.7303 22.4887 26.7328 22.4854 26.7362L18.8456 30.376H15.8788C15.2802 30.376 14.795 30.8612 14.795 31.4597V33.7917H13.7328C13.1343 33.7917 12.649 34.2769 12.649 34.8755V35.9377H9.99885C9.40038 35.9377 8.91509 36.4229 8.91509 37.0214V40.3092L7.38945 41.8324H2.50948V40.3009L15.756 27.0545C16.1369 26.6735 16.1369 26.056 15.756 25.6751C15.375 25.2942 14.7576 25.2941 14.3764 25.6751L2.50948 37.5421V35.5841L16.9209 21.1717C16.9241 21.1685 16.9266 21.1655 16.9296 21.1623C17.2289 20.8556 17.3298 20.3868 17.147 19.9702C16.441 18.3604 16.0831 16.6448 16.0831 14.8715C16.0831 7.86655 21.7821 2.1676 28.787 2.1676C35.792 2.1676 41.4907 7.86646 41.4907 14.8715C41.4906 21.8763 35.7915 27.5751 28.7868 27.5751Z" fill="#89368E"/>
<path d="M33.3124 6.28589C31.0739 6.28589 29.2529 8.1069 29.2529 10.3453C29.2529 12.5837 31.0739 14.4047 33.3124 14.4047C35.5508 14.4047 37.3718 12.5837 37.3718 10.3453C37.3718 8.1069 35.5509 6.28589 33.3124 6.28589ZM33.3124 12.2372C32.2692 12.2372 31.4204 11.3885 31.4204 10.3453C31.4204 9.30212 32.2692 8.4534 33.3124 8.4534C34.3556 8.4534 35.2043 9.30212 35.2043 10.3453C35.2043 11.3885 34.3556 12.2372 33.3124 12.2372Z" fill="#17161A"/>
</g>
<defs>
<clipPath id="clip0_241_1872">
<rect width="44" height="44" fill="white"/>
</clipPath>
</defs>
</svg>
