<svg width="44" height="44" viewBox="0 0 44 44" fill="none" xmlns="http://www.w3.org/2000/svg">
<g clip-path="url(#clip0_241_1896)">
<path d="M6.64854 44H37.3508C40.5693 44 43.1849 41.3844 43.1849 38.1659V9.09329C43.1849 5.87478 40.5693 3.2592 37.3508 3.2592H35.0367V1.6296C35.0367 0.733293 34.3033 0 33.407 0C32.5107 0 31.7774 0.733293 31.7774 1.6296V3.2592H12.2219V1.6296C12.2219 0.733293 11.4885 0 10.5922 0C9.69588 0 8.96259 0.733293 8.96259 1.6296V3.2592H6.64854C3.43003 3.2592 0.814453 5.87478 0.814453 9.09329V38.1659C0.814453 41.3844 3.43003 44 6.64854 44ZM4.07379 9.09329C4.07379 7.67556 5.23081 6.51853 6.64854 6.51853H8.96259V8.14813C8.96259 9.04444 9.69588 9.77773 10.5922 9.77773C11.4885 9.77773 12.2218 9.04444 12.2218 8.14813V6.51853H31.7774V8.14813C31.7774 9.04444 32.5107 9.77773 33.407 9.77773C34.3033 9.77773 35.0366 9.04444 35.0366 8.14813V6.51853H37.3506C38.7684 6.51853 39.9254 7.67556 39.9254 9.09329V13.8519H4.07379V9.09329ZM4.07379 17.1111H39.9257V38.1659C39.9257 39.5836 38.7686 40.7407 37.3509 40.7407H6.64854C5.23081 40.7407 4.07379 39.5836 4.07379 38.1659V17.1111Z" fill="#89368E"/>
<rect x="8.5" width="4" height="10" rx="1" fill="#17161A"/>
<rect x="31.5" width="4" height="10" rx="1" fill="#17161A"/>
</g>
<defs>
<clipPath id="clip0_241_1896">
<rect width="44" height="44" fill="white"/>
</clipPath>
</defs>
</svg>
