<svg width="44" height="44" viewBox="0 0 44 44" fill="none" xmlns="http://www.w3.org/2000/svg">
<path d="M43.7204 21.1442C43.3273 20.6065 33.9615 7.97803 21.9998 7.97803C10.038 7.97803 0.671861 20.6065 0.279211 21.1437C-0.0930705 21.6538 -0.0930705 22.3457 0.279211 22.8558C0.671861 23.3935 10.038 36.022 21.9998 36.022C33.9615 36.022 43.3273 23.3934 43.7204 22.8562C44.0932 22.3462 44.0932 21.6538 43.7204 21.1442ZM21.9998 33.1209C13.1887 33.1209 5.55733 24.7391 3.29829 21.999C5.55441 19.2565 13.1698 10.8791 21.9998 10.8791C30.8105 10.8791 38.4413 19.2594 40.7013 22.001C38.4452 24.7434 30.8298 33.1209 21.9998 33.1209Z" fill="#89368E"/>
<path d="M21.9997 13.2969C17.2008 13.2969 13.2964 17.2013 13.2964 22.0002C13.2964 26.7991 17.2008 30.7035 21.9997 30.7035C26.7987 30.7035 30.7031 26.7991 30.7031 22.0002C30.7031 17.2013 26.7987 13.2969 21.9997 13.2969ZM21.9997 27.8024C18.8003 27.8024 16.1976 25.1996 16.1976 22.0002C16.1976 18.8008 18.8004 16.198 21.9997 16.198C25.1991 16.198 27.8019 18.8008 27.8019 22.0002C27.8019 25.1996 25.1992 27.8024 21.9997 27.8024Z" fill="#17161A"/>
</svg>
