<svg width="44" height="44" viewBox="0 0 44 44" fill="none" xmlns="http://www.w3.org/2000/svg">
<path d="M26.5832 23.3748C25.711 23.3839 24.8475 23.1995 24.055 22.8349C23.2625 22.4704 22.5606 21.9347 21.9999 21.2665C21.435 21.9299 20.7324 22.4622 19.9408 22.8263C19.1493 23.1904 18.2879 23.3776 17.4166 23.3748C16.5443 23.3839 15.6808 23.1995 14.8883 22.8349C14.0958 22.4704 13.394 21.9347 12.8332 21.2665C12.6642 21.4693 12.4804 21.6593 12.2832 21.8348C11.666 22.3964 10.9368 22.8208 10.1436 23.0799C9.3504 23.339 8.51128 23.4271 7.68157 23.3382C6.17988 23.1531 4.79933 22.4203 3.80466 21.2801C2.80998 20.14 2.27118 18.6728 2.29157 17.1598V15.8582C2.29008 14.9239 2.43864 13.9954 2.73157 13.1082L5.60991 4.4915C5.82176 3.85158 6.22979 3.29464 6.77608 2.89973C7.32237 2.50483 7.97916 2.29201 8.65324 2.2915H35.3466C36.0207 2.29201 36.6774 2.50483 37.2237 2.89973C37.77 3.29464 38.1781 3.85158 38.3899 4.4915L41.2682 13.1082C41.5612 13.9954 41.7097 14.9239 41.7082 15.8582V17.1598C41.7297 18.6672 41.196 20.1298 40.2088 21.2691C39.2217 22.4084 37.8499 23.1448 36.3549 23.3382C35.5251 23.4294 34.6853 23.3425 33.8918 23.0833C33.0982 22.824 32.3691 22.3984 31.7532 21.8348C31.5516 21.6515 31.3499 21.4315 31.1666 21.2298C30.6044 21.899 29.9031 22.4375 29.1115 22.8079C28.32 23.1784 27.4572 23.3718 26.5832 23.3748ZM8.65324 5.0415C8.55701 5.04296 8.46347 5.07351 8.38494 5.12914C8.3064 5.18477 8.24654 5.26287 8.21324 5.35317L5.35324 13.9698C5.15462 14.561 5.04947 15.1796 5.04157 15.8032V17.1048C5.01467 17.9325 5.29313 18.7411 5.82392 19.3767C6.35471 20.0123 7.10073 20.4304 7.91991 20.5515C8.362 20.5973 8.80879 20.5507 9.23194 20.4147C9.65509 20.2788 10.0454 20.0564 10.378 19.7616C10.7107 19.4669 10.9785 19.1062 11.1645 18.7025C11.3504 18.2988 11.4504 17.8609 11.4582 17.4165C11.4582 17.0518 11.6031 16.7021 11.861 16.4442C12.1188 16.1864 12.4686 16.0415 12.8332 16.0415C13.1979 16.0415 13.5477 16.1864 13.8055 16.4442C14.0634 16.7021 14.2082 17.0518 14.2082 17.4165C14.1873 17.8434 14.2559 18.2699 14.4097 18.6687C14.5635 19.0674 14.7991 19.4296 15.1013 19.7318C15.4035 20.034 15.7656 20.2696 16.1644 20.4234C16.5632 20.5772 16.9897 20.6458 17.4166 20.6248C18.266 20.62 19.0793 20.2805 19.6799 19.6798C20.2805 19.0792 20.6201 18.2659 20.6249 17.4165C20.6249 17.0518 20.7698 16.7021 21.0276 16.4442C21.2855 16.1864 21.6352 16.0415 21.9999 16.0415C22.3646 16.0415 22.7143 16.1864 22.9722 16.4442C23.23 16.7021 23.3749 17.0518 23.3749 17.4165C23.3539 17.8434 23.4225 18.2699 23.5763 18.6687C23.7301 19.0674 23.9657 19.4296 24.268 19.7318C24.5702 20.034 24.9323 20.2696 25.3311 20.4234C25.7298 20.5772 26.1564 20.6458 26.5832 20.6248C27.4327 20.62 28.2459 20.2805 28.8466 19.6798C29.4472 19.0792 29.7868 18.2659 29.7916 17.4165C29.7916 17.0518 29.9364 16.7021 30.1943 16.4442C30.4522 16.1864 30.8019 16.0415 31.1666 16.0415C31.5312 16.0415 31.881 16.1864 32.1388 16.4442C32.3967 16.7021 32.5416 17.0518 32.5416 17.4165C32.5418 17.8656 32.6362 18.3096 32.8188 18.7198C33.0014 19.1301 33.2681 19.4974 33.6016 19.7981C33.9351 20.0988 34.328 20.3261 34.7549 20.4653C35.1819 20.6046 35.6332 20.6527 36.0799 20.6065C36.8991 20.4854 37.6451 20.0673 38.1759 19.4317C38.7067 18.7961 38.9851 17.9875 38.9582 17.1598V15.8582C38.9503 15.2346 38.8452 14.616 38.6466 14.0248L35.7866 5.40817C35.7533 5.31787 35.6934 5.23977 35.6149 5.18414C35.5363 5.12851 35.4428 5.09796 35.3466 5.0965L8.65324 5.0415Z" fill="#89368E"/>
<path d="M28.4168 41.7085H15.5835C15.2203 41.7037 14.8733 41.5574 14.6165 41.3005C14.3596 41.0437 14.2132 40.6967 14.2085 40.3335V31.1668C14.2133 30.3174 14.5529 29.5042 15.1535 28.9035C15.7542 28.3029 16.5674 27.9633 17.4168 27.9585H26.5835C27.4329 27.9633 28.2462 28.3029 28.8468 28.9035C29.4475 29.5042 29.787 30.3174 29.7918 31.1668V40.3335C29.7871 40.6967 29.6407 41.0437 29.3839 41.3005C29.127 41.5574 28.78 41.7037 28.4168 41.7085ZM16.9585 38.9585H27.0418V31.1668C27.0418 31.0453 26.9935 30.9287 26.9076 30.8427C26.8216 30.7568 26.7051 30.7085 26.5835 30.7085H17.4168C17.2953 30.7085 17.1787 30.7568 17.0927 30.8427C17.0068 30.9287 16.9585 31.0453 16.9585 31.1668V38.9585Z" fill="#17161A"/>
<path d="M36.6667 41.7083H7.33333C6.48392 41.7035 5.67066 41.3639 5.07002 40.7633C4.46938 40.1627 4.12981 39.3494 4.125 38.5V21.0467C4.125 20.682 4.26987 20.3322 4.52773 20.0744C4.78559 19.8165 5.13533 19.6717 5.5 19.6717C5.86467 19.6717 6.21441 19.8165 6.47227 20.0744C6.73013 20.3322 6.875 20.682 6.875 21.0467V38.5C6.875 38.6215 6.92329 38.7381 7.00924 38.8241C7.0952 38.91 7.21178 38.9583 7.33333 38.9583H36.6667C36.7882 38.9583 36.9048 38.91 36.9908 38.8241C37.0767 38.7381 37.125 38.6215 37.125 38.5V21.0283C37.125 20.6636 37.2699 20.3139 37.5277 20.056C37.7856 19.7982 38.1353 19.6533 38.5 19.6533C38.8647 19.6533 39.2144 19.7982 39.4723 20.056C39.7301 20.3139 39.875 20.6636 39.875 21.0283V38.5C39.8702 39.3494 39.5306 40.1627 38.93 40.7633C38.3293 41.3639 37.5161 41.7035 36.6667 41.7083Z" fill="#89368E"/>
</svg>
