<svg width="44" height="44" viewBox="0 0 44 44" fill="none" xmlns="http://www.w3.org/2000/svg">
<path d="M39.6001 7.92004C39.5973 7.7391 39.5387 7.56345 39.4324 7.417C39.3261 7.27055 39.1772 7.16043 39.0061 7.10164L22.2861 1.38164C22.1012 1.31549 21.899 1.31549 21.7141 1.38164L4.99411 7.10164C4.82297 7.16043 4.67411 7.27055 4.56782 7.417C4.46152 7.56345 4.40296 7.7391 4.40011 7.92004L4.35611 10.516C4.22411 18.5108 4.87091 24.2484 6.34051 28.0632C7.4424 30.9356 9.10404 33.5604 11.2289 35.7852C13.7708 38.3703 16.783 40.4462 20.1037 41.9012L21.6349 42.6008C21.7496 42.6531 21.8741 42.6802 22.0001 42.6802C22.1261 42.6802 22.2507 42.6531 22.3653 42.6008L23.8965 41.9012C27.2172 40.4462 30.2294 38.3703 32.7713 35.7852C34.8982 33.5595 36.5614 30.9332 37.6641 28.0588C39.1337 24.244 39.7805 18.5064 39.6485 10.5116L39.6001 7.92004ZM36.0229 27.4252C35.0047 30.0839 33.4671 32.513 31.4997 34.5708C29.1105 36.9876 26.284 38.9287 23.1705 40.2908L22.0001 40.832L20.8297 40.2996C17.7162 38.9375 14.8897 36.9964 12.5005 34.5796C10.5322 32.5192 8.99445 30.087 7.97731 27.4252C6.60011 23.826 5.97971 18.304 6.11171 10.56L6.14251 8.58004L22.0001 3.12844L37.8401 8.56244L37.8709 10.5424C38.0205 18.304 37.4001 23.826 36.0229 27.4252Z" fill="#89368E"/>
<path d="M35.1998 11.0003C35.1979 10.8186 35.1397 10.642 35.0334 10.4947C34.927 10.3474 34.7777 10.2366 34.6058 10.1775L22.2858 5.95353C22.1002 5.89179 21.8995 5.89179 21.7138 5.95353L9.39383 10.1775C9.22199 10.2366 9.07264 10.3474 8.96628 10.4947C8.85993 10.642 8.80178 10.8186 8.79983 11.0003V11.0839C8.68103 18.0623 9.23983 23.3775 10.4322 26.4575C11.3043 28.7402 12.6237 30.8256 14.313 32.5911C16.3957 34.7081 18.8626 36.409 21.5818 37.6027L21.6346 37.6247C21.7482 37.6808 21.8732 37.7094 21.9998 37.7083C22.1258 37.7084 22.2504 37.6814 22.365 37.6291L22.4178 37.6027C25.1387 36.4152 27.6086 34.7203 29.6954 32.6087C31.3847 30.8432 32.7042 28.7578 33.5762 26.4751C34.7598 23.3951 35.3362 18.0799 35.2086 11.1059L35.1998 11.0003ZM31.9218 25.8283C31.129 27.8921 29.9323 29.7769 28.4018 31.3723C26.5612 33.2472 24.391 34.7671 21.9998 35.8559C19.6022 34.7747 17.4245 33.2608 15.5758 31.3899C14.0453 29.7945 12.8486 27.9097 12.0558 25.8459C10.9998 23.0475 10.463 18.1547 10.5598 11.6603L21.9998 7.73553L33.4398 11.6603C33.5366 18.1503 32.9998 23.0475 31.9306 25.8459L31.9218 25.8283Z" fill="#89368E"/>
<path d="M26.1315 17.7452L19.8571 24.0196L17.8683 22.0308C17.7866 21.949 17.6895 21.8842 17.5827 21.8399C17.4758 21.7957 17.3614 21.7729 17.2457 21.7729C17.1301 21.7729 17.0156 21.7957 16.9088 21.8399C16.8019 21.8842 16.7049 21.949 16.6231 22.0308C16.5414 22.1126 16.4765 22.2096 16.4323 22.3164C16.388 22.4233 16.3652 22.5378 16.3652 22.6534C16.3652 22.769 16.388 22.8835 16.4323 22.9903C16.4765 23.0972 16.5414 23.1942 16.6231 23.276L19.2323 25.8852C19.3142 25.9675 19.4115 26.0329 19.5188 26.0774C19.626 26.122 19.741 26.1449 19.8571 26.1448C20.0901 26.1438 20.3132 26.0505 20.4775 25.8852L27.3767 18.9904C27.4585 18.9086 27.5233 18.8116 27.5676 18.7047C27.6118 18.5979 27.6346 18.4834 27.6346 18.3678C27.6346 18.2522 27.6118 18.1377 27.5676 18.0308C27.5233 17.924 27.4585 17.827 27.3767 17.7452C27.295 17.6634 27.1979 17.5986 27.0911 17.5543C26.9842 17.5101 26.8698 17.4873 26.7541 17.4873C26.6385 17.4873 26.524 17.5101 26.4172 17.5543C26.3103 17.5986 26.2133 17.6634 26.1315 17.7452Z" fill="#17161A"/>
</svg>
