<svg width="41" height="44" viewBox="0 0 41 44" fill="none" xmlns="http://www.w3.org/2000/svg">
<path d="M2.28593 29.4122H5.72308C6.50503 29.4122 7.14569 30.053 7.14569 30.8349V39.8556C7.14569 40.6351 6.50503 41.2759 5.72308 41.2759H2.28593C1.50389 41.2759 0.865723 40.6351 0.865723 39.8556V30.8349C0.865723 30.053 1.50389 29.4122 2.28593 29.4122Z" stroke="#89368E" stroke-width="1.73147" stroke-miterlimit="10" stroke-linecap="round" stroke-linejoin="round"/>
<path d="M7.146 30.9787H8.9341C9.61369 30.9495 9.71114 30.9519 10.4517 30.6596C13.8962 29.3003 16.7097 29.1419 20.1567 32.3868C20.5878 32.7911 20.6853 32.9056 21.3723 32.9056H26.0469C27.3209 32.9056 28.366 33.9483 28.366 35.2248C28.366 36.4988 27.3209 37.5415 26.0469 37.5415H18.4709" stroke="#89368E" stroke-width="1.73147" stroke-miterlimit="10" stroke-linecap="round" stroke-linejoin="round"/>
<path d="M28.7264 25.7285V20.3108C31.2988 19.3558 33.1453 16.871 33.1453 13.9745C33.1453 11.6627 31.9687 9.61395 30.1831 8.39346C28.3123 7.11454 28.6728 9.13648 28.6728 9.47756V13.5336C28.6728 14.9514 27.5619 16.1231 26.1661 16.2157C24.7703 16.1231 23.6571 14.9514 23.6571 13.5336V9.47756C23.6571 9.13648 24.02 7.11454 22.1467 8.39346C20.3611 9.61395 19.1846 11.6627 19.1846 13.9745C19.1846 16.871 21.031 19.3558 23.6059 20.3108V25.7285" stroke="#17161A" stroke-width="1.73147" stroke-miterlimit="10" stroke-linecap="round" stroke-linejoin="round"/>
<path d="M28.726 25.7289C30.0414 25.4341 31.2716 24.9152 32.3751 24.2161L33.1643 25.0054C33.5785 25.4219 34.2581 25.4219 34.6722 25.0054L36.7867 22.8933C37.2008 22.4792 37.2008 21.7995 36.7867 21.3854L35.9974 20.5961C36.6965 19.4901 37.213 18.2599 37.5102 16.9469H38.6234C39.2105 16.9469 39.6904 16.4646 39.6904 15.8799V12.8909C39.6904 12.3037 39.2105 11.8239 38.6234 11.8239H37.5102C37.213 10.5108 36.6965 9.28063 35.9974 8.17461L36.7867 7.38536C37.2008 6.97123 37.2008 6.29155 36.7867 5.87742L34.6722 3.76533C34.2581 3.34879 33.5785 3.34879 33.1643 3.76533L32.3751 4.55467C31.2716 3.85548 30.0414 3.33659 28.726 3.03942V1.9261C28.726 1.33906 28.2461 0.859098 27.659 0.859098H24.6725C24.0854 0.859098 23.6055 1.33906 23.6055 1.9261V3.03942C22.2901 3.33659 21.0599 3.85548 19.9539 4.55467L19.1647 3.76533C18.7505 3.34879 18.071 3.34879 17.6568 3.76533L15.5448 5.87742C15.1307 6.29155 15.1307 6.97123 15.5448 7.38536L16.3341 8.17461C15.635 9.28063 15.1161 10.5108 14.8213 11.8239H13.7057C13.1185 11.8239 12.6387 12.3037 12.6387 12.8909V15.8799C12.6387 16.4646 13.1185 16.9469 13.7057 16.9469H14.8213C15.1161 18.2599 15.635 19.4901 16.3341 20.5961L15.5448 21.3854C15.1307 21.7995 15.1307 22.4792 15.5448 22.8933L17.6568 25.0054C18.071 25.4219 18.7505 25.4219 19.1647 25.0054L19.9539 24.2161C21.0599 24.9152 22.2901 25.4341 23.6055 25.7289V26.8446C23.6055 27.4317 24.0854 27.9116 24.6725 27.9116H27.659C28.2461 27.9116 28.726 27.4317 28.726 26.8446V25.7289Z" stroke="#89368E" stroke-width="1.73147" stroke-miterlimit="10" stroke-linecap="round" stroke-linejoin="round"/>
<path d="M28.6364 40.6865L26.9384 41.8973C23.9665 43.8778 22.712 43.0982 19.5842 42.2529L10.688 39.8729C10.1545 39.7292 10.1861 39.7122 9.82312 39.7122H7.146M28.081 34.114L35.5473 30.2797C36.6435 29.717 37.9833 29.9582 38.6288 31.0057C39.2767 32.0532 38.9041 33.3735 37.9029 34.0872L34.9237 36.209M31.7837 38.4454L31.7813 38.4478" stroke="#89368E" stroke-width="1.73147" stroke-miterlimit="10" stroke-linecap="round" stroke-linejoin="round"/>
</svg>
