<svg width="44" height="44" viewBox="0 0 44 44" fill="none" xmlns="http://www.w3.org/2000/svg">
<path d="M34.8906 22C34.8906 29.1193 29.1193 34.8906 22 34.8906C14.8807 34.8906 9.10938 29.1193 9.10938 22C9.10938 14.8807 14.8807 9.10938 22 9.10938C29.1193 9.10938 34.8906 14.8807 34.8906 22Z" stroke="#17161A" stroke-width="2.57812" stroke-miterlimit="10" stroke-linecap="round" stroke-linejoin="round"/>
<path d="M28.4453 18.1328L20.7109 25.8672L15.5547 20.7109" stroke="#89368E" stroke-width="2.57812" stroke-miterlimit="10" stroke-linecap="round" stroke-linejoin="round"/>
<path d="M20.3282 1.90459C21.2917 1.08389 22.7083 1.08389 23.6718 1.90459L27.0219 4.86127L32.6911 4.42256C33.953 4.32494 35.0992 5.15759 35.3962 6.38787L36.5328 11.0952L41.4862 14.0602C42.5644 14.7229 43.0022 16.0703 42.5194 17.2401L40.5625 21.9819L42.5194 26.7237C43.0022 27.8936 42.5644 29.241 41.4862 29.9037L36.5328 32.8687L35.3962 37.576C35.0992 38.8062 33.953 39.639 32.6911 39.5413L27.0774 39.1068L23.6718 42.0954C22.7083 42.9161 21.2917 42.9161 20.3282 42.0954L16.9226 39.1068L11.3089 39.5413C10.047 39.639 8.9008 38.8062 8.6038 37.576L7.46264 32.8501L2.51762 29.9037C1.43928 29.241 1.00152 27.8936 1.4844 26.7237L3.44119 21.9819L1.4844 17.2401C1.00152 16.0703 1.43928 14.7229 2.51762 14.0602L7.0388 11.3742L8.6038 6.38787C8.9008 5.15759 10.047 4.32494 11.3089 4.42256L16.9782 4.86127L20.3282 1.90459Z" stroke="#89368E" stroke-width="2.57812" stroke-miterlimit="10" stroke-linecap="round" stroke-linejoin="round"/>
</svg>
